<svg width="100" height="80" viewBox="0 0 100 80" fill="none" xmlns="http://www.w3.org/2000/svg">
<g clip-path="url(#clip0_30_27088)">
<path d="M16.7279 52.9242C15.9275 52.6495 15.3804 52.277 14.7124 51.5533C13.3093 50.0329 13.2322 49.5791 13.2322 42.8275C13.2322 36.3221 13.3321 35.7095 14.6393 34.1819C16.472 32.0409 20.7099 32.1043 22.5196 34.2996C23.7216 35.7578 23.8192 36.407 23.8192 42.9274C23.8192 48.0879 23.7745 48.948 23.4597 49.8509C22.9771 51.2336 21.555 52.5714 20.1122 52.9999C18.7514 53.404 18.0813 53.3892 16.7279 52.924V52.9242ZM19.2159 49.7948C20.0329 49.4812 20.1238 48.7948 20.1238 42.9468C20.1238 39.215 20.0487 37.1882 19.898 36.8578C19.3927 35.7484 17.6588 35.7484 17.1534 36.8578C17.0028 37.1882 16.9277 39.215 16.9277 42.9468C16.9277 49.4718 17.011 49.8503 18.4594 49.9033C18.6977 49.9119 19.0381 49.8629 19.2159 49.7948ZM28.0904 52.8147C27.8028 52.6585 27.3981 52.1899 27.1915 51.774C26.8429 51.0724 26.8114 50.3549 26.7563 41.8787L26.6969 32.7399H30.5111V41.105C30.5111 48.2649 30.5538 49.5062 30.8081 49.7169C31.2507 50.0843 31.9699 49.8154 32.7831 48.9784L33.5074 48.2327V32.7401H37.3027V52.9154H33.5074V50.8839L32.5585 51.7262C32.0368 52.1895 31.3205 52.6915 30.9669 52.8419C30.1427 53.1921 28.761 53.1789 28.0904 52.8147ZM4.93975 47.3718L4.93676 41.8286L2.46838 33.9382L0 26.0479L2.00555 25.9905C3.17951 25.957 4.06163 26.0153 4.13314 26.1312C4.20046 26.24 4.83708 28.5352 5.54781 31.2315C6.25894 33.9278 6.88577 36.1343 6.9415 36.1347C6.99744 36.1351 7.52119 34.3154 8.10568 32.0905C8.69036 29.8658 9.30261 27.5736 9.46661 26.9967L9.76485 25.948H11.8695C13.5842 25.948 13.9545 25.9995 13.8676 26.2257C13.8091 26.3783 12.6757 29.9701 11.3493 34.2073L8.93766 41.9113V52.915H4.94255L4.93975 47.3718Z" fill="#010101"/>
<path d="M56.9051 60.6961C47.146 60.3703 44.5035 59.6757 42.7069 56.963C41.9809 55.8672 41.1661 53.4146 40.9067 51.5441C39.9958 44.9789 40.2195 31.2889 41.3144 26.5704C42.3059 22.2975 44.6377 20.2042 48.8913 19.7682C53.0698 19.3397 63.9624 19.1064 74.5575 19.2182C85.9959 19.3389 91.3811 19.5836 93.3295 20.0712C97.1408 21.0246 98.9898 23.8322 99.6344 29.6435C99.7562 30.7421 99.906 34.5778 99.9672 38.167C100.214 52.6563 99.1236 57.2657 94.9693 59.301C93.4006 60.0696 92.3745 60.2462 87.9409 60.5109C83.1256 60.7981 63.4748 60.9154 56.9051 60.6961ZM61.706 52.7985C62.0428 52.6241 62.7124 52.1186 63.1942 51.6739L64.0703 50.8669V52.9152H67.8657V32.9396H64.0703V48.1738L63.1978 49.0461C62.2613 49.9828 61.8826 50.0996 61.388 49.605C61.1127 49.3298 61.074 48.2815 61.074 41.1154V32.9394H57.2786V41.5926C57.2786 51.1384 57.3571 51.8936 58.4308 52.6951C59.1106 53.2022 60.8207 53.2562 61.706 52.7985ZM79.9736 52.734C80.3222 52.5215 80.8052 51.929 81.0723 51.3865C81.5409 50.4348 81.5503 50.3038 81.616 43.8301C81.6879 36.7324 81.5737 35.4508 80.7399 34.0121C80.2767 33.2127 79.172 32.5399 78.3221 32.5399C77.5035 32.5399 76.3305 33.0907 75.4362 33.8947L74.4578 34.7742V26.1478H70.8622V52.915H74.4578V51.0708L75.2778 51.8117C75.7288 52.219 76.3806 52.6755 76.726 52.8257C77.6535 53.2296 79.2343 53.1851 79.9736 52.734ZM75.2067 49.4756L74.4576 49.0413V36.7903L75.3441 36.3201C76.0634 35.9386 76.3365 35.8872 76.7923 36.0472C77.7773 36.3932 77.8834 37.1563 77.8151 43.3942L77.7536 48.955L77.193 49.4368C76.5069 50.0269 76.1697 50.0335 75.2067 49.4756ZM92.0361 52.6987C93.9665 51.8235 94.8358 50.3435 94.9879 47.6732L95.0877 45.9237H91.2369V47.1095C91.2369 48.5617 91.0117 49.1961 90.3406 49.636C89.5841 50.1314 88.6438 49.8166 88.1912 48.9159C87.9177 48.3723 87.8416 47.71 87.8416 45.8736L87.841 43.5265H95.0322V40.5935C95.0322 36.902 94.7436 35.7254 93.4989 34.3411C92.399 33.118 91.2207 32.631 89.4391 32.6638C87.9623 32.6907 86.9755 33.0589 85.9389 33.969C84.245 35.4566 83.9881 36.7819 84.0894 43.5267C84.1553 47.9091 84.2278 48.9768 84.5123 49.7305C84.9981 51.0173 85.8756 51.9971 87.0807 52.5978C88.4391 53.2741 90.6664 53.3197 92.0361 52.6987ZM87.8412 39.0254C87.8412 36.5408 88.4786 35.6931 90.0827 36.0454C90.8879 36.2224 91.2373 37.1237 91.2373 39.0256V40.5301H87.8414V39.0256L87.8412 39.0254ZM53.4833 41.4292V29.9433H57.8779V26.148H45.2933V29.9433H49.4882V52.9152H53.4833V41.4292Z" fill="#D02726"/>
</g>
<defs>
<clipPath id="clip0_30_27088">
<rect width="100" height="80" fill="white"/>
</clipPath>
</defs>
</svg>
