<svg width="49" height="49" viewBox="0 0 49 49" fill="none" xmlns="http://www.w3.org/2000/svg">
<g clip-path="url(#clip0_1_23603)">
<path d="M24.4996 0C10.9921 0 0 10.9899 0 24.4991C0 38.0082 10.9913 49 24.4996 49C38.0101 49 48.9991 38.0091 48.9991 24.4991C48.9991 10.9899 38.0108 0 24.4996 0ZM35.1029 19.4795L22.2717 32.3108C21.8864 32.6956 21.3787 32.8899 20.8757 32.8899C20.3688 32.8899 19.8658 32.6958 19.4792 32.3108L13.8988 26.7303C13.1273 25.9581 13.1273 24.709 13.8988 23.9376C14.6702 23.1662 15.9193 23.1662 16.6908 23.9376L20.8757 28.1239L32.3126 16.6864C33.0825 15.9158 34.3314 15.9158 35.1029 16.6864C35.8745 17.459 35.8745 18.7081 35.1029 19.4795Z" fill="#497E8D"/>
</g>
<defs>
<clipPath id="clip0_1_23603">
<rect width="49" height="49" fill="white"/>
</clipPath>
</defs>
</svg>
