<svg width="110" height="110" viewBox="0 0 110 110" fill="none" xmlns="http://www.w3.org/2000/svg">
<path d="M39.8908 104.407C39.4234 104.407 39.1429 104.314 38.769 104.127C37.0864 103.005 29.1408 97.1158 35.7777 85.4311C37.5538 82.2529 38.0212 79.729 37.3669 77.6725C36.619 75.3356 34.1886 74.4008 34.1886 74.4008C33.0669 73.9334 32.506 72.6247 32.9734 71.503C33.3473 70.5682 34.0951 70.0073 35.0299 70.0073C35.3104 70.0073 35.5908 70.1008 35.8712 70.1943C36.2451 70.1943 40.1712 71.8769 41.7603 76.0834C42.9755 79.4486 42.3212 83.3746 39.7973 87.7681C35.1234 95.9941 40.0777 99.6397 41.106 100.294C42.1342 100.855 42.5081 102.257 41.9473 103.379C41.3864 104.127 40.5451 104.407 39.8908 104.407ZM55.0341 99.4528C54.5667 99.4528 54.2863 99.3593 53.9124 99.1723C50.5472 97.2093 45.7798 91.1333 51.1081 81.5986C52.6972 78.7008 53.1646 76.3638 52.5102 74.5877C51.8559 72.5312 49.7059 71.6899 49.7059 71.6899C48.4907 71.2225 47.9298 70.0073 48.3972 68.7921C48.7711 67.8574 49.5189 67.2965 50.4537 67.2965C50.7341 67.2965 51.0146 67.39 51.295 67.4835C52.2298 67.8574 55.5015 69.353 56.8102 73.0921C57.9319 76.2703 57.371 79.916 55.0341 83.9355C50.5472 91.9746 55.9689 95.2463 56.2493 95.3398C56.7167 95.6202 57.0906 96.0876 57.2776 96.6484C57.4645 97.2093 57.3711 97.8636 57.0906 98.4245C56.5298 99.1723 55.6884 99.4528 55.0341 99.4528ZM23.9996 99.4528C23.5322 99.4528 23.2518 99.3593 22.8778 99.1723C19.5127 97.2093 14.7453 91.1333 20.0735 81.5986C21.6626 78.7008 22.13 76.3638 21.4757 74.5877C20.8213 72.5312 18.6714 71.6899 18.6714 71.6899C17.4562 71.2225 16.8953 70.0073 17.3627 68.7921C17.7366 67.8574 18.4844 67.2965 19.4192 67.2965C19.6996 67.2965 19.98 67.39 20.2605 67.4835C21.1953 67.8574 24.467 69.4465 25.7757 73.0921C26.8974 76.2703 26.243 79.916 23.9996 84.029C19.5127 92.068 24.9344 95.3397 25.2148 95.4332C25.6822 95.7137 26.0561 96.181 26.243 96.7419C26.43 97.3028 26.3365 97.9571 26.0561 98.518C25.5887 99.1723 24.6539 99.4528 23.9996 99.4528ZM80.9274 91.1333C80.1796 91.1333 79.6187 90.8528 79.1513 90.3854C78.6839 89.9181 78.4035 89.2637 78.4035 88.6094C78.4035 87.5811 79.0578 86.6463 79.9926 86.179H80.0861V81.1312L75.3187 83.842V83.9355C75.3187 84.6833 75.0383 85.6181 74.1035 86.0855C73.7296 86.3659 73.2622 86.4594 72.7948 86.4594C71.8601 86.4594 71.0188 85.992 70.6449 85.2442C70.2709 84.5898 70.1775 83.9355 70.3644 83.2812C70.5514 82.6268 70.9253 82.0659 71.5796 81.7855C71.9535 81.5051 72.4209 81.4116 72.7948 81.4116C73.2622 81.4116 73.7296 81.5051 74.1035 81.7855L78.4035 79.3551L74.197 76.9247C73.6361 77.1116 73.1687 77.2051 72.7948 77.2051C72.3274 77.2051 71.9535 77.1116 71.5796 76.9247C70.4579 76.1769 69.9905 74.5877 70.6449 73.466C71.1122 72.7182 71.9535 72.2508 72.8883 72.2508C73.3557 72.2508 73.8231 72.3443 74.197 72.6247C74.9448 73.0921 75.4122 73.8399 75.4122 74.7747V74.8682L80.1796 77.579V72.5312H80.0861C79.1513 72.0639 78.497 71.1291 78.497 70.1008C78.497 68.6987 79.6187 67.5769 81.0209 67.5769C81.7687 67.5769 82.423 67.8574 82.8904 68.3247C83.3578 68.7921 83.6382 69.4465 83.6382 70.1008C83.6382 70.9421 83.1708 71.7834 82.3295 72.2508H82.0491V77.1116L86.1621 74.7747V74.6812C86.1621 73.9334 86.4425 72.9986 87.3773 72.5312C87.7512 72.2508 88.2186 72.1573 88.686 72.1573C89.6208 72.1573 90.4621 72.6247 90.836 73.3725C91.2099 74.0269 91.3034 74.6812 91.1164 75.3356C90.9295 75.9899 90.5556 76.5508 89.9012 76.8312C89.5273 77.1116 89.0599 77.2051 88.686 77.2051C88.2186 77.2051 87.7512 77.1116 87.3773 76.8312L83.0774 79.2616L87.2838 81.692C87.8447 81.5051 88.3121 81.4116 88.686 81.4116C89.1534 81.4116 89.5273 81.5051 89.9012 81.692C91.0229 82.4399 91.4903 84.029 90.836 85.1507C90.3686 85.8985 89.5273 86.3659 88.5925 86.3659C88.1251 86.3659 87.6578 86.2724 87.2838 85.992C86.536 85.5246 86.0686 84.7768 86.0686 83.842V83.7485L82.0491 81.5051V86.3659H82.1426C82.9839 86.7398 83.4513 87.5811 83.4513 88.5159C83.4513 90.0115 82.3295 91.1333 80.9274 91.1333ZM12.8758 61.5944C5.77146 61.5944 0.0693359 55.8923 0.0693359 48.788V18.3143C0.0693359 11.21 5.77146 5.50787 12.8758 5.50787H97.1925C104.297 5.50787 109.999 11.21 109.999 18.3143V48.788C109.999 55.8923 104.297 61.5944 97.1925 61.5944H12.8758ZM11.5671 11.1165C8.20188 11.1165 5.49103 13.9208 5.49103 17.473V50.0032C5.49103 53.4618 8.20188 56.3596 11.5671 56.3596H98.4077C101.773 56.3596 104.484 53.5553 104.484 50.0032V17.473C104.484 14.0143 101.773 11.1165 98.4077 11.1165H11.5671ZM14.091 47.5728C12.8758 47.5728 11.8475 46.5445 11.8475 45.3293C11.8475 44.1141 12.8758 43.0858 14.091 43.0858H93.8273C95.0425 43.0858 96.0707 44.1141 96.0707 45.3293C96.0707 46.5445 95.0425 47.5728 93.8273 47.5728H14.091ZM14.091 38.1315C12.8758 38.1315 11.8475 37.1033 11.8475 35.8881C11.8475 34.6729 12.8758 33.6446 14.091 33.6446H93.8273C95.0425 33.6446 96.0707 34.6729 96.0707 35.8881C96.0707 37.1033 95.0425 38.1315 93.8273 38.1315H14.091Z" fill="#345275"/>
</svg>
