<svg width="110" height="110" viewBox="0 0 110 110" fill="none" xmlns="http://www.w3.org/2000/svg">
<g clip-path="url(#clip0_1_23615)">
<g filter="url(#filter0_dd_1_23615)">
<path d="M55 45.8334V42.1667H43.8167C42.9 35.9334 37.5833 31.1667 31.1667 31.1667H12.8333C5.68333 31.1667 0 36.85 0 44V69.6667H3.66667V44C3.66667 38.8667 7.7 34.8334 12.8333 34.8334H14.6667V49.5H12.8333V45.8334H9.16667V108.167C9.16667 109.267 9.9 110 11 110H22H33C34.1 110 34.8333 109.267 34.8333 108.167V45.8334H31.1667V49.5H29.3333V34.8334H31.1667C36.3 34.8334 40.3333 38.8667 40.3333 44C40.3333 45.1 41.0667 45.8334 42.1667 45.8334H55ZM31.1667 106.333H23.8333V73.3334H27.5V69.6667H16.5V73.3334H20.1667V106.333H12.8333V53.1667H31.1667V106.333ZM25.6667 49.5H18.3333V34.8334H25.6667V49.5Z" fill="#345275"/>
<path d="M11.0002 20.1667C11.0002 25.3 15.0335 29.3333 20.1668 29.3333H23.8335C28.9668 29.3333 33.0002 25.3 33.0002 20.1667V16.5H36.6668V12.8333H33.0002V9.16667C33.0002 4.03333 28.9668 0 23.8335 0H20.1668C15.0335 0 11.0002 4.03333 11.0002 9.16667V12.8333H7.3335V16.5H11.0002V20.1667ZM29.3335 20.1667C29.3335 23.2833 26.9502 25.6667 23.8335 25.6667H20.1668C17.0502 25.6667 14.6668 23.2833 14.6668 20.1667V16.5H29.3335V20.1667ZM14.6668 9.16667C14.6668 6.05 17.0502 3.66667 20.1668 3.66667V9.16667H23.8335V3.66667C26.9502 3.66667 29.3335 6.05 29.3335 9.16667V12.8333H14.6668V9.16667Z" fill="#345275"/>
<path d="M20.1667 58.6667H16.5V62.3334H20.1667V58.6667Z" fill="#345275"/>
<path d="M27.5002 58.6667H23.8335V62.3334H27.5002V58.6667Z" fill="#345275"/>
<path d="M108.167 36.6667H89.8333H78.8333H60.5C59.4 36.6667 58.6667 37.4 58.6667 38.5V77H56.8333H45.8333C44.7333 77 44 77.7334 44 78.8334V108.167C44 109.267 44.7333 110 45.8333 110H75.1667H108.167C109.267 110 110 109.267 110 108.167V78.8334V38.5C110 37.4 109.267 36.6667 108.167 36.6667ZM88 40.3334V51.3334H80.6667V40.3334H88ZM62.3333 40.3334H77V53.1667C77 54.2667 77.7333 55 78.8333 55H89.8333C90.9333 55 91.6667 54.2667 91.6667 53.1667V40.3334H106.333V77H95.3333H88H75.1667H64.1667H62.3333V40.3334ZM89.8333 80.6667H93.5V88H89.8333V80.6667ZM60.5 80.6667H62.3333V88H58.6667V80.6667H60.5ZM47.6667 80.6667H55V89.8334C55 90.9334 55.7333 91.6667 56.8333 91.6667H64.1667C65.2667 91.6667 66 90.9334 66 89.8334V80.6667H73.3333V106.333H47.6667V80.6667ZM106.333 106.333H77V80.6667H86.1667V89.8334C86.1667 90.9334 86.9 91.6667 88 91.6667H95.3333C96.4333 91.6667 97.1667 90.9334 97.1667 89.8334V80.6667H106.333V106.333Z" fill="#345275"/>
<path d="M54.9998 51.3333H42.1665V55H54.9998V51.3333Z" fill="#345275"/>
<path d="M55.0002 97.1667H51.3335V100.833H55.0002V97.1667Z" fill="#345275"/>
<path d="M62.3337 97.1667H58.667V100.833H62.3337V97.1667Z" fill="#345275"/>
<path d="M84.3337 97.1667H80.667V100.833H84.3337V97.1667Z" fill="#345275"/>
<path d="M91.6667 97.1667H88V100.833H91.6667V97.1667Z" fill="#345275"/>
<path d="M75.1663 62.3333H67.833V66H75.1663V62.3333Z" fill="#345275"/>
<path d="M82.4997 69.6667H67.833V73.3334H82.4997V69.6667Z" fill="#345275"/>
</g>
</g>
<defs>
<filter id="filter0_dd_1_23615" x="-4" y="-3" width="118" height="118" filterUnits="userSpaceOnUse" color-interpolation-filters="sRGB">
<feFlood flood-opacity="0" result="BackgroundImageFix"/>
<feColorMatrix in="SourceAlpha" type="matrix" values="0 0 0 0 0 0 0 0 0 0 0 0 0 0 0 0 0 0 127 0" result="hardAlpha"/>
<feMorphology radius="1" operator="dilate" in="SourceAlpha" result="effect1_dropShadow_1_23615"/>
<feOffset dy="1"/>
<feGaussianBlur stdDeviation="1.5"/>
<feColorMatrix type="matrix" values="0 0 0 0 0 0 0 0 0 0 0 0 0 0 0 0 0 0 0.15 0"/>
<feBlend mode="normal" in2="BackgroundImageFix" result="effect1_dropShadow_1_23615"/>
<feColorMatrix in="SourceAlpha" type="matrix" values="0 0 0 0 0 0 0 0 0 0 0 0 0 0 0 0 0 0 127 0" result="hardAlpha"/>
<feOffset dy="1"/>
<feGaussianBlur stdDeviation="1"/>
<feColorMatrix type="matrix" values="0 0 0 0 0 0 0 0 0 0 0 0 0 0 0 0 0 0 0.3 0"/>
<feBlend mode="normal" in2="effect1_dropShadow_1_23615" result="effect2_dropShadow_1_23615"/>
<feBlend mode="normal" in="SourceGraphic" in2="effect2_dropShadow_1_23615" result="shape"/>
</filter>
<clipPath id="clip0_1_23615">
<rect width="110" height="110" fill="white"/>
</clipPath>
</defs>
</svg>
