<svg width="110" height="118" viewBox="0 0 110 118" fill="none" xmlns="http://www.w3.org/2000/svg">
<g filter="url(#filter0_dd_1_23634)">
<path d="M82.4998 25C81.4878 25 80.6665 25.8213 80.6665 26.8333V45.1665C80.6665 46.1784 81.4878 46.9998 82.4998 46.9998C83.5117 46.9998 84.333 46.1784 84.333 45.1665V26.8333C84.333 25.8213 83.5117 25 82.4998 25Z" fill="#345275"/>
<path d="M71.5 26.8333V45.1665C71.5 46.1784 72.3214 46.9998 73.3333 46.9998C74.3452 46.9998 75.1665 46.1784 75.1665 45.1665V26.8333C75.1665 25.8213 74.3452 25 73.3333 25C72.3214 25 71.5 25.8213 71.5 26.8333Z" fill="#345275"/>
<path d="M64.1665 47C65.1784 47 65.9997 46.1787 65.9997 45.1667V20.0262L73.333 8.2929L79.1924 17.6667H71.4997C70.4878 17.6667 69.6665 18.4881 69.6665 19.5C69.6665 20.5119 70.4878 21.3333 71.4997 21.3333H82.4997C83.1671 21.3333 83.7794 20.9721 84.104 20.389C84.4267 19.8059 84.4084 19.0929 84.0546 18.5283L74.8878 3.86175C74.2169 2.78925 72.4496 2.78925 71.7786 3.86175L62.6117 18.5283C62.4301 18.8198 62.333 19.1552 62.333 19.5V45.1667C62.333 46.1787 63.1544 47 64.1665 47Z" fill="#345275"/>
<path d="M91.6667 50.6667H18.3332C16.3111 50.6667 14.6665 52.3112 14.6665 54.3335V61.6667C14.6665 63.6889 16.3109 65.3335 18.3332 65.3335V103.833C18.3332 108.888 22.4456 113 27.5 113H82.5C87.5544 113 91.6667 108.888 91.6667 103.833V70.8333C91.6667 69.8214 90.8454 69 89.8335 69C88.8215 69 88.0002 69.8214 88.0002 70.8333V103.833C88.0002 106.866 85.5325 109.333 82.5002 109.333H27.5C24.4677 109.333 22 106.866 22 103.833V63.5C22 62.4881 21.1786 61.6667 20.1667 61.6667H18.3335V54.3335H91.6667V61.6667H27.5C26.4881 61.6667 25.6667 62.4881 25.6667 63.5C25.6667 64.5119 26.4881 65.3333 27.5 65.3333H91.6667C93.6888 65.3333 95.3335 63.6889 95.3335 61.6665V54.3333C95.3332 52.3112 93.6888 50.6667 91.6667 50.6667Z" fill="#345275"/>
<path d="M78.8333 91C77.8214 91 77 91.8213 77 92.8333V96.5C77 97.5119 77.8214 98.3333 78.8333 98.3333C79.8452 98.3333 80.6665 97.5119 80.6665 96.5V92.8333C80.6667 91.8213 79.8454 91 78.8333 91Z" fill="#345275"/>
<path d="M27.4998 47H31.1665C32.1784 47 32.9998 46.1787 32.9998 45.1667C32.9998 44.1548 32.1784 43.3335 31.1665 43.3335H29.3332V39.6667H38.4998C39.5117 39.6667 40.333 38.8454 40.333 37.8335C40.333 36.8216 39.5117 36.0002 38.4998 36.0002H29.333V32.3335H31.1663C32.1782 32.3335 32.9996 31.5121 32.9996 30.5002C32.9996 29.4883 32.1782 28.667 31.1663 28.667H29.333V25H31.1663C32.1782 25 32.9996 24.1787 32.9996 23.1667C32.9996 22.1548 32.1782 21.3335 31.1663 21.3335H29.333V17.6667H38.4998C39.5117 17.6667 40.333 16.8454 40.333 15.8335C40.333 14.8216 39.5117 14 38.4998 14H29.333V6.66674H51.333V45.1667C51.333 46.1787 52.1544 47 53.1663 47C54.1782 47 54.9995 46.1787 54.9995 45.1667V4.83326C54.9998 3.82135 54.1784 3 53.1665 3H27.4998C26.4879 3 25.6665 3.82135 25.6665 4.83326V45.1665C25.6665 46.1787 26.4879 47 27.4998 47Z" fill="#345275"/>
<path d="M80.6665 70.8333C80.6665 69.8213 79.8452 69 78.8333 69C77.8213 69 77 69.8213 77 70.8333V85.5C77 86.5119 77.8213 87.3333 78.8333 87.3333C79.8452 87.3333 80.6665 86.5119 80.6665 85.5V70.8333Z" fill="#345275"/>
</g>
<defs>
<filter id="filter0_dd_1_23634" x="-4" y="0" width="118" height="118" filterUnits="userSpaceOnUse" color-interpolation-filters="sRGB">
<feFlood flood-opacity="0" result="BackgroundImageFix"/>
<feColorMatrix in="SourceAlpha" type="matrix" values="0 0 0 0 0 0 0 0 0 0 0 0 0 0 0 0 0 0 127 0" result="hardAlpha"/>
<feMorphology radius="1" operator="dilate" in="SourceAlpha" result="effect1_dropShadow_1_23634"/>
<feOffset dy="1"/>
<feGaussianBlur stdDeviation="1.5"/>
<feColorMatrix type="matrix" values="0 0 0 0 0 0 0 0 0 0 0 0 0 0 0 0 0 0 0.15 0"/>
<feBlend mode="normal" in2="BackgroundImageFix" result="effect1_dropShadow_1_23634"/>
<feColorMatrix in="SourceAlpha" type="matrix" values="0 0 0 0 0 0 0 0 0 0 0 0 0 0 0 0 0 0 127 0" result="hardAlpha"/>
<feOffset dy="1"/>
<feGaussianBlur stdDeviation="1"/>
<feColorMatrix type="matrix" values="0 0 0 0 0 0 0 0 0 0 0 0 0 0 0 0 0 0 0.3 0"/>
<feBlend mode="normal" in2="effect1_dropShadow_1_23634" result="effect2_dropShadow_1_23634"/>
<feBlend mode="normal" in="SourceGraphic" in2="effect2_dropShadow_1_23634" result="shape"/>
</filter>
</defs>
</svg>
