<svg width="110" height="118" viewBox="0 0 110 118" fill="none" xmlns="http://www.w3.org/2000/svg">
<g clip-path="url(#clip0_1_23632)" filter="url(#filter0_dd_1_23632)">
<path d="M101.508 70.0452C100.209 70.0452 99.1573 71.0973 99.1573 72.3956V101.578H79.7542V65.5356C79.7542 65.5346 79.7542 65.5334 79.7542 65.5325V61.0194H101.508C102.806 61.0194 103.858 59.9673 103.858 58.6689C103.858 57.3706 102.806 56.3185 101.508 56.3185H77.4038C76.1054 56.3185 75.0534 57.3706 75.0534 58.6689V59.8595L60.0856 44.8918C57.8042 42.6103 54.4757 42.0011 51.633 43.0597C56.5227 38.3805 59.2793 31.9924 59.2793 25.1443C59.2793 16.0307 54.3033 7.65507 46.2931 3.28708C45.5655 2.8897 44.6811 2.90631 43.9678 3.32938C43.2548 3.75308 42.8174 4.5212 42.8174 5.35042V26.2731H25.9759V5.35011C25.9759 4.52088 25.5384 3.75246 24.8255 3.32907C24.1125 2.90568 23.2284 2.89002 22.5001 3.28645C14.4899 7.65507 9.51397 16.0304 9.51397 25.1443C9.51397 32.544 12.7312 39.4091 18.3825 44.1588V50.2827H14.1355C9.7277 50.2827 6.1416 53.8685 6.1416 58.2766V58.3907C6.1416 60.5913 7.0357 62.5872 8.47947 64.0341C7.0357 65.4811 6.1416 67.4767 6.1416 69.6776V69.7917C6.1416 71.9923 7.0357 73.9883 8.47947 75.4352C7.0357 76.8821 6.1416 78.8777 6.1416 81.0787V81.1927C6.1416 83.3933 7.0357 85.3893 8.47947 86.8362C7.0357 88.2831 6.1416 90.2788 6.1416 92.4797V92.5935C6.1416 97.0013 9.72738 100.588 14.1355 100.588H18.7623C20.3584 107.758 26.7797 113 34.26 113H34.5333C42.0981 113 48.4398 107.681 50.0256 100.588H68.789C70.0874 100.588 71.1395 99.5356 71.1395 98.2373C71.1395 96.9389 70.0874 95.8869 68.789 95.8869H50.4107V76.4901C50.4107 75.1917 49.3587 74.1396 48.0603 74.1396C46.762 74.1396 45.7099 75.1917 45.7099 76.4901V97.1229C45.7099 103.286 40.696 108.3 34.5333 108.3H34.26C29.3567 108.3 25.1 105.101 23.6308 100.588H27.3304C31.7382 100.588 35.3243 97.0016 35.3243 92.5935V92.4797C35.3243 90.2791 34.4302 88.2831 32.9864 86.8362C34.4302 85.3893 35.3243 83.3937 35.3243 81.1927V81.0787C35.3243 78.8781 34.4302 76.8821 32.9864 75.4352C34.4302 73.9883 35.3243 71.9926 35.3243 69.7917V69.6776C35.3243 67.477 34.4302 65.4811 32.9864 64.0341C34.4302 62.5872 35.3243 60.5916 35.3243 58.3907V58.2766C35.3243 53.8688 31.7385 50.2827 27.3304 50.2827H23.0833V43.0315C23.0833 42.2998 22.7424 41.6097 22.1614 41.165C17.1114 37.3009 14.2151 31.4616 14.2151 25.1443C14.2151 19.178 16.8444 13.6022 21.2754 9.8093V28.6232C21.2754 29.9216 22.3274 30.9736 23.6258 30.9736H45.1681C46.4664 30.9736 47.5185 29.9216 47.5185 28.6232V9.8093C51.9489 13.6022 54.5785 19.1783 54.5785 25.1443C54.5785 31.4619 51.6822 37.3012 46.6322 41.1647C46.0512 41.6097 45.7102 42.2998 45.7102 43.0315V47.9621L39.4506 54.2217C37.941 55.7316 37.109 57.7394 37.109 59.8745C37.109 62.0097 37.9407 64.0172 39.4506 65.5271L39.5312 65.6077C41.09 67.1661 43.1367 67.9452 45.1838 67.9452C47.2305 67.9449 49.2778 67.1658 50.836 65.6077L55.5155 60.9285C56.4337 60.0106 56.4337 58.5223 55.5158 57.6047C54.5979 56.6865 53.1096 56.6868 52.192 57.6044L47.5122 62.2836C46.2286 63.5678 44.1389 63.5678 42.8556 62.2836L42.7751 62.203C42.153 61.5813 41.8101 60.7542 41.8101 59.8745C41.8101 58.9946 42.153 58.1678 42.7751 57.5458L52.1049 48.2159C53.3889 46.9313 55.4779 46.9316 56.7587 48.2125C56.7597 48.2134 56.7606 48.2146 56.7615 48.2156L75.0534 66.5077V103.928C75.0534 105.227 76.1054 106.279 77.4038 106.279H101.508C102.806 106.279 103.858 105.227 103.858 103.928V72.3953C103.858 71.0973 102.806 70.0452 101.508 70.0452ZM30.6231 69.6773V69.7914C30.6231 71.6072 29.1458 73.0845 27.3301 73.0845H14.1355C12.3197 73.0845 10.8424 71.6072 10.8424 69.7914V69.6773C10.8424 67.8615 12.3197 66.3842 14.1355 66.3842H27.3304C29.1461 66.3842 30.6231 67.8615 30.6231 69.6773ZM30.6231 81.0784V81.1924C30.6231 83.0082 29.1458 84.4855 27.3301 84.4855H14.1355C12.3197 84.4855 10.8424 83.0082 10.8424 81.1924V81.0784C10.8424 79.2626 12.3197 77.7853 14.1355 77.7853H27.3304C29.1461 77.7853 30.6231 79.2626 30.6231 81.0784ZM30.6231 92.5932C30.6231 94.4092 29.1458 95.8866 27.3301 95.8866H14.1355C12.3197 95.8866 10.8424 94.4092 10.8424 92.5932V92.4794C10.8424 90.6636 12.3197 89.1863 14.1355 89.1863H27.3304C29.1461 89.1863 30.6234 90.6636 30.6234 92.4794L30.6231 92.5932ZM30.6231 58.2763V58.3903C30.6231 60.2061 29.1458 61.6834 27.3301 61.6834H14.1355C12.3197 61.6834 10.8424 60.2061 10.8424 58.3903V58.2763C10.8424 56.4605 12.3197 54.9832 14.1355 54.9832H27.3304C29.1461 54.9832 30.6231 56.4605 30.6231 58.2763Z" fill="#345275"/>
</g>
<defs>
<filter id="filter0_dd_1_23632" x="-4" y="0" width="118" height="118" filterUnits="userSpaceOnUse" color-interpolation-filters="sRGB">
<feFlood flood-opacity="0" result="BackgroundImageFix"/>
<feColorMatrix in="SourceAlpha" type="matrix" values="0 0 0 0 0 0 0 0 0 0 0 0 0 0 0 0 0 0 127 0" result="hardAlpha"/>
<feMorphology radius="1" operator="dilate" in="SourceAlpha" result="effect1_dropShadow_1_23632"/>
<feOffset dy="1"/>
<feGaussianBlur stdDeviation="1.5"/>
<feColorMatrix type="matrix" values="0 0 0 0 0 0 0 0 0 0 0 0 0 0 0 0 0 0 0.15 0"/>
<feBlend mode="normal" in2="BackgroundImageFix" result="effect1_dropShadow_1_23632"/>
<feColorMatrix in="SourceAlpha" type="matrix" values="0 0 0 0 0 0 0 0 0 0 0 0 0 0 0 0 0 0 127 0" result="hardAlpha"/>
<feOffset dy="1"/>
<feGaussianBlur stdDeviation="1"/>
<feColorMatrix type="matrix" values="0 0 0 0 0 0 0 0 0 0 0 0 0 0 0 0 0 0 0.3 0"/>
<feBlend mode="normal" in2="effect1_dropShadow_1_23632" result="effect2_dropShadow_1_23632"/>
<feBlend mode="normal" in="SourceGraphic" in2="effect2_dropShadow_1_23632" result="shape"/>
</filter>
<clipPath id="clip0_1_23632">
<rect width="110" height="110" fill="white" transform="translate(0 3)"/>
</clipPath>
</defs>
</svg>
