<svg width="176" height="206" viewBox="0 0 176 206" fill="none" xmlns="http://www.w3.org/2000/svg">
<path d="M124.329 2.22227L203.782 81.6696C203.486 80.2687 203.159 78.8684 202.805 77.477L128.525 3.19835C127.129 2.84502 125.733 2.51805 124.329 2.22227ZM69.1575 5.68973C68.3664 5.96338 67.5802 6.2506 66.7936 6.54187L199.457 139.208C199.753 138.421 200.036 137.635 200.31 136.844L69.1575 5.68973ZM103.11 1.43499e-09C102.574 1.42753e-09 102.037 0.00447167 101.5 0.0136061L205.99 104.501C206.004 103.428 206.004 102.355 205.986 101.282L104.721 0.0136061C104.183 0.00447167 103.647 1.44247e-09 103.11 1.43499e-09ZM85.5625 1.475C84.6568 1.63059 83.7514 1.79792 82.8462 1.97931L204.025 123.151C204.201 122.249 204.373 121.344 204.528 120.439L85.5625 1.475ZM16.9938 159.725C20.7571 165.419 25.1483 170.821 30.161 175.834C35.1751 180.852 40.5817 185.239 46.2757 189.002L16.9938 159.725ZM0.00939112 101.502C-0.00379431 102.576 -0.00379431 103.649 0.0138627 104.722L101.279 205.986C101.856 205.996 102.433 206 103.011 206C103.507 206 104.003 205.997 104.499 205.991L0.00939112 101.502ZM30.9784 29.3699L30.161 30.1646L29.3667 30.9779L175.025 176.629L175.838 175.834L176.633 175.022L30.9784 29.3699ZM2.21812 124.33C2.51436 125.735 2.84097 127.131 3.19415 128.522L77.4794 202.801C78.8708 203.159 80.2662 203.486 81.6715 203.777L2.21812 124.33ZM1.97467 82.8483C1.79875 83.7498 1.62547 84.6553 1.47133 85.561L120.441 204.524C121.347 204.369 122.247 204.202 123.153 204.02L1.97467 82.8483ZM54.7924 11.9444C54.0945 12.3153 53.4011 12.6911 52.7068 13.0801L192.924 153.293C193.313 152.6 193.688 151.907 194.059 151.209L54.7924 11.9444ZM159.724 16.9977L189.006 46.2744C185.242 40.5811 180.852 35.1786 175.838 30.1646C170.825 25.152 165.422 20.7605 159.724 16.9977ZM6.54279 66.792C6.24694 67.5781 5.96374 68.3647 5.69009 69.1553L136.843 200.31C137.633 200.036 138.424 199.753 139.206 199.457L6.54279 66.792ZM42.1191 19.8907C41.5045 20.3457 40.8952 20.8098 40.2859 21.278L184.726 165.715C185.194 165.105 185.658 164.495 186.108 163.882L42.1191 19.8907ZM21.2742 40.2844C20.8055 40.895 20.3419 41.5042 19.8918 42.1221L163.881 186.109C164.494 185.654 165.109 185.194 165.713 184.726L21.2742 40.2844ZM13.0753 52.71C12.6908 53.3993 12.3113 54.0927 11.9449 54.7906L151.208 194.056C151.906 193.684 152.604 193.308 153.292 192.92L13.0753 52.71Z" fill="white"/>
<path d="M124.329 2.22227L203.782 81.6696C203.486 80.2687 203.159 78.8684 202.805 77.477L128.525 3.19835C127.129 2.84502 125.733 2.51805 124.329 2.22227ZM69.1575 5.68973C68.3664 5.96338 67.5802 6.2506 66.7936 6.54187L199.457 139.208C199.753 138.421 200.036 137.635 200.31 136.844L69.1575 5.68973ZM103.11 1.43499e-09C102.574 1.42753e-09 102.037 0.00447167 101.5 0.0136061L205.99 104.501C206.004 103.428 206.004 102.355 205.986 101.282L104.721 0.0136061C104.183 0.00447167 103.647 1.44247e-09 103.11 1.43499e-09ZM85.5625 1.475C84.6568 1.63059 83.7514 1.79792 82.8462 1.97931L204.025 123.151C204.201 122.249 204.373 121.344 204.528 120.439L85.5625 1.475ZM16.9938 159.725C20.7571 165.419 25.1483 170.821 30.161 175.834C35.1751 180.852 40.5817 185.239 46.2757 189.002L16.9938 159.725ZM0.00939112 101.502C-0.00379431 102.576 -0.00379431 103.649 0.0138627 104.722L101.279 205.986C101.856 205.996 102.433 206 103.011 206C103.507 206 104.003 205.997 104.499 205.991L0.00939112 101.502ZM30.9784 29.3699L30.161 30.1646L29.3667 30.9779L175.025 176.629L175.838 175.834L176.633 175.022L30.9784 29.3699ZM2.21812 124.33C2.51436 125.735 2.84097 127.131 3.19415 128.522L77.4794 202.801C78.8708 203.159 80.2662 203.486 81.6715 203.777L2.21812 124.33ZM1.97467 82.8483C1.79875 83.7498 1.62547 84.6553 1.47133 85.561L120.441 204.524C121.347 204.369 122.247 204.202 123.153 204.02L1.97467 82.8483ZM54.7924 11.9444C54.0945 12.3153 53.4011 12.6911 52.7068 13.0801L192.924 153.293C193.313 152.6 193.688 151.907 194.059 151.209L54.7924 11.9444ZM159.724 16.9977L189.006 46.2744C185.242 40.5811 180.852 35.1786 175.838 30.1646C170.825 25.152 165.422 20.7605 159.724 16.9977ZM6.54279 66.792C6.24694 67.5781 5.96374 68.3647 5.69009 69.1553L136.843 200.31C137.633 200.036 138.424 199.753 139.206 199.457L6.54279 66.792ZM42.1191 19.8907C41.5045 20.3457 40.8952 20.8098 40.2859 21.278L184.726 165.715C185.194 165.105 185.658 164.495 186.108 163.882L42.1191 19.8907ZM21.2742 40.2844C20.8055 40.895 20.3419 41.5042 19.8918 42.1221L163.881 186.109C164.494 185.654 165.109 185.194 165.713 184.726L21.2742 40.2844ZM13.0753 52.71C12.6908 53.3993 12.3113 54.0927 11.9449 54.7906L151.208 194.056C151.906 193.684 152.604 193.308 153.292 192.92L13.0753 52.71Z" fill="white"/>
<path d="M124.329 2.22227L203.782 81.6696C203.486 80.2687 203.159 78.8684 202.805 77.477L128.525 3.19835C127.129 2.84502 125.733 2.51805 124.329 2.22227ZM69.1575 5.68973C68.3664 5.96338 67.5802 6.2506 66.7936 6.54187L199.457 139.208C199.753 138.421 200.036 137.635 200.31 136.844L69.1575 5.68973ZM103.11 1.43499e-09C102.574 1.42753e-09 102.037 0.00447167 101.5 0.0136061L205.99 104.501C206.004 103.428 206.004 102.355 205.986 101.282L104.721 0.0136061C104.183 0.00447167 103.647 1.44247e-09 103.11 1.43499e-09ZM85.5625 1.475C84.6568 1.63059 83.7514 1.79792 82.8462 1.97931L204.025 123.151C204.201 122.249 204.373 121.344 204.528 120.439L85.5625 1.475ZM16.9938 159.725C20.7571 165.419 25.1483 170.821 30.161 175.834C35.1751 180.852 40.5817 185.239 46.2757 189.002L16.9938 159.725ZM0.00939112 101.502C-0.00379431 102.576 -0.00379431 103.649 0.0138627 104.722L101.279 205.986C101.856 205.996 102.433 206 103.011 206C103.507 206 104.003 205.997 104.499 205.991L0.00939112 101.502ZM30.9784 29.3699L30.161 30.1646L29.3667 30.9779L175.025 176.629L175.838 175.834L176.633 175.022L30.9784 29.3699ZM2.21812 124.33C2.51436 125.735 2.84097 127.131 3.19415 128.522L77.4794 202.801C78.8708 203.159 80.2662 203.486 81.6715 203.777L2.21812 124.33ZM1.97467 82.8483C1.79875 83.7498 1.62547 84.6553 1.47133 85.561L120.441 204.524C121.347 204.369 122.247 204.202 123.153 204.02L1.97467 82.8483ZM54.7924 11.9444C54.0945 12.3153 53.4011 12.6911 52.7068 13.0801L192.924 153.293C193.313 152.6 193.688 151.907 194.059 151.209L54.7924 11.9444ZM159.724 16.9977L189.006 46.2744C185.242 40.5811 180.852 35.1786 175.838 30.1646C170.825 25.152 165.422 20.7605 159.724 16.9977ZM6.54279 66.792C6.24694 67.5781 5.96374 68.3647 5.69009 69.1553L136.843 200.31C137.633 200.036 138.424 199.753 139.206 199.457L6.54279 66.792ZM42.1191 19.8907C41.5045 20.3457 40.8952 20.8098 40.2859 21.278L184.726 165.715C185.194 165.105 185.658 164.495 186.108 163.882L42.1191 19.8907ZM21.2742 40.2844C20.8055 40.895 20.3419 41.5042 19.8918 42.1221L163.881 186.109C164.494 185.654 165.109 185.194 165.713 184.726L21.2742 40.2844ZM13.0753 52.71C12.6908 53.3993 12.3113 54.0927 11.9449 54.7906L151.208 194.056C151.906 193.684 152.604 193.308 153.292 192.92L13.0753 52.71Z" fill="white"/>
<path d="M124.329 2.22227L203.782 81.6696C203.486 80.2687 203.159 78.8684 202.805 77.477L128.525 3.19835C127.129 2.84502 125.733 2.51805 124.329 2.22227ZM69.1575 5.68973C68.3664 5.96338 67.5802 6.2506 66.7936 6.54187L199.457 139.208C199.753 138.421 200.036 137.635 200.31 136.844L69.1575 5.68973ZM103.11 1.43499e-09C102.574 1.42753e-09 102.037 0.00447167 101.5 0.0136061L205.99 104.501C206.004 103.428 206.004 102.355 205.986 101.282L104.721 0.0136061C104.183 0.00447167 103.647 1.44247e-09 103.11 1.43499e-09ZM85.5625 1.475C84.6568 1.63059 83.7514 1.79792 82.8462 1.97931L204.025 123.151C204.201 122.249 204.373 121.344 204.528 120.439L85.5625 1.475ZM16.9938 159.725C20.7571 165.419 25.1483 170.821 30.161 175.834C35.1751 180.852 40.5817 185.239 46.2757 189.002L16.9938 159.725ZM0.00939112 101.502C-0.00379431 102.576 -0.00379431 103.649 0.0138627 104.722L101.279 205.986C101.856 205.996 102.433 206 103.011 206C103.507 206 104.003 205.997 104.499 205.991L0.00939112 101.502ZM30.9784 29.3699L30.161 30.1646L29.3667 30.9779L175.025 176.629L175.838 175.834L176.633 175.022L30.9784 29.3699ZM2.21812 124.33C2.51436 125.735 2.84097 127.131 3.19415 128.522L77.4794 202.801C78.8708 203.159 80.2662 203.486 81.6715 203.777L2.21812 124.33ZM1.97467 82.8483C1.79875 83.7498 1.62547 84.6553 1.47133 85.561L120.441 204.524C121.347 204.369 122.247 204.202 123.153 204.02L1.97467 82.8483ZM54.7924 11.9444C54.0945 12.3153 53.4011 12.6911 52.7068 13.0801L192.924 153.293C193.313 152.6 193.688 151.907 194.059 151.209L54.7924 11.9444ZM159.724 16.9977L189.006 46.2744C185.242 40.5811 180.852 35.1786 175.838 30.1646C170.825 25.152 165.422 20.7605 159.724 16.9977ZM6.54279 66.792C6.24694 67.5781 5.96374 68.3647 5.69009 69.1553L136.843 200.31C137.633 200.036 138.424 199.753 139.206 199.457L6.54279 66.792ZM42.1191 19.8907C41.5045 20.3457 40.8952 20.8098 40.2859 21.278L184.726 165.715C185.194 165.105 185.658 164.495 186.108 163.882L42.1191 19.8907ZM21.2742 40.2844C20.8055 40.895 20.3419 41.5042 19.8918 42.1221L163.881 186.109C164.494 185.654 165.109 185.194 165.713 184.726L21.2742 40.2844ZM13.0753 52.71C12.6908 53.3993 12.3113 54.0927 11.9449 54.7906L151.208 194.056C151.906 193.684 152.604 193.308 153.292 192.92L13.0753 52.71Z" fill="white"/>
<path d="M124.329 2.22227L203.782 81.6696C203.486 80.2687 203.159 78.8684 202.805 77.477L128.525 3.19835C127.129 2.84502 125.733 2.51805 124.329 2.22227ZM69.1575 5.68973C68.3664 5.96338 67.5802 6.2506 66.7936 6.54187L199.457 139.208C199.753 138.421 200.036 137.635 200.31 136.844L69.1575 5.68973ZM103.11 1.43499e-09C102.574 1.42753e-09 102.037 0.00447167 101.5 0.0136061L205.99 104.501C206.004 103.428 206.004 102.355 205.986 101.282L104.721 0.0136061C104.183 0.00447167 103.647 1.44247e-09 103.11 1.43499e-09ZM85.5625 1.475C84.6568 1.63059 83.7514 1.79792 82.8462 1.97931L204.025 123.151C204.201 122.249 204.373 121.344 204.528 120.439L85.5625 1.475ZM16.9938 159.725C20.7571 165.419 25.1483 170.821 30.161 175.834C35.1751 180.852 40.5817 185.239 46.2757 189.002L16.9938 159.725ZM0.00939112 101.502C-0.00379431 102.576 -0.00379431 103.649 0.0138627 104.722L101.279 205.986C101.856 205.996 102.433 206 103.011 206C103.507 206 104.003 205.997 104.499 205.991L0.00939112 101.502ZM30.9784 29.3699L30.161 30.1646L29.3667 30.9779L175.025 176.629L175.838 175.834L176.633 175.022L30.9784 29.3699ZM2.21812 124.33C2.51436 125.735 2.84097 127.131 3.19415 128.522L77.4794 202.801C78.8708 203.159 80.2662 203.486 81.6715 203.777L2.21812 124.33ZM1.97467 82.8483C1.79875 83.7498 1.62547 84.6553 1.47133 85.561L120.441 204.524C121.347 204.369 122.247 204.202 123.153 204.02L1.97467 82.8483ZM54.7924 11.9444C54.0945 12.3153 53.4011 12.6911 52.7068 13.0801L192.924 153.293C193.313 152.6 193.688 151.907 194.059 151.209L54.7924 11.9444ZM159.724 16.9977L189.006 46.2744C185.242 40.5811 180.852 35.1786 175.838 30.1646C170.825 25.152 165.422 20.7605 159.724 16.9977ZM6.54279 66.792C6.24694 67.5781 5.96374 68.3647 5.69009 69.1553L136.843 200.31C137.633 200.036 138.424 199.753 139.206 199.457L6.54279 66.792ZM42.1191 19.8907C41.5045 20.3457 40.8952 20.8098 40.2859 21.278L184.726 165.715C185.194 165.105 185.658 164.495 186.108 163.882L42.1191 19.8907ZM21.2742 40.2844C20.8055 40.895 20.3419 41.5042 19.8918 42.1221L163.881 186.109C164.494 185.654 165.109 185.194 165.713 184.726L21.2742 40.2844ZM13.0753 52.71C12.6908 53.3993 12.3113 54.0927 11.9449 54.7906L151.208 194.056C151.906 193.684 152.604 193.308 153.292 192.92L13.0753 52.71Z" fill="white"/>
<path d="M124.329 2.22227L203.782 81.6696C203.486 80.2687 203.159 78.8684 202.805 77.477L128.525 3.19835C127.129 2.84502 125.733 2.51805 124.329 2.22227ZM69.1575 5.68973C68.3664 5.96338 67.5802 6.2506 66.7936 6.54187L199.457 139.208C199.753 138.421 200.036 137.635 200.31 136.844L69.1575 5.68973ZM103.11 1.43499e-09C102.574 1.42753e-09 102.037 0.00447167 101.5 0.0136061L205.99 104.501C206.004 103.428 206.004 102.355 205.986 101.282L104.721 0.0136061C104.183 0.00447167 103.647 1.44247e-09 103.11 1.43499e-09ZM85.5625 1.475C84.6568 1.63059 83.7514 1.79792 82.8462 1.97931L204.025 123.151C204.201 122.249 204.373 121.344 204.528 120.439L85.5625 1.475ZM16.9938 159.725C20.7571 165.419 25.1483 170.821 30.161 175.834C35.1751 180.852 40.5817 185.239 46.2757 189.002L16.9938 159.725ZM0.00939112 101.502C-0.00379431 102.576 -0.00379431 103.649 0.0138627 104.722L101.279 205.986C101.856 205.996 102.433 206 103.011 206C103.507 206 104.003 205.997 104.499 205.991L0.00939112 101.502ZM30.9784 29.3699L30.161 30.1646L29.3667 30.9779L175.025 176.629L175.838 175.834L176.633 175.022L30.9784 29.3699ZM2.21812 124.33C2.51436 125.735 2.84097 127.131 3.19415 128.522L77.4794 202.801C78.8708 203.159 80.2662 203.486 81.6715 203.777L2.21812 124.33ZM1.97467 82.8483C1.79875 83.7498 1.62547 84.6553 1.47133 85.561L120.441 204.524C121.347 204.369 122.247 204.202 123.153 204.02L1.97467 82.8483ZM54.7924 11.9444C54.0945 12.3153 53.4011 12.6911 52.7068 13.0801L192.924 153.293C193.313 152.6 193.688 151.907 194.059 151.209L54.7924 11.9444ZM159.724 16.9977L189.006 46.2744C185.242 40.5811 180.852 35.1786 175.838 30.1646C170.825 25.152 165.422 20.7605 159.724 16.9977ZM6.54279 66.792C6.24694 67.5781 5.96374 68.3647 5.69009 69.1553L136.843 200.31C137.633 200.036 138.424 199.753 139.206 199.457L6.54279 66.792ZM42.1191 19.8907C41.5045 20.3457 40.8952 20.8098 40.2859 21.278L184.726 165.715C185.194 165.105 185.658 164.495 186.108 163.882L42.1191 19.8907ZM21.2742 40.2844C20.8055 40.895 20.3419 41.5042 19.8918 42.1221L163.881 186.109C164.494 185.654 165.109 185.194 165.713 184.726L21.2742 40.2844ZM13.0753 52.71C12.6908 53.3993 12.3113 54.0927 11.9449 54.7906L151.208 194.056C151.906 193.684 152.604 193.308 153.292 192.92L13.0753 52.71Z" fill="white"/>
<path d="M124.329 2.22227L203.782 81.6696C203.486 80.2687 203.159 78.8684 202.805 77.477L128.525 3.19835C127.129 2.84502 125.733 2.51805 124.329 2.22227ZM69.1575 5.68973C68.3664 5.96338 67.5802 6.2506 66.7936 6.54187L199.457 139.208C199.753 138.421 200.036 137.635 200.31 136.844L69.1575 5.68973ZM103.11 1.43499e-09C102.574 1.42753e-09 102.037 0.00447167 101.5 0.0136061L205.99 104.501C206.004 103.428 206.004 102.355 205.986 101.282L104.721 0.0136061C104.183 0.00447167 103.647 1.44247e-09 103.11 1.43499e-09ZM85.5625 1.475C84.6568 1.63059 83.7514 1.79792 82.8462 1.97931L204.025 123.151C204.201 122.249 204.373 121.344 204.528 120.439L85.5625 1.475ZM16.9938 159.725C20.7571 165.419 25.1483 170.821 30.161 175.834C35.1751 180.852 40.5817 185.239 46.2757 189.002L16.9938 159.725ZM0.00939112 101.502C-0.00379431 102.576 -0.00379431 103.649 0.0138627 104.722L101.279 205.986C101.856 205.996 102.433 206 103.011 206C103.507 206 104.003 205.997 104.499 205.991L0.00939112 101.502ZM30.9784 29.3699L30.161 30.1646L29.3667 30.9779L175.025 176.629L175.838 175.834L176.633 175.022L30.9784 29.3699ZM2.21812 124.33C2.51436 125.735 2.84097 127.131 3.19415 128.522L77.4794 202.801C78.8708 203.159 80.2662 203.486 81.6715 203.777L2.21812 124.33ZM1.97467 82.8483C1.79875 83.7498 1.62547 84.6553 1.47133 85.561L120.441 204.524C121.347 204.369 122.247 204.202 123.153 204.02L1.97467 82.8483ZM54.7924 11.9444C54.0945 12.3153 53.4011 12.6911 52.7068 13.0801L192.924 153.293C193.313 152.6 193.688 151.907 194.059 151.209L54.7924 11.9444ZM159.724 16.9977L189.006 46.2744C185.242 40.5811 180.852 35.1786 175.838 30.1646C170.825 25.152 165.422 20.7605 159.724 16.9977ZM6.54279 66.792C6.24694 67.5781 5.96374 68.3647 5.69009 69.1553L136.843 200.31C137.633 200.036 138.424 199.753 139.206 199.457L6.54279 66.792ZM42.1191 19.8907C41.5045 20.3457 40.8952 20.8098 40.2859 21.278L184.726 165.715C185.194 165.105 185.658 164.495 186.108 163.882L42.1191 19.8907ZM21.2742 40.2844C20.8055 40.895 20.3419 41.5042 19.8918 42.1221L163.881 186.109C164.494 185.654 165.109 185.194 165.713 184.726L21.2742 40.2844ZM13.0753 52.71C12.6908 53.3993 12.3113 54.0927 11.9449 54.7906L151.208 194.056C151.906 193.684 152.604 193.308 153.292 192.92L13.0753 52.71Z" fill="white"/>
<path d="M124.329 2.22227L203.782 81.6696C203.486 80.2687 203.159 78.8684 202.805 77.477L128.525 3.19835C127.129 2.84502 125.733 2.51805 124.329 2.22227ZM69.1575 5.68973C68.3664 5.96338 67.5802 6.2506 66.7936 6.54187L199.457 139.208C199.753 138.421 200.036 137.635 200.31 136.844L69.1575 5.68973ZM103.11 1.43499e-09C102.574 1.42753e-09 102.037 0.00447167 101.5 0.0136061L205.99 104.501C206.004 103.428 206.004 102.355 205.986 101.282L104.721 0.0136061C104.183 0.00447167 103.647 1.44247e-09 103.11 1.43499e-09ZM85.5625 1.475C84.6568 1.63059 83.7514 1.79792 82.8462 1.97931L204.025 123.151C204.201 122.249 204.373 121.344 204.528 120.439L85.5625 1.475ZM16.9938 159.725C20.7571 165.419 25.1483 170.821 30.161 175.834C35.1751 180.852 40.5817 185.239 46.2757 189.002L16.9938 159.725ZM0.00939112 101.502C-0.00379431 102.576 -0.00379431 103.649 0.0138627 104.722L101.279 205.986C101.856 205.996 102.433 206 103.011 206C103.507 206 104.003 205.997 104.499 205.991L0.00939112 101.502ZM30.9784 29.3699L30.161 30.1646L29.3667 30.9779L175.025 176.629L175.838 175.834L176.633 175.022L30.9784 29.3699ZM2.21812 124.33C2.51436 125.735 2.84097 127.131 3.19415 128.522L77.4794 202.801C78.8708 203.159 80.2662 203.486 81.6715 203.777L2.21812 124.33ZM1.97467 82.8483C1.79875 83.7498 1.62547 84.6553 1.47133 85.561L120.441 204.524C121.347 204.369 122.247 204.202 123.153 204.02L1.97467 82.8483ZM54.7924 11.9444C54.0945 12.3153 53.4011 12.6911 52.7068 13.0801L192.924 153.293C193.313 152.6 193.688 151.907 194.059 151.209L54.7924 11.9444ZM159.724 16.9977L189.006 46.2744C185.242 40.5811 180.852 35.1786 175.838 30.1646C170.825 25.152 165.422 20.7605 159.724 16.9977ZM6.54279 66.792C6.24694 67.5781 5.96374 68.3647 5.69009 69.1553L136.843 200.31C137.633 200.036 138.424 199.753 139.206 199.457L6.54279 66.792ZM42.1191 19.8907C41.5045 20.3457 40.8952 20.8098 40.2859 21.278L184.726 165.715C185.194 165.105 185.658 164.495 186.108 163.882L42.1191 19.8907ZM21.2742 40.2844C20.8055 40.895 20.3419 41.5042 19.8918 42.1221L163.881 186.109C164.494 185.654 165.109 185.194 165.713 184.726L21.2742 40.2844ZM13.0753 52.71C12.6908 53.3993 12.3113 54.0927 11.9449 54.7906L151.208 194.056C151.906 193.684 152.604 193.308 153.292 192.92L13.0753 52.71Z" fill="white"/>
<path d="M124.329 2.22227L203.782 81.6696C203.486 80.2687 203.159 78.8684 202.805 77.477L128.525 3.19835C127.129 2.84502 125.733 2.51805 124.329 2.22227ZM69.1575 5.68973C68.3664 5.96338 67.5802 6.2506 66.7936 6.54187L199.457 139.208C199.753 138.421 200.036 137.635 200.31 136.844L69.1575 5.68973ZM103.11 1.43499e-09C102.574 1.42753e-09 102.037 0.00447167 101.5 0.0136061L205.99 104.501C206.004 103.428 206.004 102.355 205.986 101.282L104.721 0.0136061C104.183 0.00447167 103.647 1.44247e-09 103.11 1.43499e-09ZM85.5625 1.475C84.6568 1.63059 83.7514 1.79792 82.8462 1.97931L204.025 123.151C204.201 122.249 204.373 121.344 204.528 120.439L85.5625 1.475ZM16.9938 159.725C20.7571 165.419 25.1483 170.821 30.161 175.834C35.1751 180.852 40.5817 185.239 46.2757 189.002L16.9938 159.725ZM0.00939112 101.502C-0.00379431 102.576 -0.00379431 103.649 0.0138627 104.722L101.279 205.986C101.856 205.996 102.433 206 103.011 206C103.507 206 104.003 205.997 104.499 205.991L0.00939112 101.502ZM30.9784 29.3699L30.161 30.1646L29.3667 30.9779L175.025 176.629L175.838 175.834L176.633 175.022L30.9784 29.3699ZM2.21812 124.33C2.51436 125.735 2.84097 127.131 3.19415 128.522L77.4794 202.801C78.8708 203.159 80.2662 203.486 81.6715 203.777L2.21812 124.33ZM1.97467 82.8483C1.79875 83.7498 1.62547 84.6553 1.47133 85.561L120.441 204.524C121.347 204.369 122.247 204.202 123.153 204.02L1.97467 82.8483ZM54.7924 11.9444C54.0945 12.3153 53.4011 12.6911 52.7068 13.0801L192.924 153.293C193.313 152.6 193.688 151.907 194.059 151.209L54.7924 11.9444ZM159.724 16.9977L189.006 46.2744C185.242 40.5811 180.852 35.1786 175.838 30.1646C170.825 25.152 165.422 20.7605 159.724 16.9977ZM6.54279 66.792C6.24694 67.5781 5.96374 68.3647 5.69009 69.1553L136.843 200.31C137.633 200.036 138.424 199.753 139.206 199.457L6.54279 66.792ZM42.1191 19.8907C41.5045 20.3457 40.8952 20.8098 40.2859 21.278L184.726 165.715C185.194 165.105 185.658 164.495 186.108 163.882L42.1191 19.8907ZM21.2742 40.2844C20.8055 40.895 20.3419 41.5042 19.8918 42.1221L163.881 186.109C164.494 185.654 165.109 185.194 165.713 184.726L21.2742 40.2844ZM13.0753 52.71C12.6908 53.3993 12.3113 54.0927 11.9449 54.7906L151.208 194.056C151.906 193.684 152.604 193.308 153.292 192.92L13.0753 52.71Z" fill="white"/>
<path d="M124.329 2.22227L203.782 81.6696C203.486 80.2687 203.159 78.8684 202.805 77.477L128.525 3.19835C127.129 2.84502 125.733 2.51805 124.329 2.22227ZM69.1575 5.68973C68.3664 5.96338 67.5802 6.2506 66.7936 6.54187L199.457 139.208C199.753 138.421 200.036 137.635 200.31 136.844L69.1575 5.68973ZM103.11 1.43499e-09C102.574 1.42753e-09 102.037 0.00447167 101.5 0.0136061L205.99 104.501C206.004 103.428 206.004 102.355 205.986 101.282L104.721 0.0136061C104.183 0.00447167 103.647 1.44247e-09 103.11 1.43499e-09ZM85.5625 1.475C84.6568 1.63059 83.7514 1.79792 82.8462 1.97931L204.025 123.151C204.201 122.249 204.373 121.344 204.528 120.439L85.5625 1.475ZM16.9938 159.725C20.7571 165.419 25.1483 170.821 30.161 175.834C35.1751 180.852 40.5817 185.239 46.2757 189.002L16.9938 159.725ZM0.00939112 101.502C-0.00379431 102.576 -0.00379431 103.649 0.0138627 104.722L101.279 205.986C101.856 205.996 102.433 206 103.011 206C103.507 206 104.003 205.997 104.499 205.991L0.00939112 101.502ZM30.9784 29.3699L30.161 30.1646L29.3667 30.9779L175.025 176.629L175.838 175.834L176.633 175.022L30.9784 29.3699ZM2.21812 124.33C2.51436 125.735 2.84097 127.131 3.19415 128.522L77.4794 202.801C78.8708 203.159 80.2662 203.486 81.6715 203.777L2.21812 124.33ZM1.97467 82.8483C1.79875 83.7498 1.62547 84.6553 1.47133 85.561L120.441 204.524C121.347 204.369 122.247 204.202 123.153 204.02L1.97467 82.8483ZM54.7924 11.9444C54.0945 12.3153 53.4011 12.6911 52.7068 13.0801L192.924 153.293C193.313 152.6 193.688 151.907 194.059 151.209L54.7924 11.9444ZM159.724 16.9977L189.006 46.2744C185.242 40.5811 180.852 35.1786 175.838 30.1646C170.825 25.152 165.422 20.7605 159.724 16.9977ZM6.54279 66.792C6.24694 67.5781 5.96374 68.3647 5.69009 69.1553L136.843 200.31C137.633 200.036 138.424 199.753 139.206 199.457L6.54279 66.792ZM42.1191 19.8907C41.5045 20.3457 40.8952 20.8098 40.2859 21.278L184.726 165.715C185.194 165.105 185.658 164.495 186.108 163.882L42.1191 19.8907ZM21.2742 40.2844C20.8055 40.895 20.3419 41.5042 19.8918 42.1221L163.881 186.109C164.494 185.654 165.109 185.194 165.713 184.726L21.2742 40.2844ZM13.0753 52.71C12.6908 53.3993 12.3113 54.0927 11.9449 54.7906L151.208 194.056C151.906 193.684 152.604 193.308 153.292 192.92L13.0753 52.71Z" fill="white"/>
<path d="M124.329 2.22227L203.782 81.6696C203.486 80.2687 203.159 78.8684 202.805 77.477L128.525 3.19835C127.129 2.84502 125.733 2.51805 124.329 2.22227ZM69.1575 5.68973C68.3664 5.96338 67.5802 6.2506 66.7936 6.54187L199.457 139.208C199.753 138.421 200.036 137.635 200.31 136.844L69.1575 5.68973ZM103.11 1.43499e-09C102.574 1.42753e-09 102.037 0.00447167 101.5 0.0136061L205.99 104.501C206.004 103.428 206.004 102.355 205.986 101.282L104.721 0.0136061C104.183 0.00447167 103.647 1.44247e-09 103.11 1.43499e-09ZM85.5625 1.475C84.6568 1.63059 83.7514 1.79792 82.8462 1.97931L204.025 123.151C204.201 122.249 204.373 121.344 204.528 120.439L85.5625 1.475ZM16.9938 159.725C20.7571 165.419 25.1483 170.821 30.161 175.834C35.1751 180.852 40.5817 185.239 46.2757 189.002L16.9938 159.725ZM0.00939112 101.502C-0.00379431 102.576 -0.00379431 103.649 0.0138627 104.722L101.279 205.986C101.856 205.996 102.433 206 103.011 206C103.507 206 104.003 205.997 104.499 205.991L0.00939112 101.502ZM30.9784 29.3699L30.161 30.1646L29.3667 30.9779L175.025 176.629L175.838 175.834L176.633 175.022L30.9784 29.3699ZM2.21812 124.33C2.51436 125.735 2.84097 127.131 3.19415 128.522L77.4794 202.801C78.8708 203.159 80.2662 203.486 81.6715 203.777L2.21812 124.33ZM1.97467 82.8483C1.79875 83.7498 1.62547 84.6553 1.47133 85.561L120.441 204.524C121.347 204.369 122.247 204.202 123.153 204.02L1.97467 82.8483ZM54.7924 11.9444C54.0945 12.3153 53.4011 12.6911 52.7068 13.0801L192.924 153.293C193.313 152.6 193.688 151.907 194.059 151.209L54.7924 11.9444ZM159.724 16.9977L189.006 46.2744C185.242 40.5811 180.852 35.1786 175.838 30.1646C170.825 25.152 165.422 20.7605 159.724 16.9977ZM6.54279 66.792C6.24694 67.5781 5.96374 68.3647 5.69009 69.1553L136.843 200.31C137.633 200.036 138.424 199.753 139.206 199.457L6.54279 66.792ZM42.1191 19.8907C41.5045 20.3457 40.8952 20.8098 40.2859 21.278L184.726 165.715C185.194 165.105 185.658 164.495 186.108 163.882L42.1191 19.8907ZM21.2742 40.2844C20.8055 40.895 20.3419 41.5042 19.8918 42.1221L163.881 186.109C164.494 185.654 165.109 185.194 165.713 184.726L21.2742 40.2844ZM13.0753 52.71C12.6908 53.3993 12.3113 54.0927 11.9449 54.7906L151.208 194.056C151.906 193.684 152.604 193.308 153.292 192.92L13.0753 52.71Z" fill="white"/>
<path d="M124.329 2.22227L203.782 81.6696C203.486 80.2687 203.159 78.8684 202.805 77.477L128.525 3.19835C127.129 2.84502 125.733 2.51805 124.329 2.22227ZM69.1575 5.68973C68.3664 5.96338 67.5802 6.2506 66.7936 6.54187L199.457 139.208C199.753 138.421 200.036 137.635 200.31 136.844L69.1575 5.68973ZM103.11 1.43499e-09C102.574 1.42753e-09 102.037 0.00447167 101.5 0.0136061L205.99 104.501C206.004 103.428 206.004 102.355 205.986 101.282L104.721 0.0136061C104.183 0.00447167 103.647 1.44247e-09 103.11 1.43499e-09ZM85.5625 1.475C84.6568 1.63059 83.7514 1.79792 82.8462 1.97931L204.025 123.151C204.201 122.249 204.373 121.344 204.528 120.439L85.5625 1.475ZM16.9938 159.725C20.7571 165.419 25.1483 170.821 30.161 175.834C35.1751 180.852 40.5817 185.239 46.2757 189.002L16.9938 159.725ZM0.00939112 101.502C-0.00379431 102.576 -0.00379431 103.649 0.0138627 104.722L101.279 205.986C101.856 205.996 102.433 206 103.011 206C103.507 206 104.003 205.997 104.499 205.991L0.00939112 101.502ZM30.9784 29.3699L30.161 30.1646L29.3667 30.9779L175.025 176.629L175.838 175.834L176.633 175.022L30.9784 29.3699ZM2.21812 124.33C2.51436 125.735 2.84097 127.131 3.19415 128.522L77.4794 202.801C78.8708 203.159 80.2662 203.486 81.6715 203.777L2.21812 124.33ZM1.97467 82.8483C1.79875 83.7498 1.62547 84.6553 1.47133 85.561L120.441 204.524C121.347 204.369 122.247 204.202 123.153 204.02L1.97467 82.8483ZM54.7924 11.9444C54.0945 12.3153 53.4011 12.6911 52.7068 13.0801L192.924 153.293C193.313 152.6 193.688 151.907 194.059 151.209L54.7924 11.9444ZM159.724 16.9977L189.006 46.2744C185.242 40.5811 180.852 35.1786 175.838 30.1646C170.825 25.152 165.422 20.7605 159.724 16.9977ZM6.54279 66.792C6.24694 67.5781 5.96374 68.3647 5.69009 69.1553L136.843 200.31C137.633 200.036 138.424 199.753 139.206 199.457L6.54279 66.792ZM42.1191 19.8907C41.5045 20.3457 40.8952 20.8098 40.2859 21.278L184.726 165.715C185.194 165.105 185.658 164.495 186.108 163.882L42.1191 19.8907ZM21.2742 40.2844C20.8055 40.895 20.3419 41.5042 19.8918 42.1221L163.881 186.109C164.494 185.654 165.109 185.194 165.713 184.726L21.2742 40.2844ZM13.0753 52.71C12.6908 53.3993 12.3113 54.0927 11.9449 54.7906L151.208 194.056C151.906 193.684 152.604 193.308 153.292 192.92L13.0753 52.71Z" fill="white"/>
<path d="M124.329 2.22227L203.782 81.6696C203.486 80.2687 203.159 78.8684 202.805 77.477L128.525 3.19835C127.129 2.84502 125.733 2.51805 124.329 2.22227ZM69.1575 5.68973C68.3664 5.96338 67.5802 6.2506 66.7936 6.54187L199.457 139.208C199.753 138.421 200.036 137.635 200.31 136.844L69.1575 5.68973ZM103.11 1.43499e-09C102.574 1.42753e-09 102.037 0.00447167 101.5 0.0136061L205.99 104.501C206.004 103.428 206.004 102.355 205.986 101.282L104.721 0.0136061C104.183 0.00447167 103.647 1.44247e-09 103.11 1.43499e-09ZM85.5625 1.475C84.6568 1.63059 83.7514 1.79792 82.8462 1.97931L204.025 123.151C204.201 122.249 204.373 121.344 204.528 120.439L85.5625 1.475ZM16.9938 159.725C20.7571 165.419 25.1483 170.821 30.161 175.834C35.1751 180.852 40.5817 185.239 46.2757 189.002L16.9938 159.725ZM0.00939112 101.502C-0.00379431 102.576 -0.00379431 103.649 0.0138627 104.722L101.279 205.986C101.856 205.996 102.433 206 103.011 206C103.507 206 104.003 205.997 104.499 205.991L0.00939112 101.502ZM30.9784 29.3699L30.161 30.1646L29.3667 30.9779L175.025 176.629L175.838 175.834L176.633 175.022L30.9784 29.3699ZM2.21812 124.33C2.51436 125.735 2.84097 127.131 3.19415 128.522L77.4794 202.801C78.8708 203.159 80.2662 203.486 81.6715 203.777L2.21812 124.33ZM1.97467 82.8483C1.79875 83.7498 1.62547 84.6553 1.47133 85.561L120.441 204.524C121.347 204.369 122.247 204.202 123.153 204.02L1.97467 82.8483ZM54.7924 11.9444C54.0945 12.3153 53.4011 12.6911 52.7068 13.0801L192.924 153.293C193.313 152.6 193.688 151.907 194.059 151.209L54.7924 11.9444ZM159.724 16.9977L189.006 46.2744C185.242 40.5811 180.852 35.1786 175.838 30.1646C170.825 25.152 165.422 20.7605 159.724 16.9977ZM6.54279 66.792C6.24694 67.5781 5.96374 68.3647 5.69009 69.1553L136.843 200.31C137.633 200.036 138.424 199.753 139.206 199.457L6.54279 66.792ZM42.1191 19.8907C41.5045 20.3457 40.8952 20.8098 40.2859 21.278L184.726 165.715C185.194 165.105 185.658 164.495 186.108 163.882L42.1191 19.8907ZM21.2742 40.2844C20.8055 40.895 20.3419 41.5042 19.8918 42.1221L163.881 186.109C164.494 185.654 165.109 185.194 165.713 184.726L21.2742 40.2844ZM13.0753 52.71C12.6908 53.3993 12.3113 54.0927 11.9449 54.7906L151.208 194.056C151.906 193.684 152.604 193.308 153.292 192.92L13.0753 52.71Z" fill="white"/>
<path d="M124.329 2.22227L203.782 81.6696C203.486 80.2687 203.159 78.8684 202.805 77.477L128.525 3.19835C127.129 2.84502 125.733 2.51805 124.329 2.22227ZM69.1575 5.68973C68.3664 5.96338 67.5802 6.2506 66.7936 6.54187L199.457 139.208C199.753 138.421 200.036 137.635 200.31 136.844L69.1575 5.68973ZM103.11 1.43499e-09C102.574 1.42753e-09 102.037 0.00447167 101.5 0.0136061L205.99 104.501C206.004 103.428 206.004 102.355 205.986 101.282L104.721 0.0136061C104.183 0.00447167 103.647 1.44247e-09 103.11 1.43499e-09ZM85.5625 1.475C84.6568 1.63059 83.7514 1.79792 82.8462 1.97931L204.025 123.151C204.201 122.249 204.373 121.344 204.528 120.439L85.5625 1.475ZM16.9938 159.725C20.7571 165.419 25.1483 170.821 30.161 175.834C35.1751 180.852 40.5817 185.239 46.2757 189.002L16.9938 159.725ZM0.00939112 101.502C-0.00379431 102.576 -0.00379431 103.649 0.0138627 104.722L101.279 205.986C101.856 205.996 102.433 206 103.011 206C103.507 206 104.003 205.997 104.499 205.991L0.00939112 101.502ZM30.9784 29.3699L30.161 30.1646L29.3667 30.9779L175.025 176.629L175.838 175.834L176.633 175.022L30.9784 29.3699ZM2.21812 124.33C2.51436 125.735 2.84097 127.131 3.19415 128.522L77.4794 202.801C78.8708 203.159 80.2662 203.486 81.6715 203.777L2.21812 124.33ZM1.97467 82.8483C1.79875 83.7498 1.62547 84.6553 1.47133 85.561L120.441 204.524C121.347 204.369 122.247 204.202 123.153 204.02L1.97467 82.8483ZM54.7924 11.9444C54.0945 12.3153 53.4011 12.6911 52.7068 13.0801L192.924 153.293C193.313 152.6 193.688 151.907 194.059 151.209L54.7924 11.9444ZM159.724 16.9977L189.006 46.2744C185.242 40.5811 180.852 35.1786 175.838 30.1646C170.825 25.152 165.422 20.7605 159.724 16.9977ZM6.54279 66.792C6.24694 67.5781 5.96374 68.3647 5.69009 69.1553L136.843 200.31C137.633 200.036 138.424 199.753 139.206 199.457L6.54279 66.792ZM42.1191 19.8907C41.5045 20.3457 40.8952 20.8098 40.2859 21.278L184.726 165.715C185.194 165.105 185.658 164.495 186.108 163.882L42.1191 19.8907ZM21.2742 40.2844C20.8055 40.895 20.3419 41.5042 19.8918 42.1221L163.881 186.109C164.494 185.654 165.109 185.194 165.713 184.726L21.2742 40.2844ZM13.0753 52.71C12.6908 53.3993 12.3113 54.0927 11.9449 54.7906L151.208 194.056C151.906 193.684 152.604 193.308 153.292 192.92L13.0753 52.71Z" fill="white"/>
<path d="M124.329 2.22227L203.782 81.6696C203.486 80.2687 203.159 78.8684 202.805 77.477L128.525 3.19835C127.129 2.84502 125.733 2.51805 124.329 2.22227ZM69.1575 5.68973C68.3664 5.96338 67.5802 6.2506 66.7936 6.54187L199.457 139.208C199.753 138.421 200.036 137.635 200.31 136.844L69.1575 5.68973ZM103.11 1.43499e-09C102.574 1.42753e-09 102.037 0.00447167 101.5 0.0136061L205.99 104.501C206.004 103.428 206.004 102.355 205.986 101.282L104.721 0.0136061C104.183 0.00447167 103.647 1.44247e-09 103.11 1.43499e-09ZM85.5625 1.475C84.6568 1.63059 83.7514 1.79792 82.8462 1.97931L204.025 123.151C204.201 122.249 204.373 121.344 204.528 120.439L85.5625 1.475ZM16.9938 159.725C20.7571 165.419 25.1483 170.821 30.161 175.834C35.1751 180.852 40.5817 185.239 46.2757 189.002L16.9938 159.725ZM0.00939112 101.502C-0.00379431 102.576 -0.00379431 103.649 0.0138627 104.722L101.279 205.986C101.856 205.996 102.433 206 103.011 206C103.507 206 104.003 205.997 104.499 205.991L0.00939112 101.502ZM30.9784 29.3699L30.161 30.1646L29.3667 30.9779L175.025 176.629L175.838 175.834L176.633 175.022L30.9784 29.3699ZM2.21812 124.33C2.51436 125.735 2.84097 127.131 3.19415 128.522L77.4794 202.801C78.8708 203.159 80.2662 203.486 81.6715 203.777L2.21812 124.33ZM1.97467 82.8483C1.79875 83.7498 1.62547 84.6553 1.47133 85.561L120.441 204.524C121.347 204.369 122.247 204.202 123.153 204.02L1.97467 82.8483ZM54.7924 11.9444C54.0945 12.3153 53.4011 12.6911 52.7068 13.0801L192.924 153.293C193.313 152.6 193.688 151.907 194.059 151.209L54.7924 11.9444ZM159.724 16.9977L189.006 46.2744C185.242 40.5811 180.852 35.1786 175.838 30.1646C170.825 25.152 165.422 20.7605 159.724 16.9977ZM6.54279 66.792C6.24694 67.5781 5.96374 68.3647 5.69009 69.1553L136.843 200.31C137.633 200.036 138.424 199.753 139.206 199.457L6.54279 66.792ZM42.1191 19.8907C41.5045 20.3457 40.8952 20.8098 40.2859 21.278L184.726 165.715C185.194 165.105 185.658 164.495 186.108 163.882L42.1191 19.8907ZM21.2742 40.2844C20.8055 40.895 20.3419 41.5042 19.8918 42.1221L163.881 186.109C164.494 185.654 165.109 185.194 165.713 184.726L21.2742 40.2844ZM13.0753 52.71C12.6908 53.3993 12.3113 54.0927 11.9449 54.7906L151.208 194.056C151.906 193.684 152.604 193.308 153.292 192.92L13.0753 52.71Z" fill="white"/>
</svg>
