<svg width="130" height="68" viewBox="0 0 130 68" fill="none" xmlns="http://www.w3.org/2000/svg">
<path d="M78.4598 -60.5976L128.6 -10.461C128.413 -11.345 128.207 -12.2287 127.984 -13.1068L81.1082 -59.9816C80.2273 -60.2045 79.3464 -60.411 78.4598 -60.5976ZM43.6431 -58.4094C43.1438 -58.2367 42.6477 -58.0555 42.1513 -57.8716L125.871 25.8494C126.058 25.3533 126.236 24.8569 126.409 24.358L43.6431 -58.4094ZM65.0694 -62C64.7309 -62 64.392 -61.9971 64.0532 -61.9914L129.994 3.94734C130.002 3.27027 130.002 2.59318 129.991 1.91553L66.0859 -61.9914C65.7468 -61.9971 65.4082 -62 65.0694 -62ZM53.9957 -61.0692C53.4242 -60.971 52.8528 -60.8653 52.2816 -60.7509L128.753 15.7167C128.865 15.1475 128.973 14.5764 129.071 14.0049L53.9957 -61.0692ZM10.7243 38.7974C13.0992 42.3906 15.8703 45.7997 19.0336 48.9635C22.1978 52.1299 25.6098 54.8982 29.2031 57.273L10.7243 38.7974ZM0.00592163 2.05457C-0.00239926 2.73219 -0.00239926 3.40924 0.00879174 4.08689L63.9142 67.9911C64.2781 67.9971 64.6424 68 65.0069 68C65.3197 68 65.6329 67.998 65.9461 67.994L0.00592163 2.05457ZM19.5494 -43.4656L19.0336 -42.964L18.5324 -42.4508L110.453 49.465L110.966 48.9635L111.468 48.4505L19.5494 -43.4656ZM1.39978 16.4606C1.58672 17.3474 1.79284 18.2284 2.01577 19.1061L48.8947 65.9811C49.7728 66.2071 50.6534 66.4132 51.5403 66.5973L1.39978 16.4606ZM1.24615 -9.71716C1.13518 -9.14826 1.02582 -8.57681 0.92848 -8.00533L76.0067 67.0686C76.5781 66.9707 77.1465 66.8651 77.718 66.7503L1.24615 -9.71716ZM34.5778 -54.4623C34.1373 -54.2282 33.6997 -53.991 33.2615 -53.7455L121.748 34.7384C121.993 34.3008 122.23 33.8635 122.465 33.4231L34.5778 -54.4623ZM100.797 -51.2733L119.276 -32.7977C116.9 -36.3906 114.13 -39.7999 110.966 -42.964C107.802 -46.1273 104.393 -48.8987 100.797 -51.2733ZM4.12891 -19.8497C3.94224 -19.3536 3.76357 -18.8572 3.59088 -18.3583L86.357 64.4091C86.856 64.2364 87.3547 64.058 87.8482 63.8711L4.12891 -19.8497ZM26.58 -49.4476C26.1921 -49.1605 25.8077 -48.8676 25.4231 -48.5722L116.574 42.5772C116.87 42.1927 117.163 41.8077 117.447 41.4206L26.58 -49.4476ZM13.4255 -36.5778C13.1297 -36.1925 12.8371 -35.808 12.5531 -35.418L103.42 55.4473C103.807 55.1602 104.195 54.8702 104.576 54.5748L13.4255 -36.5778ZM8.25138 -28.7364C8.00875 -28.3014 7.76925 -27.8638 7.53802 -27.4234L95.4223 60.4623C95.8628 60.228 96.3032 59.9907 96.7377 59.7458L8.25138 -28.7364Z" fill="#0BB4C9"/>
<path d="M78.4598 -60.5976L128.6 -10.461C128.413 -11.345 128.207 -12.2287 127.984 -13.1068L81.1082 -59.9816C80.2273 -60.2045 79.3464 -60.411 78.4598 -60.5976ZM43.6431 -58.4094C43.1438 -58.2367 42.6477 -58.0555 42.1513 -57.8716L125.871 25.8494C126.058 25.3533 126.236 24.8569 126.409 24.358L43.6431 -58.4094ZM65.0694 -62C64.7309 -62 64.392 -61.9971 64.0532 -61.9914L129.994 3.94734C130.002 3.27027 130.002 2.59318 129.991 1.91553L66.0859 -61.9914C65.7468 -61.9971 65.4082 -62 65.0694 -62ZM53.9957 -61.0692C53.4242 -60.971 52.8528 -60.8653 52.2816 -60.7509L128.753 15.7167C128.865 15.1475 128.973 14.5764 129.071 14.0049L53.9957 -61.0692ZM10.7243 38.7974C13.0992 42.3906 15.8703 45.7997 19.0336 48.9635C22.1978 52.1299 25.6098 54.8982 29.2031 57.273L10.7243 38.7974ZM0.00592163 2.05457C-0.00239926 2.73219 -0.00239926 3.40924 0.00879174 4.08689L63.9142 67.9911C64.2781 67.9971 64.6424 68 65.0069 68C65.3197 68 65.6329 67.998 65.9461 67.994L0.00592163 2.05457ZM19.5494 -43.4656L19.0336 -42.964L18.5324 -42.4508L110.453 49.465L110.966 48.9635L111.468 48.4505L19.5494 -43.4656ZM1.39978 16.4606C1.58672 17.3474 1.79284 18.2284 2.01577 19.1061L48.8947 65.9811C49.7728 66.2071 50.6534 66.4132 51.5403 66.5973L1.39978 16.4606ZM1.24615 -9.71716C1.13518 -9.14826 1.02582 -8.57681 0.92848 -8.00533L76.0067 67.0686C76.5781 66.9707 77.1465 66.8651 77.718 66.7503L1.24615 -9.71716ZM34.5778 -54.4623C34.1373 -54.2282 33.6997 -53.991 33.2615 -53.7455L121.748 34.7384C121.993 34.3008 122.23 33.8635 122.465 33.4231L34.5778 -54.4623ZM100.797 -51.2733L119.276 -32.7977C116.9 -36.3906 114.13 -39.7999 110.966 -42.964C107.802 -46.1273 104.393 -48.8987 100.797 -51.2733ZM4.12891 -19.8497C3.94224 -19.3536 3.76357 -18.8572 3.59088 -18.3583L86.357 64.4091C86.856 64.2364 87.3547 64.058 87.8482 63.8711L4.12891 -19.8497ZM26.58 -49.4476C26.1921 -49.1605 25.8077 -48.8676 25.4231 -48.5722L116.574 42.5772C116.87 42.1927 117.163 41.8077 117.447 41.4206L26.58 -49.4476ZM13.4255 -36.5778C13.1297 -36.1925 12.8371 -35.808 12.5531 -35.418L103.42 55.4473C103.807 55.1602 104.195 54.8702 104.576 54.5748L13.4255 -36.5778ZM8.25138 -28.7364C8.00875 -28.3014 7.76925 -27.8638 7.53802 -27.4234L95.4223 60.4623C95.8628 60.228 96.3032 59.9907 96.7377 59.7458L8.25138 -28.7364Z" fill="#0BB4C9"/>
<path d="M78.4598 -60.5976L128.6 -10.461C128.413 -11.345 128.207 -12.2287 127.984 -13.1068L81.1082 -59.9816C80.2273 -60.2045 79.3464 -60.411 78.4598 -60.5976ZM43.6431 -58.4094C43.1438 -58.2367 42.6477 -58.0555 42.1513 -57.8716L125.871 25.8494C126.058 25.3533 126.236 24.8569 126.409 24.358L43.6431 -58.4094ZM65.0694 -62C64.7309 -62 64.392 -61.9971 64.0532 -61.9914L129.994 3.94734C130.002 3.27027 130.002 2.59318 129.991 1.91553L66.0859 -61.9914C65.7468 -61.9971 65.4082 -62 65.0694 -62ZM53.9957 -61.0692C53.4242 -60.971 52.8528 -60.8653 52.2816 -60.7509L128.753 15.7167C128.865 15.1475 128.973 14.5764 129.071 14.0049L53.9957 -61.0692ZM10.7243 38.7974C13.0992 42.3906 15.8703 45.7997 19.0336 48.9635C22.1978 52.1299 25.6098 54.8982 29.2031 57.273L10.7243 38.7974ZM0.00592163 2.05457C-0.00239926 2.73219 -0.00239926 3.40924 0.00879174 4.08689L63.9142 67.9911C64.2781 67.9971 64.6424 68 65.0069 68C65.3197 68 65.6329 67.998 65.9461 67.994L0.00592163 2.05457ZM19.5494 -43.4656L19.0336 -42.964L18.5324 -42.4508L110.453 49.465L110.966 48.9635L111.468 48.4505L19.5494 -43.4656ZM1.39978 16.4606C1.58672 17.3474 1.79284 18.2284 2.01577 19.1061L48.8947 65.9811C49.7728 66.2071 50.6534 66.4132 51.5403 66.5973L1.39978 16.4606ZM1.24615 -9.71716C1.13518 -9.14826 1.02582 -8.57681 0.92848 -8.00533L76.0067 67.0686C76.5781 66.9707 77.1465 66.8651 77.718 66.7503L1.24615 -9.71716ZM34.5778 -54.4623C34.1373 -54.2282 33.6997 -53.991 33.2615 -53.7455L121.748 34.7384C121.993 34.3008 122.23 33.8635 122.465 33.4231L34.5778 -54.4623ZM100.797 -51.2733L119.276 -32.7977C116.9 -36.3906 114.13 -39.7999 110.966 -42.964C107.802 -46.1273 104.393 -48.8987 100.797 -51.2733ZM4.12891 -19.8497C3.94224 -19.3536 3.76357 -18.8572 3.59088 -18.3583L86.357 64.4091C86.856 64.2364 87.3547 64.058 87.8482 63.8711L4.12891 -19.8497ZM26.58 -49.4476C26.1921 -49.1605 25.8077 -48.8676 25.4231 -48.5722L116.574 42.5772C116.87 42.1927 117.163 41.8077 117.447 41.4206L26.58 -49.4476ZM13.4255 -36.5778C13.1297 -36.1925 12.8371 -35.808 12.5531 -35.418L103.42 55.4473C103.807 55.1602 104.195 54.8702 104.576 54.5748L13.4255 -36.5778ZM8.25138 -28.7364C8.00875 -28.3014 7.76925 -27.8638 7.53802 -27.4234L95.4223 60.4623C95.8628 60.228 96.3032 59.9907 96.7377 59.7458L8.25138 -28.7364Z" fill="#0BB4C9"/>
<path d="M78.4598 -60.5976L128.6 -10.461C128.413 -11.345 128.207 -12.2287 127.984 -13.1068L81.1082 -59.9816C80.2273 -60.2045 79.3464 -60.411 78.4598 -60.5976ZM43.6431 -58.4094C43.1438 -58.2367 42.6477 -58.0555 42.1513 -57.8716L125.871 25.8494C126.058 25.3533 126.236 24.8569 126.409 24.358L43.6431 -58.4094ZM65.0694 -62C64.7309 -62 64.392 -61.9971 64.0532 -61.9914L129.994 3.94734C130.002 3.27027 130.002 2.59318 129.991 1.91553L66.0859 -61.9914C65.7468 -61.9971 65.4082 -62 65.0694 -62ZM53.9957 -61.0692C53.4242 -60.971 52.8528 -60.8653 52.2816 -60.7509L128.753 15.7167C128.865 15.1475 128.973 14.5764 129.071 14.0049L53.9957 -61.0692ZM10.7243 38.7974C13.0992 42.3906 15.8703 45.7997 19.0336 48.9635C22.1978 52.1299 25.6098 54.8982 29.2031 57.273L10.7243 38.7974ZM0.00592163 2.05457C-0.00239926 2.73219 -0.00239926 3.40924 0.00879174 4.08689L63.9142 67.9911C64.2781 67.9971 64.6424 68 65.0069 68C65.3197 68 65.6329 67.998 65.9461 67.994L0.00592163 2.05457ZM19.5494 -43.4656L19.0336 -42.964L18.5324 -42.4508L110.453 49.465L110.966 48.9635L111.468 48.4505L19.5494 -43.4656ZM1.39978 16.4606C1.58672 17.3474 1.79284 18.2284 2.01577 19.1061L48.8947 65.9811C49.7728 66.2071 50.6534 66.4132 51.5403 66.5973L1.39978 16.4606ZM1.24615 -9.71716C1.13518 -9.14826 1.02582 -8.57681 0.92848 -8.00533L76.0067 67.0686C76.5781 66.9707 77.1465 66.8651 77.718 66.7503L1.24615 -9.71716ZM34.5778 -54.4623C34.1373 -54.2282 33.6997 -53.991 33.2615 -53.7455L121.748 34.7384C121.993 34.3008 122.23 33.8635 122.465 33.4231L34.5778 -54.4623ZM100.797 -51.2733L119.276 -32.7977C116.9 -36.3906 114.13 -39.7999 110.966 -42.964C107.802 -46.1273 104.393 -48.8987 100.797 -51.2733ZM4.12891 -19.8497C3.94224 -19.3536 3.76357 -18.8572 3.59088 -18.3583L86.357 64.4091C86.856 64.2364 87.3547 64.058 87.8482 63.8711L4.12891 -19.8497ZM26.58 -49.4476C26.1921 -49.1605 25.8077 -48.8676 25.4231 -48.5722L116.574 42.5772C116.87 42.1927 117.163 41.8077 117.447 41.4206L26.58 -49.4476ZM13.4255 -36.5778C13.1297 -36.1925 12.8371 -35.808 12.5531 -35.418L103.42 55.4473C103.807 55.1602 104.195 54.8702 104.576 54.5748L13.4255 -36.5778ZM8.25138 -28.7364C8.00875 -28.3014 7.76925 -27.8638 7.53802 -27.4234L95.4223 60.4623C95.8628 60.228 96.3032 59.9907 96.7377 59.7458L8.25138 -28.7364Z" fill="#0BB4C9"/>
<path d="M78.4598 -60.5976L128.6 -10.461C128.413 -11.345 128.207 -12.2287 127.984 -13.1068L81.1082 -59.9816C80.2273 -60.2045 79.3464 -60.411 78.4598 -60.5976ZM43.6431 -58.4094C43.1438 -58.2367 42.6477 -58.0555 42.1513 -57.8716L125.871 25.8494C126.058 25.3533 126.236 24.8569 126.409 24.358L43.6431 -58.4094ZM65.0694 -62C64.7309 -62 64.392 -61.9971 64.0532 -61.9914L129.994 3.94734C130.002 3.27027 130.002 2.59318 129.991 1.91553L66.0859 -61.9914C65.7468 -61.9971 65.4082 -62 65.0694 -62ZM53.9957 -61.0692C53.4242 -60.971 52.8528 -60.8653 52.2816 -60.7509L128.753 15.7167C128.865 15.1475 128.973 14.5764 129.071 14.0049L53.9957 -61.0692ZM10.7243 38.7974C13.0992 42.3906 15.8703 45.7997 19.0336 48.9635C22.1978 52.1299 25.6098 54.8982 29.2031 57.273L10.7243 38.7974ZM0.00592163 2.05457C-0.00239926 2.73219 -0.00239926 3.40924 0.00879174 4.08689L63.9142 67.9911C64.2781 67.9971 64.6424 68 65.0069 68C65.3197 68 65.6329 67.998 65.9461 67.994L0.00592163 2.05457ZM19.5494 -43.4656L19.0336 -42.964L18.5324 -42.4508L110.453 49.465L110.966 48.9635L111.468 48.4505L19.5494 -43.4656ZM1.39978 16.4606C1.58672 17.3474 1.79284 18.2284 2.01577 19.1061L48.8947 65.9811C49.7728 66.2071 50.6534 66.4132 51.5403 66.5973L1.39978 16.4606ZM1.24615 -9.71716C1.13518 -9.14826 1.02582 -8.57681 0.92848 -8.00533L76.0067 67.0686C76.5781 66.9707 77.1465 66.8651 77.718 66.7503L1.24615 -9.71716ZM34.5778 -54.4623C34.1373 -54.2282 33.6997 -53.991 33.2615 -53.7455L121.748 34.7384C121.993 34.3008 122.23 33.8635 122.465 33.4231L34.5778 -54.4623ZM100.797 -51.2733L119.276 -32.7977C116.9 -36.3906 114.13 -39.7999 110.966 -42.964C107.802 -46.1273 104.393 -48.8987 100.797 -51.2733ZM4.12891 -19.8497C3.94224 -19.3536 3.76357 -18.8572 3.59088 -18.3583L86.357 64.4091C86.856 64.2364 87.3547 64.058 87.8482 63.8711L4.12891 -19.8497ZM26.58 -49.4476C26.1921 -49.1605 25.8077 -48.8676 25.4231 -48.5722L116.574 42.5772C116.87 42.1927 117.163 41.8077 117.447 41.4206L26.58 -49.4476ZM13.4255 -36.5778C13.1297 -36.1925 12.8371 -35.808 12.5531 -35.418L103.42 55.4473C103.807 55.1602 104.195 54.8702 104.576 54.5748L13.4255 -36.5778ZM8.25138 -28.7364C8.00875 -28.3014 7.76925 -27.8638 7.53802 -27.4234L95.4223 60.4623C95.8628 60.228 96.3032 59.9907 96.7377 59.7458L8.25138 -28.7364Z" fill="#0BB4C9"/>
<path d="M78.4598 -60.5976L128.6 -10.461C128.413 -11.345 128.207 -12.2287 127.984 -13.1068L81.1082 -59.9816C80.2273 -60.2045 79.3464 -60.411 78.4598 -60.5976ZM43.6431 -58.4094C43.1438 -58.2367 42.6477 -58.0555 42.1513 -57.8716L125.871 25.8494C126.058 25.3533 126.236 24.8569 126.409 24.358L43.6431 -58.4094ZM65.0694 -62C64.7309 -62 64.392 -61.9971 64.0532 -61.9914L129.994 3.94734C130.002 3.27027 130.002 2.59318 129.991 1.91553L66.0859 -61.9914C65.7468 -61.9971 65.4082 -62 65.0694 -62ZM53.9957 -61.0692C53.4242 -60.971 52.8528 -60.8653 52.2816 -60.7509L128.753 15.7167C128.865 15.1475 128.973 14.5764 129.071 14.0049L53.9957 -61.0692ZM10.7243 38.7974C13.0992 42.3906 15.8703 45.7997 19.0336 48.9635C22.1978 52.1299 25.6098 54.8982 29.2031 57.273L10.7243 38.7974ZM0.00592163 2.05457C-0.00239926 2.73219 -0.00239926 3.40924 0.00879174 4.08689L63.9142 67.9911C64.2781 67.9971 64.6424 68 65.0069 68C65.3197 68 65.6329 67.998 65.9461 67.994L0.00592163 2.05457ZM19.5494 -43.4656L19.0336 -42.964L18.5324 -42.4508L110.453 49.465L110.966 48.9635L111.468 48.4505L19.5494 -43.4656ZM1.39978 16.4606C1.58672 17.3474 1.79284 18.2284 2.01577 19.1061L48.8947 65.9811C49.7728 66.2071 50.6534 66.4132 51.5403 66.5973L1.39978 16.4606ZM1.24615 -9.71716C1.13518 -9.14826 1.02582 -8.57681 0.92848 -8.00533L76.0067 67.0686C76.5781 66.9707 77.1465 66.8651 77.718 66.7503L1.24615 -9.71716ZM34.5778 -54.4623C34.1373 -54.2282 33.6997 -53.991 33.2615 -53.7455L121.748 34.7384C121.993 34.3008 122.23 33.8635 122.465 33.4231L34.5778 -54.4623ZM100.797 -51.2733L119.276 -32.7977C116.9 -36.3906 114.13 -39.7999 110.966 -42.964C107.802 -46.1273 104.393 -48.8987 100.797 -51.2733ZM4.12891 -19.8497C3.94224 -19.3536 3.76357 -18.8572 3.59088 -18.3583L86.357 64.4091C86.856 64.2364 87.3547 64.058 87.8482 63.8711L4.12891 -19.8497ZM26.58 -49.4476C26.1921 -49.1605 25.8077 -48.8676 25.4231 -48.5722L116.574 42.5772C116.87 42.1927 117.163 41.8077 117.447 41.4206L26.58 -49.4476ZM13.4255 -36.5778C13.1297 -36.1925 12.8371 -35.808 12.5531 -35.418L103.42 55.4473C103.807 55.1602 104.195 54.8702 104.576 54.5748L13.4255 -36.5778ZM8.25138 -28.7364C8.00875 -28.3014 7.76925 -27.8638 7.53802 -27.4234L95.4223 60.4623C95.8628 60.228 96.3032 59.9907 96.7377 59.7458L8.25138 -28.7364Z" fill="#0BB4C9"/>
<path d="M78.4598 -60.5976L128.6 -10.461C128.413 -11.345 128.207 -12.2287 127.984 -13.1068L81.1082 -59.9816C80.2273 -60.2045 79.3464 -60.411 78.4598 -60.5976ZM43.6431 -58.4094C43.1438 -58.2367 42.6477 -58.0555 42.1513 -57.8716L125.871 25.8494C126.058 25.3533 126.236 24.8569 126.409 24.358L43.6431 -58.4094ZM65.0694 -62C64.7309 -62 64.392 -61.9971 64.0532 -61.9914L129.994 3.94734C130.002 3.27027 130.002 2.59318 129.991 1.91553L66.0859 -61.9914C65.7468 -61.9971 65.4082 -62 65.0694 -62ZM53.9957 -61.0692C53.4242 -60.971 52.8528 -60.8653 52.2816 -60.7509L128.753 15.7167C128.865 15.1475 128.973 14.5764 129.071 14.0049L53.9957 -61.0692ZM10.7243 38.7974C13.0992 42.3906 15.8703 45.7997 19.0336 48.9635C22.1978 52.1299 25.6098 54.8982 29.2031 57.273L10.7243 38.7974ZM0.00592163 2.05457C-0.00239926 2.73219 -0.00239926 3.40924 0.00879174 4.08689L63.9142 67.9911C64.2781 67.9971 64.6424 68 65.0069 68C65.3197 68 65.6329 67.998 65.9461 67.994L0.00592163 2.05457ZM19.5494 -43.4656L19.0336 -42.964L18.5324 -42.4508L110.453 49.465L110.966 48.9635L111.468 48.4505L19.5494 -43.4656ZM1.39978 16.4606C1.58672 17.3474 1.79284 18.2284 2.01577 19.1061L48.8947 65.9811C49.7728 66.2071 50.6534 66.4132 51.5403 66.5973L1.39978 16.4606ZM1.24615 -9.71716C1.13518 -9.14826 1.02582 -8.57681 0.92848 -8.00533L76.0067 67.0686C76.5781 66.9707 77.1465 66.8651 77.718 66.7503L1.24615 -9.71716ZM34.5778 -54.4623C34.1373 -54.2282 33.6997 -53.991 33.2615 -53.7455L121.748 34.7384C121.993 34.3008 122.23 33.8635 122.465 33.4231L34.5778 -54.4623ZM100.797 -51.2733L119.276 -32.7977C116.9 -36.3906 114.13 -39.7999 110.966 -42.964C107.802 -46.1273 104.393 -48.8987 100.797 -51.2733ZM4.12891 -19.8497C3.94224 -19.3536 3.76357 -18.8572 3.59088 -18.3583L86.357 64.4091C86.856 64.2364 87.3547 64.058 87.8482 63.8711L4.12891 -19.8497ZM26.58 -49.4476C26.1921 -49.1605 25.8077 -48.8676 25.4231 -48.5722L116.574 42.5772C116.87 42.1927 117.163 41.8077 117.447 41.4206L26.58 -49.4476ZM13.4255 -36.5778C13.1297 -36.1925 12.8371 -35.808 12.5531 -35.418L103.42 55.4473C103.807 55.1602 104.195 54.8702 104.576 54.5748L13.4255 -36.5778ZM8.25138 -28.7364C8.00875 -28.3014 7.76925 -27.8638 7.53802 -27.4234L95.4223 60.4623C95.8628 60.228 96.3032 59.9907 96.7377 59.7458L8.25138 -28.7364Z" fill="#0BB4C9"/>
<path d="M78.4598 -60.5976L128.6 -10.461C128.413 -11.345 128.207 -12.2287 127.984 -13.1068L81.1082 -59.9816C80.2273 -60.2045 79.3464 -60.411 78.4598 -60.5976ZM43.6431 -58.4094C43.1438 -58.2367 42.6477 -58.0555 42.1513 -57.8716L125.871 25.8494C126.058 25.3533 126.236 24.8569 126.409 24.358L43.6431 -58.4094ZM65.0694 -62C64.7309 -62 64.392 -61.9971 64.0532 -61.9914L129.994 3.94734C130.002 3.27027 130.002 2.59318 129.991 1.91553L66.0859 -61.9914C65.7468 -61.9971 65.4082 -62 65.0694 -62ZM53.9957 -61.0692C53.4242 -60.971 52.8528 -60.8653 52.2816 -60.7509L128.753 15.7167C128.865 15.1475 128.973 14.5764 129.071 14.0049L53.9957 -61.0692ZM10.7243 38.7974C13.0992 42.3906 15.8703 45.7997 19.0336 48.9635C22.1978 52.1299 25.6098 54.8982 29.2031 57.273L10.7243 38.7974ZM0.00592163 2.05457C-0.00239926 2.73219 -0.00239926 3.40924 0.00879174 4.08689L63.9142 67.9911C64.2781 67.9971 64.6424 68 65.0069 68C65.3197 68 65.6329 67.998 65.9461 67.994L0.00592163 2.05457ZM19.5494 -43.4656L19.0336 -42.964L18.5324 -42.4508L110.453 49.465L110.966 48.9635L111.468 48.4505L19.5494 -43.4656ZM1.39978 16.4606C1.58672 17.3474 1.79284 18.2284 2.01577 19.1061L48.8947 65.9811C49.7728 66.2071 50.6534 66.4132 51.5403 66.5973L1.39978 16.4606ZM1.24615 -9.71716C1.13518 -9.14826 1.02582 -8.57681 0.92848 -8.00533L76.0067 67.0686C76.5781 66.9707 77.1465 66.8651 77.718 66.7503L1.24615 -9.71716ZM34.5778 -54.4623C34.1373 -54.2282 33.6997 -53.991 33.2615 -53.7455L121.748 34.7384C121.993 34.3008 122.23 33.8635 122.465 33.4231L34.5778 -54.4623ZM100.797 -51.2733L119.276 -32.7977C116.9 -36.3906 114.13 -39.7999 110.966 -42.964C107.802 -46.1273 104.393 -48.8987 100.797 -51.2733ZM4.12891 -19.8497C3.94224 -19.3536 3.76357 -18.8572 3.59088 -18.3583L86.357 64.4091C86.856 64.2364 87.3547 64.058 87.8482 63.8711L4.12891 -19.8497ZM26.58 -49.4476C26.1921 -49.1605 25.8077 -48.8676 25.4231 -48.5722L116.574 42.5772C116.87 42.1927 117.163 41.8077 117.447 41.4206L26.58 -49.4476ZM13.4255 -36.5778C13.1297 -36.1925 12.8371 -35.808 12.5531 -35.418L103.42 55.4473C103.807 55.1602 104.195 54.8702 104.576 54.5748L13.4255 -36.5778ZM8.25138 -28.7364C8.00875 -28.3014 7.76925 -27.8638 7.53802 -27.4234L95.4223 60.4623C95.8628 60.228 96.3032 59.9907 96.7377 59.7458L8.25138 -28.7364Z" fill="#0BB4C9"/>
<path d="M78.4598 -60.5976L128.6 -10.461C128.413 -11.345 128.207 -12.2287 127.984 -13.1068L81.1082 -59.9816C80.2273 -60.2045 79.3464 -60.411 78.4598 -60.5976ZM43.6431 -58.4094C43.1438 -58.2367 42.6477 -58.0555 42.1513 -57.8716L125.871 25.8494C126.058 25.3533 126.236 24.8569 126.409 24.358L43.6431 -58.4094ZM65.0694 -62C64.7309 -62 64.392 -61.9971 64.0532 -61.9914L129.994 3.94734C130.002 3.27027 130.002 2.59318 129.991 1.91553L66.0859 -61.9914C65.7468 -61.9971 65.4082 -62 65.0694 -62ZM53.9957 -61.0692C53.4242 -60.971 52.8528 -60.8653 52.2816 -60.7509L128.753 15.7167C128.865 15.1475 128.973 14.5764 129.071 14.0049L53.9957 -61.0692ZM10.7243 38.7974C13.0992 42.3906 15.8703 45.7997 19.0336 48.9635C22.1978 52.1299 25.6098 54.8982 29.2031 57.273L10.7243 38.7974ZM0.00592163 2.05457C-0.00239926 2.73219 -0.00239926 3.40924 0.00879174 4.08689L63.9142 67.9911C64.2781 67.9971 64.6424 68 65.0069 68C65.3197 68 65.6329 67.998 65.9461 67.994L0.00592163 2.05457ZM19.5494 -43.4656L19.0336 -42.964L18.5324 -42.4508L110.453 49.465L110.966 48.9635L111.468 48.4505L19.5494 -43.4656ZM1.39978 16.4606C1.58672 17.3474 1.79284 18.2284 2.01577 19.1061L48.8947 65.9811C49.7728 66.2071 50.6534 66.4132 51.5403 66.5973L1.39978 16.4606ZM1.24615 -9.71716C1.13518 -9.14826 1.02582 -8.57681 0.92848 -8.00533L76.0067 67.0686C76.5781 66.9707 77.1465 66.8651 77.718 66.7503L1.24615 -9.71716ZM34.5778 -54.4623C34.1373 -54.2282 33.6997 -53.991 33.2615 -53.7455L121.748 34.7384C121.993 34.3008 122.23 33.8635 122.465 33.4231L34.5778 -54.4623ZM100.797 -51.2733L119.276 -32.7977C116.9 -36.3906 114.13 -39.7999 110.966 -42.964C107.802 -46.1273 104.393 -48.8987 100.797 -51.2733ZM4.12891 -19.8497C3.94224 -19.3536 3.76357 -18.8572 3.59088 -18.3583L86.357 64.4091C86.856 64.2364 87.3547 64.058 87.8482 63.8711L4.12891 -19.8497ZM26.58 -49.4476C26.1921 -49.1605 25.8077 -48.8676 25.4231 -48.5722L116.574 42.5772C116.87 42.1927 117.163 41.8077 117.447 41.4206L26.58 -49.4476ZM13.4255 -36.5778C13.1297 -36.1925 12.8371 -35.808 12.5531 -35.418L103.42 55.4473C103.807 55.1602 104.195 54.8702 104.576 54.5748L13.4255 -36.5778ZM8.25138 -28.7364C8.00875 -28.3014 7.76925 -27.8638 7.53802 -27.4234L95.4223 60.4623C95.8628 60.228 96.3032 59.9907 96.7377 59.7458L8.25138 -28.7364Z" fill="#0BB4C9"/>
<path d="M78.4598 -60.5976L128.6 -10.461C128.413 -11.345 128.207 -12.2287 127.984 -13.1068L81.1082 -59.9816C80.2273 -60.2045 79.3464 -60.411 78.4598 -60.5976ZM43.6431 -58.4094C43.1438 -58.2367 42.6477 -58.0555 42.1513 -57.8716L125.871 25.8494C126.058 25.3533 126.236 24.8569 126.409 24.358L43.6431 -58.4094ZM65.0694 -62C64.7309 -62 64.392 -61.9971 64.0532 -61.9914L129.994 3.94734C130.002 3.27027 130.002 2.59318 129.991 1.91553L66.0859 -61.9914C65.7468 -61.9971 65.4082 -62 65.0694 -62ZM53.9957 -61.0692C53.4242 -60.971 52.8528 -60.8653 52.2816 -60.7509L128.753 15.7167C128.865 15.1475 128.973 14.5764 129.071 14.0049L53.9957 -61.0692ZM10.7243 38.7974C13.0992 42.3906 15.8703 45.7997 19.0336 48.9635C22.1978 52.1299 25.6098 54.8982 29.2031 57.273L10.7243 38.7974ZM0.00592163 2.05457C-0.00239926 2.73219 -0.00239926 3.40924 0.00879174 4.08689L63.9142 67.9911C64.2781 67.9971 64.6424 68 65.0069 68C65.3197 68 65.6329 67.998 65.9461 67.994L0.00592163 2.05457ZM19.5494 -43.4656L19.0336 -42.964L18.5324 -42.4508L110.453 49.465L110.966 48.9635L111.468 48.4505L19.5494 -43.4656ZM1.39978 16.4606C1.58672 17.3474 1.79284 18.2284 2.01577 19.1061L48.8947 65.9811C49.7728 66.2071 50.6534 66.4132 51.5403 66.5973L1.39978 16.4606ZM1.24615 -9.71716C1.13518 -9.14826 1.02582 -8.57681 0.92848 -8.00533L76.0067 67.0686C76.5781 66.9707 77.1465 66.8651 77.718 66.7503L1.24615 -9.71716ZM34.5778 -54.4623C34.1373 -54.2282 33.6997 -53.991 33.2615 -53.7455L121.748 34.7384C121.993 34.3008 122.23 33.8635 122.465 33.4231L34.5778 -54.4623ZM100.797 -51.2733L119.276 -32.7977C116.9 -36.3906 114.13 -39.7999 110.966 -42.964C107.802 -46.1273 104.393 -48.8987 100.797 -51.2733ZM4.12891 -19.8497C3.94224 -19.3536 3.76357 -18.8572 3.59088 -18.3583L86.357 64.4091C86.856 64.2364 87.3547 64.058 87.8482 63.8711L4.12891 -19.8497ZM26.58 -49.4476C26.1921 -49.1605 25.8077 -48.8676 25.4231 -48.5722L116.574 42.5772C116.87 42.1927 117.163 41.8077 117.447 41.4206L26.58 -49.4476ZM13.4255 -36.5778C13.1297 -36.1925 12.8371 -35.808 12.5531 -35.418L103.42 55.4473C103.807 55.1602 104.195 54.8702 104.576 54.5748L13.4255 -36.5778ZM8.25138 -28.7364C8.00875 -28.3014 7.76925 -27.8638 7.53802 -27.4234L95.4223 60.4623C95.8628 60.228 96.3032 59.9907 96.7377 59.7458L8.25138 -28.7364Z" fill="#0BB4C9"/>
<path d="M78.4598 -60.5976L128.6 -10.461C128.413 -11.345 128.207 -12.2287 127.984 -13.1068L81.1082 -59.9816C80.2273 -60.2045 79.3464 -60.411 78.4598 -60.5976ZM43.6431 -58.4094C43.1438 -58.2367 42.6477 -58.0555 42.1513 -57.8716L125.871 25.8494C126.058 25.3533 126.236 24.8569 126.409 24.358L43.6431 -58.4094ZM65.0694 -62C64.7309 -62 64.392 -61.9971 64.0532 -61.9914L129.994 3.94734C130.002 3.27027 130.002 2.59318 129.991 1.91553L66.0859 -61.9914C65.7468 -61.9971 65.4082 -62 65.0694 -62ZM53.9957 -61.0692C53.4242 -60.971 52.8528 -60.8653 52.2816 -60.7509L128.753 15.7167C128.865 15.1475 128.973 14.5764 129.071 14.0049L53.9957 -61.0692ZM10.7243 38.7974C13.0992 42.3906 15.8703 45.7997 19.0336 48.9635C22.1978 52.1299 25.6098 54.8982 29.2031 57.273L10.7243 38.7974ZM0.00592163 2.05457C-0.00239926 2.73219 -0.00239926 3.40924 0.00879174 4.08689L63.9142 67.9911C64.2781 67.9971 64.6424 68 65.0069 68C65.3197 68 65.6329 67.998 65.9461 67.994L0.00592163 2.05457ZM19.5494 -43.4656L19.0336 -42.964L18.5324 -42.4508L110.453 49.465L110.966 48.9635L111.468 48.4505L19.5494 -43.4656ZM1.39978 16.4606C1.58672 17.3474 1.79284 18.2284 2.01577 19.1061L48.8947 65.9811C49.7728 66.2071 50.6534 66.4132 51.5403 66.5973L1.39978 16.4606ZM1.24615 -9.71716C1.13518 -9.14826 1.02582 -8.57681 0.92848 -8.00533L76.0067 67.0686C76.5781 66.9707 77.1465 66.8651 77.718 66.7503L1.24615 -9.71716ZM34.5778 -54.4623C34.1373 -54.2282 33.6997 -53.991 33.2615 -53.7455L121.748 34.7384C121.993 34.3008 122.23 33.8635 122.465 33.4231L34.5778 -54.4623ZM100.797 -51.2733L119.276 -32.7977C116.9 -36.3906 114.13 -39.7999 110.966 -42.964C107.802 -46.1273 104.393 -48.8987 100.797 -51.2733ZM4.12891 -19.8497C3.94224 -19.3536 3.76357 -18.8572 3.59088 -18.3583L86.357 64.4091C86.856 64.2364 87.3547 64.058 87.8482 63.8711L4.12891 -19.8497ZM26.58 -49.4476C26.1921 -49.1605 25.8077 -48.8676 25.4231 -48.5722L116.574 42.5772C116.87 42.1927 117.163 41.8077 117.447 41.4206L26.58 -49.4476ZM13.4255 -36.5778C13.1297 -36.1925 12.8371 -35.808 12.5531 -35.418L103.42 55.4473C103.807 55.1602 104.195 54.8702 104.576 54.5748L13.4255 -36.5778ZM8.25138 -28.7364C8.00875 -28.3014 7.76925 -27.8638 7.53802 -27.4234L95.4223 60.4623C95.8628 60.228 96.3032 59.9907 96.7377 59.7458L8.25138 -28.7364Z" fill="#0BB4C9"/>
<path d="M78.4598 -60.5976L128.6 -10.461C128.413 -11.345 128.207 -12.2287 127.984 -13.1068L81.1082 -59.9816C80.2273 -60.2045 79.3464 -60.411 78.4598 -60.5976ZM43.6431 -58.4094C43.1438 -58.2367 42.6477 -58.0555 42.1513 -57.8716L125.871 25.8494C126.058 25.3533 126.236 24.8569 126.409 24.358L43.6431 -58.4094ZM65.0694 -62C64.7309 -62 64.392 -61.9971 64.0532 -61.9914L129.994 3.94734C130.002 3.27027 130.002 2.59318 129.991 1.91553L66.0859 -61.9914C65.7468 -61.9971 65.4082 -62 65.0694 -62ZM53.9957 -61.0692C53.4242 -60.971 52.8528 -60.8653 52.2816 -60.7509L128.753 15.7167C128.865 15.1475 128.973 14.5764 129.071 14.0049L53.9957 -61.0692ZM10.7243 38.7974C13.0992 42.3906 15.8703 45.7997 19.0336 48.9635C22.1978 52.1299 25.6098 54.8982 29.2031 57.273L10.7243 38.7974ZM0.00592163 2.05457C-0.00239926 2.73219 -0.00239926 3.40924 0.00879174 4.08689L63.9142 67.9911C64.2781 67.9971 64.6424 68 65.0069 68C65.3197 68 65.6329 67.998 65.9461 67.994L0.00592163 2.05457ZM19.5494 -43.4656L19.0336 -42.964L18.5324 -42.4508L110.453 49.465L110.966 48.9635L111.468 48.4505L19.5494 -43.4656ZM1.39978 16.4606C1.58672 17.3474 1.79284 18.2284 2.01577 19.1061L48.8947 65.9811C49.7728 66.2071 50.6534 66.4132 51.5403 66.5973L1.39978 16.4606ZM1.24615 -9.71716C1.13518 -9.14826 1.02582 -8.57681 0.92848 -8.00533L76.0067 67.0686C76.5781 66.9707 77.1465 66.8651 77.718 66.7503L1.24615 -9.71716ZM34.5778 -54.4623C34.1373 -54.2282 33.6997 -53.991 33.2615 -53.7455L121.748 34.7384C121.993 34.3008 122.23 33.8635 122.465 33.4231L34.5778 -54.4623ZM100.797 -51.2733L119.276 -32.7977C116.9 -36.3906 114.13 -39.7999 110.966 -42.964C107.802 -46.1273 104.393 -48.8987 100.797 -51.2733ZM4.12891 -19.8497C3.94224 -19.3536 3.76357 -18.8572 3.59088 -18.3583L86.357 64.4091C86.856 64.2364 87.3547 64.058 87.8482 63.8711L4.12891 -19.8497ZM26.58 -49.4476C26.1921 -49.1605 25.8077 -48.8676 25.4231 -48.5722L116.574 42.5772C116.87 42.1927 117.163 41.8077 117.447 41.4206L26.58 -49.4476ZM13.4255 -36.5778C13.1297 -36.1925 12.8371 -35.808 12.5531 -35.418L103.42 55.4473C103.807 55.1602 104.195 54.8702 104.576 54.5748L13.4255 -36.5778ZM8.25138 -28.7364C8.00875 -28.3014 7.76925 -27.8638 7.53802 -27.4234L95.4223 60.4623C95.8628 60.228 96.3032 59.9907 96.7377 59.7458L8.25138 -28.7364Z" fill="#0BB4C9"/>
<path d="M78.4598 -60.5976L128.6 -10.461C128.413 -11.345 128.207 -12.2287 127.984 -13.1068L81.1082 -59.9816C80.2273 -60.2045 79.3464 -60.411 78.4598 -60.5976ZM43.6431 -58.4094C43.1438 -58.2367 42.6477 -58.0555 42.1513 -57.8716L125.871 25.8494C126.058 25.3533 126.236 24.8569 126.409 24.358L43.6431 -58.4094ZM65.0694 -62C64.7309 -62 64.392 -61.9971 64.0532 -61.9914L129.994 3.94734C130.002 3.27027 130.002 2.59318 129.991 1.91553L66.0859 -61.9914C65.7468 -61.9971 65.4082 -62 65.0694 -62ZM53.9957 -61.0692C53.4242 -60.971 52.8528 -60.8653 52.2816 -60.7509L128.753 15.7167C128.865 15.1475 128.973 14.5764 129.071 14.0049L53.9957 -61.0692ZM10.7243 38.7974C13.0992 42.3906 15.8703 45.7997 19.0336 48.9635C22.1978 52.1299 25.6098 54.8982 29.2031 57.273L10.7243 38.7974ZM0.00592163 2.05457C-0.00239926 2.73219 -0.00239926 3.40924 0.00879174 4.08689L63.9142 67.9911C64.2781 67.9971 64.6424 68 65.0069 68C65.3197 68 65.6329 67.998 65.9461 67.994L0.00592163 2.05457ZM19.5494 -43.4656L19.0336 -42.964L18.5324 -42.4508L110.453 49.465L110.966 48.9635L111.468 48.4505L19.5494 -43.4656ZM1.39978 16.4606C1.58672 17.3474 1.79284 18.2284 2.01577 19.1061L48.8947 65.9811C49.7728 66.2071 50.6534 66.4132 51.5403 66.5973L1.39978 16.4606ZM1.24615 -9.71716C1.13518 -9.14826 1.02582 -8.57681 0.92848 -8.00533L76.0067 67.0686C76.5781 66.9707 77.1465 66.8651 77.718 66.7503L1.24615 -9.71716ZM34.5778 -54.4623C34.1373 -54.2282 33.6997 -53.991 33.2615 -53.7455L121.748 34.7384C121.993 34.3008 122.23 33.8635 122.465 33.4231L34.5778 -54.4623ZM100.797 -51.2733L119.276 -32.7977C116.9 -36.3906 114.13 -39.7999 110.966 -42.964C107.802 -46.1273 104.393 -48.8987 100.797 -51.2733ZM4.12891 -19.8497C3.94224 -19.3536 3.76357 -18.8572 3.59088 -18.3583L86.357 64.4091C86.856 64.2364 87.3547 64.058 87.8482 63.8711L4.12891 -19.8497ZM26.58 -49.4476C26.1921 -49.1605 25.8077 -48.8676 25.4231 -48.5722L116.574 42.5772C116.87 42.1927 117.163 41.8077 117.447 41.4206L26.58 -49.4476ZM13.4255 -36.5778C13.1297 -36.1925 12.8371 -35.808 12.5531 -35.418L103.42 55.4473C103.807 55.1602 104.195 54.8702 104.576 54.5748L13.4255 -36.5778ZM8.25138 -28.7364C8.00875 -28.3014 7.76925 -27.8638 7.53802 -27.4234L95.4223 60.4623C95.8628 60.228 96.3032 59.9907 96.7377 59.7458L8.25138 -28.7364Z" fill="#0BB4C9"/>
<path d="M78.4598 -60.5976L128.6 -10.461C128.413 -11.345 128.207 -12.2287 127.984 -13.1068L81.1082 -59.9816C80.2273 -60.2045 79.3464 -60.411 78.4598 -60.5976ZM43.6431 -58.4094C43.1438 -58.2367 42.6477 -58.0555 42.1513 -57.8716L125.871 25.8494C126.058 25.3533 126.236 24.8569 126.409 24.358L43.6431 -58.4094ZM65.0694 -62C64.7309 -62 64.392 -61.9971 64.0532 -61.9914L129.994 3.94734C130.002 3.27027 130.002 2.59318 129.991 1.91553L66.0859 -61.9914C65.7468 -61.9971 65.4082 -62 65.0694 -62ZM53.9957 -61.0692C53.4242 -60.971 52.8528 -60.8653 52.2816 -60.7509L128.753 15.7167C128.865 15.1475 128.973 14.5764 129.071 14.0049L53.9957 -61.0692ZM10.7243 38.7974C13.0992 42.3906 15.8703 45.7997 19.0336 48.9635C22.1978 52.1299 25.6098 54.8982 29.2031 57.273L10.7243 38.7974ZM0.00592163 2.05457C-0.00239926 2.73219 -0.00239926 3.40924 0.00879174 4.08689L63.9142 67.9911C64.2781 67.9971 64.6424 68 65.0069 68C65.3197 68 65.6329 67.998 65.9461 67.994L0.00592163 2.05457ZM19.5494 -43.4656L19.0336 -42.964L18.5324 -42.4508L110.453 49.465L110.966 48.9635L111.468 48.4505L19.5494 -43.4656ZM1.39978 16.4606C1.58672 17.3474 1.79284 18.2284 2.01577 19.1061L48.8947 65.9811C49.7728 66.2071 50.6534 66.4132 51.5403 66.5973L1.39978 16.4606ZM1.24615 -9.71716C1.13518 -9.14826 1.02582 -8.57681 0.92848 -8.00533L76.0067 67.0686C76.5781 66.9707 77.1465 66.8651 77.718 66.7503L1.24615 -9.71716ZM34.5778 -54.4623C34.1373 -54.2282 33.6997 -53.991 33.2615 -53.7455L121.748 34.7384C121.993 34.3008 122.23 33.8635 122.465 33.4231L34.5778 -54.4623ZM100.797 -51.2733L119.276 -32.7977C116.9 -36.3906 114.13 -39.7999 110.966 -42.964C107.802 -46.1273 104.393 -48.8987 100.797 -51.2733ZM4.12891 -19.8497C3.94224 -19.3536 3.76357 -18.8572 3.59088 -18.3583L86.357 64.4091C86.856 64.2364 87.3547 64.058 87.8482 63.8711L4.12891 -19.8497ZM26.58 -49.4476C26.1921 -49.1605 25.8077 -48.8676 25.4231 -48.5722L116.574 42.5772C116.87 42.1927 117.163 41.8077 117.447 41.4206L26.58 -49.4476ZM13.4255 -36.5778C13.1297 -36.1925 12.8371 -35.808 12.5531 -35.418L103.42 55.4473C103.807 55.1602 104.195 54.8702 104.576 54.5748L13.4255 -36.5778ZM8.25138 -28.7364C8.00875 -28.3014 7.76925 -27.8638 7.53802 -27.4234L95.4223 60.4623C95.8628 60.228 96.3032 59.9907 96.7377 59.7458L8.25138 -28.7364Z" fill="#0BB4C9"/>
<path d="M78.4598 -60.5976L128.6 -10.461C128.413 -11.345 128.207 -12.2287 127.984 -13.1068L81.1082 -59.9816C80.2273 -60.2045 79.3464 -60.411 78.4598 -60.5976ZM43.6431 -58.4094C43.1438 -58.2367 42.6477 -58.0555 42.1513 -57.8716L125.871 25.8494C126.058 25.3533 126.236 24.8569 126.409 24.358L43.6431 -58.4094ZM65.0694 -62C64.7309 -62 64.392 -61.9971 64.0532 -61.9914L129.994 3.94734C130.002 3.27027 130.002 2.59318 129.991 1.91553L66.0859 -61.9914C65.7468 -61.9971 65.4082 -62 65.0694 -62ZM53.9957 -61.0692C53.4242 -60.971 52.8528 -60.8653 52.2816 -60.7509L128.753 15.7167C128.865 15.1475 128.973 14.5764 129.071 14.0049L53.9957 -61.0692ZM10.7243 38.7974C13.0992 42.3906 15.8703 45.7997 19.0336 48.9635C22.1978 52.1299 25.6098 54.8982 29.2031 57.273L10.7243 38.7974ZM0.00592163 2.05457C-0.00239926 2.73219 -0.00239926 3.40924 0.00879174 4.08689L63.9142 67.9911C64.2781 67.9971 64.6424 68 65.0069 68C65.3197 68 65.6329 67.998 65.9461 67.994L0.00592163 2.05457ZM19.5494 -43.4656L19.0336 -42.964L18.5324 -42.4508L110.453 49.465L110.966 48.9635L111.468 48.4505L19.5494 -43.4656ZM1.39978 16.4606C1.58672 17.3474 1.79284 18.2284 2.01577 19.1061L48.8947 65.9811C49.7728 66.2071 50.6534 66.4132 51.5403 66.5973L1.39978 16.4606ZM1.24615 -9.71716C1.13518 -9.14826 1.02582 -8.57681 0.92848 -8.00533L76.0067 67.0686C76.5781 66.9707 77.1465 66.8651 77.718 66.7503L1.24615 -9.71716ZM34.5778 -54.4623C34.1373 -54.2282 33.6997 -53.991 33.2615 -53.7455L121.748 34.7384C121.993 34.3008 122.23 33.8635 122.465 33.4231L34.5778 -54.4623ZM100.797 -51.2733L119.276 -32.7977C116.9 -36.3906 114.13 -39.7999 110.966 -42.964C107.802 -46.1273 104.393 -48.8987 100.797 -51.2733ZM4.12891 -19.8497C3.94224 -19.3536 3.76357 -18.8572 3.59088 -18.3583L86.357 64.4091C86.856 64.2364 87.3547 64.058 87.8482 63.8711L4.12891 -19.8497ZM26.58 -49.4476C26.1921 -49.1605 25.8077 -48.8676 25.4231 -48.5722L116.574 42.5772C116.87 42.1927 117.163 41.8077 117.447 41.4206L26.58 -49.4476ZM13.4255 -36.5778C13.1297 -36.1925 12.8371 -35.808 12.5531 -35.418L103.42 55.4473C103.807 55.1602 104.195 54.8702 104.576 54.5748L13.4255 -36.5778ZM8.25138 -28.7364C8.00875 -28.3014 7.76925 -27.8638 7.53802 -27.4234L95.4223 60.4623C95.8628 60.228 96.3032 59.9907 96.7377 59.7458L8.25138 -28.7364Z" fill="#0BB4C9"/>
</svg>
