<svg width="54" height="105" viewBox="0 0 54 105" fill="none" xmlns="http://www.w3.org/2000/svg">
<path d="M63.3714 1.13271L103.869 41.6277C103.718 40.9137 103.552 40.1999 103.372 39.4907L65.5105 1.63023C64.799 1.45013 64.0875 1.28347 63.3714 1.13271ZM35.2502 2.9001C34.8469 3.03959 34.4462 3.18598 34.0453 3.33445L101.665 70.9554C101.816 70.5546 101.96 70.1537 102.1 69.7507L35.2502 2.9001ZM52.5561 0C52.2826 0 52.009 0.00227925 51.7353 0.00693516L104.995 53.2652C105.002 52.7183 105.002 52.1715 104.993 51.6241L53.3771 0.00693516C53.1032 0.00227925 52.8297 0 52.5561 0ZM43.6119 0.751822C43.1503 0.831128 42.6888 0.916415 42.2274 1.00887L103.993 62.7712C104.083 62.3115 104.171 61.8502 104.25 61.3886L43.6119 0.751822ZM8.66186 81.4133C10.5801 84.3155 12.8183 87.0689 15.3733 89.6244C17.929 92.1819 20.6849 94.4177 23.5871 96.3359L8.66186 81.4133ZM0.00478673 51.7364C-0.00193399 52.2838 -0.00193399 52.8306 0.00706594 53.3779L51.623 104.993C51.9169 104.998 52.2112 105 52.5056 105C52.7582 105 53.0112 104.998 53.2641 104.995L0.00478673 51.7364ZM15.7899 14.9701L15.3733 15.3752L14.9685 15.7897L89.212 90.0294L89.6261 89.6244L90.0316 89.2101L15.7899 14.9701ZM1.1306 63.3721C1.28159 64.0884 1.44807 64.7999 1.62809 65.5088L39.4919 103.369C40.2011 103.552 40.9124 103.718 41.6287 103.867L1.1306 63.3721ZM1.00651 42.2285C0.916838 42.688 0.828514 43.1496 0.74995 43.6112L61.39 104.248C61.8516 104.169 62.3106 104.083 62.7722 103.991L1.00651 42.2285ZM27.9282 6.08817C27.5724 6.27719 27.219 6.46877 26.8651 6.66704L98.335 78.1349C98.5331 77.7815 98.7244 77.4283 98.9137 77.0726L27.9282 6.08817ZM81.4128 8.66386L96.338 23.5864C94.4195 20.6845 92.1818 17.9308 89.6261 15.3752C87.0708 12.8202 84.3171 10.5818 81.4128 8.66386ZM3.33492 34.0444C3.18412 34.4451 3.03977 34.8461 2.90029 35.2491L69.7499 102.1C70.1529 101.96 70.5557 101.816 70.9543 101.665L3.33492 34.0444ZM21.4685 10.1385C21.1552 10.3704 20.8447 10.607 20.5341 10.8456L94.1563 84.4663C94.3948 84.1557 94.6314 83.8447 94.8611 83.5321L21.4685 10.1385ZM10.8436 20.5333C10.6047 20.8445 10.3684 21.1551 10.139 21.47L83.5316 94.8613C83.8442 94.6294 84.1573 94.3952 84.4655 94.1565L10.8436 20.5333ZM6.66458 26.8667C6.46861 27.2181 6.27517 27.5715 6.08843 27.9272L77.0719 98.9119C77.4276 98.7226 77.7833 98.531 78.1343 98.3332L6.66458 26.8667Z" fill="#1B5076"/>
<path d="M63.3714 1.13271L103.869 41.6277C103.718 40.9137 103.552 40.1999 103.372 39.4907L65.5105 1.63023C64.799 1.45013 64.0875 1.28347 63.3714 1.13271ZM35.2502 2.9001C34.8469 3.03959 34.4462 3.18598 34.0453 3.33445L101.665 70.9554C101.816 70.5546 101.96 70.1537 102.1 69.7507L35.2502 2.9001ZM52.5561 0C52.2826 0 52.009 0.00227925 51.7353 0.00693516L104.995 53.2652C105.002 52.7183 105.002 52.1715 104.993 51.6241L53.3771 0.00693516C53.1032 0.00227925 52.8297 0 52.5561 0ZM43.6119 0.751822C43.1503 0.831128 42.6888 0.916415 42.2274 1.00887L103.993 62.7712C104.083 62.3115 104.171 61.8502 104.25 61.3886L43.6119 0.751822ZM8.66186 81.4133C10.5801 84.3155 12.8183 87.0689 15.3733 89.6244C17.929 92.1819 20.6849 94.4177 23.5871 96.3359L8.66186 81.4133ZM0.00478673 51.7364C-0.00193399 52.2838 -0.00193399 52.8306 0.00706594 53.3779L51.623 104.993C51.9169 104.998 52.2112 105 52.5056 105C52.7582 105 53.0112 104.998 53.2641 104.995L0.00478673 51.7364ZM15.7899 14.9701L15.3733 15.3752L14.9685 15.7897L89.212 90.0294L89.6261 89.6244L90.0316 89.2101L15.7899 14.9701ZM1.1306 63.3721C1.28159 64.0884 1.44807 64.7999 1.62809 65.5088L39.4919 103.369C40.2011 103.552 40.9124 103.718 41.6287 103.867L1.1306 63.3721ZM1.00651 42.2285C0.916838 42.688 0.828514 43.1496 0.74995 43.6112L61.39 104.248C61.8516 104.169 62.3106 104.083 62.7722 103.991L1.00651 42.2285ZM27.9282 6.08817C27.5724 6.27719 27.219 6.46877 26.8651 6.66704L98.335 78.1349C98.5331 77.7815 98.7244 77.4283 98.9137 77.0726L27.9282 6.08817ZM81.4128 8.66386L96.338 23.5864C94.4195 20.6845 92.1818 17.9308 89.6261 15.3752C87.0708 12.8202 84.3171 10.5818 81.4128 8.66386ZM3.33492 34.0444C3.18412 34.4451 3.03977 34.8461 2.90029 35.2491L69.7499 102.1C70.1529 101.96 70.5557 101.816 70.9543 101.665L3.33492 34.0444ZM21.4685 10.1385C21.1552 10.3704 20.8447 10.607 20.5341 10.8456L94.1563 84.4663C94.3948 84.1557 94.6314 83.8447 94.8611 83.5321L21.4685 10.1385ZM10.8436 20.5333C10.6047 20.8445 10.3684 21.1551 10.139 21.47L83.5316 94.8613C83.8442 94.6294 84.1573 94.3952 84.4655 94.1565L10.8436 20.5333ZM6.66458 26.8667C6.46861 27.2181 6.27517 27.5715 6.08843 27.9272L77.0719 98.9119C77.4276 98.7226 77.7833 98.531 78.1343 98.3332L6.66458 26.8667Z" fill="#1B5076"/>
<path d="M63.3714 1.13271L103.869 41.6277C103.718 40.9137 103.552 40.1999 103.372 39.4907L65.5105 1.63023C64.799 1.45013 64.0875 1.28347 63.3714 1.13271ZM35.2502 2.9001C34.8469 3.03959 34.4462 3.18598 34.0453 3.33445L101.665 70.9554C101.816 70.5546 101.96 70.1537 102.1 69.7507L35.2502 2.9001ZM52.5561 0C52.2826 0 52.009 0.00227925 51.7353 0.00693516L104.995 53.2652C105.002 52.7183 105.002 52.1715 104.993 51.6241L53.3771 0.00693516C53.1032 0.00227925 52.8297 0 52.5561 0ZM43.6119 0.751822C43.1503 0.831128 42.6888 0.916415 42.2274 1.00887L103.993 62.7712C104.083 62.3115 104.171 61.8502 104.25 61.3886L43.6119 0.751822ZM8.66186 81.4133C10.5801 84.3155 12.8183 87.0689 15.3733 89.6244C17.929 92.1819 20.6849 94.4177 23.5871 96.3359L8.66186 81.4133ZM0.00478673 51.7364C-0.00193399 52.2838 -0.00193399 52.8306 0.00706594 53.3779L51.623 104.993C51.9169 104.998 52.2112 105 52.5056 105C52.7582 105 53.0112 104.998 53.2641 104.995L0.00478673 51.7364ZM15.7899 14.9701L15.3733 15.3752L14.9685 15.7897L89.212 90.0294L89.6261 89.6244L90.0316 89.2101L15.7899 14.9701ZM1.1306 63.3721C1.28159 64.0884 1.44807 64.7999 1.62809 65.5088L39.4919 103.369C40.2011 103.552 40.9124 103.718 41.6287 103.867L1.1306 63.3721ZM1.00651 42.2285C0.916838 42.688 0.828514 43.1496 0.74995 43.6112L61.39 104.248C61.8516 104.169 62.3106 104.083 62.7722 103.991L1.00651 42.2285ZM27.9282 6.08817C27.5724 6.27719 27.219 6.46877 26.8651 6.66704L98.335 78.1349C98.5331 77.7815 98.7244 77.4283 98.9137 77.0726L27.9282 6.08817ZM81.4128 8.66386L96.338 23.5864C94.4195 20.6845 92.1818 17.9308 89.6261 15.3752C87.0708 12.8202 84.3171 10.5818 81.4128 8.66386ZM3.33492 34.0444C3.18412 34.4451 3.03977 34.8461 2.90029 35.2491L69.7499 102.1C70.1529 101.96 70.5557 101.816 70.9543 101.665L3.33492 34.0444ZM21.4685 10.1385C21.1552 10.3704 20.8447 10.607 20.5341 10.8456L94.1563 84.4663C94.3948 84.1557 94.6314 83.8447 94.8611 83.5321L21.4685 10.1385ZM10.8436 20.5333C10.6047 20.8445 10.3684 21.1551 10.139 21.47L83.5316 94.8613C83.8442 94.6294 84.1573 94.3952 84.4655 94.1565L10.8436 20.5333ZM6.66458 26.8667C6.46861 27.2181 6.27517 27.5715 6.08843 27.9272L77.0719 98.9119C77.4276 98.7226 77.7833 98.531 78.1343 98.3332L6.66458 26.8667Z" fill="#1B5076"/>
<path d="M63.3714 1.13271L103.869 41.6277C103.718 40.9137 103.552 40.1999 103.372 39.4907L65.5105 1.63023C64.799 1.45013 64.0875 1.28347 63.3714 1.13271ZM35.2502 2.9001C34.8469 3.03959 34.4462 3.18598 34.0453 3.33445L101.665 70.9554C101.816 70.5546 101.96 70.1537 102.1 69.7507L35.2502 2.9001ZM52.5561 0C52.2826 0 52.009 0.00227925 51.7353 0.00693516L104.995 53.2652C105.002 52.7183 105.002 52.1715 104.993 51.6241L53.3771 0.00693516C53.1032 0.00227925 52.8297 0 52.5561 0ZM43.6119 0.751822C43.1503 0.831128 42.6888 0.916415 42.2274 1.00887L103.993 62.7712C104.083 62.3115 104.171 61.8502 104.25 61.3886L43.6119 0.751822ZM8.66186 81.4133C10.5801 84.3155 12.8183 87.0689 15.3733 89.6244C17.929 92.1819 20.6849 94.4177 23.5871 96.3359L8.66186 81.4133ZM0.00478673 51.7364C-0.00193399 52.2838 -0.00193399 52.8306 0.00706594 53.3779L51.623 104.993C51.9169 104.998 52.2112 105 52.5056 105C52.7582 105 53.0112 104.998 53.2641 104.995L0.00478673 51.7364ZM15.7899 14.9701L15.3733 15.3752L14.9685 15.7897L89.212 90.0294L89.6261 89.6244L90.0316 89.2101L15.7899 14.9701ZM1.1306 63.3721C1.28159 64.0884 1.44807 64.7999 1.62809 65.5088L39.4919 103.369C40.2011 103.552 40.9124 103.718 41.6287 103.867L1.1306 63.3721ZM1.00651 42.2285C0.916838 42.688 0.828514 43.1496 0.74995 43.6112L61.39 104.248C61.8516 104.169 62.3106 104.083 62.7722 103.991L1.00651 42.2285ZM27.9282 6.08817C27.5724 6.27719 27.219 6.46877 26.8651 6.66704L98.335 78.1349C98.5331 77.7815 98.7244 77.4283 98.9137 77.0726L27.9282 6.08817ZM81.4128 8.66386L96.338 23.5864C94.4195 20.6845 92.1818 17.9308 89.6261 15.3752C87.0708 12.8202 84.3171 10.5818 81.4128 8.66386ZM3.33492 34.0444C3.18412 34.4451 3.03977 34.8461 2.90029 35.2491L69.7499 102.1C70.1529 101.96 70.5557 101.816 70.9543 101.665L3.33492 34.0444ZM21.4685 10.1385C21.1552 10.3704 20.8447 10.607 20.5341 10.8456L94.1563 84.4663C94.3948 84.1557 94.6314 83.8447 94.8611 83.5321L21.4685 10.1385ZM10.8436 20.5333C10.6047 20.8445 10.3684 21.1551 10.139 21.47L83.5316 94.8613C83.8442 94.6294 84.1573 94.3952 84.4655 94.1565L10.8436 20.5333ZM6.66458 26.8667C6.46861 27.2181 6.27517 27.5715 6.08843 27.9272L77.0719 98.9119C77.4276 98.7226 77.7833 98.531 78.1343 98.3332L6.66458 26.8667Z" fill="#1B5076"/>
<path d="M63.3714 1.13271L103.869 41.6277C103.718 40.9137 103.552 40.1999 103.372 39.4907L65.5105 1.63023C64.799 1.45013 64.0875 1.28347 63.3714 1.13271ZM35.2502 2.9001C34.8469 3.03959 34.4462 3.18598 34.0453 3.33445L101.665 70.9554C101.816 70.5546 101.96 70.1537 102.1 69.7507L35.2502 2.9001ZM52.5561 0C52.2826 0 52.009 0.00227925 51.7353 0.00693516L104.995 53.2652C105.002 52.7183 105.002 52.1715 104.993 51.6241L53.3771 0.00693516C53.1032 0.00227925 52.8297 0 52.5561 0ZM43.6119 0.751822C43.1503 0.831128 42.6888 0.916415 42.2274 1.00887L103.993 62.7712C104.083 62.3115 104.171 61.8502 104.25 61.3886L43.6119 0.751822ZM8.66186 81.4133C10.5801 84.3155 12.8183 87.0689 15.3733 89.6244C17.929 92.1819 20.6849 94.4177 23.5871 96.3359L8.66186 81.4133ZM0.00478673 51.7364C-0.00193399 52.2838 -0.00193399 52.8306 0.00706594 53.3779L51.623 104.993C51.9169 104.998 52.2112 105 52.5056 105C52.7582 105 53.0112 104.998 53.2641 104.995L0.00478673 51.7364ZM15.7899 14.9701L15.3733 15.3752L14.9685 15.7897L89.212 90.0294L89.6261 89.6244L90.0316 89.2101L15.7899 14.9701ZM1.1306 63.3721C1.28159 64.0884 1.44807 64.7999 1.62809 65.5088L39.4919 103.369C40.2011 103.552 40.9124 103.718 41.6287 103.867L1.1306 63.3721ZM1.00651 42.2285C0.916838 42.688 0.828514 43.1496 0.74995 43.6112L61.39 104.248C61.8516 104.169 62.3106 104.083 62.7722 103.991L1.00651 42.2285ZM27.9282 6.08817C27.5724 6.27719 27.219 6.46877 26.8651 6.66704L98.335 78.1349C98.5331 77.7815 98.7244 77.4283 98.9137 77.0726L27.9282 6.08817ZM81.4128 8.66386L96.338 23.5864C94.4195 20.6845 92.1818 17.9308 89.6261 15.3752C87.0708 12.8202 84.3171 10.5818 81.4128 8.66386ZM3.33492 34.0444C3.18412 34.4451 3.03977 34.8461 2.90029 35.2491L69.7499 102.1C70.1529 101.96 70.5557 101.816 70.9543 101.665L3.33492 34.0444ZM21.4685 10.1385C21.1552 10.3704 20.8447 10.607 20.5341 10.8456L94.1563 84.4663C94.3948 84.1557 94.6314 83.8447 94.8611 83.5321L21.4685 10.1385ZM10.8436 20.5333C10.6047 20.8445 10.3684 21.1551 10.139 21.47L83.5316 94.8613C83.8442 94.6294 84.1573 94.3952 84.4655 94.1565L10.8436 20.5333ZM6.66458 26.8667C6.46861 27.2181 6.27517 27.5715 6.08843 27.9272L77.0719 98.9119C77.4276 98.7226 77.7833 98.531 78.1343 98.3332L6.66458 26.8667Z" fill="#1B5076"/>
<path d="M63.3714 1.13271L103.869 41.6277C103.718 40.9137 103.552 40.1999 103.372 39.4907L65.5105 1.63023C64.799 1.45013 64.0875 1.28347 63.3714 1.13271ZM35.2502 2.9001C34.8469 3.03959 34.4462 3.18598 34.0453 3.33445L101.665 70.9554C101.816 70.5546 101.96 70.1537 102.1 69.7507L35.2502 2.9001ZM52.5561 0C52.2826 0 52.009 0.00227925 51.7353 0.00693516L104.995 53.2652C105.002 52.7183 105.002 52.1715 104.993 51.6241L53.3771 0.00693516C53.1032 0.00227925 52.8297 0 52.5561 0ZM43.6119 0.751822C43.1503 0.831128 42.6888 0.916415 42.2274 1.00887L103.993 62.7712C104.083 62.3115 104.171 61.8502 104.25 61.3886L43.6119 0.751822ZM8.66186 81.4133C10.5801 84.3155 12.8183 87.0689 15.3733 89.6244C17.929 92.1819 20.6849 94.4177 23.5871 96.3359L8.66186 81.4133ZM0.00478673 51.7364C-0.00193399 52.2838 -0.00193399 52.8306 0.00706594 53.3779L51.623 104.993C51.9169 104.998 52.2112 105 52.5056 105C52.7582 105 53.0112 104.998 53.2641 104.995L0.00478673 51.7364ZM15.7899 14.9701L15.3733 15.3752L14.9685 15.7897L89.212 90.0294L89.6261 89.6244L90.0316 89.2101L15.7899 14.9701ZM1.1306 63.3721C1.28159 64.0884 1.44807 64.7999 1.62809 65.5088L39.4919 103.369C40.2011 103.552 40.9124 103.718 41.6287 103.867L1.1306 63.3721ZM1.00651 42.2285C0.916838 42.688 0.828514 43.1496 0.74995 43.6112L61.39 104.248C61.8516 104.169 62.3106 104.083 62.7722 103.991L1.00651 42.2285ZM27.9282 6.08817C27.5724 6.27719 27.219 6.46877 26.8651 6.66704L98.335 78.1349C98.5331 77.7815 98.7244 77.4283 98.9137 77.0726L27.9282 6.08817ZM81.4128 8.66386L96.338 23.5864C94.4195 20.6845 92.1818 17.9308 89.6261 15.3752C87.0708 12.8202 84.3171 10.5818 81.4128 8.66386ZM3.33492 34.0444C3.18412 34.4451 3.03977 34.8461 2.90029 35.2491L69.7499 102.1C70.1529 101.96 70.5557 101.816 70.9543 101.665L3.33492 34.0444ZM21.4685 10.1385C21.1552 10.3704 20.8447 10.607 20.5341 10.8456L94.1563 84.4663C94.3948 84.1557 94.6314 83.8447 94.8611 83.5321L21.4685 10.1385ZM10.8436 20.5333C10.6047 20.8445 10.3684 21.1551 10.139 21.47L83.5316 94.8613C83.8442 94.6294 84.1573 94.3952 84.4655 94.1565L10.8436 20.5333ZM6.66458 26.8667C6.46861 27.2181 6.27517 27.5715 6.08843 27.9272L77.0719 98.9119C77.4276 98.7226 77.7833 98.531 78.1343 98.3332L6.66458 26.8667Z" fill="#1B5076"/>
<path d="M63.3714 1.13271L103.869 41.6277C103.718 40.9137 103.552 40.1999 103.372 39.4907L65.5105 1.63023C64.799 1.45013 64.0875 1.28347 63.3714 1.13271ZM35.2502 2.9001C34.8469 3.03959 34.4462 3.18598 34.0453 3.33445L101.665 70.9554C101.816 70.5546 101.96 70.1537 102.1 69.7507L35.2502 2.9001ZM52.5561 0C52.2826 0 52.009 0.00227925 51.7353 0.00693516L104.995 53.2652C105.002 52.7183 105.002 52.1715 104.993 51.6241L53.3771 0.00693516C53.1032 0.00227925 52.8297 0 52.5561 0ZM43.6119 0.751822C43.1503 0.831128 42.6888 0.916415 42.2274 1.00887L103.993 62.7712C104.083 62.3115 104.171 61.8502 104.25 61.3886L43.6119 0.751822ZM8.66186 81.4133C10.5801 84.3155 12.8183 87.0689 15.3733 89.6244C17.929 92.1819 20.6849 94.4177 23.5871 96.3359L8.66186 81.4133ZM0.00478673 51.7364C-0.00193399 52.2838 -0.00193399 52.8306 0.00706594 53.3779L51.623 104.993C51.9169 104.998 52.2112 105 52.5056 105C52.7582 105 53.0112 104.998 53.2641 104.995L0.00478673 51.7364ZM15.7899 14.9701L15.3733 15.3752L14.9685 15.7897L89.212 90.0294L89.6261 89.6244L90.0316 89.2101L15.7899 14.9701ZM1.1306 63.3721C1.28159 64.0884 1.44807 64.7999 1.62809 65.5088L39.4919 103.369C40.2011 103.552 40.9124 103.718 41.6287 103.867L1.1306 63.3721ZM1.00651 42.2285C0.916838 42.688 0.828514 43.1496 0.74995 43.6112L61.39 104.248C61.8516 104.169 62.3106 104.083 62.7722 103.991L1.00651 42.2285ZM27.9282 6.08817C27.5724 6.27719 27.219 6.46877 26.8651 6.66704L98.335 78.1349C98.5331 77.7815 98.7244 77.4283 98.9137 77.0726L27.9282 6.08817ZM81.4128 8.66386L96.338 23.5864C94.4195 20.6845 92.1818 17.9308 89.6261 15.3752C87.0708 12.8202 84.3171 10.5818 81.4128 8.66386ZM3.33492 34.0444C3.18412 34.4451 3.03977 34.8461 2.90029 35.2491L69.7499 102.1C70.1529 101.96 70.5557 101.816 70.9543 101.665L3.33492 34.0444ZM21.4685 10.1385C21.1552 10.3704 20.8447 10.607 20.5341 10.8456L94.1563 84.4663C94.3948 84.1557 94.6314 83.8447 94.8611 83.5321L21.4685 10.1385ZM10.8436 20.5333C10.6047 20.8445 10.3684 21.1551 10.139 21.47L83.5316 94.8613C83.8442 94.6294 84.1573 94.3952 84.4655 94.1565L10.8436 20.5333ZM6.66458 26.8667C6.46861 27.2181 6.27517 27.5715 6.08843 27.9272L77.0719 98.9119C77.4276 98.7226 77.7833 98.531 78.1343 98.3332L6.66458 26.8667Z" fill="#1B5076"/>
<path d="M63.3714 1.13271L103.869 41.6277C103.718 40.9137 103.552 40.1999 103.372 39.4907L65.5105 1.63023C64.799 1.45013 64.0875 1.28347 63.3714 1.13271ZM35.2502 2.9001C34.8469 3.03959 34.4462 3.18598 34.0453 3.33445L101.665 70.9554C101.816 70.5546 101.96 70.1537 102.1 69.7507L35.2502 2.9001ZM52.5561 0C52.2826 0 52.009 0.00227925 51.7353 0.00693516L104.995 53.2652C105.002 52.7183 105.002 52.1715 104.993 51.6241L53.3771 0.00693516C53.1032 0.00227925 52.8297 0 52.5561 0ZM43.6119 0.751822C43.1503 0.831128 42.6888 0.916415 42.2274 1.00887L103.993 62.7712C104.083 62.3115 104.171 61.8502 104.25 61.3886L43.6119 0.751822ZM8.66186 81.4133C10.5801 84.3155 12.8183 87.0689 15.3733 89.6244C17.929 92.1819 20.6849 94.4177 23.5871 96.3359L8.66186 81.4133ZM0.00478673 51.7364C-0.00193399 52.2838 -0.00193399 52.8306 0.00706594 53.3779L51.623 104.993C51.9169 104.998 52.2112 105 52.5056 105C52.7582 105 53.0112 104.998 53.2641 104.995L0.00478673 51.7364ZM15.7899 14.9701L15.3733 15.3752L14.9685 15.7897L89.212 90.0294L89.6261 89.6244L90.0316 89.2101L15.7899 14.9701ZM1.1306 63.3721C1.28159 64.0884 1.44807 64.7999 1.62809 65.5088L39.4919 103.369C40.2011 103.552 40.9124 103.718 41.6287 103.867L1.1306 63.3721ZM1.00651 42.2285C0.916838 42.688 0.828514 43.1496 0.74995 43.6112L61.39 104.248C61.8516 104.169 62.3106 104.083 62.7722 103.991L1.00651 42.2285ZM27.9282 6.08817C27.5724 6.27719 27.219 6.46877 26.8651 6.66704L98.335 78.1349C98.5331 77.7815 98.7244 77.4283 98.9137 77.0726L27.9282 6.08817ZM81.4128 8.66386L96.338 23.5864C94.4195 20.6845 92.1818 17.9308 89.6261 15.3752C87.0708 12.8202 84.3171 10.5818 81.4128 8.66386ZM3.33492 34.0444C3.18412 34.4451 3.03977 34.8461 2.90029 35.2491L69.7499 102.1C70.1529 101.96 70.5557 101.816 70.9543 101.665L3.33492 34.0444ZM21.4685 10.1385C21.1552 10.3704 20.8447 10.607 20.5341 10.8456L94.1563 84.4663C94.3948 84.1557 94.6314 83.8447 94.8611 83.5321L21.4685 10.1385ZM10.8436 20.5333C10.6047 20.8445 10.3684 21.1551 10.139 21.47L83.5316 94.8613C83.8442 94.6294 84.1573 94.3952 84.4655 94.1565L10.8436 20.5333ZM6.66458 26.8667C6.46861 27.2181 6.27517 27.5715 6.08843 27.9272L77.0719 98.9119C77.4276 98.7226 77.7833 98.531 78.1343 98.3332L6.66458 26.8667Z" fill="#1B5076"/>
<path d="M63.3714 1.13271L103.869 41.6277C103.718 40.9137 103.552 40.1999 103.372 39.4907L65.5105 1.63023C64.799 1.45013 64.0875 1.28347 63.3714 1.13271ZM35.2502 2.9001C34.8469 3.03959 34.4462 3.18598 34.0453 3.33445L101.665 70.9554C101.816 70.5546 101.96 70.1537 102.1 69.7507L35.2502 2.9001ZM52.5561 0C52.2826 0 52.009 0.00227925 51.7353 0.00693516L104.995 53.2652C105.002 52.7183 105.002 52.1715 104.993 51.6241L53.3771 0.00693516C53.1032 0.00227925 52.8297 0 52.5561 0ZM43.6119 0.751822C43.1503 0.831128 42.6888 0.916415 42.2274 1.00887L103.993 62.7712C104.083 62.3115 104.171 61.8502 104.25 61.3886L43.6119 0.751822ZM8.66186 81.4133C10.5801 84.3155 12.8183 87.0689 15.3733 89.6244C17.929 92.1819 20.6849 94.4177 23.5871 96.3359L8.66186 81.4133ZM0.00478673 51.7364C-0.00193399 52.2838 -0.00193399 52.8306 0.00706594 53.3779L51.623 104.993C51.9169 104.998 52.2112 105 52.5056 105C52.7582 105 53.0112 104.998 53.2641 104.995L0.00478673 51.7364ZM15.7899 14.9701L15.3733 15.3752L14.9685 15.7897L89.212 90.0294L89.6261 89.6244L90.0316 89.2101L15.7899 14.9701ZM1.1306 63.3721C1.28159 64.0884 1.44807 64.7999 1.62809 65.5088L39.4919 103.369C40.2011 103.552 40.9124 103.718 41.6287 103.867L1.1306 63.3721ZM1.00651 42.2285C0.916838 42.688 0.828514 43.1496 0.74995 43.6112L61.39 104.248C61.8516 104.169 62.3106 104.083 62.7722 103.991L1.00651 42.2285ZM27.9282 6.08817C27.5724 6.27719 27.219 6.46877 26.8651 6.66704L98.335 78.1349C98.5331 77.7815 98.7244 77.4283 98.9137 77.0726L27.9282 6.08817ZM81.4128 8.66386L96.338 23.5864C94.4195 20.6845 92.1818 17.9308 89.6261 15.3752C87.0708 12.8202 84.3171 10.5818 81.4128 8.66386ZM3.33492 34.0444C3.18412 34.4451 3.03977 34.8461 2.90029 35.2491L69.7499 102.1C70.1529 101.96 70.5557 101.816 70.9543 101.665L3.33492 34.0444ZM21.4685 10.1385C21.1552 10.3704 20.8447 10.607 20.5341 10.8456L94.1563 84.4663C94.3948 84.1557 94.6314 83.8447 94.8611 83.5321L21.4685 10.1385ZM10.8436 20.5333C10.6047 20.8445 10.3684 21.1551 10.139 21.47L83.5316 94.8613C83.8442 94.6294 84.1573 94.3952 84.4655 94.1565L10.8436 20.5333ZM6.66458 26.8667C6.46861 27.2181 6.27517 27.5715 6.08843 27.9272L77.0719 98.9119C77.4276 98.7226 77.7833 98.531 78.1343 98.3332L6.66458 26.8667Z" fill="#1B5076"/>
<path d="M63.3714 1.13271L103.869 41.6277C103.718 40.9137 103.552 40.1999 103.372 39.4907L65.5105 1.63023C64.799 1.45013 64.0875 1.28347 63.3714 1.13271ZM35.2502 2.9001C34.8469 3.03959 34.4462 3.18598 34.0453 3.33445L101.665 70.9554C101.816 70.5546 101.96 70.1537 102.1 69.7507L35.2502 2.9001ZM52.5561 0C52.2826 0 52.009 0.00227925 51.7353 0.00693516L104.995 53.2652C105.002 52.7183 105.002 52.1715 104.993 51.6241L53.3771 0.00693516C53.1032 0.00227925 52.8297 0 52.5561 0ZM43.6119 0.751822C43.1503 0.831128 42.6888 0.916415 42.2274 1.00887L103.993 62.7712C104.083 62.3115 104.171 61.8502 104.25 61.3886L43.6119 0.751822ZM8.66186 81.4133C10.5801 84.3155 12.8183 87.0689 15.3733 89.6244C17.929 92.1819 20.6849 94.4177 23.5871 96.3359L8.66186 81.4133ZM0.00478673 51.7364C-0.00193399 52.2838 -0.00193399 52.8306 0.00706594 53.3779L51.623 104.993C51.9169 104.998 52.2112 105 52.5056 105C52.7582 105 53.0112 104.998 53.2641 104.995L0.00478673 51.7364ZM15.7899 14.9701L15.3733 15.3752L14.9685 15.7897L89.212 90.0294L89.6261 89.6244L90.0316 89.2101L15.7899 14.9701ZM1.1306 63.3721C1.28159 64.0884 1.44807 64.7999 1.62809 65.5088L39.4919 103.369C40.2011 103.552 40.9124 103.718 41.6287 103.867L1.1306 63.3721ZM1.00651 42.2285C0.916838 42.688 0.828514 43.1496 0.74995 43.6112L61.39 104.248C61.8516 104.169 62.3106 104.083 62.7722 103.991L1.00651 42.2285ZM27.9282 6.08817C27.5724 6.27719 27.219 6.46877 26.8651 6.66704L98.335 78.1349C98.5331 77.7815 98.7244 77.4283 98.9137 77.0726L27.9282 6.08817ZM81.4128 8.66386L96.338 23.5864C94.4195 20.6845 92.1818 17.9308 89.6261 15.3752C87.0708 12.8202 84.3171 10.5818 81.4128 8.66386ZM3.33492 34.0444C3.18412 34.4451 3.03977 34.8461 2.90029 35.2491L69.7499 102.1C70.1529 101.96 70.5557 101.816 70.9543 101.665L3.33492 34.0444ZM21.4685 10.1385C21.1552 10.3704 20.8447 10.607 20.5341 10.8456L94.1563 84.4663C94.3948 84.1557 94.6314 83.8447 94.8611 83.5321L21.4685 10.1385ZM10.8436 20.5333C10.6047 20.8445 10.3684 21.1551 10.139 21.47L83.5316 94.8613C83.8442 94.6294 84.1573 94.3952 84.4655 94.1565L10.8436 20.5333ZM6.66458 26.8667C6.46861 27.2181 6.27517 27.5715 6.08843 27.9272L77.0719 98.9119C77.4276 98.7226 77.7833 98.531 78.1343 98.3332L6.66458 26.8667Z" fill="#1B5076"/>
<path d="M63.3714 1.13271L103.869 41.6277C103.718 40.9137 103.552 40.1999 103.372 39.4907L65.5105 1.63023C64.799 1.45013 64.0875 1.28347 63.3714 1.13271ZM35.2502 2.9001C34.8469 3.03959 34.4462 3.18598 34.0453 3.33445L101.665 70.9554C101.816 70.5546 101.96 70.1537 102.1 69.7507L35.2502 2.9001ZM52.5561 0C52.2826 0 52.009 0.00227925 51.7353 0.00693516L104.995 53.2652C105.002 52.7183 105.002 52.1715 104.993 51.6241L53.3771 0.00693516C53.1032 0.00227925 52.8297 0 52.5561 0ZM43.6119 0.751822C43.1503 0.831128 42.6888 0.916415 42.2274 1.00887L103.993 62.7712C104.083 62.3115 104.171 61.8502 104.25 61.3886L43.6119 0.751822ZM8.66186 81.4133C10.5801 84.3155 12.8183 87.0689 15.3733 89.6244C17.929 92.1819 20.6849 94.4177 23.5871 96.3359L8.66186 81.4133ZM0.00478673 51.7364C-0.00193399 52.2838 -0.00193399 52.8306 0.00706594 53.3779L51.623 104.993C51.9169 104.998 52.2112 105 52.5056 105C52.7582 105 53.0112 104.998 53.2641 104.995L0.00478673 51.7364ZM15.7899 14.9701L15.3733 15.3752L14.9685 15.7897L89.212 90.0294L89.6261 89.6244L90.0316 89.2101L15.7899 14.9701ZM1.1306 63.3721C1.28159 64.0884 1.44807 64.7999 1.62809 65.5088L39.4919 103.369C40.2011 103.552 40.9124 103.718 41.6287 103.867L1.1306 63.3721ZM1.00651 42.2285C0.916838 42.688 0.828514 43.1496 0.74995 43.6112L61.39 104.248C61.8516 104.169 62.3106 104.083 62.7722 103.991L1.00651 42.2285ZM27.9282 6.08817C27.5724 6.27719 27.219 6.46877 26.8651 6.66704L98.335 78.1349C98.5331 77.7815 98.7244 77.4283 98.9137 77.0726L27.9282 6.08817ZM81.4128 8.66386L96.338 23.5864C94.4195 20.6845 92.1818 17.9308 89.6261 15.3752C87.0708 12.8202 84.3171 10.5818 81.4128 8.66386ZM3.33492 34.0444C3.18412 34.4451 3.03977 34.8461 2.90029 35.2491L69.7499 102.1C70.1529 101.96 70.5557 101.816 70.9543 101.665L3.33492 34.0444ZM21.4685 10.1385C21.1552 10.3704 20.8447 10.607 20.5341 10.8456L94.1563 84.4663C94.3948 84.1557 94.6314 83.8447 94.8611 83.5321L21.4685 10.1385ZM10.8436 20.5333C10.6047 20.8445 10.3684 21.1551 10.139 21.47L83.5316 94.8613C83.8442 94.6294 84.1573 94.3952 84.4655 94.1565L10.8436 20.5333ZM6.66458 26.8667C6.46861 27.2181 6.27517 27.5715 6.08843 27.9272L77.0719 98.9119C77.4276 98.7226 77.7833 98.531 78.1343 98.3332L6.66458 26.8667Z" fill="#1B5076"/>
<path d="M63.3714 1.13271L103.869 41.6277C103.718 40.9137 103.552 40.1999 103.372 39.4907L65.5105 1.63023C64.799 1.45013 64.0875 1.28347 63.3714 1.13271ZM35.2502 2.9001C34.8469 3.03959 34.4462 3.18598 34.0453 3.33445L101.665 70.9554C101.816 70.5546 101.96 70.1537 102.1 69.7507L35.2502 2.9001ZM52.5561 0C52.2826 0 52.009 0.00227925 51.7353 0.00693516L104.995 53.2652C105.002 52.7183 105.002 52.1715 104.993 51.6241L53.3771 0.00693516C53.1032 0.00227925 52.8297 0 52.5561 0ZM43.6119 0.751822C43.1503 0.831128 42.6888 0.916415 42.2274 1.00887L103.993 62.7712C104.083 62.3115 104.171 61.8502 104.25 61.3886L43.6119 0.751822ZM8.66186 81.4133C10.5801 84.3155 12.8183 87.0689 15.3733 89.6244C17.929 92.1819 20.6849 94.4177 23.5871 96.3359L8.66186 81.4133ZM0.00478673 51.7364C-0.00193399 52.2838 -0.00193399 52.8306 0.00706594 53.3779L51.623 104.993C51.9169 104.998 52.2112 105 52.5056 105C52.7582 105 53.0112 104.998 53.2641 104.995L0.00478673 51.7364ZM15.7899 14.9701L15.3733 15.3752L14.9685 15.7897L89.212 90.0294L89.6261 89.6244L90.0316 89.2101L15.7899 14.9701ZM1.1306 63.3721C1.28159 64.0884 1.44807 64.7999 1.62809 65.5088L39.4919 103.369C40.2011 103.552 40.9124 103.718 41.6287 103.867L1.1306 63.3721ZM1.00651 42.2285C0.916838 42.688 0.828514 43.1496 0.74995 43.6112L61.39 104.248C61.8516 104.169 62.3106 104.083 62.7722 103.991L1.00651 42.2285ZM27.9282 6.08817C27.5724 6.27719 27.219 6.46877 26.8651 6.66704L98.335 78.1349C98.5331 77.7815 98.7244 77.4283 98.9137 77.0726L27.9282 6.08817ZM81.4128 8.66386L96.338 23.5864C94.4195 20.6845 92.1818 17.9308 89.6261 15.3752C87.0708 12.8202 84.3171 10.5818 81.4128 8.66386ZM3.33492 34.0444C3.18412 34.4451 3.03977 34.8461 2.90029 35.2491L69.7499 102.1C70.1529 101.96 70.5557 101.816 70.9543 101.665L3.33492 34.0444ZM21.4685 10.1385C21.1552 10.3704 20.8447 10.607 20.5341 10.8456L94.1563 84.4663C94.3948 84.1557 94.6314 83.8447 94.8611 83.5321L21.4685 10.1385ZM10.8436 20.5333C10.6047 20.8445 10.3684 21.1551 10.139 21.47L83.5316 94.8613C83.8442 94.6294 84.1573 94.3952 84.4655 94.1565L10.8436 20.5333ZM6.66458 26.8667C6.46861 27.2181 6.27517 27.5715 6.08843 27.9272L77.0719 98.9119C77.4276 98.7226 77.7833 98.531 78.1343 98.3332L6.66458 26.8667Z" fill="#1B5076"/>
<path d="M63.3714 1.13271L103.869 41.6277C103.718 40.9137 103.552 40.1999 103.372 39.4907L65.5105 1.63023C64.799 1.45013 64.0875 1.28347 63.3714 1.13271ZM35.2502 2.9001C34.8469 3.03959 34.4462 3.18598 34.0453 3.33445L101.665 70.9554C101.816 70.5546 101.96 70.1537 102.1 69.7507L35.2502 2.9001ZM52.5561 0C52.2826 0 52.009 0.00227925 51.7353 0.00693516L104.995 53.2652C105.002 52.7183 105.002 52.1715 104.993 51.6241L53.3771 0.00693516C53.1032 0.00227925 52.8297 0 52.5561 0ZM43.6119 0.751822C43.1503 0.831128 42.6888 0.916415 42.2274 1.00887L103.993 62.7712C104.083 62.3115 104.171 61.8502 104.25 61.3886L43.6119 0.751822ZM8.66186 81.4133C10.5801 84.3155 12.8183 87.0689 15.3733 89.6244C17.929 92.1819 20.6849 94.4177 23.5871 96.3359L8.66186 81.4133ZM0.00478673 51.7364C-0.00193399 52.2838 -0.00193399 52.8306 0.00706594 53.3779L51.623 104.993C51.9169 104.998 52.2112 105 52.5056 105C52.7582 105 53.0112 104.998 53.2641 104.995L0.00478673 51.7364ZM15.7899 14.9701L15.3733 15.3752L14.9685 15.7897L89.212 90.0294L89.6261 89.6244L90.0316 89.2101L15.7899 14.9701ZM1.1306 63.3721C1.28159 64.0884 1.44807 64.7999 1.62809 65.5088L39.4919 103.369C40.2011 103.552 40.9124 103.718 41.6287 103.867L1.1306 63.3721ZM1.00651 42.2285C0.916838 42.688 0.828514 43.1496 0.74995 43.6112L61.39 104.248C61.8516 104.169 62.3106 104.083 62.7722 103.991L1.00651 42.2285ZM27.9282 6.08817C27.5724 6.27719 27.219 6.46877 26.8651 6.66704L98.335 78.1349C98.5331 77.7815 98.7244 77.4283 98.9137 77.0726L27.9282 6.08817ZM81.4128 8.66386L96.338 23.5864C94.4195 20.6845 92.1818 17.9308 89.6261 15.3752C87.0708 12.8202 84.3171 10.5818 81.4128 8.66386ZM3.33492 34.0444C3.18412 34.4451 3.03977 34.8461 2.90029 35.2491L69.7499 102.1C70.1529 101.96 70.5557 101.816 70.9543 101.665L3.33492 34.0444ZM21.4685 10.1385C21.1552 10.3704 20.8447 10.607 20.5341 10.8456L94.1563 84.4663C94.3948 84.1557 94.6314 83.8447 94.8611 83.5321L21.4685 10.1385ZM10.8436 20.5333C10.6047 20.8445 10.3684 21.1551 10.139 21.47L83.5316 94.8613C83.8442 94.6294 84.1573 94.3952 84.4655 94.1565L10.8436 20.5333ZM6.66458 26.8667C6.46861 27.2181 6.27517 27.5715 6.08843 27.9272L77.0719 98.9119C77.4276 98.7226 77.7833 98.531 78.1343 98.3332L6.66458 26.8667Z" fill="#1B5076"/>
<path d="M63.3714 1.13271L103.869 41.6277C103.718 40.9137 103.552 40.1999 103.372 39.4907L65.5105 1.63023C64.799 1.45013 64.0875 1.28347 63.3714 1.13271ZM35.2502 2.9001C34.8469 3.03959 34.4462 3.18598 34.0453 3.33445L101.665 70.9554C101.816 70.5546 101.96 70.1537 102.1 69.7507L35.2502 2.9001ZM52.5561 0C52.2826 0 52.009 0.00227925 51.7353 0.00693516L104.995 53.2652C105.002 52.7183 105.002 52.1715 104.993 51.6241L53.3771 0.00693516C53.1032 0.00227925 52.8297 0 52.5561 0ZM43.6119 0.751822C43.1503 0.831128 42.6888 0.916415 42.2274 1.00887L103.993 62.7712C104.083 62.3115 104.171 61.8502 104.25 61.3886L43.6119 0.751822ZM8.66186 81.4133C10.5801 84.3155 12.8183 87.0689 15.3733 89.6244C17.929 92.1819 20.6849 94.4177 23.5871 96.3359L8.66186 81.4133ZM0.00478673 51.7364C-0.00193399 52.2838 -0.00193399 52.8306 0.00706594 53.3779L51.623 104.993C51.9169 104.998 52.2112 105 52.5056 105C52.7582 105 53.0112 104.998 53.2641 104.995L0.00478673 51.7364ZM15.7899 14.9701L15.3733 15.3752L14.9685 15.7897L89.212 90.0294L89.6261 89.6244L90.0316 89.2101L15.7899 14.9701ZM1.1306 63.3721C1.28159 64.0884 1.44807 64.7999 1.62809 65.5088L39.4919 103.369C40.2011 103.552 40.9124 103.718 41.6287 103.867L1.1306 63.3721ZM1.00651 42.2285C0.916838 42.688 0.828514 43.1496 0.74995 43.6112L61.39 104.248C61.8516 104.169 62.3106 104.083 62.7722 103.991L1.00651 42.2285ZM27.9282 6.08817C27.5724 6.27719 27.219 6.46877 26.8651 6.66704L98.335 78.1349C98.5331 77.7815 98.7244 77.4283 98.9137 77.0726L27.9282 6.08817ZM81.4128 8.66386L96.338 23.5864C94.4195 20.6845 92.1818 17.9308 89.6261 15.3752C87.0708 12.8202 84.3171 10.5818 81.4128 8.66386ZM3.33492 34.0444C3.18412 34.4451 3.03977 34.8461 2.90029 35.2491L69.7499 102.1C70.1529 101.96 70.5557 101.816 70.9543 101.665L3.33492 34.0444ZM21.4685 10.1385C21.1552 10.3704 20.8447 10.607 20.5341 10.8456L94.1563 84.4663C94.3948 84.1557 94.6314 83.8447 94.8611 83.5321L21.4685 10.1385ZM10.8436 20.5333C10.6047 20.8445 10.3684 21.1551 10.139 21.47L83.5316 94.8613C83.8442 94.6294 84.1573 94.3952 84.4655 94.1565L10.8436 20.5333ZM6.66458 26.8667C6.46861 27.2181 6.27517 27.5715 6.08843 27.9272L77.0719 98.9119C77.4276 98.7226 77.7833 98.531 78.1343 98.3332L6.66458 26.8667Z" fill="#1B5076"/>
<path d="M63.3714 1.13271L103.869 41.6277C103.718 40.9137 103.552 40.1999 103.372 39.4907L65.5105 1.63023C64.799 1.45013 64.0875 1.28347 63.3714 1.13271ZM35.2502 2.9001C34.8469 3.03959 34.4462 3.18598 34.0453 3.33445L101.665 70.9554C101.816 70.5546 101.96 70.1537 102.1 69.7507L35.2502 2.9001ZM52.5561 0C52.2826 0 52.009 0.00227925 51.7353 0.00693516L104.995 53.2652C105.002 52.7183 105.002 52.1715 104.993 51.6241L53.3771 0.00693516C53.1032 0.00227925 52.8297 0 52.5561 0ZM43.6119 0.751822C43.1503 0.831128 42.6888 0.916415 42.2274 1.00887L103.993 62.7712C104.083 62.3115 104.171 61.8502 104.25 61.3886L43.6119 0.751822ZM8.66186 81.4133C10.5801 84.3155 12.8183 87.0689 15.3733 89.6244C17.929 92.1819 20.6849 94.4177 23.5871 96.3359L8.66186 81.4133ZM0.00478673 51.7364C-0.00193399 52.2838 -0.00193399 52.8306 0.00706594 53.3779L51.623 104.993C51.9169 104.998 52.2112 105 52.5056 105C52.7582 105 53.0112 104.998 53.2641 104.995L0.00478673 51.7364ZM15.7899 14.9701L15.3733 15.3752L14.9685 15.7897L89.212 90.0294L89.6261 89.6244L90.0316 89.2101L15.7899 14.9701ZM1.1306 63.3721C1.28159 64.0884 1.44807 64.7999 1.62809 65.5088L39.4919 103.369C40.2011 103.552 40.9124 103.718 41.6287 103.867L1.1306 63.3721ZM1.00651 42.2285C0.916838 42.688 0.828514 43.1496 0.74995 43.6112L61.39 104.248C61.8516 104.169 62.3106 104.083 62.7722 103.991L1.00651 42.2285ZM27.9282 6.08817C27.5724 6.27719 27.219 6.46877 26.8651 6.66704L98.335 78.1349C98.5331 77.7815 98.7244 77.4283 98.9137 77.0726L27.9282 6.08817ZM81.4128 8.66386L96.338 23.5864C94.4195 20.6845 92.1818 17.9308 89.6261 15.3752C87.0708 12.8202 84.3171 10.5818 81.4128 8.66386ZM3.33492 34.0444C3.18412 34.4451 3.03977 34.8461 2.90029 35.2491L69.7499 102.1C70.1529 101.96 70.5557 101.816 70.9543 101.665L3.33492 34.0444ZM21.4685 10.1385C21.1552 10.3704 20.8447 10.607 20.5341 10.8456L94.1563 84.4663C94.3948 84.1557 94.6314 83.8447 94.8611 83.5321L21.4685 10.1385ZM10.8436 20.5333C10.6047 20.8445 10.3684 21.1551 10.139 21.47L83.5316 94.8613C83.8442 94.6294 84.1573 94.3952 84.4655 94.1565L10.8436 20.5333ZM6.66458 26.8667C6.46861 27.2181 6.27517 27.5715 6.08843 27.9272L77.0719 98.9119C77.4276 98.7226 77.7833 98.531 78.1343 98.3332L6.66458 26.8667Z" fill="#1B5076"/>
</svg>
