<svg width="59" height="144" viewBox="0 0 59 144" fill="none" xmlns="http://www.w3.org/2000/svg">
<path d="M1.90931 1.55343L57.4493 57.0894C57.2425 56.1102 57.0142 55.1313 56.7669 54.1587L4.84291 2.23574C3.86714 1.98875 2.89137 1.76019 1.90931 1.55343ZM-36.6569 3.97728C-37.2099 4.16857 -37.7595 4.36935 -38.3093 4.57296L54.4265 97.3102C54.6333 96.7606 54.8309 96.2108 55.0222 95.6581L-36.6569 3.97728ZM-12.9231 0C-13.2981 0 -13.6734 0.00312583 -14.0488 0.00951107L58.9929 73.0494C59.0027 72.2995 59.0027 71.5494 58.9904 70.7988L-11.7972 0.00951107C-12.1728 0.00312583 -12.5479 0 -12.9231 0ZM-25.1893 1.03107C-25.8224 1.13983 -26.4554 1.2568 -27.0881 1.38359L57.6191 86.0863C57.7427 85.4558 57.8629 84.8231 57.971 84.1901L-25.1893 1.03107ZM-73.1209 111.653C-70.4902 115.633 -67.4206 119.409 -63.9166 122.913C-60.4116 126.421 -56.6322 129.487 -52.652 132.118L-73.1209 111.653ZM-84.9934 70.9528C-85.0027 71.7035 -85.0027 72.4534 -84.9903 73.204L-14.2028 143.99C-13.7996 143.997 -13.3961 144 -12.9924 144C-12.6459 144 -12.299 143.998 -11.9521 143.993L-84.9934 70.9528ZM-63.3452 20.5304L-63.9166 21.086L-64.4718 21.6544L37.3478 123.469L37.9157 122.913L38.4719 122.345L-63.3452 20.5304ZM-83.4495 86.9102C-83.2424 87.8926 -83.0141 88.8684 -82.7672 89.8407L-30.8397 141.764C-29.8671 142.014 -28.8916 142.242 -27.9092 142.446L-83.4495 86.9102ZM-83.6196 57.9134C-83.7426 58.5436 -83.8638 59.1765 -83.9715 59.8096L-0.808022 142.968C-0.175011 142.86 0.454552 142.743 1.08755 142.616L-83.6196 57.9134ZM-46.6985 8.34949C-47.1864 8.60872 -47.6711 8.87145 -48.1564 9.14337L49.8595 107.156C50.1311 106.672 50.3935 106.187 50.6531 105.7L-46.6985 8.34949ZM26.6518 11.8819L47.1207 32.3471C44.4896 28.3674 41.4207 24.5908 37.9157 21.086C34.4114 17.582 30.6348 14.5122 26.6518 11.8819ZM-80.4264 46.6895C-80.6332 47.239 -80.8312 47.7889 -81.0225 48.3416L10.657 140.022C11.2097 139.831 11.7621 139.634 12.3088 139.426L-80.4264 46.6895ZM-55.5575 13.9042C-55.9872 14.2222 -56.413 14.5467 -56.839 14.8739L44.1286 115.839C44.4557 115.414 44.7802 114.987 45.0952 114.558L-55.5575 13.9042ZM-70.1287 28.16C-70.4564 28.5868 -70.7804 29.0127 -71.095 29.4446L29.5576 130.096C29.9864 129.777 30.4157 129.456 30.8385 129.129L-70.1287 28.16ZM-75.86 36.8458C-76.1288 37.3277 -76.3941 37.8124 -76.6502 38.3002L20.6986 135.651C21.1865 135.391 21.6743 135.128 22.1556 134.857L-75.86 36.8458Z" fill="#A5DEE9"/>
<path d="M1.90931 1.55343L57.4493 57.0894C57.2425 56.1102 57.0142 55.1313 56.7669 54.1587L4.84291 2.23574C3.86714 1.98875 2.89137 1.76019 1.90931 1.55343ZM-36.6569 3.97728C-37.2099 4.16857 -37.7595 4.36935 -38.3093 4.57296L54.4265 97.3102C54.6333 96.7606 54.8309 96.2108 55.0222 95.6581L-36.6569 3.97728ZM-12.9231 0C-13.2981 0 -13.6734 0.00312583 -14.0488 0.00951107L58.9929 73.0494C59.0027 72.2995 59.0027 71.5494 58.9904 70.7988L-11.7972 0.00951107C-12.1728 0.00312583 -12.5479 0 -12.9231 0ZM-25.1893 1.03107C-25.8224 1.13983 -26.4554 1.2568 -27.0881 1.38359L57.6191 86.0863C57.7427 85.4558 57.8629 84.8231 57.971 84.1901L-25.1893 1.03107ZM-73.1209 111.653C-70.4902 115.633 -67.4206 119.409 -63.9166 122.913C-60.4116 126.421 -56.6322 129.487 -52.652 132.118L-73.1209 111.653ZM-84.9934 70.9528C-85.0027 71.7035 -85.0027 72.4534 -84.9903 73.204L-14.2028 143.99C-13.7996 143.997 -13.3961 144 -12.9924 144C-12.6459 144 -12.299 143.998 -11.9521 143.993L-84.9934 70.9528ZM-63.3452 20.5304L-63.9166 21.086L-64.4718 21.6544L37.3478 123.469L37.9157 122.913L38.4719 122.345L-63.3452 20.5304ZM-83.4495 86.9102C-83.2424 87.8926 -83.0141 88.8684 -82.7672 89.8407L-30.8397 141.764C-29.8671 142.014 -28.8916 142.242 -27.9092 142.446L-83.4495 86.9102ZM-83.6196 57.9134C-83.7426 58.5436 -83.8638 59.1765 -83.9715 59.8096L-0.808022 142.968C-0.175011 142.86 0.454552 142.743 1.08755 142.616L-83.6196 57.9134ZM-46.6985 8.34949C-47.1864 8.60872 -47.6711 8.87145 -48.1564 9.14337L49.8595 107.156C50.1311 106.672 50.3935 106.187 50.6531 105.7L-46.6985 8.34949ZM26.6518 11.8819L47.1207 32.3471C44.4896 28.3674 41.4207 24.5908 37.9157 21.086C34.4114 17.582 30.6348 14.5122 26.6518 11.8819ZM-80.4264 46.6895C-80.6332 47.239 -80.8312 47.7889 -81.0225 48.3416L10.657 140.022C11.2097 139.831 11.7621 139.634 12.3088 139.426L-80.4264 46.6895ZM-55.5575 13.9042C-55.9872 14.2222 -56.413 14.5467 -56.839 14.8739L44.1286 115.839C44.4557 115.414 44.7802 114.987 45.0952 114.558L-55.5575 13.9042ZM-70.1287 28.16C-70.4564 28.5868 -70.7804 29.0127 -71.095 29.4446L29.5576 130.096C29.9864 129.777 30.4157 129.456 30.8385 129.129L-70.1287 28.16ZM-75.86 36.8458C-76.1288 37.3277 -76.3941 37.8124 -76.6502 38.3002L20.6986 135.651C21.1865 135.391 21.6743 135.128 22.1556 134.857L-75.86 36.8458Z" fill="#A5DEE9"/>
<path d="M1.90931 1.55343L57.4493 57.0894C57.2425 56.1102 57.0142 55.1313 56.7669 54.1587L4.84291 2.23574C3.86714 1.98875 2.89137 1.76019 1.90931 1.55343ZM-36.6569 3.97728C-37.2099 4.16857 -37.7595 4.36935 -38.3093 4.57296L54.4265 97.3102C54.6333 96.7606 54.8309 96.2108 55.0222 95.6581L-36.6569 3.97728ZM-12.9231 0C-13.2981 0 -13.6734 0.00312583 -14.0488 0.00951107L58.9929 73.0494C59.0027 72.2995 59.0027 71.5494 58.9904 70.7988L-11.7972 0.00951107C-12.1728 0.00312583 -12.5479 0 -12.9231 0ZM-25.1893 1.03107C-25.8224 1.13983 -26.4554 1.2568 -27.0881 1.38359L57.6191 86.0863C57.7427 85.4558 57.8629 84.8231 57.971 84.1901L-25.1893 1.03107ZM-73.1209 111.653C-70.4902 115.633 -67.4206 119.409 -63.9166 122.913C-60.4116 126.421 -56.6322 129.487 -52.652 132.118L-73.1209 111.653ZM-84.9934 70.9528C-85.0027 71.7035 -85.0027 72.4534 -84.9903 73.204L-14.2028 143.99C-13.7996 143.997 -13.3961 144 -12.9924 144C-12.6459 144 -12.299 143.998 -11.9521 143.993L-84.9934 70.9528ZM-63.3452 20.5304L-63.9166 21.086L-64.4718 21.6544L37.3478 123.469L37.9157 122.913L38.4719 122.345L-63.3452 20.5304ZM-83.4495 86.9102C-83.2424 87.8926 -83.0141 88.8684 -82.7672 89.8407L-30.8397 141.764C-29.8671 142.014 -28.8916 142.242 -27.9092 142.446L-83.4495 86.9102ZM-83.6196 57.9134C-83.7426 58.5436 -83.8638 59.1765 -83.9715 59.8096L-0.808022 142.968C-0.175011 142.86 0.454552 142.743 1.08755 142.616L-83.6196 57.9134ZM-46.6985 8.34949C-47.1864 8.60872 -47.6711 8.87145 -48.1564 9.14337L49.8595 107.156C50.1311 106.672 50.3935 106.187 50.6531 105.7L-46.6985 8.34949ZM26.6518 11.8819L47.1207 32.3471C44.4896 28.3674 41.4207 24.5908 37.9157 21.086C34.4114 17.582 30.6348 14.5122 26.6518 11.8819ZM-80.4264 46.6895C-80.6332 47.239 -80.8312 47.7889 -81.0225 48.3416L10.657 140.022C11.2097 139.831 11.7621 139.634 12.3088 139.426L-80.4264 46.6895ZM-55.5575 13.9042C-55.9872 14.2222 -56.413 14.5467 -56.839 14.8739L44.1286 115.839C44.4557 115.414 44.7802 114.987 45.0952 114.558L-55.5575 13.9042ZM-70.1287 28.16C-70.4564 28.5868 -70.7804 29.0127 -71.095 29.4446L29.5576 130.096C29.9864 129.777 30.4157 129.456 30.8385 129.129L-70.1287 28.16ZM-75.86 36.8458C-76.1288 37.3277 -76.3941 37.8124 -76.6502 38.3002L20.6986 135.651C21.1865 135.391 21.6743 135.128 22.1556 134.857L-75.86 36.8458Z" fill="#A5DEE9"/>
<path d="M1.90931 1.55343L57.4493 57.0894C57.2425 56.1102 57.0142 55.1313 56.7669 54.1587L4.84291 2.23574C3.86714 1.98875 2.89137 1.76019 1.90931 1.55343ZM-36.6569 3.97728C-37.2099 4.16857 -37.7595 4.36935 -38.3093 4.57296L54.4265 97.3102C54.6333 96.7606 54.8309 96.2108 55.0222 95.6581L-36.6569 3.97728ZM-12.9231 0C-13.2981 0 -13.6734 0.00312583 -14.0488 0.00951107L58.9929 73.0494C59.0027 72.2995 59.0027 71.5494 58.9904 70.7988L-11.7972 0.00951107C-12.1728 0.00312583 -12.5479 0 -12.9231 0ZM-25.1893 1.03107C-25.8224 1.13983 -26.4554 1.2568 -27.0881 1.38359L57.6191 86.0863C57.7427 85.4558 57.8629 84.8231 57.971 84.1901L-25.1893 1.03107ZM-73.1209 111.653C-70.4902 115.633 -67.4206 119.409 -63.9166 122.913C-60.4116 126.421 -56.6322 129.487 -52.652 132.118L-73.1209 111.653ZM-84.9934 70.9528C-85.0027 71.7035 -85.0027 72.4534 -84.9903 73.204L-14.2028 143.99C-13.7996 143.997 -13.3961 144 -12.9924 144C-12.6459 144 -12.299 143.998 -11.9521 143.993L-84.9934 70.9528ZM-63.3452 20.5304L-63.9166 21.086L-64.4718 21.6544L37.3478 123.469L37.9157 122.913L38.4719 122.345L-63.3452 20.5304ZM-83.4495 86.9102C-83.2424 87.8926 -83.0141 88.8684 -82.7672 89.8407L-30.8397 141.764C-29.8671 142.014 -28.8916 142.242 -27.9092 142.446L-83.4495 86.9102ZM-83.6196 57.9134C-83.7426 58.5436 -83.8638 59.1765 -83.9715 59.8096L-0.808022 142.968C-0.175011 142.86 0.454552 142.743 1.08755 142.616L-83.6196 57.9134ZM-46.6985 8.34949C-47.1864 8.60872 -47.6711 8.87145 -48.1564 9.14337L49.8595 107.156C50.1311 106.672 50.3935 106.187 50.6531 105.7L-46.6985 8.34949ZM26.6518 11.8819L47.1207 32.3471C44.4896 28.3674 41.4207 24.5908 37.9157 21.086C34.4114 17.582 30.6348 14.5122 26.6518 11.8819ZM-80.4264 46.6895C-80.6332 47.239 -80.8312 47.7889 -81.0225 48.3416L10.657 140.022C11.2097 139.831 11.7621 139.634 12.3088 139.426L-80.4264 46.6895ZM-55.5575 13.9042C-55.9872 14.2222 -56.413 14.5467 -56.839 14.8739L44.1286 115.839C44.4557 115.414 44.7802 114.987 45.0952 114.558L-55.5575 13.9042ZM-70.1287 28.16C-70.4564 28.5868 -70.7804 29.0127 -71.095 29.4446L29.5576 130.096C29.9864 129.777 30.4157 129.456 30.8385 129.129L-70.1287 28.16ZM-75.86 36.8458C-76.1288 37.3277 -76.3941 37.8124 -76.6502 38.3002L20.6986 135.651C21.1865 135.391 21.6743 135.128 22.1556 134.857L-75.86 36.8458Z" fill="#A5DEE9"/>
<path d="M1.90931 1.55343L57.4493 57.0894C57.2425 56.1102 57.0142 55.1313 56.7669 54.1587L4.84291 2.23574C3.86714 1.98875 2.89137 1.76019 1.90931 1.55343ZM-36.6569 3.97728C-37.2099 4.16857 -37.7595 4.36935 -38.3093 4.57296L54.4265 97.3102C54.6333 96.7606 54.8309 96.2108 55.0222 95.6581L-36.6569 3.97728ZM-12.9231 0C-13.2981 0 -13.6734 0.00312583 -14.0488 0.00951107L58.9929 73.0494C59.0027 72.2995 59.0027 71.5494 58.9904 70.7988L-11.7972 0.00951107C-12.1728 0.00312583 -12.5479 0 -12.9231 0ZM-25.1893 1.03107C-25.8224 1.13983 -26.4554 1.2568 -27.0881 1.38359L57.6191 86.0863C57.7427 85.4558 57.8629 84.8231 57.971 84.1901L-25.1893 1.03107ZM-73.1209 111.653C-70.4902 115.633 -67.4206 119.409 -63.9166 122.913C-60.4116 126.421 -56.6322 129.487 -52.652 132.118L-73.1209 111.653ZM-84.9934 70.9528C-85.0027 71.7035 -85.0027 72.4534 -84.9903 73.204L-14.2028 143.99C-13.7996 143.997 -13.3961 144 -12.9924 144C-12.6459 144 -12.299 143.998 -11.9521 143.993L-84.9934 70.9528ZM-63.3452 20.5304L-63.9166 21.086L-64.4718 21.6544L37.3478 123.469L37.9157 122.913L38.4719 122.345L-63.3452 20.5304ZM-83.4495 86.9102C-83.2424 87.8926 -83.0141 88.8684 -82.7672 89.8407L-30.8397 141.764C-29.8671 142.014 -28.8916 142.242 -27.9092 142.446L-83.4495 86.9102ZM-83.6196 57.9134C-83.7426 58.5436 -83.8638 59.1765 -83.9715 59.8096L-0.808022 142.968C-0.175011 142.86 0.454552 142.743 1.08755 142.616L-83.6196 57.9134ZM-46.6985 8.34949C-47.1864 8.60872 -47.6711 8.87145 -48.1564 9.14337L49.8595 107.156C50.1311 106.672 50.3935 106.187 50.6531 105.7L-46.6985 8.34949ZM26.6518 11.8819L47.1207 32.3471C44.4896 28.3674 41.4207 24.5908 37.9157 21.086C34.4114 17.582 30.6348 14.5122 26.6518 11.8819ZM-80.4264 46.6895C-80.6332 47.239 -80.8312 47.7889 -81.0225 48.3416L10.657 140.022C11.2097 139.831 11.7621 139.634 12.3088 139.426L-80.4264 46.6895ZM-55.5575 13.9042C-55.9872 14.2222 -56.413 14.5467 -56.839 14.8739L44.1286 115.839C44.4557 115.414 44.7802 114.987 45.0952 114.558L-55.5575 13.9042ZM-70.1287 28.16C-70.4564 28.5868 -70.7804 29.0127 -71.095 29.4446L29.5576 130.096C29.9864 129.777 30.4157 129.456 30.8385 129.129L-70.1287 28.16ZM-75.86 36.8458C-76.1288 37.3277 -76.3941 37.8124 -76.6502 38.3002L20.6986 135.651C21.1865 135.391 21.6743 135.128 22.1556 134.857L-75.86 36.8458Z" fill="#A5DEE9"/>
<path d="M1.90931 1.55343L57.4493 57.0894C57.2425 56.1102 57.0142 55.1313 56.7669 54.1587L4.84291 2.23574C3.86714 1.98875 2.89137 1.76019 1.90931 1.55343ZM-36.6569 3.97728C-37.2099 4.16857 -37.7595 4.36935 -38.3093 4.57296L54.4265 97.3102C54.6333 96.7606 54.8309 96.2108 55.0222 95.6581L-36.6569 3.97728ZM-12.9231 0C-13.2981 0 -13.6734 0.00312583 -14.0488 0.00951107L58.9929 73.0494C59.0027 72.2995 59.0027 71.5494 58.9904 70.7988L-11.7972 0.00951107C-12.1728 0.00312583 -12.5479 0 -12.9231 0ZM-25.1893 1.03107C-25.8224 1.13983 -26.4554 1.2568 -27.0881 1.38359L57.6191 86.0863C57.7427 85.4558 57.8629 84.8231 57.971 84.1901L-25.1893 1.03107ZM-73.1209 111.653C-70.4902 115.633 -67.4206 119.409 -63.9166 122.913C-60.4116 126.421 -56.6322 129.487 -52.652 132.118L-73.1209 111.653ZM-84.9934 70.9528C-85.0027 71.7035 -85.0027 72.4534 -84.9903 73.204L-14.2028 143.99C-13.7996 143.997 -13.3961 144 -12.9924 144C-12.6459 144 -12.299 143.998 -11.9521 143.993L-84.9934 70.9528ZM-63.3452 20.5304L-63.9166 21.086L-64.4718 21.6544L37.3478 123.469L37.9157 122.913L38.4719 122.345L-63.3452 20.5304ZM-83.4495 86.9102C-83.2424 87.8926 -83.0141 88.8684 -82.7672 89.8407L-30.8397 141.764C-29.8671 142.014 -28.8916 142.242 -27.9092 142.446L-83.4495 86.9102ZM-83.6196 57.9134C-83.7426 58.5436 -83.8638 59.1765 -83.9715 59.8096L-0.808022 142.968C-0.175011 142.86 0.454552 142.743 1.08755 142.616L-83.6196 57.9134ZM-46.6985 8.34949C-47.1864 8.60872 -47.6711 8.87145 -48.1564 9.14337L49.8595 107.156C50.1311 106.672 50.3935 106.187 50.6531 105.7L-46.6985 8.34949ZM26.6518 11.8819L47.1207 32.3471C44.4896 28.3674 41.4207 24.5908 37.9157 21.086C34.4114 17.582 30.6348 14.5122 26.6518 11.8819ZM-80.4264 46.6895C-80.6332 47.239 -80.8312 47.7889 -81.0225 48.3416L10.657 140.022C11.2097 139.831 11.7621 139.634 12.3088 139.426L-80.4264 46.6895ZM-55.5575 13.9042C-55.9872 14.2222 -56.413 14.5467 -56.839 14.8739L44.1286 115.839C44.4557 115.414 44.7802 114.987 45.0952 114.558L-55.5575 13.9042ZM-70.1287 28.16C-70.4564 28.5868 -70.7804 29.0127 -71.095 29.4446L29.5576 130.096C29.9864 129.777 30.4157 129.456 30.8385 129.129L-70.1287 28.16ZM-75.86 36.8458C-76.1288 37.3277 -76.3941 37.8124 -76.6502 38.3002L20.6986 135.651C21.1865 135.391 21.6743 135.128 22.1556 134.857L-75.86 36.8458Z" fill="#A5DEE9"/>
<path d="M1.90931 1.55343L57.4493 57.0894C57.2425 56.1102 57.0142 55.1313 56.7669 54.1587L4.84291 2.23574C3.86714 1.98875 2.89137 1.76019 1.90931 1.55343ZM-36.6569 3.97728C-37.2099 4.16857 -37.7595 4.36935 -38.3093 4.57296L54.4265 97.3102C54.6333 96.7606 54.8309 96.2108 55.0222 95.6581L-36.6569 3.97728ZM-12.9231 0C-13.2981 0 -13.6734 0.00312583 -14.0488 0.00951107L58.9929 73.0494C59.0027 72.2995 59.0027 71.5494 58.9904 70.7988L-11.7972 0.00951107C-12.1728 0.00312583 -12.5479 0 -12.9231 0ZM-25.1893 1.03107C-25.8224 1.13983 -26.4554 1.2568 -27.0881 1.38359L57.6191 86.0863C57.7427 85.4558 57.8629 84.8231 57.971 84.1901L-25.1893 1.03107ZM-73.1209 111.653C-70.4902 115.633 -67.4206 119.409 -63.9166 122.913C-60.4116 126.421 -56.6322 129.487 -52.652 132.118L-73.1209 111.653ZM-84.9934 70.9528C-85.0027 71.7035 -85.0027 72.4534 -84.9903 73.204L-14.2028 143.99C-13.7996 143.997 -13.3961 144 -12.9924 144C-12.6459 144 -12.299 143.998 -11.9521 143.993L-84.9934 70.9528ZM-63.3452 20.5304L-63.9166 21.086L-64.4718 21.6544L37.3478 123.469L37.9157 122.913L38.4719 122.345L-63.3452 20.5304ZM-83.4495 86.9102C-83.2424 87.8926 -83.0141 88.8684 -82.7672 89.8407L-30.8397 141.764C-29.8671 142.014 -28.8916 142.242 -27.9092 142.446L-83.4495 86.9102ZM-83.6196 57.9134C-83.7426 58.5436 -83.8638 59.1765 -83.9715 59.8096L-0.808022 142.968C-0.175011 142.86 0.454552 142.743 1.08755 142.616L-83.6196 57.9134ZM-46.6985 8.34949C-47.1864 8.60872 -47.6711 8.87145 -48.1564 9.14337L49.8595 107.156C50.1311 106.672 50.3935 106.187 50.6531 105.7L-46.6985 8.34949ZM26.6518 11.8819L47.1207 32.3471C44.4896 28.3674 41.4207 24.5908 37.9157 21.086C34.4114 17.582 30.6348 14.5122 26.6518 11.8819ZM-80.4264 46.6895C-80.6332 47.239 -80.8312 47.7889 -81.0225 48.3416L10.657 140.022C11.2097 139.831 11.7621 139.634 12.3088 139.426L-80.4264 46.6895ZM-55.5575 13.9042C-55.9872 14.2222 -56.413 14.5467 -56.839 14.8739L44.1286 115.839C44.4557 115.414 44.7802 114.987 45.0952 114.558L-55.5575 13.9042ZM-70.1287 28.16C-70.4564 28.5868 -70.7804 29.0127 -71.095 29.4446L29.5576 130.096C29.9864 129.777 30.4157 129.456 30.8385 129.129L-70.1287 28.16ZM-75.86 36.8458C-76.1288 37.3277 -76.3941 37.8124 -76.6502 38.3002L20.6986 135.651C21.1865 135.391 21.6743 135.128 22.1556 134.857L-75.86 36.8458Z" fill="#A5DEE9"/>
<path d="M1.90931 1.55343L57.4493 57.0894C57.2425 56.1102 57.0142 55.1313 56.7669 54.1587L4.84291 2.23574C3.86714 1.98875 2.89137 1.76019 1.90931 1.55343ZM-36.6569 3.97728C-37.2099 4.16857 -37.7595 4.36935 -38.3093 4.57296L54.4265 97.3102C54.6333 96.7606 54.8309 96.2108 55.0222 95.6581L-36.6569 3.97728ZM-12.9231 0C-13.2981 0 -13.6734 0.00312583 -14.0488 0.00951107L58.9929 73.0494C59.0027 72.2995 59.0027 71.5494 58.9904 70.7988L-11.7972 0.00951107C-12.1728 0.00312583 -12.5479 0 -12.9231 0ZM-25.1893 1.03107C-25.8224 1.13983 -26.4554 1.2568 -27.0881 1.38359L57.6191 86.0863C57.7427 85.4558 57.8629 84.8231 57.971 84.1901L-25.1893 1.03107ZM-73.1209 111.653C-70.4902 115.633 -67.4206 119.409 -63.9166 122.913C-60.4116 126.421 -56.6322 129.487 -52.652 132.118L-73.1209 111.653ZM-84.9934 70.9528C-85.0027 71.7035 -85.0027 72.4534 -84.9903 73.204L-14.2028 143.99C-13.7996 143.997 -13.3961 144 -12.9924 144C-12.6459 144 -12.299 143.998 -11.9521 143.993L-84.9934 70.9528ZM-63.3452 20.5304L-63.9166 21.086L-64.4718 21.6544L37.3478 123.469L37.9157 122.913L38.4719 122.345L-63.3452 20.5304ZM-83.4495 86.9102C-83.2424 87.8926 -83.0141 88.8684 -82.7672 89.8407L-30.8397 141.764C-29.8671 142.014 -28.8916 142.242 -27.9092 142.446L-83.4495 86.9102ZM-83.6196 57.9134C-83.7426 58.5436 -83.8638 59.1765 -83.9715 59.8096L-0.808022 142.968C-0.175011 142.86 0.454552 142.743 1.08755 142.616L-83.6196 57.9134ZM-46.6985 8.34949C-47.1864 8.60872 -47.6711 8.87145 -48.1564 9.14337L49.8595 107.156C50.1311 106.672 50.3935 106.187 50.6531 105.7L-46.6985 8.34949ZM26.6518 11.8819L47.1207 32.3471C44.4896 28.3674 41.4207 24.5908 37.9157 21.086C34.4114 17.582 30.6348 14.5122 26.6518 11.8819ZM-80.4264 46.6895C-80.6332 47.239 -80.8312 47.7889 -81.0225 48.3416L10.657 140.022C11.2097 139.831 11.7621 139.634 12.3088 139.426L-80.4264 46.6895ZM-55.5575 13.9042C-55.9872 14.2222 -56.413 14.5467 -56.839 14.8739L44.1286 115.839C44.4557 115.414 44.7802 114.987 45.0952 114.558L-55.5575 13.9042ZM-70.1287 28.16C-70.4564 28.5868 -70.7804 29.0127 -71.095 29.4446L29.5576 130.096C29.9864 129.777 30.4157 129.456 30.8385 129.129L-70.1287 28.16ZM-75.86 36.8458C-76.1288 37.3277 -76.3941 37.8124 -76.6502 38.3002L20.6986 135.651C21.1865 135.391 21.6743 135.128 22.1556 134.857L-75.86 36.8458Z" fill="#A5DEE9"/>
<path d="M1.90931 1.55343L57.4493 57.0894C57.2425 56.1102 57.0142 55.1313 56.7669 54.1587L4.84291 2.23574C3.86714 1.98875 2.89137 1.76019 1.90931 1.55343ZM-36.6569 3.97728C-37.2099 4.16857 -37.7595 4.36935 -38.3093 4.57296L54.4265 97.3102C54.6333 96.7606 54.8309 96.2108 55.0222 95.6581L-36.6569 3.97728ZM-12.9231 0C-13.2981 0 -13.6734 0.00312583 -14.0488 0.00951107L58.9929 73.0494C59.0027 72.2995 59.0027 71.5494 58.9904 70.7988L-11.7972 0.00951107C-12.1728 0.00312583 -12.5479 0 -12.9231 0ZM-25.1893 1.03107C-25.8224 1.13983 -26.4554 1.2568 -27.0881 1.38359L57.6191 86.0863C57.7427 85.4558 57.8629 84.8231 57.971 84.1901L-25.1893 1.03107ZM-73.1209 111.653C-70.4902 115.633 -67.4206 119.409 -63.9166 122.913C-60.4116 126.421 -56.6322 129.487 -52.652 132.118L-73.1209 111.653ZM-84.9934 70.9528C-85.0027 71.7035 -85.0027 72.4534 -84.9903 73.204L-14.2028 143.99C-13.7996 143.997 -13.3961 144 -12.9924 144C-12.6459 144 -12.299 143.998 -11.9521 143.993L-84.9934 70.9528ZM-63.3452 20.5304L-63.9166 21.086L-64.4718 21.6544L37.3478 123.469L37.9157 122.913L38.4719 122.345L-63.3452 20.5304ZM-83.4495 86.9102C-83.2424 87.8926 -83.0141 88.8684 -82.7672 89.8407L-30.8397 141.764C-29.8671 142.014 -28.8916 142.242 -27.9092 142.446L-83.4495 86.9102ZM-83.6196 57.9134C-83.7426 58.5436 -83.8638 59.1765 -83.9715 59.8096L-0.808022 142.968C-0.175011 142.86 0.454552 142.743 1.08755 142.616L-83.6196 57.9134ZM-46.6985 8.34949C-47.1864 8.60872 -47.6711 8.87145 -48.1564 9.14337L49.8595 107.156C50.1311 106.672 50.3935 106.187 50.6531 105.7L-46.6985 8.34949ZM26.6518 11.8819L47.1207 32.3471C44.4896 28.3674 41.4207 24.5908 37.9157 21.086C34.4114 17.582 30.6348 14.5122 26.6518 11.8819ZM-80.4264 46.6895C-80.6332 47.239 -80.8312 47.7889 -81.0225 48.3416L10.657 140.022C11.2097 139.831 11.7621 139.634 12.3088 139.426L-80.4264 46.6895ZM-55.5575 13.9042C-55.9872 14.2222 -56.413 14.5467 -56.839 14.8739L44.1286 115.839C44.4557 115.414 44.7802 114.987 45.0952 114.558L-55.5575 13.9042ZM-70.1287 28.16C-70.4564 28.5868 -70.7804 29.0127 -71.095 29.4446L29.5576 130.096C29.9864 129.777 30.4157 129.456 30.8385 129.129L-70.1287 28.16ZM-75.86 36.8458C-76.1288 37.3277 -76.3941 37.8124 -76.6502 38.3002L20.6986 135.651C21.1865 135.391 21.6743 135.128 22.1556 134.857L-75.86 36.8458Z" fill="#A5DEE9"/>
<path d="M1.90931 1.55343L57.4493 57.0894C57.2425 56.1102 57.0142 55.1313 56.7669 54.1587L4.84291 2.23574C3.86714 1.98875 2.89137 1.76019 1.90931 1.55343ZM-36.6569 3.97728C-37.2099 4.16857 -37.7595 4.36935 -38.3093 4.57296L54.4265 97.3102C54.6333 96.7606 54.8309 96.2108 55.0222 95.6581L-36.6569 3.97728ZM-12.9231 0C-13.2981 0 -13.6734 0.00312583 -14.0488 0.00951107L58.9929 73.0494C59.0027 72.2995 59.0027 71.5494 58.9904 70.7988L-11.7972 0.00951107C-12.1728 0.00312583 -12.5479 0 -12.9231 0ZM-25.1893 1.03107C-25.8224 1.13983 -26.4554 1.2568 -27.0881 1.38359L57.6191 86.0863C57.7427 85.4558 57.8629 84.8231 57.971 84.1901L-25.1893 1.03107ZM-73.1209 111.653C-70.4902 115.633 -67.4206 119.409 -63.9166 122.913C-60.4116 126.421 -56.6322 129.487 -52.652 132.118L-73.1209 111.653ZM-84.9934 70.9528C-85.0027 71.7035 -85.0027 72.4534 -84.9903 73.204L-14.2028 143.99C-13.7996 143.997 -13.3961 144 -12.9924 144C-12.6459 144 -12.299 143.998 -11.9521 143.993L-84.9934 70.9528ZM-63.3452 20.5304L-63.9166 21.086L-64.4718 21.6544L37.3478 123.469L37.9157 122.913L38.4719 122.345L-63.3452 20.5304ZM-83.4495 86.9102C-83.2424 87.8926 -83.0141 88.8684 -82.7672 89.8407L-30.8397 141.764C-29.8671 142.014 -28.8916 142.242 -27.9092 142.446L-83.4495 86.9102ZM-83.6196 57.9134C-83.7426 58.5436 -83.8638 59.1765 -83.9715 59.8096L-0.808022 142.968C-0.175011 142.86 0.454552 142.743 1.08755 142.616L-83.6196 57.9134ZM-46.6985 8.34949C-47.1864 8.60872 -47.6711 8.87145 -48.1564 9.14337L49.8595 107.156C50.1311 106.672 50.3935 106.187 50.6531 105.7L-46.6985 8.34949ZM26.6518 11.8819L47.1207 32.3471C44.4896 28.3674 41.4207 24.5908 37.9157 21.086C34.4114 17.582 30.6348 14.5122 26.6518 11.8819ZM-80.4264 46.6895C-80.6332 47.239 -80.8312 47.7889 -81.0225 48.3416L10.657 140.022C11.2097 139.831 11.7621 139.634 12.3088 139.426L-80.4264 46.6895ZM-55.5575 13.9042C-55.9872 14.2222 -56.413 14.5467 -56.839 14.8739L44.1286 115.839C44.4557 115.414 44.7802 114.987 45.0952 114.558L-55.5575 13.9042ZM-70.1287 28.16C-70.4564 28.5868 -70.7804 29.0127 -71.095 29.4446L29.5576 130.096C29.9864 129.777 30.4157 129.456 30.8385 129.129L-70.1287 28.16ZM-75.86 36.8458C-76.1288 37.3277 -76.3941 37.8124 -76.6502 38.3002L20.6986 135.651C21.1865 135.391 21.6743 135.128 22.1556 134.857L-75.86 36.8458Z" fill="#A5DEE9"/>
<path d="M1.90931 1.55343L57.4493 57.0894C57.2425 56.1102 57.0142 55.1313 56.7669 54.1587L4.84291 2.23574C3.86714 1.98875 2.89137 1.76019 1.90931 1.55343ZM-36.6569 3.97728C-37.2099 4.16857 -37.7595 4.36935 -38.3093 4.57296L54.4265 97.3102C54.6333 96.7606 54.8309 96.2108 55.0222 95.6581L-36.6569 3.97728ZM-12.9231 0C-13.2981 0 -13.6734 0.00312583 -14.0488 0.00951107L58.9929 73.0494C59.0027 72.2995 59.0027 71.5494 58.9904 70.7988L-11.7972 0.00951107C-12.1728 0.00312583 -12.5479 0 -12.9231 0ZM-25.1893 1.03107C-25.8224 1.13983 -26.4554 1.2568 -27.0881 1.38359L57.6191 86.0863C57.7427 85.4558 57.8629 84.8231 57.971 84.1901L-25.1893 1.03107ZM-73.1209 111.653C-70.4902 115.633 -67.4206 119.409 -63.9166 122.913C-60.4116 126.421 -56.6322 129.487 -52.652 132.118L-73.1209 111.653ZM-84.9934 70.9528C-85.0027 71.7035 -85.0027 72.4534 -84.9903 73.204L-14.2028 143.99C-13.7996 143.997 -13.3961 144 -12.9924 144C-12.6459 144 -12.299 143.998 -11.9521 143.993L-84.9934 70.9528ZM-63.3452 20.5304L-63.9166 21.086L-64.4718 21.6544L37.3478 123.469L37.9157 122.913L38.4719 122.345L-63.3452 20.5304ZM-83.4495 86.9102C-83.2424 87.8926 -83.0141 88.8684 -82.7672 89.8407L-30.8397 141.764C-29.8671 142.014 -28.8916 142.242 -27.9092 142.446L-83.4495 86.9102ZM-83.6196 57.9134C-83.7426 58.5436 -83.8638 59.1765 -83.9715 59.8096L-0.808022 142.968C-0.175011 142.86 0.454552 142.743 1.08755 142.616L-83.6196 57.9134ZM-46.6985 8.34949C-47.1864 8.60872 -47.6711 8.87145 -48.1564 9.14337L49.8595 107.156C50.1311 106.672 50.3935 106.187 50.6531 105.7L-46.6985 8.34949ZM26.6518 11.8819L47.1207 32.3471C44.4896 28.3674 41.4207 24.5908 37.9157 21.086C34.4114 17.582 30.6348 14.5122 26.6518 11.8819ZM-80.4264 46.6895C-80.6332 47.239 -80.8312 47.7889 -81.0225 48.3416L10.657 140.022C11.2097 139.831 11.7621 139.634 12.3088 139.426L-80.4264 46.6895ZM-55.5575 13.9042C-55.9872 14.2222 -56.413 14.5467 -56.839 14.8739L44.1286 115.839C44.4557 115.414 44.7802 114.987 45.0952 114.558L-55.5575 13.9042ZM-70.1287 28.16C-70.4564 28.5868 -70.7804 29.0127 -71.095 29.4446L29.5576 130.096C29.9864 129.777 30.4157 129.456 30.8385 129.129L-70.1287 28.16ZM-75.86 36.8458C-76.1288 37.3277 -76.3941 37.8124 -76.6502 38.3002L20.6986 135.651C21.1865 135.391 21.6743 135.128 22.1556 134.857L-75.86 36.8458Z" fill="#A5DEE9"/>
<path d="M1.90931 1.55343L57.4493 57.0894C57.2425 56.1102 57.0142 55.1313 56.7669 54.1587L4.84291 2.23574C3.86714 1.98875 2.89137 1.76019 1.90931 1.55343ZM-36.6569 3.97728C-37.2099 4.16857 -37.7595 4.36935 -38.3093 4.57296L54.4265 97.3102C54.6333 96.7606 54.8309 96.2108 55.0222 95.6581L-36.6569 3.97728ZM-12.9231 0C-13.2981 0 -13.6734 0.00312583 -14.0488 0.00951107L58.9929 73.0494C59.0027 72.2995 59.0027 71.5494 58.9904 70.7988L-11.7972 0.00951107C-12.1728 0.00312583 -12.5479 0 -12.9231 0ZM-25.1893 1.03107C-25.8224 1.13983 -26.4554 1.2568 -27.0881 1.38359L57.6191 86.0863C57.7427 85.4558 57.8629 84.8231 57.971 84.1901L-25.1893 1.03107ZM-73.1209 111.653C-70.4902 115.633 -67.4206 119.409 -63.9166 122.913C-60.4116 126.421 -56.6322 129.487 -52.652 132.118L-73.1209 111.653ZM-84.9934 70.9528C-85.0027 71.7035 -85.0027 72.4534 -84.9903 73.204L-14.2028 143.99C-13.7996 143.997 -13.3961 144 -12.9924 144C-12.6459 144 -12.299 143.998 -11.9521 143.993L-84.9934 70.9528ZM-63.3452 20.5304L-63.9166 21.086L-64.4718 21.6544L37.3478 123.469L37.9157 122.913L38.4719 122.345L-63.3452 20.5304ZM-83.4495 86.9102C-83.2424 87.8926 -83.0141 88.8684 -82.7672 89.8407L-30.8397 141.764C-29.8671 142.014 -28.8916 142.242 -27.9092 142.446L-83.4495 86.9102ZM-83.6196 57.9134C-83.7426 58.5436 -83.8638 59.1765 -83.9715 59.8096L-0.808022 142.968C-0.175011 142.86 0.454552 142.743 1.08755 142.616L-83.6196 57.9134ZM-46.6985 8.34949C-47.1864 8.60872 -47.6711 8.87145 -48.1564 9.14337L49.8595 107.156C50.1311 106.672 50.3935 106.187 50.6531 105.7L-46.6985 8.34949ZM26.6518 11.8819L47.1207 32.3471C44.4896 28.3674 41.4207 24.5908 37.9157 21.086C34.4114 17.582 30.6348 14.5122 26.6518 11.8819ZM-80.4264 46.6895C-80.6332 47.239 -80.8312 47.7889 -81.0225 48.3416L10.657 140.022C11.2097 139.831 11.7621 139.634 12.3088 139.426L-80.4264 46.6895ZM-55.5575 13.9042C-55.9872 14.2222 -56.413 14.5467 -56.839 14.8739L44.1286 115.839C44.4557 115.414 44.7802 114.987 45.0952 114.558L-55.5575 13.9042ZM-70.1287 28.16C-70.4564 28.5868 -70.7804 29.0127 -71.095 29.4446L29.5576 130.096C29.9864 129.777 30.4157 129.456 30.8385 129.129L-70.1287 28.16ZM-75.86 36.8458C-76.1288 37.3277 -76.3941 37.8124 -76.6502 38.3002L20.6986 135.651C21.1865 135.391 21.6743 135.128 22.1556 134.857L-75.86 36.8458Z" fill="#A5DEE9"/>
<path d="M1.90931 1.55343L57.4493 57.0894C57.2425 56.1102 57.0142 55.1313 56.7669 54.1587L4.84291 2.23574C3.86714 1.98875 2.89137 1.76019 1.90931 1.55343ZM-36.6569 3.97728C-37.2099 4.16857 -37.7595 4.36935 -38.3093 4.57296L54.4265 97.3102C54.6333 96.7606 54.8309 96.2108 55.0222 95.6581L-36.6569 3.97728ZM-12.9231 0C-13.2981 0 -13.6734 0.00312583 -14.0488 0.00951107L58.9929 73.0494C59.0027 72.2995 59.0027 71.5494 58.9904 70.7988L-11.7972 0.00951107C-12.1728 0.00312583 -12.5479 0 -12.9231 0ZM-25.1893 1.03107C-25.8224 1.13983 -26.4554 1.2568 -27.0881 1.38359L57.6191 86.0863C57.7427 85.4558 57.8629 84.8231 57.971 84.1901L-25.1893 1.03107ZM-73.1209 111.653C-70.4902 115.633 -67.4206 119.409 -63.9166 122.913C-60.4116 126.421 -56.6322 129.487 -52.652 132.118L-73.1209 111.653ZM-84.9934 70.9528C-85.0027 71.7035 -85.0027 72.4534 -84.9903 73.204L-14.2028 143.99C-13.7996 143.997 -13.3961 144 -12.9924 144C-12.6459 144 -12.299 143.998 -11.9521 143.993L-84.9934 70.9528ZM-63.3452 20.5304L-63.9166 21.086L-64.4718 21.6544L37.3478 123.469L37.9157 122.913L38.4719 122.345L-63.3452 20.5304ZM-83.4495 86.9102C-83.2424 87.8926 -83.0141 88.8684 -82.7672 89.8407L-30.8397 141.764C-29.8671 142.014 -28.8916 142.242 -27.9092 142.446L-83.4495 86.9102ZM-83.6196 57.9134C-83.7426 58.5436 -83.8638 59.1765 -83.9715 59.8096L-0.808022 142.968C-0.175011 142.86 0.454552 142.743 1.08755 142.616L-83.6196 57.9134ZM-46.6985 8.34949C-47.1864 8.60872 -47.6711 8.87145 -48.1564 9.14337L49.8595 107.156C50.1311 106.672 50.3935 106.187 50.6531 105.7L-46.6985 8.34949ZM26.6518 11.8819L47.1207 32.3471C44.4896 28.3674 41.4207 24.5908 37.9157 21.086C34.4114 17.582 30.6348 14.5122 26.6518 11.8819ZM-80.4264 46.6895C-80.6332 47.239 -80.8312 47.7889 -81.0225 48.3416L10.657 140.022C11.2097 139.831 11.7621 139.634 12.3088 139.426L-80.4264 46.6895ZM-55.5575 13.9042C-55.9872 14.2222 -56.413 14.5467 -56.839 14.8739L44.1286 115.839C44.4557 115.414 44.7802 114.987 45.0952 114.558L-55.5575 13.9042ZM-70.1287 28.16C-70.4564 28.5868 -70.7804 29.0127 -71.095 29.4446L29.5576 130.096C29.9864 129.777 30.4157 129.456 30.8385 129.129L-70.1287 28.16ZM-75.86 36.8458C-76.1288 37.3277 -76.3941 37.8124 -76.6502 38.3002L20.6986 135.651C21.1865 135.391 21.6743 135.128 22.1556 134.857L-75.86 36.8458Z" fill="#A5DEE9"/>
<path d="M1.90931 1.55343L57.4493 57.0894C57.2425 56.1102 57.0142 55.1313 56.7669 54.1587L4.84291 2.23574C3.86714 1.98875 2.89137 1.76019 1.90931 1.55343ZM-36.6569 3.97728C-37.2099 4.16857 -37.7595 4.36935 -38.3093 4.57296L54.4265 97.3102C54.6333 96.7606 54.8309 96.2108 55.0222 95.6581L-36.6569 3.97728ZM-12.9231 0C-13.2981 0 -13.6734 0.00312583 -14.0488 0.00951107L58.9929 73.0494C59.0027 72.2995 59.0027 71.5494 58.9904 70.7988L-11.7972 0.00951107C-12.1728 0.00312583 -12.5479 0 -12.9231 0ZM-25.1893 1.03107C-25.8224 1.13983 -26.4554 1.2568 -27.0881 1.38359L57.6191 86.0863C57.7427 85.4558 57.8629 84.8231 57.971 84.1901L-25.1893 1.03107ZM-73.1209 111.653C-70.4902 115.633 -67.4206 119.409 -63.9166 122.913C-60.4116 126.421 -56.6322 129.487 -52.652 132.118L-73.1209 111.653ZM-84.9934 70.9528C-85.0027 71.7035 -85.0027 72.4534 -84.9903 73.204L-14.2028 143.99C-13.7996 143.997 -13.3961 144 -12.9924 144C-12.6459 144 -12.299 143.998 -11.9521 143.993L-84.9934 70.9528ZM-63.3452 20.5304L-63.9166 21.086L-64.4718 21.6544L37.3478 123.469L37.9157 122.913L38.4719 122.345L-63.3452 20.5304ZM-83.4495 86.9102C-83.2424 87.8926 -83.0141 88.8684 -82.7672 89.8407L-30.8397 141.764C-29.8671 142.014 -28.8916 142.242 -27.9092 142.446L-83.4495 86.9102ZM-83.6196 57.9134C-83.7426 58.5436 -83.8638 59.1765 -83.9715 59.8096L-0.808022 142.968C-0.175011 142.86 0.454552 142.743 1.08755 142.616L-83.6196 57.9134ZM-46.6985 8.34949C-47.1864 8.60872 -47.6711 8.87145 -48.1564 9.14337L49.8595 107.156C50.1311 106.672 50.3935 106.187 50.6531 105.7L-46.6985 8.34949ZM26.6518 11.8819L47.1207 32.3471C44.4896 28.3674 41.4207 24.5908 37.9157 21.086C34.4114 17.582 30.6348 14.5122 26.6518 11.8819ZM-80.4264 46.6895C-80.6332 47.239 -80.8312 47.7889 -81.0225 48.3416L10.657 140.022C11.2097 139.831 11.7621 139.634 12.3088 139.426L-80.4264 46.6895ZM-55.5575 13.9042C-55.9872 14.2222 -56.413 14.5467 -56.839 14.8739L44.1286 115.839C44.4557 115.414 44.7802 114.987 45.0952 114.558L-55.5575 13.9042ZM-70.1287 28.16C-70.4564 28.5868 -70.7804 29.0127 -71.095 29.4446L29.5576 130.096C29.9864 129.777 30.4157 129.456 30.8385 129.129L-70.1287 28.16ZM-75.86 36.8458C-76.1288 37.3277 -76.3941 37.8124 -76.6502 38.3002L20.6986 135.651C21.1865 135.391 21.6743 135.128 22.1556 134.857L-75.86 36.8458Z" fill="#A5DEE9"/>
<path d="M1.90931 1.55343L57.4493 57.0894C57.2425 56.1102 57.0142 55.1313 56.7669 54.1587L4.84291 2.23574C3.86714 1.98875 2.89137 1.76019 1.90931 1.55343ZM-36.6569 3.97728C-37.2099 4.16857 -37.7595 4.36935 -38.3093 4.57296L54.4265 97.3102C54.6333 96.7606 54.8309 96.2108 55.0222 95.6581L-36.6569 3.97728ZM-12.9231 0C-13.2981 0 -13.6734 0.00312583 -14.0488 0.00951107L58.9929 73.0494C59.0027 72.2995 59.0027 71.5494 58.9904 70.7988L-11.7972 0.00951107C-12.1728 0.00312583 -12.5479 0 -12.9231 0ZM-25.1893 1.03107C-25.8224 1.13983 -26.4554 1.2568 -27.0881 1.38359L57.6191 86.0863C57.7427 85.4558 57.8629 84.8231 57.971 84.1901L-25.1893 1.03107ZM-73.1209 111.653C-70.4902 115.633 -67.4206 119.409 -63.9166 122.913C-60.4116 126.421 -56.6322 129.487 -52.652 132.118L-73.1209 111.653ZM-84.9934 70.9528C-85.0027 71.7035 -85.0027 72.4534 -84.9903 73.204L-14.2028 143.99C-13.7996 143.997 -13.3961 144 -12.9924 144C-12.6459 144 -12.299 143.998 -11.9521 143.993L-84.9934 70.9528ZM-63.3452 20.5304L-63.9166 21.086L-64.4718 21.6544L37.3478 123.469L37.9157 122.913L38.4719 122.345L-63.3452 20.5304ZM-83.4495 86.9102C-83.2424 87.8926 -83.0141 88.8684 -82.7672 89.8407L-30.8397 141.764C-29.8671 142.014 -28.8916 142.242 -27.9092 142.446L-83.4495 86.9102ZM-83.6196 57.9134C-83.7426 58.5436 -83.8638 59.1765 -83.9715 59.8096L-0.808022 142.968C-0.175011 142.86 0.454552 142.743 1.08755 142.616L-83.6196 57.9134ZM-46.6985 8.34949C-47.1864 8.60872 -47.6711 8.87145 -48.1564 9.14337L49.8595 107.156C50.1311 106.672 50.3935 106.187 50.6531 105.7L-46.6985 8.34949ZM26.6518 11.8819L47.1207 32.3471C44.4896 28.3674 41.4207 24.5908 37.9157 21.086C34.4114 17.582 30.6348 14.5122 26.6518 11.8819ZM-80.4264 46.6895C-80.6332 47.239 -80.8312 47.7889 -81.0225 48.3416L10.657 140.022C11.2097 139.831 11.7621 139.634 12.3088 139.426L-80.4264 46.6895ZM-55.5575 13.9042C-55.9872 14.2222 -56.413 14.5467 -56.839 14.8739L44.1286 115.839C44.4557 115.414 44.7802 114.987 45.0952 114.558L-55.5575 13.9042ZM-70.1287 28.16C-70.4564 28.5868 -70.7804 29.0127 -71.095 29.4446L29.5576 130.096C29.9864 129.777 30.4157 129.456 30.8385 129.129L-70.1287 28.16ZM-75.86 36.8458C-76.1288 37.3277 -76.3941 37.8124 -76.6502 38.3002L20.6986 135.651C21.1865 135.391 21.6743 135.128 22.1556 134.857L-75.86 36.8458Z" fill="#A5DEE9"/>
</svg>
