<svg width="40" height="40" viewBox="0 0 40 40" fill="none" xmlns="http://www.w3.org/2000/svg">
<g clip-path="url(#clip0_1_26274)">
<path fill-rule="evenodd" clip-rule="evenodd" d="M39.25 20.116C39.25 9.48555 30.6305 0.866016 20 0.866016C9.36953 0.866016 0.75 9.48555 0.75 20.116C0.75 29.7238 7.78828 37.6877 16.9922 39.1331V25.6822H12.1032V20.116H16.9922V15.875C16.9922 11.0513 19.8668 8.38469 24.2634 8.38469C26.3697 8.38469 28.5731 8.76109 28.5731 8.76109V13.4988H26.1445C23.7546 13.4988 23.007 14.9821 23.007 16.5066V20.116H28.3454L27.4929 25.6822H23.0078V39.1348C32.2117 37.6902 39.25 29.7264 39.25 20.116Z" fill="#71C4D1"/>
</g>
<defs>
<clipPath id="clip0_1_26274">
<rect width="40" height="40" fill="white"/>
</clipPath>
</defs>
</svg>
