<svg width="40" height="40" viewBox="0 0 40 40" fill="none" xmlns="http://www.w3.org/2000/svg">
<g clip-path="url(#clip0_1_26269)">
<path d="M19.9999 39.1667C30.5854 39.1667 39.1666 30.5855 39.1666 20C39.1666 9.41454 30.5854 0.833336 19.9999 0.833336C9.41446 0.833336 0.833252 9.41454 0.833252 20C0.833252 30.5855 9.41446 39.1667 19.9999 39.1667Z" fill="#71C4D1"/>
<path d="M20 10.5721C23.0706 10.5721 23.4344 10.5838 24.647 10.6391C25.7682 10.6903 26.3771 10.8776 26.7824 11.0351C27.3192 11.2437 27.7022 11.4929 28.1046 11.8953C28.5071 12.2978 28.7563 12.6808 28.9649 13.2176C29.1224 13.6229 29.3097 14.2318 29.3609 15.3529C29.4162 16.5656 29.4279 16.9293 29.4279 19.9999C29.4279 23.0706 29.4162 23.4343 29.3609 24.647C29.3097 25.7682 29.1224 26.377 28.9649 26.7823C28.7563 27.3191 28.5071 27.7022 28.1047 28.1046C27.7022 28.507 27.3192 28.7562 26.7824 28.9648C26.3771 29.1224 25.7682 29.3096 24.647 29.3608C23.4346 29.4161 23.0709 29.4279 20 29.4279C16.9291 29.4279 16.5655 29.4161 15.353 29.3608C14.2318 29.3096 13.6229 29.1224 13.2176 28.9648C12.6808 28.7562 12.2978 28.507 11.8954 28.1046C11.493 27.7022 11.2437 27.3191 11.0351 26.7823C10.8776 26.377 10.6903 25.7682 10.6391 24.647C10.5838 23.4343 10.5721 23.0706 10.5721 19.9999C10.5721 16.9293 10.5838 16.5656 10.6391 15.3529C10.6903 14.2318 10.8776 13.6229 11.0351 13.2176C11.2437 12.6808 11.4929 12.2978 11.8954 11.8954C12.2978 11.4929 12.6808 11.2437 13.2176 11.0351C13.6229 10.8776 14.2318 10.6903 15.353 10.6391C16.5656 10.5838 16.9294 10.5721 20 10.5721ZM20 8.5C16.8768 8.5 16.4851 8.51322 15.2586 8.56919C14.0346 8.62506 13.1985 8.81941 12.467 9.10375C11.7108 9.39758 11.0695 9.79078 10.4302 10.4302C9.79078 11.0695 9.39758 11.7108 9.10375 12.467C8.81941 13.1985 8.62506 14.0345 8.56919 15.2586C8.51322 16.4851 8.5 16.8768 8.5 19.9999C8.5 23.1232 8.51322 23.5148 8.56919 24.7414C8.62506 25.9654 8.81941 26.8014 9.10375 27.5329C9.39758 28.2891 9.79078 28.9304 10.4302 29.5698C11.0695 30.2091 11.7108 30.6023 12.467 30.8962C13.1985 31.1805 14.0346 31.3748 15.2586 31.4307C16.4851 31.4867 16.8768 31.4999 20 31.4999C23.1232 31.4999 23.5149 31.4867 24.7414 31.4307C25.9654 31.3748 26.8015 31.1805 27.533 30.8962C28.2892 30.6023 28.9305 30.2091 29.5698 29.5698C30.2091 28.9304 30.6024 28.2891 30.8962 27.5329C31.1806 26.8014 31.3749 25.9654 31.4308 24.7414C31.4868 23.5148 31.5 23.1232 31.5 19.9999C31.5 16.8768 31.4868 16.4851 31.4308 15.2586C31.3749 14.0345 31.1806 13.1985 30.8962 12.467C30.6024 11.7108 30.2091 11.0695 29.5698 10.4302C28.9305 9.79078 28.2892 9.39758 27.533 9.10375C26.8015 8.81941 25.9654 8.62506 24.7414 8.56919C23.5149 8.51322 23.1232 8.5 20 8.5Z" fill="white"/>
<path d="M20.0057 14.0998C16.7442 14.0998 14.1003 16.7437 14.1003 20.0052C14.1003 23.2667 16.7442 25.9105 20.0057 25.9105C23.2672 25.9105 25.9111 23.2667 25.9111 20.0052C25.9111 16.7437 23.2672 14.0998 20.0057 14.0998ZM20.0057 23.8385C17.8886 23.8385 16.1724 22.1222 16.1724 20.0052C16.1724 17.8881 17.8886 16.1718 20.0057 16.1718C22.1228 16.1718 23.839 17.8881 23.839 20.0052C23.839 22.1222 22.1228 23.8385 20.0057 23.8385Z" fill="white"/>
<path d="M27.5237 13.8631C27.5237 14.6252 26.9058 15.2431 26.1437 15.2431C25.3815 15.2431 24.7637 14.6252 24.7637 13.8631C24.7637 13.101 25.3815 12.483 26.1437 12.483C26.9058 12.483 27.5237 13.101 27.5237 13.8631Z" fill="white"/>
</g>
<defs>
<clipPath id="clip0_1_26269">
<rect width="40" height="40" fill="white"/>
</clipPath>
</defs>
</svg>
