<svg width="270" height="87" viewBox="0 0 270 87" fill="none" xmlns="http://www.w3.org/2000/svg">
<path d="M43.9725 7.38115C43.966 7.34723 43.9593 7.3133 43.9524 7.27938C43.9478 7.25676 43.9432 7.23419 43.9384 7.21165C43.9159 7.09958 43.8932 6.98719 43.8703 6.87445L43.8613 6.87628C42.6905 2.19076 38.0256 -0.786634 33.2449 0.183051C28.4642 1.15274 25.3281 5.71243 26.0755 10.4838L26.0664 10.4857L28.3645 21.8154C30.1702 30.7176 39.6515 45.4769 58.9335 37.5216C49.0865 35.661 47.8686 28.8384 45.511 15.6317C45.062 13.1164 44.5717 10.3695 43.9725 7.38115Z" fill="url(#paint0_linear_46_19)"/>
<path d="M52.1784 39.4926C54.2807 39.1514 56.531 38.5128 58.9335 37.5216C51.2515 36.0701 48.8213 31.5986 47.0046 23.4321C49.7822 22.7302 51.9325 21.253 53.1715 20.1175C53.8384 19.3871 54.5283 18.6241 55.2459 17.8305C56.9595 15.9354 58.8313 13.8653 60.9227 11.6487C60.9462 11.6234 60.9699 11.5981 60.9937 11.573L61.0414 11.523L61.2779 11.2731L61.2846 11.2795C64.7603 7.92626 70.2942 7.87317 73.8347 11.2288C77.3751 14.5844 77.6186 20.1132 74.4564 23.7636L74.4631 23.7699L66.5106 32.1605C63.4836 35.3542 58.2008 38.759 52.1784 39.4926Z" fill="url(#paint1_linear_46_19)"/>
<path d="M72.7769 61.4071C72.8096 61.4178 72.8425 61.4283 72.8754 61.4387C72.8974 61.4456 72.9193 61.4524 72.9413 61.4592C73.0503 61.4937 73.1597 61.5282 73.2695 61.5628L73.2723 61.554C77.9393 62.7966 82.8021 60.1548 84.2668 55.5018C85.7314 50.8489 83.2585 45.898 78.7212 44.2434L78.724 44.2346L78.3357 44.1123C78.3338 44.1117 78.3318 44.1111 78.3299 44.1105C78.328 44.1099 78.326 44.1093 78.3241 44.1087L67.697 40.7635C59.0326 38.0362 41.5284 39.1921 39.1604 59.9158C45.5533 52.1987 52.1134 54.4341 64.8118 58.7613C67.2304 59.5854 69.8717 60.4855 72.7769 61.4071Z" fill="url(#paint2_linear_46_19)"/>
<path d="M40.7042 53.0502C39.9855 55.0551 39.4554 57.3336 39.1604 59.9158C44.1477 53.8954 49.2368 53.9322 57.2627 56.294C56.5329 59.0644 56.7852 61.661 57.1794 63.2947C57.4959 64.2316 57.8298 65.2045 58.177 66.2164C59.0064 68.6331 59.9123 71.2729 60.8402 74.1759C60.851 74.2087 60.8616 74.2416 60.8721 74.2746L60.8927 74.3406L60.997 74.6684L60.9882 74.6712C62.2409 79.3355 59.6097 84.2041 54.9599 85.6788C50.3101 87.1535 45.3539 84.6914 43.6894 80.1577L43.6806 80.1605L40.1857 69.141C38.8554 64.9465 38.4319 58.6757 40.7042 53.0502Z" fill="url(#paint3_linear_46_19)"/>
<path d="M7.21613 43.8401C7.18241 43.833 7.14868 43.8258 7.11496 43.8183C7.0925 43.8133 7.07009 43.8082 7.04771 43.8031C6.93601 43.7784 6.82399 43.7536 6.71162 43.7286L6.71362 43.7196C2.05059 42.4623 -0.839881 37.743 0.218192 32.9811C1.27627 28.2192 5.89327 25.1681 10.65 26.0037L10.652 25.9947L11.0494 26.083C11.0514 26.0835 11.0534 26.0839 11.0553 26.0843C11.0573 26.0848 11.0593 26.0852 11.0613 26.0857L21.9372 28.5022C30.8045 30.4725 45.3856 40.2257 37.0745 59.3569C35.3966 49.4772 28.5977 48.1331 15.437 45.5313C12.9303 45.0358 10.1929 44.4946 7.21613 43.8401Z" fill="url(#paint4_linear_46_19)"/>
<path d="M23.2083 47.1691C22.4551 49.9333 20.9383 52.0558 19.7801 53.2736C19.0376 53.9267 18.262 54.6023 17.4554 55.305C15.5288 56.9832 13.4242 58.8165 11.1691 60.8666C11.1434 60.8896 11.1177 60.9128 11.0922 60.9361L11.0413 60.983L10.7871 61.2148L10.7933 61.2216C7.37626 64.6346 7.22068 70.1665 10.5102 73.7685C13.7996 77.3706 19.3229 77.7164 23.0312 74.6223L23.0375 74.6292L31.5739 66.8334C34.8231 63.8662 38.3253 58.6473 39.1702 52.6395C38.7901 54.7351 38.11 56.9732 37.0744 59.3569C35.7655 51.6494 31.3398 49.1368 23.2083 47.1691Z" fill="url(#paint5_linear_46_19)"/>
<path d="M120.828 51.2361L118.715 45.8389H111.914L109.825 51.2361H107.828L114.537 34.1973H116.197L122.871 51.2361H120.828ZM118.1 44.0631L116.127 38.8052C115.872 38.1398 115.609 37.3234 115.338 36.3562C115.168 37.099 114.924 37.9154 114.607 38.8052L112.61 44.0631H118.1Z" fill="#979EA4"/>
<path d="M126.392 51.2361V34.267H128.365V51.2361H126.392Z" fill="#979EA4"/>
<path d="M136.193 44.1792V51.2361H134.22V34.267H138.874C140.956 34.267 142.492 34.6655 143.482 35.4625C144.48 36.2595 144.979 37.4588 144.979 39.0606C144.979 41.3046 143.842 42.8212 141.567 43.6104L146.175 51.2361H143.842L139.733 44.1792H136.193ZM136.193 42.4846H138.897C140.29 42.4846 141.312 42.2099 141.961 41.6605C142.611 41.1034 142.936 40.2715 142.936 39.165C142.936 38.043 142.604 37.2344 141.938 36.7392C141.281 36.244 140.22 35.9964 138.758 35.9964H136.193V42.4846Z" fill="#979EA4"/>
<path d="M157.671 51.2361L151.914 36.1937H151.821C151.929 37.3853 151.984 38.8013 151.984 40.4418V51.2361H150.161V34.267H153.133L158.507 48.2647H158.599L164.02 34.267H166.968V51.2361H164.995V40.3025C164.995 39.049 165.049 37.6871 165.157 36.2169H165.064L159.261 51.2361H157.671Z" fill="#C4CBD1"/>
<path d="M187.551 42.7283C187.551 45.4443 186.863 47.5799 185.485 49.1353C184.116 50.6906 182.208 51.4682 179.763 51.4682C177.264 51.4682 175.333 50.706 173.971 49.1817C172.617 47.6496 171.94 45.4907 171.94 42.7051C171.94 39.9427 172.621 37.8032 173.983 36.2865C175.345 34.7622 177.279 34 179.786 34C182.224 34 184.127 34.7738 185.497 36.3214C186.867 37.8689 187.551 40.0046 187.551 42.7283ZM174.029 42.7283C174.029 45.0265 174.517 46.7713 175.492 47.963C176.475 49.1469 177.898 49.7388 179.763 49.7388C181.644 49.7388 183.063 49.1469 184.023 47.963C184.982 46.7791 185.462 45.0342 185.462 42.7283C185.462 40.4456 184.982 38.7162 184.023 37.5401C183.071 36.3562 181.659 35.7642 179.786 35.7642C177.906 35.7642 176.475 36.36 175.492 37.5517C174.517 38.7356 174.029 40.4611 174.029 42.7283Z" fill="#C4CBD1"/>
<path d="M205.79 51.2361H203.539L194.265 36.9946H194.172C194.296 38.6659 194.358 40.198 194.358 41.5908V51.2361H192.535V34.267H194.764L204.014 48.4505H204.107C204.092 48.2415 204.057 47.5722 204.003 46.4425C203.949 45.305 203.929 44.4925 203.945 44.0051V34.267H205.79V51.2361Z" fill="#C4CBD1"/>
<path d="M216.868 51.2361H214.895V36.0196H209.521V34.267H222.242V36.0196H216.868V51.2361Z" fill="#C4CBD1"/>
<path d="M236.662 51.2361L234.55 45.8389H227.748L225.659 51.2361H223.662L230.371 34.1973H232.031L238.705 51.2361H236.662ZM233.934 44.0631L231.961 38.8052C231.706 38.1398 231.443 37.3234 231.172 36.3562C231.002 37.099 230.758 37.9154 230.441 38.8052L228.444 44.0631H233.934Z" fill="#C4CBD1"/>
<path d="M252.51 51.2361H240.845V49.6924L249.852 36.0428H241.124V34.267H252.255V35.8107L243.248 49.4486H252.51V51.2361Z" fill="#C4CBD1"/>
<path d="M269.878 51.2361H267.905V43.2506H258.968V51.2361H256.995V34.267H258.968V41.4864H267.905V34.267H269.878V51.2361Z" fill="#C4CBD1"/>
<defs>
<linearGradient id="paint0_linear_46_19" x1="37.4935" y1="-0.678718" x2="45.9039" y2="40.7854" gradientUnits="userSpaceOnUse">
<stop stop-color="#A5DEE9"/>
<stop offset="1" stop-color="#0BB4C9"/>
</linearGradient>
<linearGradient id="paint1_linear_46_19" x1="70.6881" y1="8.2467" x2="41.5839" y2="38.9542" gradientUnits="userSpaceOnUse">
<stop stop-color="#A5DEE9"/>
<stop offset="0.370006" stop-color="#1CB0C6"/>
<stop offset="1" stop-color="#008AA7"/>
</linearGradient>
<linearGradient id="paint2_linear_46_19" x1="82.9651" y1="59.637" x2="42.6088" y2="46.9338" gradientUnits="userSpaceOnUse">
<stop stop-color="#A5DEE9"/>
<stop offset="1" stop-color="#0BB4C9"/>
</linearGradient>
<linearGradient id="paint3_linear_46_19" x1="59.0922" y1="84.3681" x2="46.3016" y2="44.0393" gradientUnits="userSpaceOnUse">
<stop stop-color="#A5DEE9"/>
<stop offset="0.370006" stop-color="#1CB0C6"/>
<stop offset="1" stop-color="#008AA7"/>
</linearGradient>
<linearGradient id="paint4_linear_46_19" x1="-0.722129" y1="37.2131" x2="40.5791" y2="46.39" gradientUnits="userSpaceOnUse">
<stop stop-color="#A5DEE9"/>
<stop offset="1" stop-color="#0BB4C9"/>
</linearGradient>
<linearGradient id="paint5_linear_46_19" x1="7.58685" y1="70.5673" x2="38.8282" y2="42.0368" gradientUnits="userSpaceOnUse">
<stop stop-color="#A5DEE9"/>
<stop offset="0.370006" stop-color="#1CB0C6"/>
<stop offset="1" stop-color="#008AA7"/>
</linearGradient>
</defs>
</svg>
