<svg width="40" height="40" viewBox="0 0 40 40" fill="none" xmlns="http://www.w3.org/2000/svg">
<circle cx="20" cy="20" r="19" fill="#70C4D1"/>
<path d="M20.6151 5.96469C22.1498 5.94125 23.6732 5.95344 25.1957 5.94125C25.2463 7.84532 26.0188 9.55907 27.2479 10.8284L27.246 10.8266C28.5688 12.0181 30.2901 12.7906 32.1876 12.9219L32.2138 12.9238V17.645C30.4213 17.6 28.7357 17.1866 27.216 16.4759L27.2929 16.5078C26.5579 16.1544 25.9363 15.7916 25.3457 15.3866L25.3945 15.4184C25.3832 18.8394 25.4057 22.2603 25.371 25.6691C25.2745 27.4063 24.697 28.9906 23.7707 30.3134L23.7895 30.2844C22.2407 32.5025 19.732 33.9584 16.8792 34.0447H16.866C16.7507 34.0503 16.6148 34.0531 16.4779 34.0531C14.856 34.0531 13.3401 33.6013 12.0482 32.8166L12.0857 32.8381C9.73447 31.4234 8.1126 29.0028 7.8126 26.1875L7.80885 26.1491C7.78541 25.5631 7.77416 24.9772 7.7976 24.4034C8.25697 19.9231 12.0107 16.4572 16.5735 16.4572C17.0863 16.4572 17.5888 16.5013 18.0773 16.5847L18.0248 16.5772C18.0482 18.3106 17.9779 20.045 17.9779 21.7784C17.5813 21.635 17.1238 21.5516 16.6467 21.5516C14.8954 21.5516 13.4057 22.6709 12.8545 24.2338L12.846 24.2619C12.7213 24.6622 12.6492 25.1225 12.6492 25.5988C12.6492 25.7919 12.6613 25.9831 12.6838 26.1706L12.682 26.1481C12.9932 28.0663 14.6376 29.5138 16.6204 29.5138C16.6776 29.5138 16.7338 29.5128 16.7901 29.51H16.7817C18.1532 29.4688 19.3438 28.7309 20.017 27.6406L20.0263 27.6238C20.2767 27.275 20.4482 26.8531 20.5054 26.3947L20.5063 26.3816C20.6235 24.2844 20.5767 22.1994 20.5879 20.1022C20.5992 15.3809 20.5767 10.6709 20.6113 5.96188L20.6151 5.96469Z" fill="white"/>
</svg>
