<svg width="40" height="40" viewBox="0 0 40 40" fill="none" xmlns="http://www.w3.org/2000/svg">
<path fill-rule="evenodd" clip-rule="evenodd" d="M20 39C30.4934 39 39 30.4934 39 20C39 9.50659 30.4934 1 20 1C9.50659 1 1 9.50659 1 20C1 30.4934 9.50659 39 20 39Z" fill="#70C4D1"/>
<path fill-rule="evenodd" clip-rule="evenodd" d="M17.3844 23.3091L17.3836 16.1408L24.2283 19.7373L17.3844 23.3091ZM32.4134 14.8986C32.4134 14.8986 32.1656 13.1406 31.4064 12.3664C30.4429 11.3499 29.3631 11.3451 28.8683 11.2861C25.3232 11.0278 20.0056 11.0278 20.0056 11.0278H19.9945C19.9945 11.0278 14.6769 11.0278 11.1318 11.2861C10.6362 11.3451 9.55717 11.3499 8.59292 12.3664C7.83371 13.1406 7.58671 14.8986 7.58671 14.8986C7.58671 14.8986 7.33337 16.9635 7.33337 19.0277V20.9635C7.33337 23.0285 7.58671 25.0926 7.58671 25.0926C7.58671 25.0926 7.83371 26.8507 8.59292 27.6248C9.55717 28.6414 10.823 28.6095 11.3867 28.7155C13.4134 28.9116 20 28.9722 20 28.9722C20 28.9722 25.3232 28.9643 28.8683 28.7059C29.3631 28.6461 30.4429 28.6414 31.4064 27.6248C32.1656 26.8507 32.4134 25.0926 32.4134 25.0926C32.4134 25.0926 32.6667 23.0285 32.6667 20.9635V19.0277C32.6667 16.9635 32.4134 14.8986 32.4134 14.8986Z" fill="white"/>
</svg>
