<svg width="14" height="20" viewBox="0 0 14 20" fill="none" xmlns="http://www.w3.org/2000/svg">
<path d="M7.02995 16.0399C7.02995 16.0399 11.8216 10.2142 11.8216 7.58744C11.8216 4.96067 9.67631 2.83126 7.02995 2.83126C4.38358 2.83126 2.23828 4.96067 2.23828 7.58744C2.23828 10.2142 7.02995 16.0399 7.02995 16.0399ZM8.49773 17.2983L7.02995 19.0828L5.56216 17.2983C5.51851 17.2452 5.442 17.1508 5.33727 17.0193C5.16572 16.804 4.97534 16.5605 4.77072 16.2931C4.18627 15.5291 3.60168 14.7222 3.05305 13.9048C2.65716 13.315 2.29411 12.7402 1.97071 12.1856C0.918974 10.3819 0.321614 8.89553 0.321614 7.58744C0.321614 3.86742 3.33693 0.87443 7.02995 0.87443C10.723 0.87443 13.7383 3.86742 13.7383 7.58744C13.7383 8.89553 13.1409 10.3819 12.0892 12.1856C11.7658 12.7402 11.4027 13.315 11.0068 13.9048C10.4582 14.7222 9.87362 15.5291 9.28917 16.2931C9.08456 16.5605 8.89418 16.804 8.72263 17.0193C8.6179 17.1508 8.54139 17.2452 8.49773 17.2983ZM7.02995 4.70776C8.61777 4.70776 9.90495 5.99494 9.90495 7.58276C9.90495 9.17058 8.61777 10.4578 7.02995 10.4578C5.44213 10.4578 4.15495 9.17058 4.15495 7.58276C4.15495 5.99494 5.44213 4.70776 7.02995 4.70776ZM7.02995 6.62443C6.50067 6.62443 6.07161 7.05349 6.07161 7.58276C6.07161 8.11204 6.50067 8.5411 7.02995 8.5411C7.55922 8.5411 7.98828 8.11204 7.98828 7.58276C7.98828 7.05349 7.55922 6.62443 7.02995 6.62443Z" fill="#57585A"/>
</svg>
