<svg width="20" height="20" viewBox="0 0 20 20" fill="none" xmlns="http://www.w3.org/2000/svg">
<path d="M19.0481 6.9575C19.0481 6.92625 19.0456 6.89625 19.0419 6.86625L19.0425 6.87C19.0331 6.835 19.0225 6.80625 19.0112 6.77812L19.0131 6.78312C18.9994 6.7375 18.9837 6.69937 18.965 6.6625L18.9669 6.66687C18.9531 6.63625 18.9394 6.61062 18.925 6.58625L18.9269 6.58937C18.9219 6.58187 18.9212 6.5725 18.9162 6.565C18.9031 6.54687 18.8831 6.5375 18.8687 6.52062C18.8406 6.4875 18.8112 6.45812 18.7794 6.43062L18.7781 6.43C18.7612 6.41562 18.7525 6.39625 18.7344 6.38312L9.98438 0.133125C9.97688 0.1275 9.9675 0.126875 9.95937 0.121875C9.91625 0.09625 9.86625 0.073125 9.81437 0.05625L9.80875 0.055C9.77188 0.036875 9.72813 0.02 9.6825 0.00687502L9.67688 0.005625C9.65 0.0025 9.61875 0.000625029 9.5875 0.000625029C9.57063 0.000625029 9.55437 0.00125 9.53813 0.0025H9.54062C9.5225 0.00125 9.50187 0 9.48125 0C9.44563 0 9.41 0.00250002 9.37562 0.00687502L9.37938 0.00624999C9.33438 0.019375 9.29625 0.03375 9.26 0.05125L9.26437 0.049375C9.20125 0.069375 9.14688 0.094375 9.09625 0.125L9.09937 0.123125C9.09188 0.128125 9.08375 0.128125 9.07625 0.13375L0.32625 6.38375C0.308125 6.39687 0.299375 6.41625 0.283125 6.43C0.249375 6.45812 0.219375 6.48812 0.1925 6.52062L0.191875 6.52187C0.1775 6.53875 0.158125 6.5475 0.145 6.56562C0.139375 6.57312 0.13875 6.5825 0.13375 6.59062C0.12125 6.61125 0.108125 6.63562 0.09625 6.66125L0.094375 6.66563C0.0775 6.69875 0.06125 6.73812 0.04875 6.77875L0.0475 6.78437C0.0375 6.8075 0.0275 6.83625 0.019375 6.86625L0.018125 6.87125C0.015 6.89687 0.0125 6.92687 0.0125 6.95687C0.010625 6.97875 0 6.9975 0 7.01937V17.0194C0.00125 18.1406 0.91 19.0494 2.03125 19.0506H17.0312C18.1525 19.05 19.0619 18.1406 19.0625 17.0194V7.01937C19.0625 6.9975 19.0519 6.97937 19.05 6.95812L19.0481 6.9575ZM9.52938 12.3081L2.12375 7.01875L9.52938 1.72937L16.935 7.01875L9.52938 12.3081ZM17.0294 17.4875H2.02938C1.77062 17.4875 1.56062 17.2775 1.56062 17.0187V8.53687L9.075 13.9044C9.09437 13.9156 9.11812 13.9275 9.1425 13.9381L9.1475 13.94C9.16687 13.9512 9.19 13.9631 9.21437 13.9737L9.21937 13.9756C9.31 14.0194 9.41625 14.0462 9.52812 14.0494H9.52938H9.53063C9.64375 14.0462 9.75 14.0194 9.845 13.9737L9.84 13.9756C9.86875 13.9631 9.8925 13.9512 9.915 13.9381L9.91125 13.94C9.94063 13.9275 9.96438 13.915 9.98688 13.9019L9.98312 13.9037L17.4975 8.53625V17.0181C17.4975 17.2769 17.2875 17.4869 17.0287 17.4869L17.0294 17.4875Z" fill="#57585A"/>
</svg>
