<svg width="16" height="16" viewBox="0 0 16 16" fill="none" xmlns="http://www.w3.org/2000/svg">
<path fill-rule="evenodd" clip-rule="evenodd" d="M5.81788 10.711C7.65296 12.5461 9.35742 13.5692 10.6257 14.1374C11.7329 14.6334 13.0399 14.2444 14.0588 13.2255L14.2921 12.9922L11.4926 11.2107C10.9601 11.9871 9.95417 12.4416 8.94979 12.0176C8.1886 11.6964 7.182 11.1477 6.28163 10.2472C5.38125 9.34685 4.83251 8.34025 4.51122 7.57914C4.08725 6.57473 4.54185 5.56871 5.31818 5.03622L3.5367 2.23676L3.30338 2.47008C2.28444 3.48902 1.89553 4.79596 2.3915 5.90315C2.95965 7.17151 3.98278 8.87589 5.81788 10.711ZM9.97848 15.5823C8.54184 14.9389 6.67557 13.8078 4.6983 11.8305C2.72105 9.85336 1.59004 7.987 0.946521 6.55043C0.0949172 4.64933 0.871899 2.66239 2.1838 1.35049L2.41712 1.11717C3.13337 0.400914 4.32869 0.532124 4.8725 1.3867L7.11352 4.90825C7.23385 5.09735 7.26837 5.3286 7.20852 5.5446C7.14867 5.76061 7.00015 5.94113 6.79962 6.04137L6.29797 6.2922C5.95611 6.46313 5.88596 6.76448 5.96992 6.96338C6.2382 7.59893 6.68673 8.41316 7.40121 9.12764C8.11577 9.8422 8.92992 10.2907 9.56547 10.559C9.76441 10.6429 10.0657 10.5727 10.2366 10.2309L10.4875 9.72923C10.5877 9.52878 10.7682 9.38018 10.9843 9.32033C11.2003 9.26048 11.4315 9.29508 11.6206 9.41541L15.1422 11.6564C15.9967 12.2002 16.128 13.3955 15.4117 14.1117L15.1784 14.345C13.8665 15.657 11.8795 16.4339 9.97848 15.5823Z" fill="#57585A"/>
</svg>
