<svg width="194" height="229" viewBox="0 0 194 229" fill="none" xmlns="http://www.w3.org/2000/svg">
<path d="M55.7901 2.47039L-32.5339 90.788C-32.205 89.2308 -31.842 87.6741 -31.4488 86.1274L51.1248 3.55545C52.6766 3.16266 54.2283 2.79919 55.7901 2.47039ZM117.121 6.32499C118.001 6.62919 118.874 6.94848 119.749 7.27227L-27.7269 154.75C-28.0557 153.876 -28.37 153.002 -28.6742 152.123L117.121 6.32499ZM79.3777 0C79.974 0 80.5709 0.00497094 81.1678 0.0151252L-34.9887 116.169C-35.0044 114.976 -35.0044 113.783 -34.9847 112.59L77.5872 0.0151252C78.1846 0.00497094 78.781 0 79.3777 0ZM98.8844 1.63969C99.8912 1.81265 100.898 1.99866 101.904 2.2003L-32.804 136.901C-33.0006 135.898 -33.1917 134.892 -33.3636 133.886L98.8844 1.63969ZM175.109 177.559C170.925 183.888 166.044 189.893 160.472 195.466C154.898 201.044 148.887 205.921 142.558 210.104L175.109 177.559ZM193.99 112.835C194.004 114.028 194.004 115.221 193.985 116.415L81.4127 228.984C80.7716 228.995 80.1299 229 79.4879 229C78.9368 229 78.3852 228.997 77.8335 228.99L193.99 112.835ZM159.563 32.6491L160.472 33.5325L161.355 34.4366L-0.567062 196.35L-1.47018 195.466L-2.35464 194.563L159.563 32.6491ZM191.534 138.211C191.205 139.774 190.842 141.325 190.449 142.872L107.87 225.444C106.323 225.842 104.772 226.205 103.21 226.529L191.534 138.211ZM191.805 92.0984C192 93.1006 192.193 94.1072 192.364 95.1139L60.1114 227.359C59.1047 227.187 58.1035 227.001 57.0969 226.799L191.805 92.0984ZM133.09 13.278C133.866 13.6903 134.637 14.1081 135.408 14.5405L-20.464 170.408C-20.896 169.638 -21.3133 168.867 -21.7262 168.092L133.09 13.278ZM16.4426 18.8955L-16.1086 51.4409C-11.9245 45.112 -7.04402 39.1063 -1.47018 33.5325C4.10268 27.9602 10.1085 23.0784 16.4426 18.8955ZM186.727 74.2493C187.056 75.1232 187.37 75.9976 187.675 76.8766L41.8788 222.675C40.9998 222.37 40.1214 222.056 39.252 221.727L186.727 74.2493ZM147.178 22.1115C147.862 22.6173 148.539 23.1333 149.216 23.6537L-11.3503 184.217C-11.8706 183.54 -12.3866 182.861 -12.8875 182.18L147.178 22.1115ZM170.351 44.7822C170.872 45.4609 171.387 46.1382 171.887 46.8251L11.8216 206.888C11.1398 206.382 10.457 205.871 9.78468 205.351L170.351 44.7822ZM179.465 58.5951C179.892 59.3614 180.314 60.1322 180.721 60.908L25.9099 215.722C25.134 215.309 24.3582 214.891 23.5929 214.46L179.465 58.5951Z" fill="#1B5076"/>
<path d="M55.7901 2.47039L-32.5339 90.788C-32.205 89.2308 -31.842 87.6741 -31.4488 86.1274L51.1248 3.55545C52.6766 3.16266 54.2283 2.79919 55.7901 2.47039ZM117.121 6.32499C118.001 6.62919 118.874 6.94848 119.749 7.27227L-27.7269 154.75C-28.0557 153.876 -28.37 153.002 -28.6742 152.123L117.121 6.32499ZM79.3777 0C79.974 0 80.5709 0.00497094 81.1678 0.0151252L-34.9887 116.169C-35.0044 114.976 -35.0044 113.783 -34.9847 112.59L77.5872 0.0151252C78.1846 0.00497094 78.781 0 79.3777 0ZM98.8844 1.63969C99.8912 1.81265 100.898 1.99866 101.904 2.2003L-32.804 136.901C-33.0006 135.898 -33.1917 134.892 -33.3636 133.886L98.8844 1.63969ZM175.109 177.559C170.925 183.888 166.044 189.893 160.472 195.466C154.898 201.044 148.887 205.921 142.558 210.104L175.109 177.559ZM193.99 112.835C194.004 114.028 194.004 115.221 193.985 116.415L81.4127 228.984C80.7716 228.995 80.1299 229 79.4879 229C78.9368 229 78.3852 228.997 77.8335 228.99L193.99 112.835ZM159.563 32.6491L160.472 33.5325L161.355 34.4366L-0.567062 196.35L-1.47018 195.466L-2.35464 194.563L159.563 32.6491ZM191.534 138.211C191.205 139.774 190.842 141.325 190.449 142.872L107.87 225.444C106.323 225.842 104.772 226.205 103.21 226.529L191.534 138.211ZM191.805 92.0984C192 93.1006 192.193 94.1072 192.364 95.1139L60.1114 227.359C59.1047 227.187 58.1035 227.001 57.0969 226.799L191.805 92.0984ZM133.09 13.278C133.866 13.6903 134.637 14.1081 135.408 14.5405L-20.464 170.408C-20.896 169.638 -21.3133 168.867 -21.7262 168.092L133.09 13.278ZM16.4426 18.8955L-16.1086 51.4409C-11.9245 45.112 -7.04402 39.1063 -1.47018 33.5325C4.10268 27.9602 10.1085 23.0784 16.4426 18.8955ZM186.727 74.2493C187.056 75.1232 187.37 75.9976 187.675 76.8766L41.8788 222.675C40.9998 222.37 40.1214 222.056 39.252 221.727L186.727 74.2493ZM147.178 22.1115C147.862 22.6173 148.539 23.1333 149.216 23.6537L-11.3503 184.217C-11.8706 183.54 -12.3866 182.861 -12.8875 182.18L147.178 22.1115ZM170.351 44.7822C170.872 45.4609 171.387 46.1382 171.887 46.8251L11.8216 206.888C11.1398 206.382 10.457 205.871 9.78468 205.351L170.351 44.7822ZM179.465 58.5951C179.892 59.3614 180.314 60.1322 180.721 60.908L25.9099 215.722C25.134 215.309 24.3582 214.891 23.5929 214.46L179.465 58.5951Z" fill="#1B5076"/>
<path d="M55.7901 2.47039L-32.5339 90.788C-32.205 89.2308 -31.842 87.6741 -31.4488 86.1274L51.1248 3.55545C52.6766 3.16266 54.2283 2.79919 55.7901 2.47039ZM117.121 6.32499C118.001 6.62919 118.874 6.94848 119.749 7.27227L-27.7269 154.75C-28.0557 153.876 -28.37 153.002 -28.6742 152.123L117.121 6.32499ZM79.3777 0C79.974 0 80.5709 0.00497094 81.1678 0.0151252L-34.9887 116.169C-35.0044 114.976 -35.0044 113.783 -34.9847 112.59L77.5872 0.0151252C78.1846 0.00497094 78.781 0 79.3777 0ZM98.8844 1.63969C99.8912 1.81265 100.898 1.99866 101.904 2.2003L-32.804 136.901C-33.0006 135.898 -33.1917 134.892 -33.3636 133.886L98.8844 1.63969ZM175.109 177.559C170.925 183.888 166.044 189.893 160.472 195.466C154.898 201.044 148.887 205.921 142.558 210.104L175.109 177.559ZM193.99 112.835C194.004 114.028 194.004 115.221 193.985 116.415L81.4127 228.984C80.7716 228.995 80.1299 229 79.4879 229C78.9368 229 78.3852 228.997 77.8335 228.99L193.99 112.835ZM159.563 32.6491L160.472 33.5325L161.355 34.4366L-0.567062 196.35L-1.47018 195.466L-2.35464 194.563L159.563 32.6491ZM191.534 138.211C191.205 139.774 190.842 141.325 190.449 142.872L107.87 225.444C106.323 225.842 104.772 226.205 103.21 226.529L191.534 138.211ZM191.805 92.0984C192 93.1006 192.193 94.1072 192.364 95.1139L60.1114 227.359C59.1047 227.187 58.1035 227.001 57.0969 226.799L191.805 92.0984ZM133.09 13.278C133.866 13.6903 134.637 14.1081 135.408 14.5405L-20.464 170.408C-20.896 169.638 -21.3133 168.867 -21.7262 168.092L133.09 13.278ZM16.4426 18.8955L-16.1086 51.4409C-11.9245 45.112 -7.04402 39.1063 -1.47018 33.5325C4.10268 27.9602 10.1085 23.0784 16.4426 18.8955ZM186.727 74.2493C187.056 75.1232 187.37 75.9976 187.675 76.8766L41.8788 222.675C40.9998 222.37 40.1214 222.056 39.252 221.727L186.727 74.2493ZM147.178 22.1115C147.862 22.6173 148.539 23.1333 149.216 23.6537L-11.3503 184.217C-11.8706 183.54 -12.3866 182.861 -12.8875 182.18L147.178 22.1115ZM170.351 44.7822C170.872 45.4609 171.387 46.1382 171.887 46.8251L11.8216 206.888C11.1398 206.382 10.457 205.871 9.78468 205.351L170.351 44.7822ZM179.465 58.5951C179.892 59.3614 180.314 60.1322 180.721 60.908L25.9099 215.722C25.134 215.309 24.3582 214.891 23.5929 214.46L179.465 58.5951Z" fill="#1B5076"/>
<path d="M55.7901 2.47039L-32.5339 90.788C-32.205 89.2308 -31.842 87.6741 -31.4488 86.1274L51.1248 3.55545C52.6766 3.16266 54.2283 2.79919 55.7901 2.47039ZM117.121 6.32499C118.001 6.62919 118.874 6.94848 119.749 7.27227L-27.7269 154.75C-28.0557 153.876 -28.37 153.002 -28.6742 152.123L117.121 6.32499ZM79.3777 0C79.974 0 80.5709 0.00497094 81.1678 0.0151252L-34.9887 116.169C-35.0044 114.976 -35.0044 113.783 -34.9847 112.59L77.5872 0.0151252C78.1846 0.00497094 78.781 0 79.3777 0ZM98.8844 1.63969C99.8912 1.81265 100.898 1.99866 101.904 2.2003L-32.804 136.901C-33.0006 135.898 -33.1917 134.892 -33.3636 133.886L98.8844 1.63969ZM175.109 177.559C170.925 183.888 166.044 189.893 160.472 195.466C154.898 201.044 148.887 205.921 142.558 210.104L175.109 177.559ZM193.99 112.835C194.004 114.028 194.004 115.221 193.985 116.415L81.4127 228.984C80.7716 228.995 80.1299 229 79.4879 229C78.9368 229 78.3852 228.997 77.8335 228.99L193.99 112.835ZM159.563 32.6491L160.472 33.5325L161.355 34.4366L-0.567062 196.35L-1.47018 195.466L-2.35464 194.563L159.563 32.6491ZM191.534 138.211C191.205 139.774 190.842 141.325 190.449 142.872L107.87 225.444C106.323 225.842 104.772 226.205 103.21 226.529L191.534 138.211ZM191.805 92.0984C192 93.1006 192.193 94.1072 192.364 95.1139L60.1114 227.359C59.1047 227.187 58.1035 227.001 57.0969 226.799L191.805 92.0984ZM133.09 13.278C133.866 13.6903 134.637 14.1081 135.408 14.5405L-20.464 170.408C-20.896 169.638 -21.3133 168.867 -21.7262 168.092L133.09 13.278ZM16.4426 18.8955L-16.1086 51.4409C-11.9245 45.112 -7.04402 39.1063 -1.47018 33.5325C4.10268 27.9602 10.1085 23.0784 16.4426 18.8955ZM186.727 74.2493C187.056 75.1232 187.37 75.9976 187.675 76.8766L41.8788 222.675C40.9998 222.37 40.1214 222.056 39.252 221.727L186.727 74.2493ZM147.178 22.1115C147.862 22.6173 148.539 23.1333 149.216 23.6537L-11.3503 184.217C-11.8706 183.54 -12.3866 182.861 -12.8875 182.18L147.178 22.1115ZM170.351 44.7822C170.872 45.4609 171.387 46.1382 171.887 46.8251L11.8216 206.888C11.1398 206.382 10.457 205.871 9.78468 205.351L170.351 44.7822ZM179.465 58.5951C179.892 59.3614 180.314 60.1322 180.721 60.908L25.9099 215.722C25.134 215.309 24.3582 214.891 23.5929 214.46L179.465 58.5951Z" fill="#1B5076"/>
<path d="M55.7901 2.47039L-32.5339 90.788C-32.205 89.2308 -31.842 87.6741 -31.4488 86.1274L51.1248 3.55545C52.6766 3.16266 54.2283 2.79919 55.7901 2.47039ZM117.121 6.32499C118.001 6.62919 118.874 6.94848 119.749 7.27227L-27.7269 154.75C-28.0557 153.876 -28.37 153.002 -28.6742 152.123L117.121 6.32499ZM79.3777 0C79.974 0 80.5709 0.00497094 81.1678 0.0151252L-34.9887 116.169C-35.0044 114.976 -35.0044 113.783 -34.9847 112.59L77.5872 0.0151252C78.1846 0.00497094 78.781 0 79.3777 0ZM98.8844 1.63969C99.8912 1.81265 100.898 1.99866 101.904 2.2003L-32.804 136.901C-33.0006 135.898 -33.1917 134.892 -33.3636 133.886L98.8844 1.63969ZM175.109 177.559C170.925 183.888 166.044 189.893 160.472 195.466C154.898 201.044 148.887 205.921 142.558 210.104L175.109 177.559ZM193.99 112.835C194.004 114.028 194.004 115.221 193.985 116.415L81.4127 228.984C80.7716 228.995 80.1299 229 79.4879 229C78.9368 229 78.3852 228.997 77.8335 228.99L193.99 112.835ZM159.563 32.6491L160.472 33.5325L161.355 34.4366L-0.567062 196.35L-1.47018 195.466L-2.35464 194.563L159.563 32.6491ZM191.534 138.211C191.205 139.774 190.842 141.325 190.449 142.872L107.87 225.444C106.323 225.842 104.772 226.205 103.21 226.529L191.534 138.211ZM191.805 92.0984C192 93.1006 192.193 94.1072 192.364 95.1139L60.1114 227.359C59.1047 227.187 58.1035 227.001 57.0969 226.799L191.805 92.0984ZM133.09 13.278C133.866 13.6903 134.637 14.1081 135.408 14.5405L-20.464 170.408C-20.896 169.638 -21.3133 168.867 -21.7262 168.092L133.09 13.278ZM16.4426 18.8955L-16.1086 51.4409C-11.9245 45.112 -7.04402 39.1063 -1.47018 33.5325C4.10268 27.9602 10.1085 23.0784 16.4426 18.8955ZM186.727 74.2493C187.056 75.1232 187.37 75.9976 187.675 76.8766L41.8788 222.675C40.9998 222.37 40.1214 222.056 39.252 221.727L186.727 74.2493ZM147.178 22.1115C147.862 22.6173 148.539 23.1333 149.216 23.6537L-11.3503 184.217C-11.8706 183.54 -12.3866 182.861 -12.8875 182.18L147.178 22.1115ZM170.351 44.7822C170.872 45.4609 171.387 46.1382 171.887 46.8251L11.8216 206.888C11.1398 206.382 10.457 205.871 9.78468 205.351L170.351 44.7822ZM179.465 58.5951C179.892 59.3614 180.314 60.1322 180.721 60.908L25.9099 215.722C25.134 215.309 24.3582 214.891 23.5929 214.46L179.465 58.5951Z" fill="#1B5076"/>
<path d="M55.7901 2.47039L-32.5339 90.788C-32.205 89.2308 -31.842 87.6741 -31.4488 86.1274L51.1248 3.55545C52.6766 3.16266 54.2283 2.79919 55.7901 2.47039ZM117.121 6.32499C118.001 6.62919 118.874 6.94848 119.749 7.27227L-27.7269 154.75C-28.0557 153.876 -28.37 153.002 -28.6742 152.123L117.121 6.32499ZM79.3777 0C79.974 0 80.5709 0.00497094 81.1678 0.0151252L-34.9887 116.169C-35.0044 114.976 -35.0044 113.783 -34.9847 112.59L77.5872 0.0151252C78.1846 0.00497094 78.781 0 79.3777 0ZM98.8844 1.63969C99.8912 1.81265 100.898 1.99866 101.904 2.2003L-32.804 136.901C-33.0006 135.898 -33.1917 134.892 -33.3636 133.886L98.8844 1.63969ZM175.109 177.559C170.925 183.888 166.044 189.893 160.472 195.466C154.898 201.044 148.887 205.921 142.558 210.104L175.109 177.559ZM193.99 112.835C194.004 114.028 194.004 115.221 193.985 116.415L81.4127 228.984C80.7716 228.995 80.1299 229 79.4879 229C78.9368 229 78.3852 228.997 77.8335 228.99L193.99 112.835ZM159.563 32.6491L160.472 33.5325L161.355 34.4366L-0.567062 196.35L-1.47018 195.466L-2.35464 194.563L159.563 32.6491ZM191.534 138.211C191.205 139.774 190.842 141.325 190.449 142.872L107.87 225.444C106.323 225.842 104.772 226.205 103.21 226.529L191.534 138.211ZM191.805 92.0984C192 93.1006 192.193 94.1072 192.364 95.1139L60.1114 227.359C59.1047 227.187 58.1035 227.001 57.0969 226.799L191.805 92.0984ZM133.09 13.278C133.866 13.6903 134.637 14.1081 135.408 14.5405L-20.464 170.408C-20.896 169.638 -21.3133 168.867 -21.7262 168.092L133.09 13.278ZM16.4426 18.8955L-16.1086 51.4409C-11.9245 45.112 -7.04402 39.1063 -1.47018 33.5325C4.10268 27.9602 10.1085 23.0784 16.4426 18.8955ZM186.727 74.2493C187.056 75.1232 187.37 75.9976 187.675 76.8766L41.8788 222.675C40.9998 222.37 40.1214 222.056 39.252 221.727L186.727 74.2493ZM147.178 22.1115C147.862 22.6173 148.539 23.1333 149.216 23.6537L-11.3503 184.217C-11.8706 183.54 -12.3866 182.861 -12.8875 182.18L147.178 22.1115ZM170.351 44.7822C170.872 45.4609 171.387 46.1382 171.887 46.8251L11.8216 206.888C11.1398 206.382 10.457 205.871 9.78468 205.351L170.351 44.7822ZM179.465 58.5951C179.892 59.3614 180.314 60.1322 180.721 60.908L25.9099 215.722C25.134 215.309 24.3582 214.891 23.5929 214.46L179.465 58.5951Z" fill="#1B5076"/>
<path d="M55.7901 2.47039L-32.5339 90.788C-32.205 89.2308 -31.842 87.6741 -31.4488 86.1274L51.1248 3.55545C52.6766 3.16266 54.2283 2.79919 55.7901 2.47039ZM117.121 6.32499C118.001 6.62919 118.874 6.94848 119.749 7.27227L-27.7269 154.75C-28.0557 153.876 -28.37 153.002 -28.6742 152.123L117.121 6.32499ZM79.3777 0C79.974 0 80.5709 0.00497094 81.1678 0.0151252L-34.9887 116.169C-35.0044 114.976 -35.0044 113.783 -34.9847 112.59L77.5872 0.0151252C78.1846 0.00497094 78.781 0 79.3777 0ZM98.8844 1.63969C99.8912 1.81265 100.898 1.99866 101.904 2.2003L-32.804 136.901C-33.0006 135.898 -33.1917 134.892 -33.3636 133.886L98.8844 1.63969ZM175.109 177.559C170.925 183.888 166.044 189.893 160.472 195.466C154.898 201.044 148.887 205.921 142.558 210.104L175.109 177.559ZM193.99 112.835C194.004 114.028 194.004 115.221 193.985 116.415L81.4127 228.984C80.7716 228.995 80.1299 229 79.4879 229C78.9368 229 78.3852 228.997 77.8335 228.99L193.99 112.835ZM159.563 32.6491L160.472 33.5325L161.355 34.4366L-0.567062 196.35L-1.47018 195.466L-2.35464 194.563L159.563 32.6491ZM191.534 138.211C191.205 139.774 190.842 141.325 190.449 142.872L107.87 225.444C106.323 225.842 104.772 226.205 103.21 226.529L191.534 138.211ZM191.805 92.0984C192 93.1006 192.193 94.1072 192.364 95.1139L60.1114 227.359C59.1047 227.187 58.1035 227.001 57.0969 226.799L191.805 92.0984ZM133.09 13.278C133.866 13.6903 134.637 14.1081 135.408 14.5405L-20.464 170.408C-20.896 169.638 -21.3133 168.867 -21.7262 168.092L133.09 13.278ZM16.4426 18.8955L-16.1086 51.4409C-11.9245 45.112 -7.04402 39.1063 -1.47018 33.5325C4.10268 27.9602 10.1085 23.0784 16.4426 18.8955ZM186.727 74.2493C187.056 75.1232 187.37 75.9976 187.675 76.8766L41.8788 222.675C40.9998 222.37 40.1214 222.056 39.252 221.727L186.727 74.2493ZM147.178 22.1115C147.862 22.6173 148.539 23.1333 149.216 23.6537L-11.3503 184.217C-11.8706 183.54 -12.3866 182.861 -12.8875 182.18L147.178 22.1115ZM170.351 44.7822C170.872 45.4609 171.387 46.1382 171.887 46.8251L11.8216 206.888C11.1398 206.382 10.457 205.871 9.78468 205.351L170.351 44.7822ZM179.465 58.5951C179.892 59.3614 180.314 60.1322 180.721 60.908L25.9099 215.722C25.134 215.309 24.3582 214.891 23.5929 214.46L179.465 58.5951Z" fill="#1B5076"/>
<path d="M55.7901 2.47039L-32.5339 90.788C-32.205 89.2308 -31.842 87.6741 -31.4488 86.1274L51.1248 3.55545C52.6766 3.16266 54.2283 2.79919 55.7901 2.47039ZM117.121 6.32499C118.001 6.62919 118.874 6.94848 119.749 7.27227L-27.7269 154.75C-28.0557 153.876 -28.37 153.002 -28.6742 152.123L117.121 6.32499ZM79.3777 0C79.974 0 80.5709 0.00497094 81.1678 0.0151252L-34.9887 116.169C-35.0044 114.976 -35.0044 113.783 -34.9847 112.59L77.5872 0.0151252C78.1846 0.00497094 78.781 0 79.3777 0ZM98.8844 1.63969C99.8912 1.81265 100.898 1.99866 101.904 2.2003L-32.804 136.901C-33.0006 135.898 -33.1917 134.892 -33.3636 133.886L98.8844 1.63969ZM175.109 177.559C170.925 183.888 166.044 189.893 160.472 195.466C154.898 201.044 148.887 205.921 142.558 210.104L175.109 177.559ZM193.99 112.835C194.004 114.028 194.004 115.221 193.985 116.415L81.4127 228.984C80.7716 228.995 80.1299 229 79.4879 229C78.9368 229 78.3852 228.997 77.8335 228.99L193.99 112.835ZM159.563 32.6491L160.472 33.5325L161.355 34.4366L-0.567062 196.35L-1.47018 195.466L-2.35464 194.563L159.563 32.6491ZM191.534 138.211C191.205 139.774 190.842 141.325 190.449 142.872L107.87 225.444C106.323 225.842 104.772 226.205 103.21 226.529L191.534 138.211ZM191.805 92.0984C192 93.1006 192.193 94.1072 192.364 95.1139L60.1114 227.359C59.1047 227.187 58.1035 227.001 57.0969 226.799L191.805 92.0984ZM133.09 13.278C133.866 13.6903 134.637 14.1081 135.408 14.5405L-20.464 170.408C-20.896 169.638 -21.3133 168.867 -21.7262 168.092L133.09 13.278ZM16.4426 18.8955L-16.1086 51.4409C-11.9245 45.112 -7.04402 39.1063 -1.47018 33.5325C4.10268 27.9602 10.1085 23.0784 16.4426 18.8955ZM186.727 74.2493C187.056 75.1232 187.37 75.9976 187.675 76.8766L41.8788 222.675C40.9998 222.37 40.1214 222.056 39.252 221.727L186.727 74.2493ZM147.178 22.1115C147.862 22.6173 148.539 23.1333 149.216 23.6537L-11.3503 184.217C-11.8706 183.54 -12.3866 182.861 -12.8875 182.18L147.178 22.1115ZM170.351 44.7822C170.872 45.4609 171.387 46.1382 171.887 46.8251L11.8216 206.888C11.1398 206.382 10.457 205.871 9.78468 205.351L170.351 44.7822ZM179.465 58.5951C179.892 59.3614 180.314 60.1322 180.721 60.908L25.9099 215.722C25.134 215.309 24.3582 214.891 23.5929 214.46L179.465 58.5951Z" fill="#1B5076"/>
<path d="M55.7901 2.47039L-32.5339 90.788C-32.205 89.2308 -31.842 87.6741 -31.4488 86.1274L51.1248 3.55545C52.6766 3.16266 54.2283 2.79919 55.7901 2.47039ZM117.121 6.32499C118.001 6.62919 118.874 6.94848 119.749 7.27227L-27.7269 154.75C-28.0557 153.876 -28.37 153.002 -28.6742 152.123L117.121 6.32499ZM79.3777 0C79.974 0 80.5709 0.00497094 81.1678 0.0151252L-34.9887 116.169C-35.0044 114.976 -35.0044 113.783 -34.9847 112.59L77.5872 0.0151252C78.1846 0.00497094 78.781 0 79.3777 0ZM98.8844 1.63969C99.8912 1.81265 100.898 1.99866 101.904 2.2003L-32.804 136.901C-33.0006 135.898 -33.1917 134.892 -33.3636 133.886L98.8844 1.63969ZM175.109 177.559C170.925 183.888 166.044 189.893 160.472 195.466C154.898 201.044 148.887 205.921 142.558 210.104L175.109 177.559ZM193.99 112.835C194.004 114.028 194.004 115.221 193.985 116.415L81.4127 228.984C80.7716 228.995 80.1299 229 79.4879 229C78.9368 229 78.3852 228.997 77.8335 228.99L193.99 112.835ZM159.563 32.6491L160.472 33.5325L161.355 34.4366L-0.567062 196.35L-1.47018 195.466L-2.35464 194.563L159.563 32.6491ZM191.534 138.211C191.205 139.774 190.842 141.325 190.449 142.872L107.87 225.444C106.323 225.842 104.772 226.205 103.21 226.529L191.534 138.211ZM191.805 92.0984C192 93.1006 192.193 94.1072 192.364 95.1139L60.1114 227.359C59.1047 227.187 58.1035 227.001 57.0969 226.799L191.805 92.0984ZM133.09 13.278C133.866 13.6903 134.637 14.1081 135.408 14.5405L-20.464 170.408C-20.896 169.638 -21.3133 168.867 -21.7262 168.092L133.09 13.278ZM16.4426 18.8955L-16.1086 51.4409C-11.9245 45.112 -7.04402 39.1063 -1.47018 33.5325C4.10268 27.9602 10.1085 23.0784 16.4426 18.8955ZM186.727 74.2493C187.056 75.1232 187.37 75.9976 187.675 76.8766L41.8788 222.675C40.9998 222.37 40.1214 222.056 39.252 221.727L186.727 74.2493ZM147.178 22.1115C147.862 22.6173 148.539 23.1333 149.216 23.6537L-11.3503 184.217C-11.8706 183.54 -12.3866 182.861 -12.8875 182.18L147.178 22.1115ZM170.351 44.7822C170.872 45.4609 171.387 46.1382 171.887 46.8251L11.8216 206.888C11.1398 206.382 10.457 205.871 9.78468 205.351L170.351 44.7822ZM179.465 58.5951C179.892 59.3614 180.314 60.1322 180.721 60.908L25.9099 215.722C25.134 215.309 24.3582 214.891 23.5929 214.46L179.465 58.5951Z" fill="#1B5076"/>
<path d="M55.7901 2.47039L-32.5339 90.788C-32.205 89.2308 -31.842 87.6741 -31.4488 86.1274L51.1248 3.55545C52.6766 3.16266 54.2283 2.79919 55.7901 2.47039ZM117.121 6.32499C118.001 6.62919 118.874 6.94848 119.749 7.27227L-27.7269 154.75C-28.0557 153.876 -28.37 153.002 -28.6742 152.123L117.121 6.32499ZM79.3777 0C79.974 0 80.5709 0.00497094 81.1678 0.0151252L-34.9887 116.169C-35.0044 114.976 -35.0044 113.783 -34.9847 112.59L77.5872 0.0151252C78.1846 0.00497094 78.781 0 79.3777 0ZM98.8844 1.63969C99.8912 1.81265 100.898 1.99866 101.904 2.2003L-32.804 136.901C-33.0006 135.898 -33.1917 134.892 -33.3636 133.886L98.8844 1.63969ZM175.109 177.559C170.925 183.888 166.044 189.893 160.472 195.466C154.898 201.044 148.887 205.921 142.558 210.104L175.109 177.559ZM193.99 112.835C194.004 114.028 194.004 115.221 193.985 116.415L81.4127 228.984C80.7716 228.995 80.1299 229 79.4879 229C78.9368 229 78.3852 228.997 77.8335 228.99L193.99 112.835ZM159.563 32.6491L160.472 33.5325L161.355 34.4366L-0.567062 196.35L-1.47018 195.466L-2.35464 194.563L159.563 32.6491ZM191.534 138.211C191.205 139.774 190.842 141.325 190.449 142.872L107.87 225.444C106.323 225.842 104.772 226.205 103.21 226.529L191.534 138.211ZM191.805 92.0984C192 93.1006 192.193 94.1072 192.364 95.1139L60.1114 227.359C59.1047 227.187 58.1035 227.001 57.0969 226.799L191.805 92.0984ZM133.09 13.278C133.866 13.6903 134.637 14.1081 135.408 14.5405L-20.464 170.408C-20.896 169.638 -21.3133 168.867 -21.7262 168.092L133.09 13.278ZM16.4426 18.8955L-16.1086 51.4409C-11.9245 45.112 -7.04402 39.1063 -1.47018 33.5325C4.10268 27.9602 10.1085 23.0784 16.4426 18.8955ZM186.727 74.2493C187.056 75.1232 187.37 75.9976 187.675 76.8766L41.8788 222.675C40.9998 222.37 40.1214 222.056 39.252 221.727L186.727 74.2493ZM147.178 22.1115C147.862 22.6173 148.539 23.1333 149.216 23.6537L-11.3503 184.217C-11.8706 183.54 -12.3866 182.861 -12.8875 182.18L147.178 22.1115ZM170.351 44.7822C170.872 45.4609 171.387 46.1382 171.887 46.8251L11.8216 206.888C11.1398 206.382 10.457 205.871 9.78468 205.351L170.351 44.7822ZM179.465 58.5951C179.892 59.3614 180.314 60.1322 180.721 60.908L25.9099 215.722C25.134 215.309 24.3582 214.891 23.5929 214.46L179.465 58.5951Z" fill="#1B5076"/>
<path d="M55.7901 2.47039L-32.5339 90.788C-32.205 89.2308 -31.842 87.6741 -31.4488 86.1274L51.1248 3.55545C52.6766 3.16266 54.2283 2.79919 55.7901 2.47039ZM117.121 6.32499C118.001 6.62919 118.874 6.94848 119.749 7.27227L-27.7269 154.75C-28.0557 153.876 -28.37 153.002 -28.6742 152.123L117.121 6.32499ZM79.3777 0C79.974 0 80.5709 0.00497094 81.1678 0.0151252L-34.9887 116.169C-35.0044 114.976 -35.0044 113.783 -34.9847 112.59L77.5872 0.0151252C78.1846 0.00497094 78.781 0 79.3777 0ZM98.8844 1.63969C99.8912 1.81265 100.898 1.99866 101.904 2.2003L-32.804 136.901C-33.0006 135.898 -33.1917 134.892 -33.3636 133.886L98.8844 1.63969ZM175.109 177.559C170.925 183.888 166.044 189.893 160.472 195.466C154.898 201.044 148.887 205.921 142.558 210.104L175.109 177.559ZM193.99 112.835C194.004 114.028 194.004 115.221 193.985 116.415L81.4127 228.984C80.7716 228.995 80.1299 229 79.4879 229C78.9368 229 78.3852 228.997 77.8335 228.99L193.99 112.835ZM159.563 32.6491L160.472 33.5325L161.355 34.4366L-0.567062 196.35L-1.47018 195.466L-2.35464 194.563L159.563 32.6491ZM191.534 138.211C191.205 139.774 190.842 141.325 190.449 142.872L107.87 225.444C106.323 225.842 104.772 226.205 103.21 226.529L191.534 138.211ZM191.805 92.0984C192 93.1006 192.193 94.1072 192.364 95.1139L60.1114 227.359C59.1047 227.187 58.1035 227.001 57.0969 226.799L191.805 92.0984ZM133.09 13.278C133.866 13.6903 134.637 14.1081 135.408 14.5405L-20.464 170.408C-20.896 169.638 -21.3133 168.867 -21.7262 168.092L133.09 13.278ZM16.4426 18.8955L-16.1086 51.4409C-11.9245 45.112 -7.04402 39.1063 -1.47018 33.5325C4.10268 27.9602 10.1085 23.0784 16.4426 18.8955ZM186.727 74.2493C187.056 75.1232 187.37 75.9976 187.675 76.8766L41.8788 222.675C40.9998 222.37 40.1214 222.056 39.252 221.727L186.727 74.2493ZM147.178 22.1115C147.862 22.6173 148.539 23.1333 149.216 23.6537L-11.3503 184.217C-11.8706 183.54 -12.3866 182.861 -12.8875 182.18L147.178 22.1115ZM170.351 44.7822C170.872 45.4609 171.387 46.1382 171.887 46.8251L11.8216 206.888C11.1398 206.382 10.457 205.871 9.78468 205.351L170.351 44.7822ZM179.465 58.5951C179.892 59.3614 180.314 60.1322 180.721 60.908L25.9099 215.722C25.134 215.309 24.3582 214.891 23.5929 214.46L179.465 58.5951Z" fill="#1B5076"/>
<path d="M55.7901 2.47039L-32.5339 90.788C-32.205 89.2308 -31.842 87.6741 -31.4488 86.1274L51.1248 3.55545C52.6766 3.16266 54.2283 2.79919 55.7901 2.47039ZM117.121 6.32499C118.001 6.62919 118.874 6.94848 119.749 7.27227L-27.7269 154.75C-28.0557 153.876 -28.37 153.002 -28.6742 152.123L117.121 6.32499ZM79.3777 0C79.974 0 80.5709 0.00497094 81.1678 0.0151252L-34.9887 116.169C-35.0044 114.976 -35.0044 113.783 -34.9847 112.59L77.5872 0.0151252C78.1846 0.00497094 78.781 0 79.3777 0ZM98.8844 1.63969C99.8912 1.81265 100.898 1.99866 101.904 2.2003L-32.804 136.901C-33.0006 135.898 -33.1917 134.892 -33.3636 133.886L98.8844 1.63969ZM175.109 177.559C170.925 183.888 166.044 189.893 160.472 195.466C154.898 201.044 148.887 205.921 142.558 210.104L175.109 177.559ZM193.99 112.835C194.004 114.028 194.004 115.221 193.985 116.415L81.4127 228.984C80.7716 228.995 80.1299 229 79.4879 229C78.9368 229 78.3852 228.997 77.8335 228.99L193.99 112.835ZM159.563 32.6491L160.472 33.5325L161.355 34.4366L-0.567062 196.35L-1.47018 195.466L-2.35464 194.563L159.563 32.6491ZM191.534 138.211C191.205 139.774 190.842 141.325 190.449 142.872L107.87 225.444C106.323 225.842 104.772 226.205 103.21 226.529L191.534 138.211ZM191.805 92.0984C192 93.1006 192.193 94.1072 192.364 95.1139L60.1114 227.359C59.1047 227.187 58.1035 227.001 57.0969 226.799L191.805 92.0984ZM133.09 13.278C133.866 13.6903 134.637 14.1081 135.408 14.5405L-20.464 170.408C-20.896 169.638 -21.3133 168.867 -21.7262 168.092L133.09 13.278ZM16.4426 18.8955L-16.1086 51.4409C-11.9245 45.112 -7.04402 39.1063 -1.47018 33.5325C4.10268 27.9602 10.1085 23.0784 16.4426 18.8955ZM186.727 74.2493C187.056 75.1232 187.37 75.9976 187.675 76.8766L41.8788 222.675C40.9998 222.37 40.1214 222.056 39.252 221.727L186.727 74.2493ZM147.178 22.1115C147.862 22.6173 148.539 23.1333 149.216 23.6537L-11.3503 184.217C-11.8706 183.54 -12.3866 182.861 -12.8875 182.18L147.178 22.1115ZM170.351 44.7822C170.872 45.4609 171.387 46.1382 171.887 46.8251L11.8216 206.888C11.1398 206.382 10.457 205.871 9.78468 205.351L170.351 44.7822ZM179.465 58.5951C179.892 59.3614 180.314 60.1322 180.721 60.908L25.9099 215.722C25.134 215.309 24.3582 214.891 23.5929 214.46L179.465 58.5951Z" fill="#1B5076"/>
<path d="M55.7901 2.47039L-32.5339 90.788C-32.205 89.2308 -31.842 87.6741 -31.4488 86.1274L51.1248 3.55545C52.6766 3.16266 54.2283 2.79919 55.7901 2.47039ZM117.121 6.32499C118.001 6.62919 118.874 6.94848 119.749 7.27227L-27.7269 154.75C-28.0557 153.876 -28.37 153.002 -28.6742 152.123L117.121 6.32499ZM79.3777 0C79.974 0 80.5709 0.00497094 81.1678 0.0151252L-34.9887 116.169C-35.0044 114.976 -35.0044 113.783 -34.9847 112.59L77.5872 0.0151252C78.1846 0.00497094 78.781 0 79.3777 0ZM98.8844 1.63969C99.8912 1.81265 100.898 1.99866 101.904 2.2003L-32.804 136.901C-33.0006 135.898 -33.1917 134.892 -33.3636 133.886L98.8844 1.63969ZM175.109 177.559C170.925 183.888 166.044 189.893 160.472 195.466C154.898 201.044 148.887 205.921 142.558 210.104L175.109 177.559ZM193.99 112.835C194.004 114.028 194.004 115.221 193.985 116.415L81.4127 228.984C80.7716 228.995 80.1299 229 79.4879 229C78.9368 229 78.3852 228.997 77.8335 228.99L193.99 112.835ZM159.563 32.6491L160.472 33.5325L161.355 34.4366L-0.567062 196.35L-1.47018 195.466L-2.35464 194.563L159.563 32.6491ZM191.534 138.211C191.205 139.774 190.842 141.325 190.449 142.872L107.87 225.444C106.323 225.842 104.772 226.205 103.21 226.529L191.534 138.211ZM191.805 92.0984C192 93.1006 192.193 94.1072 192.364 95.1139L60.1114 227.359C59.1047 227.187 58.1035 227.001 57.0969 226.799L191.805 92.0984ZM133.09 13.278C133.866 13.6903 134.637 14.1081 135.408 14.5405L-20.464 170.408C-20.896 169.638 -21.3133 168.867 -21.7262 168.092L133.09 13.278ZM16.4426 18.8955L-16.1086 51.4409C-11.9245 45.112 -7.04402 39.1063 -1.47018 33.5325C4.10268 27.9602 10.1085 23.0784 16.4426 18.8955ZM186.727 74.2493C187.056 75.1232 187.37 75.9976 187.675 76.8766L41.8788 222.675C40.9998 222.37 40.1214 222.056 39.252 221.727L186.727 74.2493ZM147.178 22.1115C147.862 22.6173 148.539 23.1333 149.216 23.6537L-11.3503 184.217C-11.8706 183.54 -12.3866 182.861 -12.8875 182.18L147.178 22.1115ZM170.351 44.7822C170.872 45.4609 171.387 46.1382 171.887 46.8251L11.8216 206.888C11.1398 206.382 10.457 205.871 9.78468 205.351L170.351 44.7822ZM179.465 58.5951C179.892 59.3614 180.314 60.1322 180.721 60.908L25.9099 215.722C25.134 215.309 24.3582 214.891 23.5929 214.46L179.465 58.5951Z" fill="#1B5076"/>
<path d="M55.7901 2.47039L-32.5339 90.788C-32.205 89.2308 -31.842 87.6741 -31.4488 86.1274L51.1248 3.55545C52.6766 3.16266 54.2283 2.79919 55.7901 2.47039ZM117.121 6.32499C118.001 6.62919 118.874 6.94848 119.749 7.27227L-27.7269 154.75C-28.0557 153.876 -28.37 153.002 -28.6742 152.123L117.121 6.32499ZM79.3777 0C79.974 0 80.5709 0.00497094 81.1678 0.0151252L-34.9887 116.169C-35.0044 114.976 -35.0044 113.783 -34.9847 112.59L77.5872 0.0151252C78.1846 0.00497094 78.781 0 79.3777 0ZM98.8844 1.63969C99.8912 1.81265 100.898 1.99866 101.904 2.2003L-32.804 136.901C-33.0006 135.898 -33.1917 134.892 -33.3636 133.886L98.8844 1.63969ZM175.109 177.559C170.925 183.888 166.044 189.893 160.472 195.466C154.898 201.044 148.887 205.921 142.558 210.104L175.109 177.559ZM193.99 112.835C194.004 114.028 194.004 115.221 193.985 116.415L81.4127 228.984C80.7716 228.995 80.1299 229 79.4879 229C78.9368 229 78.3852 228.997 77.8335 228.99L193.99 112.835ZM159.563 32.6491L160.472 33.5325L161.355 34.4366L-0.567062 196.35L-1.47018 195.466L-2.35464 194.563L159.563 32.6491ZM191.534 138.211C191.205 139.774 190.842 141.325 190.449 142.872L107.87 225.444C106.323 225.842 104.772 226.205 103.21 226.529L191.534 138.211ZM191.805 92.0984C192 93.1006 192.193 94.1072 192.364 95.1139L60.1114 227.359C59.1047 227.187 58.1035 227.001 57.0969 226.799L191.805 92.0984ZM133.09 13.278C133.866 13.6903 134.637 14.1081 135.408 14.5405L-20.464 170.408C-20.896 169.638 -21.3133 168.867 -21.7262 168.092L133.09 13.278ZM16.4426 18.8955L-16.1086 51.4409C-11.9245 45.112 -7.04402 39.1063 -1.47018 33.5325C4.10268 27.9602 10.1085 23.0784 16.4426 18.8955ZM186.727 74.2493C187.056 75.1232 187.37 75.9976 187.675 76.8766L41.8788 222.675C40.9998 222.37 40.1214 222.056 39.252 221.727L186.727 74.2493ZM147.178 22.1115C147.862 22.6173 148.539 23.1333 149.216 23.6537L-11.3503 184.217C-11.8706 183.54 -12.3866 182.861 -12.8875 182.18L147.178 22.1115ZM170.351 44.7822C170.872 45.4609 171.387 46.1382 171.887 46.8251L11.8216 206.888C11.1398 206.382 10.457 205.871 9.78468 205.351L170.351 44.7822ZM179.465 58.5951C179.892 59.3614 180.314 60.1322 180.721 60.908L25.9099 215.722C25.134 215.309 24.3582 214.891 23.5929 214.46L179.465 58.5951Z" fill="#1B5076"/>
<path d="M55.7901 2.47039L-32.5339 90.788C-32.205 89.2308 -31.842 87.6741 -31.4488 86.1274L51.1248 3.55545C52.6766 3.16266 54.2283 2.79919 55.7901 2.47039ZM117.121 6.32499C118.001 6.62919 118.874 6.94848 119.749 7.27227L-27.7269 154.75C-28.0557 153.876 -28.37 153.002 -28.6742 152.123L117.121 6.32499ZM79.3777 0C79.974 0 80.5709 0.00497094 81.1678 0.0151252L-34.9887 116.169C-35.0044 114.976 -35.0044 113.783 -34.9847 112.59L77.5872 0.0151252C78.1846 0.00497094 78.781 0 79.3777 0ZM98.8844 1.63969C99.8912 1.81265 100.898 1.99866 101.904 2.2003L-32.804 136.901C-33.0006 135.898 -33.1917 134.892 -33.3636 133.886L98.8844 1.63969ZM175.109 177.559C170.925 183.888 166.044 189.893 160.472 195.466C154.898 201.044 148.887 205.921 142.558 210.104L175.109 177.559ZM193.99 112.835C194.004 114.028 194.004 115.221 193.985 116.415L81.4127 228.984C80.7716 228.995 80.1299 229 79.4879 229C78.9368 229 78.3852 228.997 77.8335 228.99L193.99 112.835ZM159.563 32.6491L160.472 33.5325L161.355 34.4366L-0.567062 196.35L-1.47018 195.466L-2.35464 194.563L159.563 32.6491ZM191.534 138.211C191.205 139.774 190.842 141.325 190.449 142.872L107.87 225.444C106.323 225.842 104.772 226.205 103.21 226.529L191.534 138.211ZM191.805 92.0984C192 93.1006 192.193 94.1072 192.364 95.1139L60.1114 227.359C59.1047 227.187 58.1035 227.001 57.0969 226.799L191.805 92.0984ZM133.09 13.278C133.866 13.6903 134.637 14.1081 135.408 14.5405L-20.464 170.408C-20.896 169.638 -21.3133 168.867 -21.7262 168.092L133.09 13.278ZM16.4426 18.8955L-16.1086 51.4409C-11.9245 45.112 -7.04402 39.1063 -1.47018 33.5325C4.10268 27.9602 10.1085 23.0784 16.4426 18.8955ZM186.727 74.2493C187.056 75.1232 187.37 75.9976 187.675 76.8766L41.8788 222.675C40.9998 222.37 40.1214 222.056 39.252 221.727L186.727 74.2493ZM147.178 22.1115C147.862 22.6173 148.539 23.1333 149.216 23.6537L-11.3503 184.217C-11.8706 183.54 -12.3866 182.861 -12.8875 182.18L147.178 22.1115ZM170.351 44.7822C170.872 45.4609 171.387 46.1382 171.887 46.8251L11.8216 206.888C11.1398 206.382 10.457 205.871 9.78468 205.351L170.351 44.7822ZM179.465 58.5951C179.892 59.3614 180.314 60.1322 180.721 60.908L25.9099 215.722C25.134 215.309 24.3582 214.891 23.5929 214.46L179.465 58.5951Z" fill="#1B5076"/>
</svg>
