<svg width="120" height="144" viewBox="0 0 120 144" fill="none" xmlns="http://www.w3.org/2000/svg">
<path d="M86.9093 1.55343L142.449 57.0894C142.242 56.1102 142.014 55.1313 141.767 54.1587L89.8429 2.23574C88.8671 1.98875 87.8914 1.76019 86.9093 1.55343ZM48.3431 3.97728C47.7901 4.16857 47.2405 4.36935 46.6907 4.57296L139.427 97.3102C139.633 96.7606 139.831 96.2108 140.022 95.6581L48.3431 3.97728ZM72.0769 0C71.7019 0 71.3266 0.00312583 70.9512 0.00951107L143.993 73.0494C144.003 72.2995 144.003 71.5494 143.99 70.7988L73.2028 0.00951107C72.8272 0.00312583 72.4521 0 72.0769 0ZM59.8107 1.03107C59.1776 1.13983 58.5446 1.2568 57.9119 1.38359L142.619 86.0863C142.743 85.4558 142.863 84.8231 142.971 84.1901L59.8107 1.03107ZM11.8791 111.653C14.5098 115.633 17.5794 119.409 21.0834 122.913C24.5884 126.421 28.3678 129.487 32.348 132.118L11.8791 111.653ZM0.00656466 70.9528C-0.00265233 71.7035 -0.00265234 72.4534 0.00969043 73.204L70.7972 143.99C71.2004 143.997 71.6039 144 72.0076 144C72.3541 144 72.701 143.998 73.0479 143.993L0.00656466 70.9528ZM21.6548 20.5304L21.0834 21.086L20.5282 21.6544L122.348 123.469L122.916 122.913L123.472 122.345L21.6548 20.5304ZM1.55053 86.9102C1.75761 87.8926 1.98592 88.8684 2.2328 89.8407L54.1603 141.764C55.1329 142.014 56.1084 142.242 57.0908 142.446L1.55053 86.9102ZM1.38035 57.9134C1.25738 58.5436 1.13625 59.1765 1.0285 59.8096L84.192 142.968C84.825 142.86 85.4546 142.743 86.0876 142.616L1.38035 57.9134ZM38.3015 8.34949C37.8136 8.60872 37.3289 8.87145 36.8436 9.14337L134.859 107.156C135.131 106.672 135.394 106.187 135.653 105.7L38.3015 8.34949ZM111.652 11.8819L132.121 32.3471C129.49 28.3674 126.421 24.5908 122.916 21.086C119.411 17.582 115.635 14.5122 111.652 11.8819ZM4.5736 46.6895C4.36679 47.239 4.16883 47.7889 3.97754 48.3416L95.657 140.022C96.2097 139.831 96.7621 139.634 97.3088 139.426L4.5736 46.6895ZM29.4425 13.9042C29.0128 14.2222 28.587 14.5467 28.161 14.8739L129.129 115.839C129.456 115.414 129.78 114.987 130.095 114.558L29.4425 13.9042ZM14.8713 28.16C14.5436 28.5868 14.2196 29.0127 13.905 29.4446L114.558 130.096C114.986 129.777 115.416 129.456 115.838 129.129L14.8713 28.16ZM9.14 36.8458C8.87123 37.3277 8.60594 37.8124 8.34984 38.3002L105.699 135.651C106.186 135.391 106.674 135.128 107.156 134.857L9.14 36.8458Z" fill="#A5DEE9"/>
<path d="M86.9093 1.55343L142.449 57.0894C142.242 56.1102 142.014 55.1313 141.767 54.1587L89.8429 2.23574C88.8671 1.98875 87.8914 1.76019 86.9093 1.55343ZM48.3431 3.97728C47.7901 4.16857 47.2405 4.36935 46.6907 4.57296L139.427 97.3102C139.633 96.7606 139.831 96.2108 140.022 95.6581L48.3431 3.97728ZM72.0769 0C71.7019 0 71.3266 0.00312583 70.9512 0.00951107L143.993 73.0494C144.003 72.2995 144.003 71.5494 143.99 70.7988L73.2028 0.00951107C72.8272 0.00312583 72.4521 0 72.0769 0ZM59.8107 1.03107C59.1776 1.13983 58.5446 1.2568 57.9119 1.38359L142.619 86.0863C142.743 85.4558 142.863 84.8231 142.971 84.1901L59.8107 1.03107ZM11.8791 111.653C14.5098 115.633 17.5794 119.409 21.0834 122.913C24.5884 126.421 28.3678 129.487 32.348 132.118L11.8791 111.653ZM0.00656466 70.9528C-0.00265233 71.7035 -0.00265234 72.4534 0.00969043 73.204L70.7972 143.99C71.2004 143.997 71.6039 144 72.0076 144C72.3541 144 72.701 143.998 73.0479 143.993L0.00656466 70.9528ZM21.6548 20.5304L21.0834 21.086L20.5282 21.6544L122.348 123.469L122.916 122.913L123.472 122.345L21.6548 20.5304ZM1.55053 86.9102C1.75761 87.8926 1.98592 88.8684 2.2328 89.8407L54.1603 141.764C55.1329 142.014 56.1084 142.242 57.0908 142.446L1.55053 86.9102ZM1.38035 57.9134C1.25738 58.5436 1.13625 59.1765 1.0285 59.8096L84.192 142.968C84.825 142.86 85.4546 142.743 86.0876 142.616L1.38035 57.9134ZM38.3015 8.34949C37.8136 8.60872 37.3289 8.87145 36.8436 9.14337L134.859 107.156C135.131 106.672 135.394 106.187 135.653 105.7L38.3015 8.34949ZM111.652 11.8819L132.121 32.3471C129.49 28.3674 126.421 24.5908 122.916 21.086C119.411 17.582 115.635 14.5122 111.652 11.8819ZM4.5736 46.6895C4.36679 47.239 4.16883 47.7889 3.97754 48.3416L95.657 140.022C96.2097 139.831 96.7621 139.634 97.3088 139.426L4.5736 46.6895ZM29.4425 13.9042C29.0128 14.2222 28.587 14.5467 28.161 14.8739L129.129 115.839C129.456 115.414 129.78 114.987 130.095 114.558L29.4425 13.9042ZM14.8713 28.16C14.5436 28.5868 14.2196 29.0127 13.905 29.4446L114.558 130.096C114.986 129.777 115.416 129.456 115.838 129.129L14.8713 28.16ZM9.14 36.8458C8.87123 37.3277 8.60594 37.8124 8.34984 38.3002L105.699 135.651C106.186 135.391 106.674 135.128 107.156 134.857L9.14 36.8458Z" fill="#A5DEE9"/>
<path d="M86.9093 1.55343L142.449 57.0894C142.242 56.1102 142.014 55.1313 141.767 54.1587L89.8429 2.23574C88.8671 1.98875 87.8914 1.76019 86.9093 1.55343ZM48.3431 3.97728C47.7901 4.16857 47.2405 4.36935 46.6907 4.57296L139.427 97.3102C139.633 96.7606 139.831 96.2108 140.022 95.6581L48.3431 3.97728ZM72.0769 0C71.7019 0 71.3266 0.00312583 70.9512 0.00951107L143.993 73.0494C144.003 72.2995 144.003 71.5494 143.99 70.7988L73.2028 0.00951107C72.8272 0.00312583 72.4521 0 72.0769 0ZM59.8107 1.03107C59.1776 1.13983 58.5446 1.2568 57.9119 1.38359L142.619 86.0863C142.743 85.4558 142.863 84.8231 142.971 84.1901L59.8107 1.03107ZM11.8791 111.653C14.5098 115.633 17.5794 119.409 21.0834 122.913C24.5884 126.421 28.3678 129.487 32.348 132.118L11.8791 111.653ZM0.00656466 70.9528C-0.00265233 71.7035 -0.00265234 72.4534 0.00969043 73.204L70.7972 143.99C71.2004 143.997 71.6039 144 72.0076 144C72.3541 144 72.701 143.998 73.0479 143.993L0.00656466 70.9528ZM21.6548 20.5304L21.0834 21.086L20.5282 21.6544L122.348 123.469L122.916 122.913L123.472 122.345L21.6548 20.5304ZM1.55053 86.9102C1.75761 87.8926 1.98592 88.8684 2.2328 89.8407L54.1603 141.764C55.1329 142.014 56.1084 142.242 57.0908 142.446L1.55053 86.9102ZM1.38035 57.9134C1.25738 58.5436 1.13625 59.1765 1.0285 59.8096L84.192 142.968C84.825 142.86 85.4546 142.743 86.0876 142.616L1.38035 57.9134ZM38.3015 8.34949C37.8136 8.60872 37.3289 8.87145 36.8436 9.14337L134.859 107.156C135.131 106.672 135.394 106.187 135.653 105.7L38.3015 8.34949ZM111.652 11.8819L132.121 32.3471C129.49 28.3674 126.421 24.5908 122.916 21.086C119.411 17.582 115.635 14.5122 111.652 11.8819ZM4.5736 46.6895C4.36679 47.239 4.16883 47.7889 3.97754 48.3416L95.657 140.022C96.2097 139.831 96.7621 139.634 97.3088 139.426L4.5736 46.6895ZM29.4425 13.9042C29.0128 14.2222 28.587 14.5467 28.161 14.8739L129.129 115.839C129.456 115.414 129.78 114.987 130.095 114.558L29.4425 13.9042ZM14.8713 28.16C14.5436 28.5868 14.2196 29.0127 13.905 29.4446L114.558 130.096C114.986 129.777 115.416 129.456 115.838 129.129L14.8713 28.16ZM9.14 36.8458C8.87123 37.3277 8.60594 37.8124 8.34984 38.3002L105.699 135.651C106.186 135.391 106.674 135.128 107.156 134.857L9.14 36.8458Z" fill="#A5DEE9"/>
<path d="M86.9093 1.55343L142.449 57.0894C142.242 56.1102 142.014 55.1313 141.767 54.1587L89.8429 2.23574C88.8671 1.98875 87.8914 1.76019 86.9093 1.55343ZM48.3431 3.97728C47.7901 4.16857 47.2405 4.36935 46.6907 4.57296L139.427 97.3102C139.633 96.7606 139.831 96.2108 140.022 95.6581L48.3431 3.97728ZM72.0769 0C71.7019 0 71.3266 0.00312583 70.9512 0.00951107L143.993 73.0494C144.003 72.2995 144.003 71.5494 143.99 70.7988L73.2028 0.00951107C72.8272 0.00312583 72.4521 0 72.0769 0ZM59.8107 1.03107C59.1776 1.13983 58.5446 1.2568 57.9119 1.38359L142.619 86.0863C142.743 85.4558 142.863 84.8231 142.971 84.1901L59.8107 1.03107ZM11.8791 111.653C14.5098 115.633 17.5794 119.409 21.0834 122.913C24.5884 126.421 28.3678 129.487 32.348 132.118L11.8791 111.653ZM0.00656466 70.9528C-0.00265233 71.7035 -0.00265234 72.4534 0.00969043 73.204L70.7972 143.99C71.2004 143.997 71.6039 144 72.0076 144C72.3541 144 72.701 143.998 73.0479 143.993L0.00656466 70.9528ZM21.6548 20.5304L21.0834 21.086L20.5282 21.6544L122.348 123.469L122.916 122.913L123.472 122.345L21.6548 20.5304ZM1.55053 86.9102C1.75761 87.8926 1.98592 88.8684 2.2328 89.8407L54.1603 141.764C55.1329 142.014 56.1084 142.242 57.0908 142.446L1.55053 86.9102ZM1.38035 57.9134C1.25738 58.5436 1.13625 59.1765 1.0285 59.8096L84.192 142.968C84.825 142.86 85.4546 142.743 86.0876 142.616L1.38035 57.9134ZM38.3015 8.34949C37.8136 8.60872 37.3289 8.87145 36.8436 9.14337L134.859 107.156C135.131 106.672 135.394 106.187 135.653 105.7L38.3015 8.34949ZM111.652 11.8819L132.121 32.3471C129.49 28.3674 126.421 24.5908 122.916 21.086C119.411 17.582 115.635 14.5122 111.652 11.8819ZM4.5736 46.6895C4.36679 47.239 4.16883 47.7889 3.97754 48.3416L95.657 140.022C96.2097 139.831 96.7621 139.634 97.3088 139.426L4.5736 46.6895ZM29.4425 13.9042C29.0128 14.2222 28.587 14.5467 28.161 14.8739L129.129 115.839C129.456 115.414 129.78 114.987 130.095 114.558L29.4425 13.9042ZM14.8713 28.16C14.5436 28.5868 14.2196 29.0127 13.905 29.4446L114.558 130.096C114.986 129.777 115.416 129.456 115.838 129.129L14.8713 28.16ZM9.14 36.8458C8.87123 37.3277 8.60594 37.8124 8.34984 38.3002L105.699 135.651C106.186 135.391 106.674 135.128 107.156 134.857L9.14 36.8458Z" fill="#A5DEE9"/>
<path d="M86.9093 1.55343L142.449 57.0894C142.242 56.1102 142.014 55.1313 141.767 54.1587L89.8429 2.23574C88.8671 1.98875 87.8914 1.76019 86.9093 1.55343ZM48.3431 3.97728C47.7901 4.16857 47.2405 4.36935 46.6907 4.57296L139.427 97.3102C139.633 96.7606 139.831 96.2108 140.022 95.6581L48.3431 3.97728ZM72.0769 0C71.7019 0 71.3266 0.00312583 70.9512 0.00951107L143.993 73.0494C144.003 72.2995 144.003 71.5494 143.99 70.7988L73.2028 0.00951107C72.8272 0.00312583 72.4521 0 72.0769 0ZM59.8107 1.03107C59.1776 1.13983 58.5446 1.2568 57.9119 1.38359L142.619 86.0863C142.743 85.4558 142.863 84.8231 142.971 84.1901L59.8107 1.03107ZM11.8791 111.653C14.5098 115.633 17.5794 119.409 21.0834 122.913C24.5884 126.421 28.3678 129.487 32.348 132.118L11.8791 111.653ZM0.00656466 70.9528C-0.00265233 71.7035 -0.00265234 72.4534 0.00969043 73.204L70.7972 143.99C71.2004 143.997 71.6039 144 72.0076 144C72.3541 144 72.701 143.998 73.0479 143.993L0.00656466 70.9528ZM21.6548 20.5304L21.0834 21.086L20.5282 21.6544L122.348 123.469L122.916 122.913L123.472 122.345L21.6548 20.5304ZM1.55053 86.9102C1.75761 87.8926 1.98592 88.8684 2.2328 89.8407L54.1603 141.764C55.1329 142.014 56.1084 142.242 57.0908 142.446L1.55053 86.9102ZM1.38035 57.9134C1.25738 58.5436 1.13625 59.1765 1.0285 59.8096L84.192 142.968C84.825 142.86 85.4546 142.743 86.0876 142.616L1.38035 57.9134ZM38.3015 8.34949C37.8136 8.60872 37.3289 8.87145 36.8436 9.14337L134.859 107.156C135.131 106.672 135.394 106.187 135.653 105.7L38.3015 8.34949ZM111.652 11.8819L132.121 32.3471C129.49 28.3674 126.421 24.5908 122.916 21.086C119.411 17.582 115.635 14.5122 111.652 11.8819ZM4.5736 46.6895C4.36679 47.239 4.16883 47.7889 3.97754 48.3416L95.657 140.022C96.2097 139.831 96.7621 139.634 97.3088 139.426L4.5736 46.6895ZM29.4425 13.9042C29.0128 14.2222 28.587 14.5467 28.161 14.8739L129.129 115.839C129.456 115.414 129.78 114.987 130.095 114.558L29.4425 13.9042ZM14.8713 28.16C14.5436 28.5868 14.2196 29.0127 13.905 29.4446L114.558 130.096C114.986 129.777 115.416 129.456 115.838 129.129L14.8713 28.16ZM9.14 36.8458C8.87123 37.3277 8.60594 37.8124 8.34984 38.3002L105.699 135.651C106.186 135.391 106.674 135.128 107.156 134.857L9.14 36.8458Z" fill="#A5DEE9"/>
<path d="M86.9093 1.55343L142.449 57.0894C142.242 56.1102 142.014 55.1313 141.767 54.1587L89.8429 2.23574C88.8671 1.98875 87.8914 1.76019 86.9093 1.55343ZM48.3431 3.97728C47.7901 4.16857 47.2405 4.36935 46.6907 4.57296L139.427 97.3102C139.633 96.7606 139.831 96.2108 140.022 95.6581L48.3431 3.97728ZM72.0769 0C71.7019 0 71.3266 0.00312583 70.9512 0.00951107L143.993 73.0494C144.003 72.2995 144.003 71.5494 143.99 70.7988L73.2028 0.00951107C72.8272 0.00312583 72.4521 0 72.0769 0ZM59.8107 1.03107C59.1776 1.13983 58.5446 1.2568 57.9119 1.38359L142.619 86.0863C142.743 85.4558 142.863 84.8231 142.971 84.1901L59.8107 1.03107ZM11.8791 111.653C14.5098 115.633 17.5794 119.409 21.0834 122.913C24.5884 126.421 28.3678 129.487 32.348 132.118L11.8791 111.653ZM0.00656466 70.9528C-0.00265233 71.7035 -0.00265234 72.4534 0.00969043 73.204L70.7972 143.99C71.2004 143.997 71.6039 144 72.0076 144C72.3541 144 72.701 143.998 73.0479 143.993L0.00656466 70.9528ZM21.6548 20.5304L21.0834 21.086L20.5282 21.6544L122.348 123.469L122.916 122.913L123.472 122.345L21.6548 20.5304ZM1.55053 86.9102C1.75761 87.8926 1.98592 88.8684 2.2328 89.8407L54.1603 141.764C55.1329 142.014 56.1084 142.242 57.0908 142.446L1.55053 86.9102ZM1.38035 57.9134C1.25738 58.5436 1.13625 59.1765 1.0285 59.8096L84.192 142.968C84.825 142.86 85.4546 142.743 86.0876 142.616L1.38035 57.9134ZM38.3015 8.34949C37.8136 8.60872 37.3289 8.87145 36.8436 9.14337L134.859 107.156C135.131 106.672 135.394 106.187 135.653 105.7L38.3015 8.34949ZM111.652 11.8819L132.121 32.3471C129.49 28.3674 126.421 24.5908 122.916 21.086C119.411 17.582 115.635 14.5122 111.652 11.8819ZM4.5736 46.6895C4.36679 47.239 4.16883 47.7889 3.97754 48.3416L95.657 140.022C96.2097 139.831 96.7621 139.634 97.3088 139.426L4.5736 46.6895ZM29.4425 13.9042C29.0128 14.2222 28.587 14.5467 28.161 14.8739L129.129 115.839C129.456 115.414 129.78 114.987 130.095 114.558L29.4425 13.9042ZM14.8713 28.16C14.5436 28.5868 14.2196 29.0127 13.905 29.4446L114.558 130.096C114.986 129.777 115.416 129.456 115.838 129.129L14.8713 28.16ZM9.14 36.8458C8.87123 37.3277 8.60594 37.8124 8.34984 38.3002L105.699 135.651C106.186 135.391 106.674 135.128 107.156 134.857L9.14 36.8458Z" fill="#A5DEE9"/>
<path d="M86.9093 1.55343L142.449 57.0894C142.242 56.1102 142.014 55.1313 141.767 54.1587L89.8429 2.23574C88.8671 1.98875 87.8914 1.76019 86.9093 1.55343ZM48.3431 3.97728C47.7901 4.16857 47.2405 4.36935 46.6907 4.57296L139.427 97.3102C139.633 96.7606 139.831 96.2108 140.022 95.6581L48.3431 3.97728ZM72.0769 0C71.7019 0 71.3266 0.00312583 70.9512 0.00951107L143.993 73.0494C144.003 72.2995 144.003 71.5494 143.99 70.7988L73.2028 0.00951107C72.8272 0.00312583 72.4521 0 72.0769 0ZM59.8107 1.03107C59.1776 1.13983 58.5446 1.2568 57.9119 1.38359L142.619 86.0863C142.743 85.4558 142.863 84.8231 142.971 84.1901L59.8107 1.03107ZM11.8791 111.653C14.5098 115.633 17.5794 119.409 21.0834 122.913C24.5884 126.421 28.3678 129.487 32.348 132.118L11.8791 111.653ZM0.00656466 70.9528C-0.00265233 71.7035 -0.00265234 72.4534 0.00969043 73.204L70.7972 143.99C71.2004 143.997 71.6039 144 72.0076 144C72.3541 144 72.701 143.998 73.0479 143.993L0.00656466 70.9528ZM21.6548 20.5304L21.0834 21.086L20.5282 21.6544L122.348 123.469L122.916 122.913L123.472 122.345L21.6548 20.5304ZM1.55053 86.9102C1.75761 87.8926 1.98592 88.8684 2.2328 89.8407L54.1603 141.764C55.1329 142.014 56.1084 142.242 57.0908 142.446L1.55053 86.9102ZM1.38035 57.9134C1.25738 58.5436 1.13625 59.1765 1.0285 59.8096L84.192 142.968C84.825 142.86 85.4546 142.743 86.0876 142.616L1.38035 57.9134ZM38.3015 8.34949C37.8136 8.60872 37.3289 8.87145 36.8436 9.14337L134.859 107.156C135.131 106.672 135.394 106.187 135.653 105.7L38.3015 8.34949ZM111.652 11.8819L132.121 32.3471C129.49 28.3674 126.421 24.5908 122.916 21.086C119.411 17.582 115.635 14.5122 111.652 11.8819ZM4.5736 46.6895C4.36679 47.239 4.16883 47.7889 3.97754 48.3416L95.657 140.022C96.2097 139.831 96.7621 139.634 97.3088 139.426L4.5736 46.6895ZM29.4425 13.9042C29.0128 14.2222 28.587 14.5467 28.161 14.8739L129.129 115.839C129.456 115.414 129.78 114.987 130.095 114.558L29.4425 13.9042ZM14.8713 28.16C14.5436 28.5868 14.2196 29.0127 13.905 29.4446L114.558 130.096C114.986 129.777 115.416 129.456 115.838 129.129L14.8713 28.16ZM9.14 36.8458C8.87123 37.3277 8.60594 37.8124 8.34984 38.3002L105.699 135.651C106.186 135.391 106.674 135.128 107.156 134.857L9.14 36.8458Z" fill="#A5DEE9"/>
<path d="M86.9093 1.55343L142.449 57.0894C142.242 56.1102 142.014 55.1313 141.767 54.1587L89.8429 2.23574C88.8671 1.98875 87.8914 1.76019 86.9093 1.55343ZM48.3431 3.97728C47.7901 4.16857 47.2405 4.36935 46.6907 4.57296L139.427 97.3102C139.633 96.7606 139.831 96.2108 140.022 95.6581L48.3431 3.97728ZM72.0769 0C71.7019 0 71.3266 0.00312583 70.9512 0.00951107L143.993 73.0494C144.003 72.2995 144.003 71.5494 143.99 70.7988L73.2028 0.00951107C72.8272 0.00312583 72.4521 0 72.0769 0ZM59.8107 1.03107C59.1776 1.13983 58.5446 1.2568 57.9119 1.38359L142.619 86.0863C142.743 85.4558 142.863 84.8231 142.971 84.1901L59.8107 1.03107ZM11.8791 111.653C14.5098 115.633 17.5794 119.409 21.0834 122.913C24.5884 126.421 28.3678 129.487 32.348 132.118L11.8791 111.653ZM0.00656466 70.9528C-0.00265233 71.7035 -0.00265234 72.4534 0.00969043 73.204L70.7972 143.99C71.2004 143.997 71.6039 144 72.0076 144C72.3541 144 72.701 143.998 73.0479 143.993L0.00656466 70.9528ZM21.6548 20.5304L21.0834 21.086L20.5282 21.6544L122.348 123.469L122.916 122.913L123.472 122.345L21.6548 20.5304ZM1.55053 86.9102C1.75761 87.8926 1.98592 88.8684 2.2328 89.8407L54.1603 141.764C55.1329 142.014 56.1084 142.242 57.0908 142.446L1.55053 86.9102ZM1.38035 57.9134C1.25738 58.5436 1.13625 59.1765 1.0285 59.8096L84.192 142.968C84.825 142.86 85.4546 142.743 86.0876 142.616L1.38035 57.9134ZM38.3015 8.34949C37.8136 8.60872 37.3289 8.87145 36.8436 9.14337L134.859 107.156C135.131 106.672 135.394 106.187 135.653 105.7L38.3015 8.34949ZM111.652 11.8819L132.121 32.3471C129.49 28.3674 126.421 24.5908 122.916 21.086C119.411 17.582 115.635 14.5122 111.652 11.8819ZM4.5736 46.6895C4.36679 47.239 4.16883 47.7889 3.97754 48.3416L95.657 140.022C96.2097 139.831 96.7621 139.634 97.3088 139.426L4.5736 46.6895ZM29.4425 13.9042C29.0128 14.2222 28.587 14.5467 28.161 14.8739L129.129 115.839C129.456 115.414 129.78 114.987 130.095 114.558L29.4425 13.9042ZM14.8713 28.16C14.5436 28.5868 14.2196 29.0127 13.905 29.4446L114.558 130.096C114.986 129.777 115.416 129.456 115.838 129.129L14.8713 28.16ZM9.14 36.8458C8.87123 37.3277 8.60594 37.8124 8.34984 38.3002L105.699 135.651C106.186 135.391 106.674 135.128 107.156 134.857L9.14 36.8458Z" fill="#A5DEE9"/>
<path d="M86.9093 1.55343L142.449 57.0894C142.242 56.1102 142.014 55.1313 141.767 54.1587L89.8429 2.23574C88.8671 1.98875 87.8914 1.76019 86.9093 1.55343ZM48.3431 3.97728C47.7901 4.16857 47.2405 4.36935 46.6907 4.57296L139.427 97.3102C139.633 96.7606 139.831 96.2108 140.022 95.6581L48.3431 3.97728ZM72.0769 0C71.7019 0 71.3266 0.00312583 70.9512 0.00951107L143.993 73.0494C144.003 72.2995 144.003 71.5494 143.99 70.7988L73.2028 0.00951107C72.8272 0.00312583 72.4521 0 72.0769 0ZM59.8107 1.03107C59.1776 1.13983 58.5446 1.2568 57.9119 1.38359L142.619 86.0863C142.743 85.4558 142.863 84.8231 142.971 84.1901L59.8107 1.03107ZM11.8791 111.653C14.5098 115.633 17.5794 119.409 21.0834 122.913C24.5884 126.421 28.3678 129.487 32.348 132.118L11.8791 111.653ZM0.00656466 70.9528C-0.00265233 71.7035 -0.00265234 72.4534 0.00969043 73.204L70.7972 143.99C71.2004 143.997 71.6039 144 72.0076 144C72.3541 144 72.701 143.998 73.0479 143.993L0.00656466 70.9528ZM21.6548 20.5304L21.0834 21.086L20.5282 21.6544L122.348 123.469L122.916 122.913L123.472 122.345L21.6548 20.5304ZM1.55053 86.9102C1.75761 87.8926 1.98592 88.8684 2.2328 89.8407L54.1603 141.764C55.1329 142.014 56.1084 142.242 57.0908 142.446L1.55053 86.9102ZM1.38035 57.9134C1.25738 58.5436 1.13625 59.1765 1.0285 59.8096L84.192 142.968C84.825 142.86 85.4546 142.743 86.0876 142.616L1.38035 57.9134ZM38.3015 8.34949C37.8136 8.60872 37.3289 8.87145 36.8436 9.14337L134.859 107.156C135.131 106.672 135.394 106.187 135.653 105.7L38.3015 8.34949ZM111.652 11.8819L132.121 32.3471C129.49 28.3674 126.421 24.5908 122.916 21.086C119.411 17.582 115.635 14.5122 111.652 11.8819ZM4.5736 46.6895C4.36679 47.239 4.16883 47.7889 3.97754 48.3416L95.657 140.022C96.2097 139.831 96.7621 139.634 97.3088 139.426L4.5736 46.6895ZM29.4425 13.9042C29.0128 14.2222 28.587 14.5467 28.161 14.8739L129.129 115.839C129.456 115.414 129.78 114.987 130.095 114.558L29.4425 13.9042ZM14.8713 28.16C14.5436 28.5868 14.2196 29.0127 13.905 29.4446L114.558 130.096C114.986 129.777 115.416 129.456 115.838 129.129L14.8713 28.16ZM9.14 36.8458C8.87123 37.3277 8.60594 37.8124 8.34984 38.3002L105.699 135.651C106.186 135.391 106.674 135.128 107.156 134.857L9.14 36.8458Z" fill="#A5DEE9"/>
<path d="M86.9093 1.55343L142.449 57.0894C142.242 56.1102 142.014 55.1313 141.767 54.1587L89.8429 2.23574C88.8671 1.98875 87.8914 1.76019 86.9093 1.55343ZM48.3431 3.97728C47.7901 4.16857 47.2405 4.36935 46.6907 4.57296L139.427 97.3102C139.633 96.7606 139.831 96.2108 140.022 95.6581L48.3431 3.97728ZM72.0769 0C71.7019 0 71.3266 0.00312583 70.9512 0.00951107L143.993 73.0494C144.003 72.2995 144.003 71.5494 143.99 70.7988L73.2028 0.00951107C72.8272 0.00312583 72.4521 0 72.0769 0ZM59.8107 1.03107C59.1776 1.13983 58.5446 1.2568 57.9119 1.38359L142.619 86.0863C142.743 85.4558 142.863 84.8231 142.971 84.1901L59.8107 1.03107ZM11.8791 111.653C14.5098 115.633 17.5794 119.409 21.0834 122.913C24.5884 126.421 28.3678 129.487 32.348 132.118L11.8791 111.653ZM0.00656466 70.9528C-0.00265233 71.7035 -0.00265234 72.4534 0.00969043 73.204L70.7972 143.99C71.2004 143.997 71.6039 144 72.0076 144C72.3541 144 72.701 143.998 73.0479 143.993L0.00656466 70.9528ZM21.6548 20.5304L21.0834 21.086L20.5282 21.6544L122.348 123.469L122.916 122.913L123.472 122.345L21.6548 20.5304ZM1.55053 86.9102C1.75761 87.8926 1.98592 88.8684 2.2328 89.8407L54.1603 141.764C55.1329 142.014 56.1084 142.242 57.0908 142.446L1.55053 86.9102ZM1.38035 57.9134C1.25738 58.5436 1.13625 59.1765 1.0285 59.8096L84.192 142.968C84.825 142.86 85.4546 142.743 86.0876 142.616L1.38035 57.9134ZM38.3015 8.34949C37.8136 8.60872 37.3289 8.87145 36.8436 9.14337L134.859 107.156C135.131 106.672 135.394 106.187 135.653 105.7L38.3015 8.34949ZM111.652 11.8819L132.121 32.3471C129.49 28.3674 126.421 24.5908 122.916 21.086C119.411 17.582 115.635 14.5122 111.652 11.8819ZM4.5736 46.6895C4.36679 47.239 4.16883 47.7889 3.97754 48.3416L95.657 140.022C96.2097 139.831 96.7621 139.634 97.3088 139.426L4.5736 46.6895ZM29.4425 13.9042C29.0128 14.2222 28.587 14.5467 28.161 14.8739L129.129 115.839C129.456 115.414 129.78 114.987 130.095 114.558L29.4425 13.9042ZM14.8713 28.16C14.5436 28.5868 14.2196 29.0127 13.905 29.4446L114.558 130.096C114.986 129.777 115.416 129.456 115.838 129.129L14.8713 28.16ZM9.14 36.8458C8.87123 37.3277 8.60594 37.8124 8.34984 38.3002L105.699 135.651C106.186 135.391 106.674 135.128 107.156 134.857L9.14 36.8458Z" fill="#A5DEE9"/>
<path d="M86.9093 1.55343L142.449 57.0894C142.242 56.1102 142.014 55.1313 141.767 54.1587L89.8429 2.23574C88.8671 1.98875 87.8914 1.76019 86.9093 1.55343ZM48.3431 3.97728C47.7901 4.16857 47.2405 4.36935 46.6907 4.57296L139.427 97.3102C139.633 96.7606 139.831 96.2108 140.022 95.6581L48.3431 3.97728ZM72.0769 0C71.7019 0 71.3266 0.00312583 70.9512 0.00951107L143.993 73.0494C144.003 72.2995 144.003 71.5494 143.99 70.7988L73.2028 0.00951107C72.8272 0.00312583 72.4521 0 72.0769 0ZM59.8107 1.03107C59.1776 1.13983 58.5446 1.2568 57.9119 1.38359L142.619 86.0863C142.743 85.4558 142.863 84.8231 142.971 84.1901L59.8107 1.03107ZM11.8791 111.653C14.5098 115.633 17.5794 119.409 21.0834 122.913C24.5884 126.421 28.3678 129.487 32.348 132.118L11.8791 111.653ZM0.00656466 70.9528C-0.00265233 71.7035 -0.00265234 72.4534 0.00969043 73.204L70.7972 143.99C71.2004 143.997 71.6039 144 72.0076 144C72.3541 144 72.701 143.998 73.0479 143.993L0.00656466 70.9528ZM21.6548 20.5304L21.0834 21.086L20.5282 21.6544L122.348 123.469L122.916 122.913L123.472 122.345L21.6548 20.5304ZM1.55053 86.9102C1.75761 87.8926 1.98592 88.8684 2.2328 89.8407L54.1603 141.764C55.1329 142.014 56.1084 142.242 57.0908 142.446L1.55053 86.9102ZM1.38035 57.9134C1.25738 58.5436 1.13625 59.1765 1.0285 59.8096L84.192 142.968C84.825 142.86 85.4546 142.743 86.0876 142.616L1.38035 57.9134ZM38.3015 8.34949C37.8136 8.60872 37.3289 8.87145 36.8436 9.14337L134.859 107.156C135.131 106.672 135.394 106.187 135.653 105.7L38.3015 8.34949ZM111.652 11.8819L132.121 32.3471C129.49 28.3674 126.421 24.5908 122.916 21.086C119.411 17.582 115.635 14.5122 111.652 11.8819ZM4.5736 46.6895C4.36679 47.239 4.16883 47.7889 3.97754 48.3416L95.657 140.022C96.2097 139.831 96.7621 139.634 97.3088 139.426L4.5736 46.6895ZM29.4425 13.9042C29.0128 14.2222 28.587 14.5467 28.161 14.8739L129.129 115.839C129.456 115.414 129.78 114.987 130.095 114.558L29.4425 13.9042ZM14.8713 28.16C14.5436 28.5868 14.2196 29.0127 13.905 29.4446L114.558 130.096C114.986 129.777 115.416 129.456 115.838 129.129L14.8713 28.16ZM9.14 36.8458C8.87123 37.3277 8.60594 37.8124 8.34984 38.3002L105.699 135.651C106.186 135.391 106.674 135.128 107.156 134.857L9.14 36.8458Z" fill="#A5DEE9"/>
<path d="M86.9093 1.55343L142.449 57.0894C142.242 56.1102 142.014 55.1313 141.767 54.1587L89.8429 2.23574C88.8671 1.98875 87.8914 1.76019 86.9093 1.55343ZM48.3431 3.97728C47.7901 4.16857 47.2405 4.36935 46.6907 4.57296L139.427 97.3102C139.633 96.7606 139.831 96.2108 140.022 95.6581L48.3431 3.97728ZM72.0769 0C71.7019 0 71.3266 0.00312583 70.9512 0.00951107L143.993 73.0494C144.003 72.2995 144.003 71.5494 143.99 70.7988L73.2028 0.00951107C72.8272 0.00312583 72.4521 0 72.0769 0ZM59.8107 1.03107C59.1776 1.13983 58.5446 1.2568 57.9119 1.38359L142.619 86.0863C142.743 85.4558 142.863 84.8231 142.971 84.1901L59.8107 1.03107ZM11.8791 111.653C14.5098 115.633 17.5794 119.409 21.0834 122.913C24.5884 126.421 28.3678 129.487 32.348 132.118L11.8791 111.653ZM0.00656466 70.9528C-0.00265233 71.7035 -0.00265234 72.4534 0.00969043 73.204L70.7972 143.99C71.2004 143.997 71.6039 144 72.0076 144C72.3541 144 72.701 143.998 73.0479 143.993L0.00656466 70.9528ZM21.6548 20.5304L21.0834 21.086L20.5282 21.6544L122.348 123.469L122.916 122.913L123.472 122.345L21.6548 20.5304ZM1.55053 86.9102C1.75761 87.8926 1.98592 88.8684 2.2328 89.8407L54.1603 141.764C55.1329 142.014 56.1084 142.242 57.0908 142.446L1.55053 86.9102ZM1.38035 57.9134C1.25738 58.5436 1.13625 59.1765 1.0285 59.8096L84.192 142.968C84.825 142.86 85.4546 142.743 86.0876 142.616L1.38035 57.9134ZM38.3015 8.34949C37.8136 8.60872 37.3289 8.87145 36.8436 9.14337L134.859 107.156C135.131 106.672 135.394 106.187 135.653 105.7L38.3015 8.34949ZM111.652 11.8819L132.121 32.3471C129.49 28.3674 126.421 24.5908 122.916 21.086C119.411 17.582 115.635 14.5122 111.652 11.8819ZM4.5736 46.6895C4.36679 47.239 4.16883 47.7889 3.97754 48.3416L95.657 140.022C96.2097 139.831 96.7621 139.634 97.3088 139.426L4.5736 46.6895ZM29.4425 13.9042C29.0128 14.2222 28.587 14.5467 28.161 14.8739L129.129 115.839C129.456 115.414 129.78 114.987 130.095 114.558L29.4425 13.9042ZM14.8713 28.16C14.5436 28.5868 14.2196 29.0127 13.905 29.4446L114.558 130.096C114.986 129.777 115.416 129.456 115.838 129.129L14.8713 28.16ZM9.14 36.8458C8.87123 37.3277 8.60594 37.8124 8.34984 38.3002L105.699 135.651C106.186 135.391 106.674 135.128 107.156 134.857L9.14 36.8458Z" fill="#A5DEE9"/>
<path d="M86.9093 1.55343L142.449 57.0894C142.242 56.1102 142.014 55.1313 141.767 54.1587L89.8429 2.23574C88.8671 1.98875 87.8914 1.76019 86.9093 1.55343ZM48.3431 3.97728C47.7901 4.16857 47.2405 4.36935 46.6907 4.57296L139.427 97.3102C139.633 96.7606 139.831 96.2108 140.022 95.6581L48.3431 3.97728ZM72.0769 0C71.7019 0 71.3266 0.00312583 70.9512 0.00951107L143.993 73.0494C144.003 72.2995 144.003 71.5494 143.99 70.7988L73.2028 0.00951107C72.8272 0.00312583 72.4521 0 72.0769 0ZM59.8107 1.03107C59.1776 1.13983 58.5446 1.2568 57.9119 1.38359L142.619 86.0863C142.743 85.4558 142.863 84.8231 142.971 84.1901L59.8107 1.03107ZM11.8791 111.653C14.5098 115.633 17.5794 119.409 21.0834 122.913C24.5884 126.421 28.3678 129.487 32.348 132.118L11.8791 111.653ZM0.00656466 70.9528C-0.00265233 71.7035 -0.00265234 72.4534 0.00969043 73.204L70.7972 143.99C71.2004 143.997 71.6039 144 72.0076 144C72.3541 144 72.701 143.998 73.0479 143.993L0.00656466 70.9528ZM21.6548 20.5304L21.0834 21.086L20.5282 21.6544L122.348 123.469L122.916 122.913L123.472 122.345L21.6548 20.5304ZM1.55053 86.9102C1.75761 87.8926 1.98592 88.8684 2.2328 89.8407L54.1603 141.764C55.1329 142.014 56.1084 142.242 57.0908 142.446L1.55053 86.9102ZM1.38035 57.9134C1.25738 58.5436 1.13625 59.1765 1.0285 59.8096L84.192 142.968C84.825 142.86 85.4546 142.743 86.0876 142.616L1.38035 57.9134ZM38.3015 8.34949C37.8136 8.60872 37.3289 8.87145 36.8436 9.14337L134.859 107.156C135.131 106.672 135.394 106.187 135.653 105.7L38.3015 8.34949ZM111.652 11.8819L132.121 32.3471C129.49 28.3674 126.421 24.5908 122.916 21.086C119.411 17.582 115.635 14.5122 111.652 11.8819ZM4.5736 46.6895C4.36679 47.239 4.16883 47.7889 3.97754 48.3416L95.657 140.022C96.2097 139.831 96.7621 139.634 97.3088 139.426L4.5736 46.6895ZM29.4425 13.9042C29.0128 14.2222 28.587 14.5467 28.161 14.8739L129.129 115.839C129.456 115.414 129.78 114.987 130.095 114.558L29.4425 13.9042ZM14.8713 28.16C14.5436 28.5868 14.2196 29.0127 13.905 29.4446L114.558 130.096C114.986 129.777 115.416 129.456 115.838 129.129L14.8713 28.16ZM9.14 36.8458C8.87123 37.3277 8.60594 37.8124 8.34984 38.3002L105.699 135.651C106.186 135.391 106.674 135.128 107.156 134.857L9.14 36.8458Z" fill="#A5DEE9"/>
<path d="M86.9093 1.55343L142.449 57.0894C142.242 56.1102 142.014 55.1313 141.767 54.1587L89.8429 2.23574C88.8671 1.98875 87.8914 1.76019 86.9093 1.55343ZM48.3431 3.97728C47.7901 4.16857 47.2405 4.36935 46.6907 4.57296L139.427 97.3102C139.633 96.7606 139.831 96.2108 140.022 95.6581L48.3431 3.97728ZM72.0769 0C71.7019 0 71.3266 0.00312583 70.9512 0.00951107L143.993 73.0494C144.003 72.2995 144.003 71.5494 143.99 70.7988L73.2028 0.00951107C72.8272 0.00312583 72.4521 0 72.0769 0ZM59.8107 1.03107C59.1776 1.13983 58.5446 1.2568 57.9119 1.38359L142.619 86.0863C142.743 85.4558 142.863 84.8231 142.971 84.1901L59.8107 1.03107ZM11.8791 111.653C14.5098 115.633 17.5794 119.409 21.0834 122.913C24.5884 126.421 28.3678 129.487 32.348 132.118L11.8791 111.653ZM0.00656466 70.9528C-0.00265233 71.7035 -0.00265234 72.4534 0.00969043 73.204L70.7972 143.99C71.2004 143.997 71.6039 144 72.0076 144C72.3541 144 72.701 143.998 73.0479 143.993L0.00656466 70.9528ZM21.6548 20.5304L21.0834 21.086L20.5282 21.6544L122.348 123.469L122.916 122.913L123.472 122.345L21.6548 20.5304ZM1.55053 86.9102C1.75761 87.8926 1.98592 88.8684 2.2328 89.8407L54.1603 141.764C55.1329 142.014 56.1084 142.242 57.0908 142.446L1.55053 86.9102ZM1.38035 57.9134C1.25738 58.5436 1.13625 59.1765 1.0285 59.8096L84.192 142.968C84.825 142.86 85.4546 142.743 86.0876 142.616L1.38035 57.9134ZM38.3015 8.34949C37.8136 8.60872 37.3289 8.87145 36.8436 9.14337L134.859 107.156C135.131 106.672 135.394 106.187 135.653 105.7L38.3015 8.34949ZM111.652 11.8819L132.121 32.3471C129.49 28.3674 126.421 24.5908 122.916 21.086C119.411 17.582 115.635 14.5122 111.652 11.8819ZM4.5736 46.6895C4.36679 47.239 4.16883 47.7889 3.97754 48.3416L95.657 140.022C96.2097 139.831 96.7621 139.634 97.3088 139.426L4.5736 46.6895ZM29.4425 13.9042C29.0128 14.2222 28.587 14.5467 28.161 14.8739L129.129 115.839C129.456 115.414 129.78 114.987 130.095 114.558L29.4425 13.9042ZM14.8713 28.16C14.5436 28.5868 14.2196 29.0127 13.905 29.4446L114.558 130.096C114.986 129.777 115.416 129.456 115.838 129.129L14.8713 28.16ZM9.14 36.8458C8.87123 37.3277 8.60594 37.8124 8.34984 38.3002L105.699 135.651C106.186 135.391 106.674 135.128 107.156 134.857L9.14 36.8458Z" fill="#A5DEE9"/>
<path d="M86.9093 1.55343L142.449 57.0894C142.242 56.1102 142.014 55.1313 141.767 54.1587L89.8429 2.23574C88.8671 1.98875 87.8914 1.76019 86.9093 1.55343ZM48.3431 3.97728C47.7901 4.16857 47.2405 4.36935 46.6907 4.57296L139.427 97.3102C139.633 96.7606 139.831 96.2108 140.022 95.6581L48.3431 3.97728ZM72.0769 0C71.7019 0 71.3266 0.00312583 70.9512 0.00951107L143.993 73.0494C144.003 72.2995 144.003 71.5494 143.99 70.7988L73.2028 0.00951107C72.8272 0.00312583 72.4521 0 72.0769 0ZM59.8107 1.03107C59.1776 1.13983 58.5446 1.2568 57.9119 1.38359L142.619 86.0863C142.743 85.4558 142.863 84.8231 142.971 84.1901L59.8107 1.03107ZM11.8791 111.653C14.5098 115.633 17.5794 119.409 21.0834 122.913C24.5884 126.421 28.3678 129.487 32.348 132.118L11.8791 111.653ZM0.00656466 70.9528C-0.00265233 71.7035 -0.00265234 72.4534 0.00969043 73.204L70.7972 143.99C71.2004 143.997 71.6039 144 72.0076 144C72.3541 144 72.701 143.998 73.0479 143.993L0.00656466 70.9528ZM21.6548 20.5304L21.0834 21.086L20.5282 21.6544L122.348 123.469L122.916 122.913L123.472 122.345L21.6548 20.5304ZM1.55053 86.9102C1.75761 87.8926 1.98592 88.8684 2.2328 89.8407L54.1603 141.764C55.1329 142.014 56.1084 142.242 57.0908 142.446L1.55053 86.9102ZM1.38035 57.9134C1.25738 58.5436 1.13625 59.1765 1.0285 59.8096L84.192 142.968C84.825 142.86 85.4546 142.743 86.0876 142.616L1.38035 57.9134ZM38.3015 8.34949C37.8136 8.60872 37.3289 8.87145 36.8436 9.14337L134.859 107.156C135.131 106.672 135.394 106.187 135.653 105.7L38.3015 8.34949ZM111.652 11.8819L132.121 32.3471C129.49 28.3674 126.421 24.5908 122.916 21.086C119.411 17.582 115.635 14.5122 111.652 11.8819ZM4.5736 46.6895C4.36679 47.239 4.16883 47.7889 3.97754 48.3416L95.657 140.022C96.2097 139.831 96.7621 139.634 97.3088 139.426L4.5736 46.6895ZM29.4425 13.9042C29.0128 14.2222 28.587 14.5467 28.161 14.8739L129.129 115.839C129.456 115.414 129.78 114.987 130.095 114.558L29.4425 13.9042ZM14.8713 28.16C14.5436 28.5868 14.2196 29.0127 13.905 29.4446L114.558 130.096C114.986 129.777 115.416 129.456 115.838 129.129L14.8713 28.16ZM9.14 36.8458C8.87123 37.3277 8.60594 37.8124 8.34984 38.3002L105.699 135.651C106.186 135.391 106.674 135.128 107.156 134.857L9.14 36.8458Z" fill="#A5DEE9"/>
</svg>
