<svg width="124" height="105" viewBox="0 0 124 105" fill="none" xmlns="http://www.w3.org/2000/svg">
<path d="M74.8386 -17.6623L122.665 30.1603C122.487 29.3171 122.29 28.4742 122.077 27.6367L77.3647 -17.0748C76.5245 -17.2875 75.6842 -17.4843 74.8386 -17.6623ZM41.6288 -15.5751C41.1526 -15.4104 40.6793 -15.2375 40.2059 -15.0622L120.062 64.7949C120.24 64.3216 120.41 63.8482 120.575 63.3723L41.6288 -15.5751ZM62.0662 -19C61.7433 -19 61.4201 -18.9973 61.0969 -18.9918L123.994 43.9037C124.002 43.2579 124.002 42.612 123.992 41.9656L63.0358 -18.9918C62.7123 -18.9973 62.3894 -19 62.0662 -19ZM51.5036 -18.1121C50.9585 -18.0185 50.4134 -17.9178 49.8686 -17.8086L122.811 55.1298C122.917 54.587 123.021 54.0421 123.114 53.4971L51.5036 -18.1121ZM10.2293 77.1453C12.4946 80.5726 15.1378 83.8243 18.1551 86.8421C21.1734 89.8624 24.4278 92.5029 27.8552 94.7682L10.2293 77.1453ZM0.00565405 42.0983C-0.0022828 42.7446 -0.00228279 43.3904 0.00834571 44.0368L60.9643 104.992C61.3114 104.997 61.6589 105 62.0066 105C62.3049 105 62.6036 104.998 62.9024 104.994L0.00565405 42.0983ZM18.6472 -1.321L18.1551 -0.842642L17.677 -0.353123L105.355 87.3205L105.844 86.8421L106.323 86.3528L18.6472 -1.321ZM1.33518 55.8394C1.5135 56.6853 1.7101 57.5256 1.92269 58.3628L46.6381 103.074C47.4756 103.29 48.3156 103.486 49.1615 103.662L1.33518 55.8394ZM1.18864 30.8699C1.08274 31.4125 0.978437 31.9576 0.885656 32.5027L72.4987 104.112C73.0437 104.018 73.5859 103.917 74.131 103.808L1.18864 30.8699ZM32.9819 -11.8102C32.5617 -11.5869 32.1443 -11.3607 31.7264 -11.1265L116.129 73.2736C116.363 72.8562 116.589 72.4391 116.812 72.019L32.9819 -11.8102ZM96.1446 -8.7684L113.771 8.85447C111.505 5.42744 108.862 2.17545 105.844 -0.842645C102.827 -3.85996 99.5744 -6.50338 96.1446 -8.7684ZM3.93838 21.2049C3.76029 21.6781 3.58982 22.1516 3.42511 22.6275L82.3713 101.575C82.8473 101.41 83.3229 101.24 83.7937 101.062L3.93838 21.2049ZM25.3533 -7.02696C24.9833 -6.75308 24.6165 -6.4737 24.2498 -6.1919L111.194 80.7506C111.476 80.3839 111.755 80.0166 112.026 79.6474L25.3533 -7.02696ZM12.8058 5.24885C12.5237 5.61639 12.2446 5.98313 11.9737 6.35507L98.6468 93.0267C99.016 92.7528 99.3857 92.4762 99.7498 92.1944L12.8058 5.24885ZM7.87055 12.7283C7.63912 13.1433 7.41067 13.5607 7.19015 13.9808L91.0182 97.8102C91.4383 97.5867 91.8584 97.3604 92.2729 97.1268L7.87055 12.7283Z" fill="white"/>
<path d="M74.8386 -17.6623L122.665 30.1603C122.487 29.3171 122.29 28.4742 122.077 27.6367L77.3647 -17.0748C76.5245 -17.2875 75.6842 -17.4843 74.8386 -17.6623ZM41.6288 -15.5751C41.1526 -15.4104 40.6793 -15.2375 40.2059 -15.0622L120.062 64.7949C120.24 64.3216 120.41 63.8482 120.575 63.3723L41.6288 -15.5751ZM62.0662 -19C61.7433 -19 61.4201 -18.9973 61.0969 -18.9918L123.994 43.9037C124.002 43.2579 124.002 42.612 123.992 41.9656L63.0358 -18.9918C62.7123 -18.9973 62.3894 -19 62.0662 -19ZM51.5036 -18.1121C50.9585 -18.0185 50.4134 -17.9178 49.8686 -17.8086L122.811 55.1298C122.917 54.587 123.021 54.0421 123.114 53.4971L51.5036 -18.1121ZM10.2293 77.1453C12.4946 80.5726 15.1378 83.8243 18.1551 86.8421C21.1734 89.8624 24.4278 92.5029 27.8552 94.7682L10.2293 77.1453ZM0.00565405 42.0983C-0.0022828 42.7446 -0.00228279 43.3904 0.00834571 44.0368L60.9643 104.992C61.3114 104.997 61.6589 105 62.0066 105C62.3049 105 62.6036 104.998 62.9024 104.994L0.00565405 42.0983ZM18.6472 -1.321L18.1551 -0.842642L17.677 -0.353123L105.355 87.3205L105.844 86.8421L106.323 86.3528L18.6472 -1.321ZM1.33518 55.8394C1.5135 56.6853 1.7101 57.5256 1.92269 58.3628L46.6381 103.074C47.4756 103.29 48.3156 103.486 49.1615 103.662L1.33518 55.8394ZM1.18864 30.8699C1.08274 31.4125 0.978437 31.9576 0.885656 32.5027L72.4987 104.112C73.0437 104.018 73.5859 103.917 74.131 103.808L1.18864 30.8699ZM32.9819 -11.8102C32.5617 -11.5869 32.1443 -11.3607 31.7264 -11.1265L116.129 73.2736C116.363 72.8562 116.589 72.4391 116.812 72.019L32.9819 -11.8102ZM96.1446 -8.7684L113.771 8.85447C111.505 5.42744 108.862 2.17545 105.844 -0.842645C102.827 -3.85996 99.5744 -6.50338 96.1446 -8.7684ZM3.93838 21.2049C3.76029 21.6781 3.58982 22.1516 3.42511 22.6275L82.3713 101.575C82.8473 101.41 83.3229 101.24 83.7937 101.062L3.93838 21.2049ZM25.3533 -7.02696C24.9833 -6.75308 24.6165 -6.4737 24.2498 -6.1919L111.194 80.7506C111.476 80.3839 111.755 80.0166 112.026 79.6474L25.3533 -7.02696ZM12.8058 5.24885C12.5237 5.61639 12.2446 5.98313 11.9737 6.35507L98.6468 93.0267C99.016 92.7528 99.3857 92.4762 99.7498 92.1944L12.8058 5.24885ZM7.87055 12.7283C7.63912 13.1433 7.41067 13.5607 7.19015 13.9808L91.0182 97.8102C91.4383 97.5867 91.8584 97.3604 92.2729 97.1268L7.87055 12.7283Z" fill="white"/>
<path d="M74.8386 -17.6623L122.665 30.1603C122.487 29.3171 122.29 28.4742 122.077 27.6367L77.3647 -17.0748C76.5245 -17.2875 75.6842 -17.4843 74.8386 -17.6623ZM41.6288 -15.5751C41.1526 -15.4104 40.6793 -15.2375 40.2059 -15.0622L120.062 64.7949C120.24 64.3216 120.41 63.8482 120.575 63.3723L41.6288 -15.5751ZM62.0662 -19C61.7433 -19 61.4201 -18.9973 61.0969 -18.9918L123.994 43.9037C124.002 43.2579 124.002 42.612 123.992 41.9656L63.0358 -18.9918C62.7123 -18.9973 62.3894 -19 62.0662 -19ZM51.5036 -18.1121C50.9585 -18.0185 50.4134 -17.9178 49.8686 -17.8086L122.811 55.1298C122.917 54.587 123.021 54.0421 123.114 53.4971L51.5036 -18.1121ZM10.2293 77.1453C12.4946 80.5726 15.1378 83.8243 18.1551 86.8421C21.1734 89.8624 24.4278 92.5029 27.8552 94.7682L10.2293 77.1453ZM0.00565405 42.0983C-0.0022828 42.7446 -0.00228279 43.3904 0.00834571 44.0368L60.9643 104.992C61.3114 104.997 61.6589 105 62.0066 105C62.3049 105 62.6036 104.998 62.9024 104.994L0.00565405 42.0983ZM18.6472 -1.321L18.1551 -0.842642L17.677 -0.353123L105.355 87.3205L105.844 86.8421L106.323 86.3528L18.6472 -1.321ZM1.33518 55.8394C1.5135 56.6853 1.7101 57.5256 1.92269 58.3628L46.6381 103.074C47.4756 103.29 48.3156 103.486 49.1615 103.662L1.33518 55.8394ZM1.18864 30.8699C1.08274 31.4125 0.978437 31.9576 0.885656 32.5027L72.4987 104.112C73.0437 104.018 73.5859 103.917 74.131 103.808L1.18864 30.8699ZM32.9819 -11.8102C32.5617 -11.5869 32.1443 -11.3607 31.7264 -11.1265L116.129 73.2736C116.363 72.8562 116.589 72.4391 116.812 72.019L32.9819 -11.8102ZM96.1446 -8.7684L113.771 8.85447C111.505 5.42744 108.862 2.17545 105.844 -0.842645C102.827 -3.85996 99.5744 -6.50338 96.1446 -8.7684ZM3.93838 21.2049C3.76029 21.6781 3.58982 22.1516 3.42511 22.6275L82.3713 101.575C82.8473 101.41 83.3229 101.24 83.7937 101.062L3.93838 21.2049ZM25.3533 -7.02696C24.9833 -6.75308 24.6165 -6.4737 24.2498 -6.1919L111.194 80.7506C111.476 80.3839 111.755 80.0166 112.026 79.6474L25.3533 -7.02696ZM12.8058 5.24885C12.5237 5.61639 12.2446 5.98313 11.9737 6.35507L98.6468 93.0267C99.016 92.7528 99.3857 92.4762 99.7498 92.1944L12.8058 5.24885ZM7.87055 12.7283C7.63912 13.1433 7.41067 13.5607 7.19015 13.9808L91.0182 97.8102C91.4383 97.5867 91.8584 97.3604 92.2729 97.1268L7.87055 12.7283Z" fill="white"/>
<path d="M74.8386 -17.6623L122.665 30.1603C122.487 29.3171 122.29 28.4742 122.077 27.6367L77.3647 -17.0748C76.5245 -17.2875 75.6842 -17.4843 74.8386 -17.6623ZM41.6288 -15.5751C41.1526 -15.4104 40.6793 -15.2375 40.2059 -15.0622L120.062 64.7949C120.24 64.3216 120.41 63.8482 120.575 63.3723L41.6288 -15.5751ZM62.0662 -19C61.7433 -19 61.4201 -18.9973 61.0969 -18.9918L123.994 43.9037C124.002 43.2579 124.002 42.612 123.992 41.9656L63.0358 -18.9918C62.7123 -18.9973 62.3894 -19 62.0662 -19ZM51.5036 -18.1121C50.9585 -18.0185 50.4134 -17.9178 49.8686 -17.8086L122.811 55.1298C122.917 54.587 123.021 54.0421 123.114 53.4971L51.5036 -18.1121ZM10.2293 77.1453C12.4946 80.5726 15.1378 83.8243 18.1551 86.8421C21.1734 89.8624 24.4278 92.5029 27.8552 94.7682L10.2293 77.1453ZM0.00565405 42.0983C-0.0022828 42.7446 -0.00228279 43.3904 0.00834571 44.0368L60.9643 104.992C61.3114 104.997 61.6589 105 62.0066 105C62.3049 105 62.6036 104.998 62.9024 104.994L0.00565405 42.0983ZM18.6472 -1.321L18.1551 -0.842642L17.677 -0.353123L105.355 87.3205L105.844 86.8421L106.323 86.3528L18.6472 -1.321ZM1.33518 55.8394C1.5135 56.6853 1.7101 57.5256 1.92269 58.3628L46.6381 103.074C47.4756 103.29 48.3156 103.486 49.1615 103.662L1.33518 55.8394ZM1.18864 30.8699C1.08274 31.4125 0.978437 31.9576 0.885656 32.5027L72.4987 104.112C73.0437 104.018 73.5859 103.917 74.131 103.808L1.18864 30.8699ZM32.9819 -11.8102C32.5617 -11.5869 32.1443 -11.3607 31.7264 -11.1265L116.129 73.2736C116.363 72.8562 116.589 72.4391 116.812 72.019L32.9819 -11.8102ZM96.1446 -8.7684L113.771 8.85447C111.505 5.42744 108.862 2.17545 105.844 -0.842645C102.827 -3.85996 99.5744 -6.50338 96.1446 -8.7684ZM3.93838 21.2049C3.76029 21.6781 3.58982 22.1516 3.42511 22.6275L82.3713 101.575C82.8473 101.41 83.3229 101.24 83.7937 101.062L3.93838 21.2049ZM25.3533 -7.02696C24.9833 -6.75308 24.6165 -6.4737 24.2498 -6.1919L111.194 80.7506C111.476 80.3839 111.755 80.0166 112.026 79.6474L25.3533 -7.02696ZM12.8058 5.24885C12.5237 5.61639 12.2446 5.98313 11.9737 6.35507L98.6468 93.0267C99.016 92.7528 99.3857 92.4762 99.7498 92.1944L12.8058 5.24885ZM7.87055 12.7283C7.63912 13.1433 7.41067 13.5607 7.19015 13.9808L91.0182 97.8102C91.4383 97.5867 91.8584 97.3604 92.2729 97.1268L7.87055 12.7283Z" fill="white"/>
<path d="M74.8386 -17.6623L122.665 30.1603C122.487 29.3171 122.29 28.4742 122.077 27.6367L77.3647 -17.0748C76.5245 -17.2875 75.6842 -17.4843 74.8386 -17.6623ZM41.6288 -15.5751C41.1526 -15.4104 40.6793 -15.2375 40.2059 -15.0622L120.062 64.7949C120.24 64.3216 120.41 63.8482 120.575 63.3723L41.6288 -15.5751ZM62.0662 -19C61.7433 -19 61.4201 -18.9973 61.0969 -18.9918L123.994 43.9037C124.002 43.2579 124.002 42.612 123.992 41.9656L63.0358 -18.9918C62.7123 -18.9973 62.3894 -19 62.0662 -19ZM51.5036 -18.1121C50.9585 -18.0185 50.4134 -17.9178 49.8686 -17.8086L122.811 55.1298C122.917 54.587 123.021 54.0421 123.114 53.4971L51.5036 -18.1121ZM10.2293 77.1453C12.4946 80.5726 15.1378 83.8243 18.1551 86.8421C21.1734 89.8624 24.4278 92.5029 27.8552 94.7682L10.2293 77.1453ZM0.00565405 42.0983C-0.0022828 42.7446 -0.00228279 43.3904 0.00834571 44.0368L60.9643 104.992C61.3114 104.997 61.6589 105 62.0066 105C62.3049 105 62.6036 104.998 62.9024 104.994L0.00565405 42.0983ZM18.6472 -1.321L18.1551 -0.842642L17.677 -0.353123L105.355 87.3205L105.844 86.8421L106.323 86.3528L18.6472 -1.321ZM1.33518 55.8394C1.5135 56.6853 1.7101 57.5256 1.92269 58.3628L46.6381 103.074C47.4756 103.29 48.3156 103.486 49.1615 103.662L1.33518 55.8394ZM1.18864 30.8699C1.08274 31.4125 0.978437 31.9576 0.885656 32.5027L72.4987 104.112C73.0437 104.018 73.5859 103.917 74.131 103.808L1.18864 30.8699ZM32.9819 -11.8102C32.5617 -11.5869 32.1443 -11.3607 31.7264 -11.1265L116.129 73.2736C116.363 72.8562 116.589 72.4391 116.812 72.019L32.9819 -11.8102ZM96.1446 -8.7684L113.771 8.85447C111.505 5.42744 108.862 2.17545 105.844 -0.842645C102.827 -3.85996 99.5744 -6.50338 96.1446 -8.7684ZM3.93838 21.2049C3.76029 21.6781 3.58982 22.1516 3.42511 22.6275L82.3713 101.575C82.8473 101.41 83.3229 101.24 83.7937 101.062L3.93838 21.2049ZM25.3533 -7.02696C24.9833 -6.75308 24.6165 -6.4737 24.2498 -6.1919L111.194 80.7506C111.476 80.3839 111.755 80.0166 112.026 79.6474L25.3533 -7.02696ZM12.8058 5.24885C12.5237 5.61639 12.2446 5.98313 11.9737 6.35507L98.6468 93.0267C99.016 92.7528 99.3857 92.4762 99.7498 92.1944L12.8058 5.24885ZM7.87055 12.7283C7.63912 13.1433 7.41067 13.5607 7.19015 13.9808L91.0182 97.8102C91.4383 97.5867 91.8584 97.3604 92.2729 97.1268L7.87055 12.7283Z" fill="white"/>
<path d="M74.8386 -17.6623L122.665 30.1603C122.487 29.3171 122.29 28.4742 122.077 27.6367L77.3647 -17.0748C76.5245 -17.2875 75.6842 -17.4843 74.8386 -17.6623ZM41.6288 -15.5751C41.1526 -15.4104 40.6793 -15.2375 40.2059 -15.0622L120.062 64.7949C120.24 64.3216 120.41 63.8482 120.575 63.3723L41.6288 -15.5751ZM62.0662 -19C61.7433 -19 61.4201 -18.9973 61.0969 -18.9918L123.994 43.9037C124.002 43.2579 124.002 42.612 123.992 41.9656L63.0358 -18.9918C62.7123 -18.9973 62.3894 -19 62.0662 -19ZM51.5036 -18.1121C50.9585 -18.0185 50.4134 -17.9178 49.8686 -17.8086L122.811 55.1298C122.917 54.587 123.021 54.0421 123.114 53.4971L51.5036 -18.1121ZM10.2293 77.1453C12.4946 80.5726 15.1378 83.8243 18.1551 86.8421C21.1734 89.8624 24.4278 92.5029 27.8552 94.7682L10.2293 77.1453ZM0.00565405 42.0983C-0.0022828 42.7446 -0.00228279 43.3904 0.00834571 44.0368L60.9643 104.992C61.3114 104.997 61.6589 105 62.0066 105C62.3049 105 62.6036 104.998 62.9024 104.994L0.00565405 42.0983ZM18.6472 -1.321L18.1551 -0.842642L17.677 -0.353123L105.355 87.3205L105.844 86.8421L106.323 86.3528L18.6472 -1.321ZM1.33518 55.8394C1.5135 56.6853 1.7101 57.5256 1.92269 58.3628L46.6381 103.074C47.4756 103.29 48.3156 103.486 49.1615 103.662L1.33518 55.8394ZM1.18864 30.8699C1.08274 31.4125 0.978437 31.9576 0.885656 32.5027L72.4987 104.112C73.0437 104.018 73.5859 103.917 74.131 103.808L1.18864 30.8699ZM32.9819 -11.8102C32.5617 -11.5869 32.1443 -11.3607 31.7264 -11.1265L116.129 73.2736C116.363 72.8562 116.589 72.4391 116.812 72.019L32.9819 -11.8102ZM96.1446 -8.7684L113.771 8.85447C111.505 5.42744 108.862 2.17545 105.844 -0.842645C102.827 -3.85996 99.5744 -6.50338 96.1446 -8.7684ZM3.93838 21.2049C3.76029 21.6781 3.58982 22.1516 3.42511 22.6275L82.3713 101.575C82.8473 101.41 83.3229 101.24 83.7937 101.062L3.93838 21.2049ZM25.3533 -7.02696C24.9833 -6.75308 24.6165 -6.4737 24.2498 -6.1919L111.194 80.7506C111.476 80.3839 111.755 80.0166 112.026 79.6474L25.3533 -7.02696ZM12.8058 5.24885C12.5237 5.61639 12.2446 5.98313 11.9737 6.35507L98.6468 93.0267C99.016 92.7528 99.3857 92.4762 99.7498 92.1944L12.8058 5.24885ZM7.87055 12.7283C7.63912 13.1433 7.41067 13.5607 7.19015 13.9808L91.0182 97.8102C91.4383 97.5867 91.8584 97.3604 92.2729 97.1268L7.87055 12.7283Z" fill="white"/>
<path d="M74.8386 -17.6623L122.665 30.1603C122.487 29.3171 122.29 28.4742 122.077 27.6367L77.3647 -17.0748C76.5245 -17.2875 75.6842 -17.4843 74.8386 -17.6623ZM41.6288 -15.5751C41.1526 -15.4104 40.6793 -15.2375 40.2059 -15.0622L120.062 64.7949C120.24 64.3216 120.41 63.8482 120.575 63.3723L41.6288 -15.5751ZM62.0662 -19C61.7433 -19 61.4201 -18.9973 61.0969 -18.9918L123.994 43.9037C124.002 43.2579 124.002 42.612 123.992 41.9656L63.0358 -18.9918C62.7123 -18.9973 62.3894 -19 62.0662 -19ZM51.5036 -18.1121C50.9585 -18.0185 50.4134 -17.9178 49.8686 -17.8086L122.811 55.1298C122.917 54.587 123.021 54.0421 123.114 53.4971L51.5036 -18.1121ZM10.2293 77.1453C12.4946 80.5726 15.1378 83.8243 18.1551 86.8421C21.1734 89.8624 24.4278 92.5029 27.8552 94.7682L10.2293 77.1453ZM0.00565405 42.0983C-0.0022828 42.7446 -0.00228279 43.3904 0.00834571 44.0368L60.9643 104.992C61.3114 104.997 61.6589 105 62.0066 105C62.3049 105 62.6036 104.998 62.9024 104.994L0.00565405 42.0983ZM18.6472 -1.321L18.1551 -0.842642L17.677 -0.353123L105.355 87.3205L105.844 86.8421L106.323 86.3528L18.6472 -1.321ZM1.33518 55.8394C1.5135 56.6853 1.7101 57.5256 1.92269 58.3628L46.6381 103.074C47.4756 103.29 48.3156 103.486 49.1615 103.662L1.33518 55.8394ZM1.18864 30.8699C1.08274 31.4125 0.978437 31.9576 0.885656 32.5027L72.4987 104.112C73.0437 104.018 73.5859 103.917 74.131 103.808L1.18864 30.8699ZM32.9819 -11.8102C32.5617 -11.5869 32.1443 -11.3607 31.7264 -11.1265L116.129 73.2736C116.363 72.8562 116.589 72.4391 116.812 72.019L32.9819 -11.8102ZM96.1446 -8.7684L113.771 8.85447C111.505 5.42744 108.862 2.17545 105.844 -0.842645C102.827 -3.85996 99.5744 -6.50338 96.1446 -8.7684ZM3.93838 21.2049C3.76029 21.6781 3.58982 22.1516 3.42511 22.6275L82.3713 101.575C82.8473 101.41 83.3229 101.24 83.7937 101.062L3.93838 21.2049ZM25.3533 -7.02696C24.9833 -6.75308 24.6165 -6.4737 24.2498 -6.1919L111.194 80.7506C111.476 80.3839 111.755 80.0166 112.026 79.6474L25.3533 -7.02696ZM12.8058 5.24885C12.5237 5.61639 12.2446 5.98313 11.9737 6.35507L98.6468 93.0267C99.016 92.7528 99.3857 92.4762 99.7498 92.1944L12.8058 5.24885ZM7.87055 12.7283C7.63912 13.1433 7.41067 13.5607 7.19015 13.9808L91.0182 97.8102C91.4383 97.5867 91.8584 97.3604 92.2729 97.1268L7.87055 12.7283Z" fill="white"/>
<path d="M74.8386 -17.6623L122.665 30.1603C122.487 29.3171 122.29 28.4742 122.077 27.6367L77.3647 -17.0748C76.5245 -17.2875 75.6842 -17.4843 74.8386 -17.6623ZM41.6288 -15.5751C41.1526 -15.4104 40.6793 -15.2375 40.2059 -15.0622L120.062 64.7949C120.24 64.3216 120.41 63.8482 120.575 63.3723L41.6288 -15.5751ZM62.0662 -19C61.7433 -19 61.4201 -18.9973 61.0969 -18.9918L123.994 43.9037C124.002 43.2579 124.002 42.612 123.992 41.9656L63.0358 -18.9918C62.7123 -18.9973 62.3894 -19 62.0662 -19ZM51.5036 -18.1121C50.9585 -18.0185 50.4134 -17.9178 49.8686 -17.8086L122.811 55.1298C122.917 54.587 123.021 54.0421 123.114 53.4971L51.5036 -18.1121ZM10.2293 77.1453C12.4946 80.5726 15.1378 83.8243 18.1551 86.8421C21.1734 89.8624 24.4278 92.5029 27.8552 94.7682L10.2293 77.1453ZM0.00565405 42.0983C-0.0022828 42.7446 -0.00228279 43.3904 0.00834571 44.0368L60.9643 104.992C61.3114 104.997 61.6589 105 62.0066 105C62.3049 105 62.6036 104.998 62.9024 104.994L0.00565405 42.0983ZM18.6472 -1.321L18.1551 -0.842642L17.677 -0.353123L105.355 87.3205L105.844 86.8421L106.323 86.3528L18.6472 -1.321ZM1.33518 55.8394C1.5135 56.6853 1.7101 57.5256 1.92269 58.3628L46.6381 103.074C47.4756 103.29 48.3156 103.486 49.1615 103.662L1.33518 55.8394ZM1.18864 30.8699C1.08274 31.4125 0.978437 31.9576 0.885656 32.5027L72.4987 104.112C73.0437 104.018 73.5859 103.917 74.131 103.808L1.18864 30.8699ZM32.9819 -11.8102C32.5617 -11.5869 32.1443 -11.3607 31.7264 -11.1265L116.129 73.2736C116.363 72.8562 116.589 72.4391 116.812 72.019L32.9819 -11.8102ZM96.1446 -8.7684L113.771 8.85447C111.505 5.42744 108.862 2.17545 105.844 -0.842645C102.827 -3.85996 99.5744 -6.50338 96.1446 -8.7684ZM3.93838 21.2049C3.76029 21.6781 3.58982 22.1516 3.42511 22.6275L82.3713 101.575C82.8473 101.41 83.3229 101.24 83.7937 101.062L3.93838 21.2049ZM25.3533 -7.02696C24.9833 -6.75308 24.6165 -6.4737 24.2498 -6.1919L111.194 80.7506C111.476 80.3839 111.755 80.0166 112.026 79.6474L25.3533 -7.02696ZM12.8058 5.24885C12.5237 5.61639 12.2446 5.98313 11.9737 6.35507L98.6468 93.0267C99.016 92.7528 99.3857 92.4762 99.7498 92.1944L12.8058 5.24885ZM7.87055 12.7283C7.63912 13.1433 7.41067 13.5607 7.19015 13.9808L91.0182 97.8102C91.4383 97.5867 91.8584 97.3604 92.2729 97.1268L7.87055 12.7283Z" fill="white"/>
<path d="M74.8386 -17.6623L122.665 30.1603C122.487 29.3171 122.29 28.4742 122.077 27.6367L77.3647 -17.0748C76.5245 -17.2875 75.6842 -17.4843 74.8386 -17.6623ZM41.6288 -15.5751C41.1526 -15.4104 40.6793 -15.2375 40.2059 -15.0622L120.062 64.7949C120.24 64.3216 120.41 63.8482 120.575 63.3723L41.6288 -15.5751ZM62.0662 -19C61.7433 -19 61.4201 -18.9973 61.0969 -18.9918L123.994 43.9037C124.002 43.2579 124.002 42.612 123.992 41.9656L63.0358 -18.9918C62.7123 -18.9973 62.3894 -19 62.0662 -19ZM51.5036 -18.1121C50.9585 -18.0185 50.4134 -17.9178 49.8686 -17.8086L122.811 55.1298C122.917 54.587 123.021 54.0421 123.114 53.4971L51.5036 -18.1121ZM10.2293 77.1453C12.4946 80.5726 15.1378 83.8243 18.1551 86.8421C21.1734 89.8624 24.4278 92.5029 27.8552 94.7682L10.2293 77.1453ZM0.00565405 42.0983C-0.0022828 42.7446 -0.00228279 43.3904 0.00834571 44.0368L60.9643 104.992C61.3114 104.997 61.6589 105 62.0066 105C62.3049 105 62.6036 104.998 62.9024 104.994L0.00565405 42.0983ZM18.6472 -1.321L18.1551 -0.842642L17.677 -0.353123L105.355 87.3205L105.844 86.8421L106.323 86.3528L18.6472 -1.321ZM1.33518 55.8394C1.5135 56.6853 1.7101 57.5256 1.92269 58.3628L46.6381 103.074C47.4756 103.29 48.3156 103.486 49.1615 103.662L1.33518 55.8394ZM1.18864 30.8699C1.08274 31.4125 0.978437 31.9576 0.885656 32.5027L72.4987 104.112C73.0437 104.018 73.5859 103.917 74.131 103.808L1.18864 30.8699ZM32.9819 -11.8102C32.5617 -11.5869 32.1443 -11.3607 31.7264 -11.1265L116.129 73.2736C116.363 72.8562 116.589 72.4391 116.812 72.019L32.9819 -11.8102ZM96.1446 -8.7684L113.771 8.85447C111.505 5.42744 108.862 2.17545 105.844 -0.842645C102.827 -3.85996 99.5744 -6.50338 96.1446 -8.7684ZM3.93838 21.2049C3.76029 21.6781 3.58982 22.1516 3.42511 22.6275L82.3713 101.575C82.8473 101.41 83.3229 101.24 83.7937 101.062L3.93838 21.2049ZM25.3533 -7.02696C24.9833 -6.75308 24.6165 -6.4737 24.2498 -6.1919L111.194 80.7506C111.476 80.3839 111.755 80.0166 112.026 79.6474L25.3533 -7.02696ZM12.8058 5.24885C12.5237 5.61639 12.2446 5.98313 11.9737 6.35507L98.6468 93.0267C99.016 92.7528 99.3857 92.4762 99.7498 92.1944L12.8058 5.24885ZM7.87055 12.7283C7.63912 13.1433 7.41067 13.5607 7.19015 13.9808L91.0182 97.8102C91.4383 97.5867 91.8584 97.3604 92.2729 97.1268L7.87055 12.7283Z" fill="white"/>
<path d="M74.8386 -17.6623L122.665 30.1603C122.487 29.3171 122.29 28.4742 122.077 27.6367L77.3647 -17.0748C76.5245 -17.2875 75.6842 -17.4843 74.8386 -17.6623ZM41.6288 -15.5751C41.1526 -15.4104 40.6793 -15.2375 40.2059 -15.0622L120.062 64.7949C120.24 64.3216 120.41 63.8482 120.575 63.3723L41.6288 -15.5751ZM62.0662 -19C61.7433 -19 61.4201 -18.9973 61.0969 -18.9918L123.994 43.9037C124.002 43.2579 124.002 42.612 123.992 41.9656L63.0358 -18.9918C62.7123 -18.9973 62.3894 -19 62.0662 -19ZM51.5036 -18.1121C50.9585 -18.0185 50.4134 -17.9178 49.8686 -17.8086L122.811 55.1298C122.917 54.587 123.021 54.0421 123.114 53.4971L51.5036 -18.1121ZM10.2293 77.1453C12.4946 80.5726 15.1378 83.8243 18.1551 86.8421C21.1734 89.8624 24.4278 92.5029 27.8552 94.7682L10.2293 77.1453ZM0.00565405 42.0983C-0.0022828 42.7446 -0.00228279 43.3904 0.00834571 44.0368L60.9643 104.992C61.3114 104.997 61.6589 105 62.0066 105C62.3049 105 62.6036 104.998 62.9024 104.994L0.00565405 42.0983ZM18.6472 -1.321L18.1551 -0.842642L17.677 -0.353123L105.355 87.3205L105.844 86.8421L106.323 86.3528L18.6472 -1.321ZM1.33518 55.8394C1.5135 56.6853 1.7101 57.5256 1.92269 58.3628L46.6381 103.074C47.4756 103.29 48.3156 103.486 49.1615 103.662L1.33518 55.8394ZM1.18864 30.8699C1.08274 31.4125 0.978437 31.9576 0.885656 32.5027L72.4987 104.112C73.0437 104.018 73.5859 103.917 74.131 103.808L1.18864 30.8699ZM32.9819 -11.8102C32.5617 -11.5869 32.1443 -11.3607 31.7264 -11.1265L116.129 73.2736C116.363 72.8562 116.589 72.4391 116.812 72.019L32.9819 -11.8102ZM96.1446 -8.7684L113.771 8.85447C111.505 5.42744 108.862 2.17545 105.844 -0.842645C102.827 -3.85996 99.5744 -6.50338 96.1446 -8.7684ZM3.93838 21.2049C3.76029 21.6781 3.58982 22.1516 3.42511 22.6275L82.3713 101.575C82.8473 101.41 83.3229 101.24 83.7937 101.062L3.93838 21.2049ZM25.3533 -7.02696C24.9833 -6.75308 24.6165 -6.4737 24.2498 -6.1919L111.194 80.7506C111.476 80.3839 111.755 80.0166 112.026 79.6474L25.3533 -7.02696ZM12.8058 5.24885C12.5237 5.61639 12.2446 5.98313 11.9737 6.35507L98.6468 93.0267C99.016 92.7528 99.3857 92.4762 99.7498 92.1944L12.8058 5.24885ZM7.87055 12.7283C7.63912 13.1433 7.41067 13.5607 7.19015 13.9808L91.0182 97.8102C91.4383 97.5867 91.8584 97.3604 92.2729 97.1268L7.87055 12.7283Z" fill="white"/>
<path d="M74.8386 -17.6623L122.665 30.1603C122.487 29.3171 122.29 28.4742 122.077 27.6367L77.3647 -17.0748C76.5245 -17.2875 75.6842 -17.4843 74.8386 -17.6623ZM41.6288 -15.5751C41.1526 -15.4104 40.6793 -15.2375 40.2059 -15.0622L120.062 64.7949C120.24 64.3216 120.41 63.8482 120.575 63.3723L41.6288 -15.5751ZM62.0662 -19C61.7433 -19 61.4201 -18.9973 61.0969 -18.9918L123.994 43.9037C124.002 43.2579 124.002 42.612 123.992 41.9656L63.0358 -18.9918C62.7123 -18.9973 62.3894 -19 62.0662 -19ZM51.5036 -18.1121C50.9585 -18.0185 50.4134 -17.9178 49.8686 -17.8086L122.811 55.1298C122.917 54.587 123.021 54.0421 123.114 53.4971L51.5036 -18.1121ZM10.2293 77.1453C12.4946 80.5726 15.1378 83.8243 18.1551 86.8421C21.1734 89.8624 24.4278 92.5029 27.8552 94.7682L10.2293 77.1453ZM0.00565405 42.0983C-0.0022828 42.7446 -0.00228279 43.3904 0.00834571 44.0368L60.9643 104.992C61.3114 104.997 61.6589 105 62.0066 105C62.3049 105 62.6036 104.998 62.9024 104.994L0.00565405 42.0983ZM18.6472 -1.321L18.1551 -0.842642L17.677 -0.353123L105.355 87.3205L105.844 86.8421L106.323 86.3528L18.6472 -1.321ZM1.33518 55.8394C1.5135 56.6853 1.7101 57.5256 1.92269 58.3628L46.6381 103.074C47.4756 103.29 48.3156 103.486 49.1615 103.662L1.33518 55.8394ZM1.18864 30.8699C1.08274 31.4125 0.978437 31.9576 0.885656 32.5027L72.4987 104.112C73.0437 104.018 73.5859 103.917 74.131 103.808L1.18864 30.8699ZM32.9819 -11.8102C32.5617 -11.5869 32.1443 -11.3607 31.7264 -11.1265L116.129 73.2736C116.363 72.8562 116.589 72.4391 116.812 72.019L32.9819 -11.8102ZM96.1446 -8.7684L113.771 8.85447C111.505 5.42744 108.862 2.17545 105.844 -0.842645C102.827 -3.85996 99.5744 -6.50338 96.1446 -8.7684ZM3.93838 21.2049C3.76029 21.6781 3.58982 22.1516 3.42511 22.6275L82.3713 101.575C82.8473 101.41 83.3229 101.24 83.7937 101.062L3.93838 21.2049ZM25.3533 -7.02696C24.9833 -6.75308 24.6165 -6.4737 24.2498 -6.1919L111.194 80.7506C111.476 80.3839 111.755 80.0166 112.026 79.6474L25.3533 -7.02696ZM12.8058 5.24885C12.5237 5.61639 12.2446 5.98313 11.9737 6.35507L98.6468 93.0267C99.016 92.7528 99.3857 92.4762 99.7498 92.1944L12.8058 5.24885ZM7.87055 12.7283C7.63912 13.1433 7.41067 13.5607 7.19015 13.9808L91.0182 97.8102C91.4383 97.5867 91.8584 97.3604 92.2729 97.1268L7.87055 12.7283Z" fill="white"/>
<path d="M74.8386 -17.6623L122.665 30.1603C122.487 29.3171 122.29 28.4742 122.077 27.6367L77.3647 -17.0748C76.5245 -17.2875 75.6842 -17.4843 74.8386 -17.6623ZM41.6288 -15.5751C41.1526 -15.4104 40.6793 -15.2375 40.2059 -15.0622L120.062 64.7949C120.24 64.3216 120.41 63.8482 120.575 63.3723L41.6288 -15.5751ZM62.0662 -19C61.7433 -19 61.4201 -18.9973 61.0969 -18.9918L123.994 43.9037C124.002 43.2579 124.002 42.612 123.992 41.9656L63.0358 -18.9918C62.7123 -18.9973 62.3894 -19 62.0662 -19ZM51.5036 -18.1121C50.9585 -18.0185 50.4134 -17.9178 49.8686 -17.8086L122.811 55.1298C122.917 54.587 123.021 54.0421 123.114 53.4971L51.5036 -18.1121ZM10.2293 77.1453C12.4946 80.5726 15.1378 83.8243 18.1551 86.8421C21.1734 89.8624 24.4278 92.5029 27.8552 94.7682L10.2293 77.1453ZM0.00565405 42.0983C-0.0022828 42.7446 -0.00228279 43.3904 0.00834571 44.0368L60.9643 104.992C61.3114 104.997 61.6589 105 62.0066 105C62.3049 105 62.6036 104.998 62.9024 104.994L0.00565405 42.0983ZM18.6472 -1.321L18.1551 -0.842642L17.677 -0.353123L105.355 87.3205L105.844 86.8421L106.323 86.3528L18.6472 -1.321ZM1.33518 55.8394C1.5135 56.6853 1.7101 57.5256 1.92269 58.3628L46.6381 103.074C47.4756 103.29 48.3156 103.486 49.1615 103.662L1.33518 55.8394ZM1.18864 30.8699C1.08274 31.4125 0.978437 31.9576 0.885656 32.5027L72.4987 104.112C73.0437 104.018 73.5859 103.917 74.131 103.808L1.18864 30.8699ZM32.9819 -11.8102C32.5617 -11.5869 32.1443 -11.3607 31.7264 -11.1265L116.129 73.2736C116.363 72.8562 116.589 72.4391 116.812 72.019L32.9819 -11.8102ZM96.1446 -8.7684L113.771 8.85447C111.505 5.42744 108.862 2.17545 105.844 -0.842645C102.827 -3.85996 99.5744 -6.50338 96.1446 -8.7684ZM3.93838 21.2049C3.76029 21.6781 3.58982 22.1516 3.42511 22.6275L82.3713 101.575C82.8473 101.41 83.3229 101.24 83.7937 101.062L3.93838 21.2049ZM25.3533 -7.02696C24.9833 -6.75308 24.6165 -6.4737 24.2498 -6.1919L111.194 80.7506C111.476 80.3839 111.755 80.0166 112.026 79.6474L25.3533 -7.02696ZM12.8058 5.24885C12.5237 5.61639 12.2446 5.98313 11.9737 6.35507L98.6468 93.0267C99.016 92.7528 99.3857 92.4762 99.7498 92.1944L12.8058 5.24885ZM7.87055 12.7283C7.63912 13.1433 7.41067 13.5607 7.19015 13.9808L91.0182 97.8102C91.4383 97.5867 91.8584 97.3604 92.2729 97.1268L7.87055 12.7283Z" fill="white"/>
<path d="M74.8386 -17.6623L122.665 30.1603C122.487 29.3171 122.29 28.4742 122.077 27.6367L77.3647 -17.0748C76.5245 -17.2875 75.6842 -17.4843 74.8386 -17.6623ZM41.6288 -15.5751C41.1526 -15.4104 40.6793 -15.2375 40.2059 -15.0622L120.062 64.7949C120.24 64.3216 120.41 63.8482 120.575 63.3723L41.6288 -15.5751ZM62.0662 -19C61.7433 -19 61.4201 -18.9973 61.0969 -18.9918L123.994 43.9037C124.002 43.2579 124.002 42.612 123.992 41.9656L63.0358 -18.9918C62.7123 -18.9973 62.3894 -19 62.0662 -19ZM51.5036 -18.1121C50.9585 -18.0185 50.4134 -17.9178 49.8686 -17.8086L122.811 55.1298C122.917 54.587 123.021 54.0421 123.114 53.4971L51.5036 -18.1121ZM10.2293 77.1453C12.4946 80.5726 15.1378 83.8243 18.1551 86.8421C21.1734 89.8624 24.4278 92.5029 27.8552 94.7682L10.2293 77.1453ZM0.00565405 42.0983C-0.0022828 42.7446 -0.00228279 43.3904 0.00834571 44.0368L60.9643 104.992C61.3114 104.997 61.6589 105 62.0066 105C62.3049 105 62.6036 104.998 62.9024 104.994L0.00565405 42.0983ZM18.6472 -1.321L18.1551 -0.842642L17.677 -0.353123L105.355 87.3205L105.844 86.8421L106.323 86.3528L18.6472 -1.321ZM1.33518 55.8394C1.5135 56.6853 1.7101 57.5256 1.92269 58.3628L46.6381 103.074C47.4756 103.29 48.3156 103.486 49.1615 103.662L1.33518 55.8394ZM1.18864 30.8699C1.08274 31.4125 0.978437 31.9576 0.885656 32.5027L72.4987 104.112C73.0437 104.018 73.5859 103.917 74.131 103.808L1.18864 30.8699ZM32.9819 -11.8102C32.5617 -11.5869 32.1443 -11.3607 31.7264 -11.1265L116.129 73.2736C116.363 72.8562 116.589 72.4391 116.812 72.019L32.9819 -11.8102ZM96.1446 -8.7684L113.771 8.85447C111.505 5.42744 108.862 2.17545 105.844 -0.842645C102.827 -3.85996 99.5744 -6.50338 96.1446 -8.7684ZM3.93838 21.2049C3.76029 21.6781 3.58982 22.1516 3.42511 22.6275L82.3713 101.575C82.8473 101.41 83.3229 101.24 83.7937 101.062L3.93838 21.2049ZM25.3533 -7.02696C24.9833 -6.75308 24.6165 -6.4737 24.2498 -6.1919L111.194 80.7506C111.476 80.3839 111.755 80.0166 112.026 79.6474L25.3533 -7.02696ZM12.8058 5.24885C12.5237 5.61639 12.2446 5.98313 11.9737 6.35507L98.6468 93.0267C99.016 92.7528 99.3857 92.4762 99.7498 92.1944L12.8058 5.24885ZM7.87055 12.7283C7.63912 13.1433 7.41067 13.5607 7.19015 13.9808L91.0182 97.8102C91.4383 97.5867 91.8584 97.3604 92.2729 97.1268L7.87055 12.7283Z" fill="white"/>
<path d="M74.8386 -17.6623L122.665 30.1603C122.487 29.3171 122.29 28.4742 122.077 27.6367L77.3647 -17.0748C76.5245 -17.2875 75.6842 -17.4843 74.8386 -17.6623ZM41.6288 -15.5751C41.1526 -15.4104 40.6793 -15.2375 40.2059 -15.0622L120.062 64.7949C120.24 64.3216 120.41 63.8482 120.575 63.3723L41.6288 -15.5751ZM62.0662 -19C61.7433 -19 61.4201 -18.9973 61.0969 -18.9918L123.994 43.9037C124.002 43.2579 124.002 42.612 123.992 41.9656L63.0358 -18.9918C62.7123 -18.9973 62.3894 -19 62.0662 -19ZM51.5036 -18.1121C50.9585 -18.0185 50.4134 -17.9178 49.8686 -17.8086L122.811 55.1298C122.917 54.587 123.021 54.0421 123.114 53.4971L51.5036 -18.1121ZM10.2293 77.1453C12.4946 80.5726 15.1378 83.8243 18.1551 86.8421C21.1734 89.8624 24.4278 92.5029 27.8552 94.7682L10.2293 77.1453ZM0.00565405 42.0983C-0.0022828 42.7446 -0.00228279 43.3904 0.00834571 44.0368L60.9643 104.992C61.3114 104.997 61.6589 105 62.0066 105C62.3049 105 62.6036 104.998 62.9024 104.994L0.00565405 42.0983ZM18.6472 -1.321L18.1551 -0.842642L17.677 -0.353123L105.355 87.3205L105.844 86.8421L106.323 86.3528L18.6472 -1.321ZM1.33518 55.8394C1.5135 56.6853 1.7101 57.5256 1.92269 58.3628L46.6381 103.074C47.4756 103.29 48.3156 103.486 49.1615 103.662L1.33518 55.8394ZM1.18864 30.8699C1.08274 31.4125 0.978437 31.9576 0.885656 32.5027L72.4987 104.112C73.0437 104.018 73.5859 103.917 74.131 103.808L1.18864 30.8699ZM32.9819 -11.8102C32.5617 -11.5869 32.1443 -11.3607 31.7264 -11.1265L116.129 73.2736C116.363 72.8562 116.589 72.4391 116.812 72.019L32.9819 -11.8102ZM96.1446 -8.7684L113.771 8.85447C111.505 5.42744 108.862 2.17545 105.844 -0.842645C102.827 -3.85996 99.5744 -6.50338 96.1446 -8.7684ZM3.93838 21.2049C3.76029 21.6781 3.58982 22.1516 3.42511 22.6275L82.3713 101.575C82.8473 101.41 83.3229 101.24 83.7937 101.062L3.93838 21.2049ZM25.3533 -7.02696C24.9833 -6.75308 24.6165 -6.4737 24.2498 -6.1919L111.194 80.7506C111.476 80.3839 111.755 80.0166 112.026 79.6474L25.3533 -7.02696ZM12.8058 5.24885C12.5237 5.61639 12.2446 5.98313 11.9737 6.35507L98.6468 93.0267C99.016 92.7528 99.3857 92.4762 99.7498 92.1944L12.8058 5.24885ZM7.87055 12.7283C7.63912 13.1433 7.41067 13.5607 7.19015 13.9808L91.0182 97.8102C91.4383 97.5867 91.8584 97.3604 92.2729 97.1268L7.87055 12.7283Z" fill="white"/>
<path d="M74.8386 -17.6623L122.665 30.1603C122.487 29.3171 122.29 28.4742 122.077 27.6367L77.3647 -17.0748C76.5245 -17.2875 75.6842 -17.4843 74.8386 -17.6623ZM41.6288 -15.5751C41.1526 -15.4104 40.6793 -15.2375 40.2059 -15.0622L120.062 64.7949C120.24 64.3216 120.41 63.8482 120.575 63.3723L41.6288 -15.5751ZM62.0662 -19C61.7433 -19 61.4201 -18.9973 61.0969 -18.9918L123.994 43.9037C124.002 43.2579 124.002 42.612 123.992 41.9656L63.0358 -18.9918C62.7123 -18.9973 62.3894 -19 62.0662 -19ZM51.5036 -18.1121C50.9585 -18.0185 50.4134 -17.9178 49.8686 -17.8086L122.811 55.1298C122.917 54.587 123.021 54.0421 123.114 53.4971L51.5036 -18.1121ZM10.2293 77.1453C12.4946 80.5726 15.1378 83.8243 18.1551 86.8421C21.1734 89.8624 24.4278 92.5029 27.8552 94.7682L10.2293 77.1453ZM0.00565405 42.0983C-0.0022828 42.7446 -0.00228279 43.3904 0.00834571 44.0368L60.9643 104.992C61.3114 104.997 61.6589 105 62.0066 105C62.3049 105 62.6036 104.998 62.9024 104.994L0.00565405 42.0983ZM18.6472 -1.321L18.1551 -0.842642L17.677 -0.353123L105.355 87.3205L105.844 86.8421L106.323 86.3528L18.6472 -1.321ZM1.33518 55.8394C1.5135 56.6853 1.7101 57.5256 1.92269 58.3628L46.6381 103.074C47.4756 103.29 48.3156 103.486 49.1615 103.662L1.33518 55.8394ZM1.18864 30.8699C1.08274 31.4125 0.978437 31.9576 0.885656 32.5027L72.4987 104.112C73.0437 104.018 73.5859 103.917 74.131 103.808L1.18864 30.8699ZM32.9819 -11.8102C32.5617 -11.5869 32.1443 -11.3607 31.7264 -11.1265L116.129 73.2736C116.363 72.8562 116.589 72.4391 116.812 72.019L32.9819 -11.8102ZM96.1446 -8.7684L113.771 8.85447C111.505 5.42744 108.862 2.17545 105.844 -0.842645C102.827 -3.85996 99.5744 -6.50338 96.1446 -8.7684ZM3.93838 21.2049C3.76029 21.6781 3.58982 22.1516 3.42511 22.6275L82.3713 101.575C82.8473 101.41 83.3229 101.24 83.7937 101.062L3.93838 21.2049ZM25.3533 -7.02696C24.9833 -6.75308 24.6165 -6.4737 24.2498 -6.1919L111.194 80.7506C111.476 80.3839 111.755 80.0166 112.026 79.6474L25.3533 -7.02696ZM12.8058 5.24885C12.5237 5.61639 12.2446 5.98313 11.9737 6.35507L98.6468 93.0267C99.016 92.7528 99.3857 92.4762 99.7498 92.1944L12.8058 5.24885ZM7.87055 12.7283C7.63912 13.1433 7.41067 13.5607 7.19015 13.9808L91.0182 97.8102C91.4383 97.5867 91.8584 97.3604 92.2729 97.1268L7.87055 12.7283Z" fill="white"/>
</svg>
