<svg width="229" height="157" viewBox="0 0 229 157" fill="none" xmlns="http://www.w3.org/2000/svg">
<path d="M90.7901 2.47039L2.46606 90.788C2.79495 89.2308 3.15802 87.6741 3.55119 86.1274L86.1248 3.55545C87.6766 3.16266 89.2283 2.79919 90.7901 2.47039ZM152.121 6.32499C153.001 6.62919 153.874 6.94848 154.749 7.27227L7.27307 154.75C6.94427 153.876 6.63 153.002 6.32581 152.123L152.121 6.32499ZM114.378 0C114.974 0 115.571 0.00497094 116.168 0.0151252L0.0113068 116.169C-0.00436401 114.976 -0.00437927 113.783 0.0152588 112.59L112.587 0.0151252C113.185 0.00497094 113.781 0 114.378 0ZM133.884 1.63969C134.891 1.81265 135.898 1.99866 136.904 2.2003L2.19601 136.901C1.99944 135.898 1.80835 134.892 1.63644 133.886L133.884 1.63969ZM210.109 177.559C205.925 183.888 201.044 189.893 195.472 195.466C189.898 201.044 183.887 205.921 177.558 210.104L210.109 177.559ZM228.99 112.835C229.004 114.028 229.004 115.221 228.985 116.415L116.413 228.984C115.772 228.995 115.13 229 114.488 229C113.937 229 113.385 228.997 112.834 228.99L228.99 112.835ZM194.563 32.6491L195.472 33.5325L196.355 34.4366L34.4329 196.35L33.5298 195.466L32.6454 194.563L194.563 32.6491ZM226.534 138.211C226.205 139.774 225.842 141.325 225.449 142.872L142.87 225.444C141.323 225.842 139.772 226.205 138.21 226.529L226.534 138.211ZM226.805 92.0984C227 93.1006 227.193 94.1072 227.364 95.1139L95.1114 227.359C94.1047 227.187 93.1035 227.001 92.0969 226.799L226.805 92.0984ZM168.09 13.278C168.866 13.6903 169.637 14.1081 170.408 14.5405L14.536 170.408C14.104 169.638 13.6867 168.867 13.2738 168.092L168.09 13.278ZM51.4426 18.8955L18.8914 51.4409C23.0755 45.112 27.956 39.1063 33.5298 33.5325C39.1027 27.9602 45.1085 23.0784 51.4426 18.8955ZM221.727 74.2493C222.056 75.1232 222.37 75.9976 222.675 76.8766L76.8788 222.675C75.9998 222.37 75.1214 222.056 74.252 221.727L221.727 74.2493ZM182.178 22.1115C182.862 22.6173 183.539 23.1333 184.216 23.6537L23.6497 184.217C23.1294 183.54 22.6134 182.861 22.1125 182.18L182.178 22.1115ZM205.351 44.7822C205.872 45.4609 206.387 46.1382 206.887 46.8251L46.8216 206.888C46.1398 206.382 45.457 205.871 44.7847 205.351L205.351 44.7822ZM214.465 58.5951C214.892 59.3614 215.314 60.1322 215.721 60.908L60.9099 215.722C60.134 215.309 59.3582 214.891 58.5929 214.46L214.465 58.5951Z" fill="white"/>
<path d="M90.7901 2.47039L2.46606 90.788C2.79495 89.2308 3.15802 87.6741 3.55119 86.1274L86.1248 3.55545C87.6766 3.16266 89.2283 2.79919 90.7901 2.47039ZM152.121 6.32499C153.001 6.62919 153.874 6.94848 154.749 7.27227L7.27307 154.75C6.94427 153.876 6.63 153.002 6.32581 152.123L152.121 6.32499ZM114.378 0C114.974 0 115.571 0.00497094 116.168 0.0151252L0.0113068 116.169C-0.00436401 114.976 -0.00437927 113.783 0.0152588 112.59L112.587 0.0151252C113.185 0.00497094 113.781 0 114.378 0ZM133.884 1.63969C134.891 1.81265 135.898 1.99866 136.904 2.2003L2.19601 136.901C1.99944 135.898 1.80835 134.892 1.63644 133.886L133.884 1.63969ZM210.109 177.559C205.925 183.888 201.044 189.893 195.472 195.466C189.898 201.044 183.887 205.921 177.558 210.104L210.109 177.559ZM228.99 112.835C229.004 114.028 229.004 115.221 228.985 116.415L116.413 228.984C115.772 228.995 115.13 229 114.488 229C113.937 229 113.385 228.997 112.834 228.99L228.99 112.835ZM194.563 32.6491L195.472 33.5325L196.355 34.4366L34.4329 196.35L33.5298 195.466L32.6454 194.563L194.563 32.6491ZM226.534 138.211C226.205 139.774 225.842 141.325 225.449 142.872L142.87 225.444C141.323 225.842 139.772 226.205 138.21 226.529L226.534 138.211ZM226.805 92.0984C227 93.1006 227.193 94.1072 227.364 95.1139L95.1114 227.359C94.1047 227.187 93.1035 227.001 92.0969 226.799L226.805 92.0984ZM168.09 13.278C168.866 13.6903 169.637 14.1081 170.408 14.5405L14.536 170.408C14.104 169.638 13.6867 168.867 13.2738 168.092L168.09 13.278ZM51.4426 18.8955L18.8914 51.4409C23.0755 45.112 27.956 39.1063 33.5298 33.5325C39.1027 27.9602 45.1085 23.0784 51.4426 18.8955ZM221.727 74.2493C222.056 75.1232 222.37 75.9976 222.675 76.8766L76.8788 222.675C75.9998 222.37 75.1214 222.056 74.252 221.727L221.727 74.2493ZM182.178 22.1115C182.862 22.6173 183.539 23.1333 184.216 23.6537L23.6497 184.217C23.1294 183.54 22.6134 182.861 22.1125 182.18L182.178 22.1115ZM205.351 44.7822C205.872 45.4609 206.387 46.1382 206.887 46.8251L46.8216 206.888C46.1398 206.382 45.457 205.871 44.7847 205.351L205.351 44.7822ZM214.465 58.5951C214.892 59.3614 215.314 60.1322 215.721 60.908L60.9099 215.722C60.134 215.309 59.3582 214.891 58.5929 214.46L214.465 58.5951Z" fill="white"/>
<path d="M90.7901 2.47039L2.46606 90.788C2.79495 89.2308 3.15802 87.6741 3.55119 86.1274L86.1248 3.55545C87.6766 3.16266 89.2283 2.79919 90.7901 2.47039ZM152.121 6.32499C153.001 6.62919 153.874 6.94848 154.749 7.27227L7.27307 154.75C6.94427 153.876 6.63 153.002 6.32581 152.123L152.121 6.32499ZM114.378 0C114.974 0 115.571 0.00497094 116.168 0.0151252L0.0113068 116.169C-0.00436401 114.976 -0.00437927 113.783 0.0152588 112.59L112.587 0.0151252C113.185 0.00497094 113.781 0 114.378 0ZM133.884 1.63969C134.891 1.81265 135.898 1.99866 136.904 2.2003L2.19601 136.901C1.99944 135.898 1.80835 134.892 1.63644 133.886L133.884 1.63969ZM210.109 177.559C205.925 183.888 201.044 189.893 195.472 195.466C189.898 201.044 183.887 205.921 177.558 210.104L210.109 177.559ZM228.99 112.835C229.004 114.028 229.004 115.221 228.985 116.415L116.413 228.984C115.772 228.995 115.13 229 114.488 229C113.937 229 113.385 228.997 112.834 228.99L228.99 112.835ZM194.563 32.6491L195.472 33.5325L196.355 34.4366L34.4329 196.35L33.5298 195.466L32.6454 194.563L194.563 32.6491ZM226.534 138.211C226.205 139.774 225.842 141.325 225.449 142.872L142.87 225.444C141.323 225.842 139.772 226.205 138.21 226.529L226.534 138.211ZM226.805 92.0984C227 93.1006 227.193 94.1072 227.364 95.1139L95.1114 227.359C94.1047 227.187 93.1035 227.001 92.0969 226.799L226.805 92.0984ZM168.09 13.278C168.866 13.6903 169.637 14.1081 170.408 14.5405L14.536 170.408C14.104 169.638 13.6867 168.867 13.2738 168.092L168.09 13.278ZM51.4426 18.8955L18.8914 51.4409C23.0755 45.112 27.956 39.1063 33.5298 33.5325C39.1027 27.9602 45.1085 23.0784 51.4426 18.8955ZM221.727 74.2493C222.056 75.1232 222.37 75.9976 222.675 76.8766L76.8788 222.675C75.9998 222.37 75.1214 222.056 74.252 221.727L221.727 74.2493ZM182.178 22.1115C182.862 22.6173 183.539 23.1333 184.216 23.6537L23.6497 184.217C23.1294 183.54 22.6134 182.861 22.1125 182.18L182.178 22.1115ZM205.351 44.7822C205.872 45.4609 206.387 46.1382 206.887 46.8251L46.8216 206.888C46.1398 206.382 45.457 205.871 44.7847 205.351L205.351 44.7822ZM214.465 58.5951C214.892 59.3614 215.314 60.1322 215.721 60.908L60.9099 215.722C60.134 215.309 59.3582 214.891 58.5929 214.46L214.465 58.5951Z" fill="white"/>
<path d="M90.7901 2.47039L2.46606 90.788C2.79495 89.2308 3.15802 87.6741 3.55119 86.1274L86.1248 3.55545C87.6766 3.16266 89.2283 2.79919 90.7901 2.47039ZM152.121 6.32499C153.001 6.62919 153.874 6.94848 154.749 7.27227L7.27307 154.75C6.94427 153.876 6.63 153.002 6.32581 152.123L152.121 6.32499ZM114.378 0C114.974 0 115.571 0.00497094 116.168 0.0151252L0.0113068 116.169C-0.00436401 114.976 -0.00437927 113.783 0.0152588 112.59L112.587 0.0151252C113.185 0.00497094 113.781 0 114.378 0ZM133.884 1.63969C134.891 1.81265 135.898 1.99866 136.904 2.2003L2.19601 136.901C1.99944 135.898 1.80835 134.892 1.63644 133.886L133.884 1.63969ZM210.109 177.559C205.925 183.888 201.044 189.893 195.472 195.466C189.898 201.044 183.887 205.921 177.558 210.104L210.109 177.559ZM228.99 112.835C229.004 114.028 229.004 115.221 228.985 116.415L116.413 228.984C115.772 228.995 115.13 229 114.488 229C113.937 229 113.385 228.997 112.834 228.99L228.99 112.835ZM194.563 32.6491L195.472 33.5325L196.355 34.4366L34.4329 196.35L33.5298 195.466L32.6454 194.563L194.563 32.6491ZM226.534 138.211C226.205 139.774 225.842 141.325 225.449 142.872L142.87 225.444C141.323 225.842 139.772 226.205 138.21 226.529L226.534 138.211ZM226.805 92.0984C227 93.1006 227.193 94.1072 227.364 95.1139L95.1114 227.359C94.1047 227.187 93.1035 227.001 92.0969 226.799L226.805 92.0984ZM168.09 13.278C168.866 13.6903 169.637 14.1081 170.408 14.5405L14.536 170.408C14.104 169.638 13.6867 168.867 13.2738 168.092L168.09 13.278ZM51.4426 18.8955L18.8914 51.4409C23.0755 45.112 27.956 39.1063 33.5298 33.5325C39.1027 27.9602 45.1085 23.0784 51.4426 18.8955ZM221.727 74.2493C222.056 75.1232 222.37 75.9976 222.675 76.8766L76.8788 222.675C75.9998 222.37 75.1214 222.056 74.252 221.727L221.727 74.2493ZM182.178 22.1115C182.862 22.6173 183.539 23.1333 184.216 23.6537L23.6497 184.217C23.1294 183.54 22.6134 182.861 22.1125 182.18L182.178 22.1115ZM205.351 44.7822C205.872 45.4609 206.387 46.1382 206.887 46.8251L46.8216 206.888C46.1398 206.382 45.457 205.871 44.7847 205.351L205.351 44.7822ZM214.465 58.5951C214.892 59.3614 215.314 60.1322 215.721 60.908L60.9099 215.722C60.134 215.309 59.3582 214.891 58.5929 214.46L214.465 58.5951Z" fill="white"/>
<path d="M90.7901 2.47039L2.46606 90.788C2.79495 89.2308 3.15802 87.6741 3.55119 86.1274L86.1248 3.55545C87.6766 3.16266 89.2283 2.79919 90.7901 2.47039ZM152.121 6.32499C153.001 6.62919 153.874 6.94848 154.749 7.27227L7.27307 154.75C6.94427 153.876 6.63 153.002 6.32581 152.123L152.121 6.32499ZM114.378 0C114.974 0 115.571 0.00497094 116.168 0.0151252L0.0113068 116.169C-0.00436401 114.976 -0.00437927 113.783 0.0152588 112.59L112.587 0.0151252C113.185 0.00497094 113.781 0 114.378 0ZM133.884 1.63969C134.891 1.81265 135.898 1.99866 136.904 2.2003L2.19601 136.901C1.99944 135.898 1.80835 134.892 1.63644 133.886L133.884 1.63969ZM210.109 177.559C205.925 183.888 201.044 189.893 195.472 195.466C189.898 201.044 183.887 205.921 177.558 210.104L210.109 177.559ZM228.99 112.835C229.004 114.028 229.004 115.221 228.985 116.415L116.413 228.984C115.772 228.995 115.13 229 114.488 229C113.937 229 113.385 228.997 112.834 228.99L228.99 112.835ZM194.563 32.6491L195.472 33.5325L196.355 34.4366L34.4329 196.35L33.5298 195.466L32.6454 194.563L194.563 32.6491ZM226.534 138.211C226.205 139.774 225.842 141.325 225.449 142.872L142.87 225.444C141.323 225.842 139.772 226.205 138.21 226.529L226.534 138.211ZM226.805 92.0984C227 93.1006 227.193 94.1072 227.364 95.1139L95.1114 227.359C94.1047 227.187 93.1035 227.001 92.0969 226.799L226.805 92.0984ZM168.09 13.278C168.866 13.6903 169.637 14.1081 170.408 14.5405L14.536 170.408C14.104 169.638 13.6867 168.867 13.2738 168.092L168.09 13.278ZM51.4426 18.8955L18.8914 51.4409C23.0755 45.112 27.956 39.1063 33.5298 33.5325C39.1027 27.9602 45.1085 23.0784 51.4426 18.8955ZM221.727 74.2493C222.056 75.1232 222.37 75.9976 222.675 76.8766L76.8788 222.675C75.9998 222.37 75.1214 222.056 74.252 221.727L221.727 74.2493ZM182.178 22.1115C182.862 22.6173 183.539 23.1333 184.216 23.6537L23.6497 184.217C23.1294 183.54 22.6134 182.861 22.1125 182.18L182.178 22.1115ZM205.351 44.7822C205.872 45.4609 206.387 46.1382 206.887 46.8251L46.8216 206.888C46.1398 206.382 45.457 205.871 44.7847 205.351L205.351 44.7822ZM214.465 58.5951C214.892 59.3614 215.314 60.1322 215.721 60.908L60.9099 215.722C60.134 215.309 59.3582 214.891 58.5929 214.46L214.465 58.5951Z" fill="white"/>
<path d="M90.7901 2.47039L2.46606 90.788C2.79495 89.2308 3.15802 87.6741 3.55119 86.1274L86.1248 3.55545C87.6766 3.16266 89.2283 2.79919 90.7901 2.47039ZM152.121 6.32499C153.001 6.62919 153.874 6.94848 154.749 7.27227L7.27307 154.75C6.94427 153.876 6.63 153.002 6.32581 152.123L152.121 6.32499ZM114.378 0C114.974 0 115.571 0.00497094 116.168 0.0151252L0.0113068 116.169C-0.00436401 114.976 -0.00437927 113.783 0.0152588 112.59L112.587 0.0151252C113.185 0.00497094 113.781 0 114.378 0ZM133.884 1.63969C134.891 1.81265 135.898 1.99866 136.904 2.2003L2.19601 136.901C1.99944 135.898 1.80835 134.892 1.63644 133.886L133.884 1.63969ZM210.109 177.559C205.925 183.888 201.044 189.893 195.472 195.466C189.898 201.044 183.887 205.921 177.558 210.104L210.109 177.559ZM228.99 112.835C229.004 114.028 229.004 115.221 228.985 116.415L116.413 228.984C115.772 228.995 115.13 229 114.488 229C113.937 229 113.385 228.997 112.834 228.99L228.99 112.835ZM194.563 32.6491L195.472 33.5325L196.355 34.4366L34.4329 196.35L33.5298 195.466L32.6454 194.563L194.563 32.6491ZM226.534 138.211C226.205 139.774 225.842 141.325 225.449 142.872L142.87 225.444C141.323 225.842 139.772 226.205 138.21 226.529L226.534 138.211ZM226.805 92.0984C227 93.1006 227.193 94.1072 227.364 95.1139L95.1114 227.359C94.1047 227.187 93.1035 227.001 92.0969 226.799L226.805 92.0984ZM168.09 13.278C168.866 13.6903 169.637 14.1081 170.408 14.5405L14.536 170.408C14.104 169.638 13.6867 168.867 13.2738 168.092L168.09 13.278ZM51.4426 18.8955L18.8914 51.4409C23.0755 45.112 27.956 39.1063 33.5298 33.5325C39.1027 27.9602 45.1085 23.0784 51.4426 18.8955ZM221.727 74.2493C222.056 75.1232 222.37 75.9976 222.675 76.8766L76.8788 222.675C75.9998 222.37 75.1214 222.056 74.252 221.727L221.727 74.2493ZM182.178 22.1115C182.862 22.6173 183.539 23.1333 184.216 23.6537L23.6497 184.217C23.1294 183.54 22.6134 182.861 22.1125 182.18L182.178 22.1115ZM205.351 44.7822C205.872 45.4609 206.387 46.1382 206.887 46.8251L46.8216 206.888C46.1398 206.382 45.457 205.871 44.7847 205.351L205.351 44.7822ZM214.465 58.5951C214.892 59.3614 215.314 60.1322 215.721 60.908L60.9099 215.722C60.134 215.309 59.3582 214.891 58.5929 214.46L214.465 58.5951Z" fill="white"/>
<path d="M90.7901 2.47039L2.46606 90.788C2.79495 89.2308 3.15802 87.6741 3.55119 86.1274L86.1248 3.55545C87.6766 3.16266 89.2283 2.79919 90.7901 2.47039ZM152.121 6.32499C153.001 6.62919 153.874 6.94848 154.749 7.27227L7.27307 154.75C6.94427 153.876 6.63 153.002 6.32581 152.123L152.121 6.32499ZM114.378 0C114.974 0 115.571 0.00497094 116.168 0.0151252L0.0113068 116.169C-0.00436401 114.976 -0.00437927 113.783 0.0152588 112.59L112.587 0.0151252C113.185 0.00497094 113.781 0 114.378 0ZM133.884 1.63969C134.891 1.81265 135.898 1.99866 136.904 2.2003L2.19601 136.901C1.99944 135.898 1.80835 134.892 1.63644 133.886L133.884 1.63969ZM210.109 177.559C205.925 183.888 201.044 189.893 195.472 195.466C189.898 201.044 183.887 205.921 177.558 210.104L210.109 177.559ZM228.99 112.835C229.004 114.028 229.004 115.221 228.985 116.415L116.413 228.984C115.772 228.995 115.13 229 114.488 229C113.937 229 113.385 228.997 112.834 228.99L228.99 112.835ZM194.563 32.6491L195.472 33.5325L196.355 34.4366L34.4329 196.35L33.5298 195.466L32.6454 194.563L194.563 32.6491ZM226.534 138.211C226.205 139.774 225.842 141.325 225.449 142.872L142.87 225.444C141.323 225.842 139.772 226.205 138.21 226.529L226.534 138.211ZM226.805 92.0984C227 93.1006 227.193 94.1072 227.364 95.1139L95.1114 227.359C94.1047 227.187 93.1035 227.001 92.0969 226.799L226.805 92.0984ZM168.09 13.278C168.866 13.6903 169.637 14.1081 170.408 14.5405L14.536 170.408C14.104 169.638 13.6867 168.867 13.2738 168.092L168.09 13.278ZM51.4426 18.8955L18.8914 51.4409C23.0755 45.112 27.956 39.1063 33.5298 33.5325C39.1027 27.9602 45.1085 23.0784 51.4426 18.8955ZM221.727 74.2493C222.056 75.1232 222.37 75.9976 222.675 76.8766L76.8788 222.675C75.9998 222.37 75.1214 222.056 74.252 221.727L221.727 74.2493ZM182.178 22.1115C182.862 22.6173 183.539 23.1333 184.216 23.6537L23.6497 184.217C23.1294 183.54 22.6134 182.861 22.1125 182.18L182.178 22.1115ZM205.351 44.7822C205.872 45.4609 206.387 46.1382 206.887 46.8251L46.8216 206.888C46.1398 206.382 45.457 205.871 44.7847 205.351L205.351 44.7822ZM214.465 58.5951C214.892 59.3614 215.314 60.1322 215.721 60.908L60.9099 215.722C60.134 215.309 59.3582 214.891 58.5929 214.46L214.465 58.5951Z" fill="white"/>
<path d="M90.7901 2.47039L2.46606 90.788C2.79495 89.2308 3.15802 87.6741 3.55119 86.1274L86.1248 3.55545C87.6766 3.16266 89.2283 2.79919 90.7901 2.47039ZM152.121 6.32499C153.001 6.62919 153.874 6.94848 154.749 7.27227L7.27307 154.75C6.94427 153.876 6.63 153.002 6.32581 152.123L152.121 6.32499ZM114.378 0C114.974 0 115.571 0.00497094 116.168 0.0151252L0.0113068 116.169C-0.00436401 114.976 -0.00437927 113.783 0.0152588 112.59L112.587 0.0151252C113.185 0.00497094 113.781 0 114.378 0ZM133.884 1.63969C134.891 1.81265 135.898 1.99866 136.904 2.2003L2.19601 136.901C1.99944 135.898 1.80835 134.892 1.63644 133.886L133.884 1.63969ZM210.109 177.559C205.925 183.888 201.044 189.893 195.472 195.466C189.898 201.044 183.887 205.921 177.558 210.104L210.109 177.559ZM228.99 112.835C229.004 114.028 229.004 115.221 228.985 116.415L116.413 228.984C115.772 228.995 115.13 229 114.488 229C113.937 229 113.385 228.997 112.834 228.99L228.99 112.835ZM194.563 32.6491L195.472 33.5325L196.355 34.4366L34.4329 196.35L33.5298 195.466L32.6454 194.563L194.563 32.6491ZM226.534 138.211C226.205 139.774 225.842 141.325 225.449 142.872L142.87 225.444C141.323 225.842 139.772 226.205 138.21 226.529L226.534 138.211ZM226.805 92.0984C227 93.1006 227.193 94.1072 227.364 95.1139L95.1114 227.359C94.1047 227.187 93.1035 227.001 92.0969 226.799L226.805 92.0984ZM168.09 13.278C168.866 13.6903 169.637 14.1081 170.408 14.5405L14.536 170.408C14.104 169.638 13.6867 168.867 13.2738 168.092L168.09 13.278ZM51.4426 18.8955L18.8914 51.4409C23.0755 45.112 27.956 39.1063 33.5298 33.5325C39.1027 27.9602 45.1085 23.0784 51.4426 18.8955ZM221.727 74.2493C222.056 75.1232 222.37 75.9976 222.675 76.8766L76.8788 222.675C75.9998 222.37 75.1214 222.056 74.252 221.727L221.727 74.2493ZM182.178 22.1115C182.862 22.6173 183.539 23.1333 184.216 23.6537L23.6497 184.217C23.1294 183.54 22.6134 182.861 22.1125 182.18L182.178 22.1115ZM205.351 44.7822C205.872 45.4609 206.387 46.1382 206.887 46.8251L46.8216 206.888C46.1398 206.382 45.457 205.871 44.7847 205.351L205.351 44.7822ZM214.465 58.5951C214.892 59.3614 215.314 60.1322 215.721 60.908L60.9099 215.722C60.134 215.309 59.3582 214.891 58.5929 214.46L214.465 58.5951Z" fill="white"/>
<path d="M90.7901 2.47039L2.46606 90.788C2.79495 89.2308 3.15802 87.6741 3.55119 86.1274L86.1248 3.55545C87.6766 3.16266 89.2283 2.79919 90.7901 2.47039ZM152.121 6.32499C153.001 6.62919 153.874 6.94848 154.749 7.27227L7.27307 154.75C6.94427 153.876 6.63 153.002 6.32581 152.123L152.121 6.32499ZM114.378 0C114.974 0 115.571 0.00497094 116.168 0.0151252L0.0113068 116.169C-0.00436401 114.976 -0.00437927 113.783 0.0152588 112.59L112.587 0.0151252C113.185 0.00497094 113.781 0 114.378 0ZM133.884 1.63969C134.891 1.81265 135.898 1.99866 136.904 2.2003L2.19601 136.901C1.99944 135.898 1.80835 134.892 1.63644 133.886L133.884 1.63969ZM210.109 177.559C205.925 183.888 201.044 189.893 195.472 195.466C189.898 201.044 183.887 205.921 177.558 210.104L210.109 177.559ZM228.99 112.835C229.004 114.028 229.004 115.221 228.985 116.415L116.413 228.984C115.772 228.995 115.13 229 114.488 229C113.937 229 113.385 228.997 112.834 228.99L228.99 112.835ZM194.563 32.6491L195.472 33.5325L196.355 34.4366L34.4329 196.35L33.5298 195.466L32.6454 194.563L194.563 32.6491ZM226.534 138.211C226.205 139.774 225.842 141.325 225.449 142.872L142.87 225.444C141.323 225.842 139.772 226.205 138.21 226.529L226.534 138.211ZM226.805 92.0984C227 93.1006 227.193 94.1072 227.364 95.1139L95.1114 227.359C94.1047 227.187 93.1035 227.001 92.0969 226.799L226.805 92.0984ZM168.09 13.278C168.866 13.6903 169.637 14.1081 170.408 14.5405L14.536 170.408C14.104 169.638 13.6867 168.867 13.2738 168.092L168.09 13.278ZM51.4426 18.8955L18.8914 51.4409C23.0755 45.112 27.956 39.1063 33.5298 33.5325C39.1027 27.9602 45.1085 23.0784 51.4426 18.8955ZM221.727 74.2493C222.056 75.1232 222.37 75.9976 222.675 76.8766L76.8788 222.675C75.9998 222.37 75.1214 222.056 74.252 221.727L221.727 74.2493ZM182.178 22.1115C182.862 22.6173 183.539 23.1333 184.216 23.6537L23.6497 184.217C23.1294 183.54 22.6134 182.861 22.1125 182.18L182.178 22.1115ZM205.351 44.7822C205.872 45.4609 206.387 46.1382 206.887 46.8251L46.8216 206.888C46.1398 206.382 45.457 205.871 44.7847 205.351L205.351 44.7822ZM214.465 58.5951C214.892 59.3614 215.314 60.1322 215.721 60.908L60.9099 215.722C60.134 215.309 59.3582 214.891 58.5929 214.46L214.465 58.5951Z" fill="white"/>
<path d="M90.7901 2.47039L2.46606 90.788C2.79495 89.2308 3.15802 87.6741 3.55119 86.1274L86.1248 3.55545C87.6766 3.16266 89.2283 2.79919 90.7901 2.47039ZM152.121 6.32499C153.001 6.62919 153.874 6.94848 154.749 7.27227L7.27307 154.75C6.94427 153.876 6.63 153.002 6.32581 152.123L152.121 6.32499ZM114.378 0C114.974 0 115.571 0.00497094 116.168 0.0151252L0.0113068 116.169C-0.00436401 114.976 -0.00437927 113.783 0.0152588 112.59L112.587 0.0151252C113.185 0.00497094 113.781 0 114.378 0ZM133.884 1.63969C134.891 1.81265 135.898 1.99866 136.904 2.2003L2.19601 136.901C1.99944 135.898 1.80835 134.892 1.63644 133.886L133.884 1.63969ZM210.109 177.559C205.925 183.888 201.044 189.893 195.472 195.466C189.898 201.044 183.887 205.921 177.558 210.104L210.109 177.559ZM228.99 112.835C229.004 114.028 229.004 115.221 228.985 116.415L116.413 228.984C115.772 228.995 115.13 229 114.488 229C113.937 229 113.385 228.997 112.834 228.99L228.99 112.835ZM194.563 32.6491L195.472 33.5325L196.355 34.4366L34.4329 196.35L33.5298 195.466L32.6454 194.563L194.563 32.6491ZM226.534 138.211C226.205 139.774 225.842 141.325 225.449 142.872L142.87 225.444C141.323 225.842 139.772 226.205 138.21 226.529L226.534 138.211ZM226.805 92.0984C227 93.1006 227.193 94.1072 227.364 95.1139L95.1114 227.359C94.1047 227.187 93.1035 227.001 92.0969 226.799L226.805 92.0984ZM168.09 13.278C168.866 13.6903 169.637 14.1081 170.408 14.5405L14.536 170.408C14.104 169.638 13.6867 168.867 13.2738 168.092L168.09 13.278ZM51.4426 18.8955L18.8914 51.4409C23.0755 45.112 27.956 39.1063 33.5298 33.5325C39.1027 27.9602 45.1085 23.0784 51.4426 18.8955ZM221.727 74.2493C222.056 75.1232 222.37 75.9976 222.675 76.8766L76.8788 222.675C75.9998 222.37 75.1214 222.056 74.252 221.727L221.727 74.2493ZM182.178 22.1115C182.862 22.6173 183.539 23.1333 184.216 23.6537L23.6497 184.217C23.1294 183.54 22.6134 182.861 22.1125 182.18L182.178 22.1115ZM205.351 44.7822C205.872 45.4609 206.387 46.1382 206.887 46.8251L46.8216 206.888C46.1398 206.382 45.457 205.871 44.7847 205.351L205.351 44.7822ZM214.465 58.5951C214.892 59.3614 215.314 60.1322 215.721 60.908L60.9099 215.722C60.134 215.309 59.3582 214.891 58.5929 214.46L214.465 58.5951Z" fill="white"/>
<path d="M90.7901 2.47039L2.46606 90.788C2.79495 89.2308 3.15802 87.6741 3.55119 86.1274L86.1248 3.55545C87.6766 3.16266 89.2283 2.79919 90.7901 2.47039ZM152.121 6.32499C153.001 6.62919 153.874 6.94848 154.749 7.27227L7.27307 154.75C6.94427 153.876 6.63 153.002 6.32581 152.123L152.121 6.32499ZM114.378 0C114.974 0 115.571 0.00497094 116.168 0.0151252L0.0113068 116.169C-0.00436401 114.976 -0.00437927 113.783 0.0152588 112.59L112.587 0.0151252C113.185 0.00497094 113.781 0 114.378 0ZM133.884 1.63969C134.891 1.81265 135.898 1.99866 136.904 2.2003L2.19601 136.901C1.99944 135.898 1.80835 134.892 1.63644 133.886L133.884 1.63969ZM210.109 177.559C205.925 183.888 201.044 189.893 195.472 195.466C189.898 201.044 183.887 205.921 177.558 210.104L210.109 177.559ZM228.99 112.835C229.004 114.028 229.004 115.221 228.985 116.415L116.413 228.984C115.772 228.995 115.13 229 114.488 229C113.937 229 113.385 228.997 112.834 228.99L228.99 112.835ZM194.563 32.6491L195.472 33.5325L196.355 34.4366L34.4329 196.35L33.5298 195.466L32.6454 194.563L194.563 32.6491ZM226.534 138.211C226.205 139.774 225.842 141.325 225.449 142.872L142.87 225.444C141.323 225.842 139.772 226.205 138.21 226.529L226.534 138.211ZM226.805 92.0984C227 93.1006 227.193 94.1072 227.364 95.1139L95.1114 227.359C94.1047 227.187 93.1035 227.001 92.0969 226.799L226.805 92.0984ZM168.09 13.278C168.866 13.6903 169.637 14.1081 170.408 14.5405L14.536 170.408C14.104 169.638 13.6867 168.867 13.2738 168.092L168.09 13.278ZM51.4426 18.8955L18.8914 51.4409C23.0755 45.112 27.956 39.1063 33.5298 33.5325C39.1027 27.9602 45.1085 23.0784 51.4426 18.8955ZM221.727 74.2493C222.056 75.1232 222.37 75.9976 222.675 76.8766L76.8788 222.675C75.9998 222.37 75.1214 222.056 74.252 221.727L221.727 74.2493ZM182.178 22.1115C182.862 22.6173 183.539 23.1333 184.216 23.6537L23.6497 184.217C23.1294 183.54 22.6134 182.861 22.1125 182.18L182.178 22.1115ZM205.351 44.7822C205.872 45.4609 206.387 46.1382 206.887 46.8251L46.8216 206.888C46.1398 206.382 45.457 205.871 44.7847 205.351L205.351 44.7822ZM214.465 58.5951C214.892 59.3614 215.314 60.1322 215.721 60.908L60.9099 215.722C60.134 215.309 59.3582 214.891 58.5929 214.46L214.465 58.5951Z" fill="white"/>
<path d="M90.7901 2.47039L2.46606 90.788C2.79495 89.2308 3.15802 87.6741 3.55119 86.1274L86.1248 3.55545C87.6766 3.16266 89.2283 2.79919 90.7901 2.47039ZM152.121 6.32499C153.001 6.62919 153.874 6.94848 154.749 7.27227L7.27307 154.75C6.94427 153.876 6.63 153.002 6.32581 152.123L152.121 6.32499ZM114.378 0C114.974 0 115.571 0.00497094 116.168 0.0151252L0.0113068 116.169C-0.00436401 114.976 -0.00437927 113.783 0.0152588 112.59L112.587 0.0151252C113.185 0.00497094 113.781 0 114.378 0ZM133.884 1.63969C134.891 1.81265 135.898 1.99866 136.904 2.2003L2.19601 136.901C1.99944 135.898 1.80835 134.892 1.63644 133.886L133.884 1.63969ZM210.109 177.559C205.925 183.888 201.044 189.893 195.472 195.466C189.898 201.044 183.887 205.921 177.558 210.104L210.109 177.559ZM228.99 112.835C229.004 114.028 229.004 115.221 228.985 116.415L116.413 228.984C115.772 228.995 115.13 229 114.488 229C113.937 229 113.385 228.997 112.834 228.99L228.99 112.835ZM194.563 32.6491L195.472 33.5325L196.355 34.4366L34.4329 196.35L33.5298 195.466L32.6454 194.563L194.563 32.6491ZM226.534 138.211C226.205 139.774 225.842 141.325 225.449 142.872L142.87 225.444C141.323 225.842 139.772 226.205 138.21 226.529L226.534 138.211ZM226.805 92.0984C227 93.1006 227.193 94.1072 227.364 95.1139L95.1114 227.359C94.1047 227.187 93.1035 227.001 92.0969 226.799L226.805 92.0984ZM168.09 13.278C168.866 13.6903 169.637 14.1081 170.408 14.5405L14.536 170.408C14.104 169.638 13.6867 168.867 13.2738 168.092L168.09 13.278ZM51.4426 18.8955L18.8914 51.4409C23.0755 45.112 27.956 39.1063 33.5298 33.5325C39.1027 27.9602 45.1085 23.0784 51.4426 18.8955ZM221.727 74.2493C222.056 75.1232 222.37 75.9976 222.675 76.8766L76.8788 222.675C75.9998 222.37 75.1214 222.056 74.252 221.727L221.727 74.2493ZM182.178 22.1115C182.862 22.6173 183.539 23.1333 184.216 23.6537L23.6497 184.217C23.1294 183.54 22.6134 182.861 22.1125 182.18L182.178 22.1115ZM205.351 44.7822C205.872 45.4609 206.387 46.1382 206.887 46.8251L46.8216 206.888C46.1398 206.382 45.457 205.871 44.7847 205.351L205.351 44.7822ZM214.465 58.5951C214.892 59.3614 215.314 60.1322 215.721 60.908L60.9099 215.722C60.134 215.309 59.3582 214.891 58.5929 214.46L214.465 58.5951Z" fill="white"/>
<path d="M90.7901 2.47039L2.46606 90.788C2.79495 89.2308 3.15802 87.6741 3.55119 86.1274L86.1248 3.55545C87.6766 3.16266 89.2283 2.79919 90.7901 2.47039ZM152.121 6.32499C153.001 6.62919 153.874 6.94848 154.749 7.27227L7.27307 154.75C6.94427 153.876 6.63 153.002 6.32581 152.123L152.121 6.32499ZM114.378 0C114.974 0 115.571 0.00497094 116.168 0.0151252L0.0113068 116.169C-0.00436401 114.976 -0.00437927 113.783 0.0152588 112.59L112.587 0.0151252C113.185 0.00497094 113.781 0 114.378 0ZM133.884 1.63969C134.891 1.81265 135.898 1.99866 136.904 2.2003L2.19601 136.901C1.99944 135.898 1.80835 134.892 1.63644 133.886L133.884 1.63969ZM210.109 177.559C205.925 183.888 201.044 189.893 195.472 195.466C189.898 201.044 183.887 205.921 177.558 210.104L210.109 177.559ZM228.99 112.835C229.004 114.028 229.004 115.221 228.985 116.415L116.413 228.984C115.772 228.995 115.13 229 114.488 229C113.937 229 113.385 228.997 112.834 228.99L228.99 112.835ZM194.563 32.6491L195.472 33.5325L196.355 34.4366L34.4329 196.35L33.5298 195.466L32.6454 194.563L194.563 32.6491ZM226.534 138.211C226.205 139.774 225.842 141.325 225.449 142.872L142.87 225.444C141.323 225.842 139.772 226.205 138.21 226.529L226.534 138.211ZM226.805 92.0984C227 93.1006 227.193 94.1072 227.364 95.1139L95.1114 227.359C94.1047 227.187 93.1035 227.001 92.0969 226.799L226.805 92.0984ZM168.09 13.278C168.866 13.6903 169.637 14.1081 170.408 14.5405L14.536 170.408C14.104 169.638 13.6867 168.867 13.2738 168.092L168.09 13.278ZM51.4426 18.8955L18.8914 51.4409C23.0755 45.112 27.956 39.1063 33.5298 33.5325C39.1027 27.9602 45.1085 23.0784 51.4426 18.8955ZM221.727 74.2493C222.056 75.1232 222.37 75.9976 222.675 76.8766L76.8788 222.675C75.9998 222.37 75.1214 222.056 74.252 221.727L221.727 74.2493ZM182.178 22.1115C182.862 22.6173 183.539 23.1333 184.216 23.6537L23.6497 184.217C23.1294 183.54 22.6134 182.861 22.1125 182.18L182.178 22.1115ZM205.351 44.7822C205.872 45.4609 206.387 46.1382 206.887 46.8251L46.8216 206.888C46.1398 206.382 45.457 205.871 44.7847 205.351L205.351 44.7822ZM214.465 58.5951C214.892 59.3614 215.314 60.1322 215.721 60.908L60.9099 215.722C60.134 215.309 59.3582 214.891 58.5929 214.46L214.465 58.5951Z" fill="white"/>
<path d="M90.7901 2.47039L2.46606 90.788C2.79495 89.2308 3.15802 87.6741 3.55119 86.1274L86.1248 3.55545C87.6766 3.16266 89.2283 2.79919 90.7901 2.47039ZM152.121 6.32499C153.001 6.62919 153.874 6.94848 154.749 7.27227L7.27307 154.75C6.94427 153.876 6.63 153.002 6.32581 152.123L152.121 6.32499ZM114.378 0C114.974 0 115.571 0.00497094 116.168 0.0151252L0.0113068 116.169C-0.00436401 114.976 -0.00437927 113.783 0.0152588 112.59L112.587 0.0151252C113.185 0.00497094 113.781 0 114.378 0ZM133.884 1.63969C134.891 1.81265 135.898 1.99866 136.904 2.2003L2.19601 136.901C1.99944 135.898 1.80835 134.892 1.63644 133.886L133.884 1.63969ZM210.109 177.559C205.925 183.888 201.044 189.893 195.472 195.466C189.898 201.044 183.887 205.921 177.558 210.104L210.109 177.559ZM228.99 112.835C229.004 114.028 229.004 115.221 228.985 116.415L116.413 228.984C115.772 228.995 115.13 229 114.488 229C113.937 229 113.385 228.997 112.834 228.99L228.99 112.835ZM194.563 32.6491L195.472 33.5325L196.355 34.4366L34.4329 196.35L33.5298 195.466L32.6454 194.563L194.563 32.6491ZM226.534 138.211C226.205 139.774 225.842 141.325 225.449 142.872L142.87 225.444C141.323 225.842 139.772 226.205 138.21 226.529L226.534 138.211ZM226.805 92.0984C227 93.1006 227.193 94.1072 227.364 95.1139L95.1114 227.359C94.1047 227.187 93.1035 227.001 92.0969 226.799L226.805 92.0984ZM168.09 13.278C168.866 13.6903 169.637 14.1081 170.408 14.5405L14.536 170.408C14.104 169.638 13.6867 168.867 13.2738 168.092L168.09 13.278ZM51.4426 18.8955L18.8914 51.4409C23.0755 45.112 27.956 39.1063 33.5298 33.5325C39.1027 27.9602 45.1085 23.0784 51.4426 18.8955ZM221.727 74.2493C222.056 75.1232 222.37 75.9976 222.675 76.8766L76.8788 222.675C75.9998 222.37 75.1214 222.056 74.252 221.727L221.727 74.2493ZM182.178 22.1115C182.862 22.6173 183.539 23.1333 184.216 23.6537L23.6497 184.217C23.1294 183.54 22.6134 182.861 22.1125 182.18L182.178 22.1115ZM205.351 44.7822C205.872 45.4609 206.387 46.1382 206.887 46.8251L46.8216 206.888C46.1398 206.382 45.457 205.871 44.7847 205.351L205.351 44.7822ZM214.465 58.5951C214.892 59.3614 215.314 60.1322 215.721 60.908L60.9099 215.722C60.134 215.309 59.3582 214.891 58.5929 214.46L214.465 58.5951Z" fill="white"/>
<path d="M90.7901 2.47039L2.46606 90.788C2.79495 89.2308 3.15802 87.6741 3.55119 86.1274L86.1248 3.55545C87.6766 3.16266 89.2283 2.79919 90.7901 2.47039ZM152.121 6.32499C153.001 6.62919 153.874 6.94848 154.749 7.27227L7.27307 154.75C6.94427 153.876 6.63 153.002 6.32581 152.123L152.121 6.32499ZM114.378 0C114.974 0 115.571 0.00497094 116.168 0.0151252L0.0113068 116.169C-0.00436401 114.976 -0.00437927 113.783 0.0152588 112.59L112.587 0.0151252C113.185 0.00497094 113.781 0 114.378 0ZM133.884 1.63969C134.891 1.81265 135.898 1.99866 136.904 2.2003L2.19601 136.901C1.99944 135.898 1.80835 134.892 1.63644 133.886L133.884 1.63969ZM210.109 177.559C205.925 183.888 201.044 189.893 195.472 195.466C189.898 201.044 183.887 205.921 177.558 210.104L210.109 177.559ZM228.99 112.835C229.004 114.028 229.004 115.221 228.985 116.415L116.413 228.984C115.772 228.995 115.13 229 114.488 229C113.937 229 113.385 228.997 112.834 228.99L228.99 112.835ZM194.563 32.6491L195.472 33.5325L196.355 34.4366L34.4329 196.35L33.5298 195.466L32.6454 194.563L194.563 32.6491ZM226.534 138.211C226.205 139.774 225.842 141.325 225.449 142.872L142.87 225.444C141.323 225.842 139.772 226.205 138.21 226.529L226.534 138.211ZM226.805 92.0984C227 93.1006 227.193 94.1072 227.364 95.1139L95.1114 227.359C94.1047 227.187 93.1035 227.001 92.0969 226.799L226.805 92.0984ZM168.09 13.278C168.866 13.6903 169.637 14.1081 170.408 14.5405L14.536 170.408C14.104 169.638 13.6867 168.867 13.2738 168.092L168.09 13.278ZM51.4426 18.8955L18.8914 51.4409C23.0755 45.112 27.956 39.1063 33.5298 33.5325C39.1027 27.9602 45.1085 23.0784 51.4426 18.8955ZM221.727 74.2493C222.056 75.1232 222.37 75.9976 222.675 76.8766L76.8788 222.675C75.9998 222.37 75.1214 222.056 74.252 221.727L221.727 74.2493ZM182.178 22.1115C182.862 22.6173 183.539 23.1333 184.216 23.6537L23.6497 184.217C23.1294 183.54 22.6134 182.861 22.1125 182.18L182.178 22.1115ZM205.351 44.7822C205.872 45.4609 206.387 46.1382 206.887 46.8251L46.8216 206.888C46.1398 206.382 45.457 205.871 44.7847 205.351L205.351 44.7822ZM214.465 58.5951C214.892 59.3614 215.314 60.1322 215.721 60.908L60.9099 215.722C60.134 215.309 59.3582 214.891 58.5929 214.46L214.465 58.5951Z" fill="white"/>
</svg>
