<svg width="54" height="124" viewBox="0 0 54 124" fill="none" xmlns="http://www.w3.org/2000/svg">
<path d="M74.8386 1.33768L122.665 49.1603C122.487 48.3171 122.29 47.4742 122.077 46.6367L77.3647 1.92522C76.5245 1.71253 75.6842 1.51572 74.8386 1.33768ZM41.6288 3.42488C41.1526 3.58961 40.6793 3.76249 40.2059 3.93782L120.062 83.7949C120.24 83.3216 120.41 82.8482 120.575 82.3723L41.6288 3.42488ZM62.0662 0C61.7433 0 61.4201 0.00269169 61.0969 0.00819009L123.994 62.9037C124.002 62.2579 124.002 61.612 123.992 60.9656L63.0358 0.00819009C62.7123 0.00269169 62.3894 0 62.0662 0ZM51.5036 0.887865C50.9585 0.981522 50.4134 1.08224 49.8686 1.19143L122.811 74.1298C122.917 73.587 123.021 73.0421 123.114 72.4971L51.5036 0.887865ZM10.2292 96.1453C12.4946 99.5726 15.1378 102.824 18.1551 105.842C21.1734 108.862 24.4278 111.503 27.8552 113.768L10.2292 96.1453ZM0.0056529 61.0983C-0.00228395 61.7446 -0.00228396 62.3904 0.00834454 63.0368L60.9643 123.992C61.3114 123.997 61.6589 124 62.0066 124C62.3049 124 62.6036 123.998 62.9024 123.994L0.0056529 61.0983ZM18.6472 17.679L18.1551 18.1574L17.677 18.6469L105.355 106.32L105.844 105.842L106.323 105.353L18.6472 17.679ZM1.33518 74.8394C1.5135 75.6853 1.7101 76.5256 1.92269 77.3628L46.6381 122.074C47.4756 122.29 48.3155 122.486 49.1615 122.662L1.33518 74.8394ZM1.18864 49.8699C1.08274 50.4125 0.978436 50.9576 0.885655 51.5027L72.4987 123.112C73.0437 123.018 73.5859 122.917 74.131 122.808L1.18864 49.8699ZM32.9819 7.18984C32.5617 7.41307 32.1443 7.63931 31.7264 7.87346L116.129 92.2736C116.363 91.8562 116.589 91.4391 116.812 91.019L32.9819 7.18984ZM96.1446 10.2316L113.771 27.8545C111.505 24.4274 108.862 21.1755 105.844 18.1574C102.827 15.14 99.5744 12.4966 96.1446 10.2316ZM3.93838 40.2049C3.76029 40.6781 3.58982 41.1516 3.42511 41.6275L82.3713 120.575C82.8473 120.41 83.3229 120.24 83.7937 120.062L3.93838 40.2049ZM25.3533 11.973C24.9833 12.2469 24.6165 12.5263 24.2498 12.8081L111.194 99.7506C111.476 99.3839 111.755 99.0166 112.026 98.6474L25.3533 11.973ZM12.8058 24.2489C12.5237 24.6164 12.2446 24.9831 11.9737 25.3551L98.6468 112.027C99.016 111.753 99.3857 111.476 99.7498 111.194L12.8058 24.2489ZM7.87055 31.7283C7.63912 32.1433 7.41067 32.5607 7.19014 32.9808L91.0182 116.81C91.4383 116.587 91.8584 116.36 92.2729 116.127L7.87055 31.7283Z" fill="#1B5076"/>
<path d="M74.8386 1.33768L122.665 49.1603C122.487 48.3171 122.29 47.4742 122.077 46.6367L77.3647 1.92522C76.5245 1.71253 75.6842 1.51572 74.8386 1.33768ZM41.6288 3.42488C41.1526 3.58961 40.6793 3.76249 40.2059 3.93782L120.062 83.7949C120.24 83.3216 120.41 82.8482 120.575 82.3723L41.6288 3.42488ZM62.0662 0C61.7433 0 61.4201 0.00269169 61.0969 0.00819009L123.994 62.9037C124.002 62.2579 124.002 61.612 123.992 60.9656L63.0358 0.00819009C62.7123 0.00269169 62.3894 0 62.0662 0ZM51.5036 0.887865C50.9585 0.981522 50.4134 1.08224 49.8686 1.19143L122.811 74.1298C122.917 73.587 123.021 73.0421 123.114 72.4971L51.5036 0.887865ZM10.2292 96.1453C12.4946 99.5726 15.1378 102.824 18.1551 105.842C21.1734 108.862 24.4278 111.503 27.8552 113.768L10.2292 96.1453ZM0.0056529 61.0983C-0.00228395 61.7446 -0.00228396 62.3904 0.00834454 63.0368L60.9643 123.992C61.3114 123.997 61.6589 124 62.0066 124C62.3049 124 62.6036 123.998 62.9024 123.994L0.0056529 61.0983ZM18.6472 17.679L18.1551 18.1574L17.677 18.6469L105.355 106.32L105.844 105.842L106.323 105.353L18.6472 17.679ZM1.33518 74.8394C1.5135 75.6853 1.7101 76.5256 1.92269 77.3628L46.6381 122.074C47.4756 122.29 48.3155 122.486 49.1615 122.662L1.33518 74.8394ZM1.18864 49.8699C1.08274 50.4125 0.978436 50.9576 0.885655 51.5027L72.4987 123.112C73.0437 123.018 73.5859 122.917 74.131 122.808L1.18864 49.8699ZM32.9819 7.18984C32.5617 7.41307 32.1443 7.63931 31.7264 7.87346L116.129 92.2736C116.363 91.8562 116.589 91.4391 116.812 91.019L32.9819 7.18984ZM96.1446 10.2316L113.771 27.8545C111.505 24.4274 108.862 21.1755 105.844 18.1574C102.827 15.14 99.5744 12.4966 96.1446 10.2316ZM3.93838 40.2049C3.76029 40.6781 3.58982 41.1516 3.42511 41.6275L82.3713 120.575C82.8473 120.41 83.3229 120.24 83.7937 120.062L3.93838 40.2049ZM25.3533 11.973C24.9833 12.2469 24.6165 12.5263 24.2498 12.8081L111.194 99.7506C111.476 99.3839 111.755 99.0166 112.026 98.6474L25.3533 11.973ZM12.8058 24.2489C12.5237 24.6164 12.2446 24.9831 11.9737 25.3551L98.6468 112.027C99.016 111.753 99.3857 111.476 99.7498 111.194L12.8058 24.2489ZM7.87055 31.7283C7.63912 32.1433 7.41067 32.5607 7.19014 32.9808L91.0182 116.81C91.4383 116.587 91.8584 116.36 92.2729 116.127L7.87055 31.7283Z" fill="#1B5076"/>
<path d="M74.8386 1.33768L122.665 49.1603C122.487 48.3171 122.29 47.4742 122.077 46.6367L77.3647 1.92522C76.5245 1.71253 75.6842 1.51572 74.8386 1.33768ZM41.6288 3.42488C41.1526 3.58961 40.6793 3.76249 40.2059 3.93782L120.062 83.7949C120.24 83.3216 120.41 82.8482 120.575 82.3723L41.6288 3.42488ZM62.0662 0C61.7433 0 61.4201 0.00269169 61.0969 0.00819009L123.994 62.9037C124.002 62.2579 124.002 61.612 123.992 60.9656L63.0358 0.00819009C62.7123 0.00269169 62.3894 0 62.0662 0ZM51.5036 0.887865C50.9585 0.981522 50.4134 1.08224 49.8686 1.19143L122.811 74.1298C122.917 73.587 123.021 73.0421 123.114 72.4971L51.5036 0.887865ZM10.2292 96.1453C12.4946 99.5726 15.1378 102.824 18.1551 105.842C21.1734 108.862 24.4278 111.503 27.8552 113.768L10.2292 96.1453ZM0.0056529 61.0983C-0.00228395 61.7446 -0.00228396 62.3904 0.00834454 63.0368L60.9643 123.992C61.3114 123.997 61.6589 124 62.0066 124C62.3049 124 62.6036 123.998 62.9024 123.994L0.0056529 61.0983ZM18.6472 17.679L18.1551 18.1574L17.677 18.6469L105.355 106.32L105.844 105.842L106.323 105.353L18.6472 17.679ZM1.33518 74.8394C1.5135 75.6853 1.7101 76.5256 1.92269 77.3628L46.6381 122.074C47.4756 122.29 48.3155 122.486 49.1615 122.662L1.33518 74.8394ZM1.18864 49.8699C1.08274 50.4125 0.978436 50.9576 0.885655 51.5027L72.4987 123.112C73.0437 123.018 73.5859 122.917 74.131 122.808L1.18864 49.8699ZM32.9819 7.18984C32.5617 7.41307 32.1443 7.63931 31.7264 7.87346L116.129 92.2736C116.363 91.8562 116.589 91.4391 116.812 91.019L32.9819 7.18984ZM96.1446 10.2316L113.771 27.8545C111.505 24.4274 108.862 21.1755 105.844 18.1574C102.827 15.14 99.5744 12.4966 96.1446 10.2316ZM3.93838 40.2049C3.76029 40.6781 3.58982 41.1516 3.42511 41.6275L82.3713 120.575C82.8473 120.41 83.3229 120.24 83.7937 120.062L3.93838 40.2049ZM25.3533 11.973C24.9833 12.2469 24.6165 12.5263 24.2498 12.8081L111.194 99.7506C111.476 99.3839 111.755 99.0166 112.026 98.6474L25.3533 11.973ZM12.8058 24.2489C12.5237 24.6164 12.2446 24.9831 11.9737 25.3551L98.6468 112.027C99.016 111.753 99.3857 111.476 99.7498 111.194L12.8058 24.2489ZM7.87055 31.7283C7.63912 32.1433 7.41067 32.5607 7.19014 32.9808L91.0182 116.81C91.4383 116.587 91.8584 116.36 92.2729 116.127L7.87055 31.7283Z" fill="#1B5076"/>
<path d="M74.8386 1.33768L122.665 49.1603C122.487 48.3171 122.29 47.4742 122.077 46.6367L77.3647 1.92522C76.5245 1.71253 75.6842 1.51572 74.8386 1.33768ZM41.6288 3.42488C41.1526 3.58961 40.6793 3.76249 40.2059 3.93782L120.062 83.7949C120.24 83.3216 120.41 82.8482 120.575 82.3723L41.6288 3.42488ZM62.0662 0C61.7433 0 61.4201 0.00269169 61.0969 0.00819009L123.994 62.9037C124.002 62.2579 124.002 61.612 123.992 60.9656L63.0358 0.00819009C62.7123 0.00269169 62.3894 0 62.0662 0ZM51.5036 0.887865C50.9585 0.981522 50.4134 1.08224 49.8686 1.19143L122.811 74.1298C122.917 73.587 123.021 73.0421 123.114 72.4971L51.5036 0.887865ZM10.2292 96.1453C12.4946 99.5726 15.1378 102.824 18.1551 105.842C21.1734 108.862 24.4278 111.503 27.8552 113.768L10.2292 96.1453ZM0.0056529 61.0983C-0.00228395 61.7446 -0.00228396 62.3904 0.00834454 63.0368L60.9643 123.992C61.3114 123.997 61.6589 124 62.0066 124C62.3049 124 62.6036 123.998 62.9024 123.994L0.0056529 61.0983ZM18.6472 17.679L18.1551 18.1574L17.677 18.6469L105.355 106.32L105.844 105.842L106.323 105.353L18.6472 17.679ZM1.33518 74.8394C1.5135 75.6853 1.7101 76.5256 1.92269 77.3628L46.6381 122.074C47.4756 122.29 48.3155 122.486 49.1615 122.662L1.33518 74.8394ZM1.18864 49.8699C1.08274 50.4125 0.978436 50.9576 0.885655 51.5027L72.4987 123.112C73.0437 123.018 73.5859 122.917 74.131 122.808L1.18864 49.8699ZM32.9819 7.18984C32.5617 7.41307 32.1443 7.63931 31.7264 7.87346L116.129 92.2736C116.363 91.8562 116.589 91.4391 116.812 91.019L32.9819 7.18984ZM96.1446 10.2316L113.771 27.8545C111.505 24.4274 108.862 21.1755 105.844 18.1574C102.827 15.14 99.5744 12.4966 96.1446 10.2316ZM3.93838 40.2049C3.76029 40.6781 3.58982 41.1516 3.42511 41.6275L82.3713 120.575C82.8473 120.41 83.3229 120.24 83.7937 120.062L3.93838 40.2049ZM25.3533 11.973C24.9833 12.2469 24.6165 12.5263 24.2498 12.8081L111.194 99.7506C111.476 99.3839 111.755 99.0166 112.026 98.6474L25.3533 11.973ZM12.8058 24.2489C12.5237 24.6164 12.2446 24.9831 11.9737 25.3551L98.6468 112.027C99.016 111.753 99.3857 111.476 99.7498 111.194L12.8058 24.2489ZM7.87055 31.7283C7.63912 32.1433 7.41067 32.5607 7.19014 32.9808L91.0182 116.81C91.4383 116.587 91.8584 116.36 92.2729 116.127L7.87055 31.7283Z" fill="#1B5076"/>
<path d="M74.8386 1.33768L122.665 49.1603C122.487 48.3171 122.29 47.4742 122.077 46.6367L77.3647 1.92522C76.5245 1.71253 75.6842 1.51572 74.8386 1.33768ZM41.6288 3.42488C41.1526 3.58961 40.6793 3.76249 40.2059 3.93782L120.062 83.7949C120.24 83.3216 120.41 82.8482 120.575 82.3723L41.6288 3.42488ZM62.0662 0C61.7433 0 61.4201 0.00269169 61.0969 0.00819009L123.994 62.9037C124.002 62.2579 124.002 61.612 123.992 60.9656L63.0358 0.00819009C62.7123 0.00269169 62.3894 0 62.0662 0ZM51.5036 0.887865C50.9585 0.981522 50.4134 1.08224 49.8686 1.19143L122.811 74.1298C122.917 73.587 123.021 73.0421 123.114 72.4971L51.5036 0.887865ZM10.2292 96.1453C12.4946 99.5726 15.1378 102.824 18.1551 105.842C21.1734 108.862 24.4278 111.503 27.8552 113.768L10.2292 96.1453ZM0.0056529 61.0983C-0.00228395 61.7446 -0.00228396 62.3904 0.00834454 63.0368L60.9643 123.992C61.3114 123.997 61.6589 124 62.0066 124C62.3049 124 62.6036 123.998 62.9024 123.994L0.0056529 61.0983ZM18.6472 17.679L18.1551 18.1574L17.677 18.6469L105.355 106.32L105.844 105.842L106.323 105.353L18.6472 17.679ZM1.33518 74.8394C1.5135 75.6853 1.7101 76.5256 1.92269 77.3628L46.6381 122.074C47.4756 122.29 48.3155 122.486 49.1615 122.662L1.33518 74.8394ZM1.18864 49.8699C1.08274 50.4125 0.978436 50.9576 0.885655 51.5027L72.4987 123.112C73.0437 123.018 73.5859 122.917 74.131 122.808L1.18864 49.8699ZM32.9819 7.18984C32.5617 7.41307 32.1443 7.63931 31.7264 7.87346L116.129 92.2736C116.363 91.8562 116.589 91.4391 116.812 91.019L32.9819 7.18984ZM96.1446 10.2316L113.771 27.8545C111.505 24.4274 108.862 21.1755 105.844 18.1574C102.827 15.14 99.5744 12.4966 96.1446 10.2316ZM3.93838 40.2049C3.76029 40.6781 3.58982 41.1516 3.42511 41.6275L82.3713 120.575C82.8473 120.41 83.3229 120.24 83.7937 120.062L3.93838 40.2049ZM25.3533 11.973C24.9833 12.2469 24.6165 12.5263 24.2498 12.8081L111.194 99.7506C111.476 99.3839 111.755 99.0166 112.026 98.6474L25.3533 11.973ZM12.8058 24.2489C12.5237 24.6164 12.2446 24.9831 11.9737 25.3551L98.6468 112.027C99.016 111.753 99.3857 111.476 99.7498 111.194L12.8058 24.2489ZM7.87055 31.7283C7.63912 32.1433 7.41067 32.5607 7.19014 32.9808L91.0182 116.81C91.4383 116.587 91.8584 116.36 92.2729 116.127L7.87055 31.7283Z" fill="#1B5076"/>
<path d="M74.8386 1.33768L122.665 49.1603C122.487 48.3171 122.29 47.4742 122.077 46.6367L77.3647 1.92522C76.5245 1.71253 75.6842 1.51572 74.8386 1.33768ZM41.6288 3.42488C41.1526 3.58961 40.6793 3.76249 40.2059 3.93782L120.062 83.7949C120.24 83.3216 120.41 82.8482 120.575 82.3723L41.6288 3.42488ZM62.0662 0C61.7433 0 61.4201 0.00269169 61.0969 0.00819009L123.994 62.9037C124.002 62.2579 124.002 61.612 123.992 60.9656L63.0358 0.00819009C62.7123 0.00269169 62.3894 0 62.0662 0ZM51.5036 0.887865C50.9585 0.981522 50.4134 1.08224 49.8686 1.19143L122.811 74.1298C122.917 73.587 123.021 73.0421 123.114 72.4971L51.5036 0.887865ZM10.2292 96.1453C12.4946 99.5726 15.1378 102.824 18.1551 105.842C21.1734 108.862 24.4278 111.503 27.8552 113.768L10.2292 96.1453ZM0.0056529 61.0983C-0.00228395 61.7446 -0.00228396 62.3904 0.00834454 63.0368L60.9643 123.992C61.3114 123.997 61.6589 124 62.0066 124C62.3049 124 62.6036 123.998 62.9024 123.994L0.0056529 61.0983ZM18.6472 17.679L18.1551 18.1574L17.677 18.6469L105.355 106.32L105.844 105.842L106.323 105.353L18.6472 17.679ZM1.33518 74.8394C1.5135 75.6853 1.7101 76.5256 1.92269 77.3628L46.6381 122.074C47.4756 122.29 48.3155 122.486 49.1615 122.662L1.33518 74.8394ZM1.18864 49.8699C1.08274 50.4125 0.978436 50.9576 0.885655 51.5027L72.4987 123.112C73.0437 123.018 73.5859 122.917 74.131 122.808L1.18864 49.8699ZM32.9819 7.18984C32.5617 7.41307 32.1443 7.63931 31.7264 7.87346L116.129 92.2736C116.363 91.8562 116.589 91.4391 116.812 91.019L32.9819 7.18984ZM96.1446 10.2316L113.771 27.8545C111.505 24.4274 108.862 21.1755 105.844 18.1574C102.827 15.14 99.5744 12.4966 96.1446 10.2316ZM3.93838 40.2049C3.76029 40.6781 3.58982 41.1516 3.42511 41.6275L82.3713 120.575C82.8473 120.41 83.3229 120.24 83.7937 120.062L3.93838 40.2049ZM25.3533 11.973C24.9833 12.2469 24.6165 12.5263 24.2498 12.8081L111.194 99.7506C111.476 99.3839 111.755 99.0166 112.026 98.6474L25.3533 11.973ZM12.8058 24.2489C12.5237 24.6164 12.2446 24.9831 11.9737 25.3551L98.6468 112.027C99.016 111.753 99.3857 111.476 99.7498 111.194L12.8058 24.2489ZM7.87055 31.7283C7.63912 32.1433 7.41067 32.5607 7.19014 32.9808L91.0182 116.81C91.4383 116.587 91.8584 116.36 92.2729 116.127L7.87055 31.7283Z" fill="#1B5076"/>
<path d="M74.8386 1.33768L122.665 49.1603C122.487 48.3171 122.29 47.4742 122.077 46.6367L77.3647 1.92522C76.5245 1.71253 75.6842 1.51572 74.8386 1.33768ZM41.6288 3.42488C41.1526 3.58961 40.6793 3.76249 40.2059 3.93782L120.062 83.7949C120.24 83.3216 120.41 82.8482 120.575 82.3723L41.6288 3.42488ZM62.0662 0C61.7433 0 61.4201 0.00269169 61.0969 0.00819009L123.994 62.9037C124.002 62.2579 124.002 61.612 123.992 60.9656L63.0358 0.00819009C62.7123 0.00269169 62.3894 0 62.0662 0ZM51.5036 0.887865C50.9585 0.981522 50.4134 1.08224 49.8686 1.19143L122.811 74.1298C122.917 73.587 123.021 73.0421 123.114 72.4971L51.5036 0.887865ZM10.2292 96.1453C12.4946 99.5726 15.1378 102.824 18.1551 105.842C21.1734 108.862 24.4278 111.503 27.8552 113.768L10.2292 96.1453ZM0.0056529 61.0983C-0.00228395 61.7446 -0.00228396 62.3904 0.00834454 63.0368L60.9643 123.992C61.3114 123.997 61.6589 124 62.0066 124C62.3049 124 62.6036 123.998 62.9024 123.994L0.0056529 61.0983ZM18.6472 17.679L18.1551 18.1574L17.677 18.6469L105.355 106.32L105.844 105.842L106.323 105.353L18.6472 17.679ZM1.33518 74.8394C1.5135 75.6853 1.7101 76.5256 1.92269 77.3628L46.6381 122.074C47.4756 122.29 48.3155 122.486 49.1615 122.662L1.33518 74.8394ZM1.18864 49.8699C1.08274 50.4125 0.978436 50.9576 0.885655 51.5027L72.4987 123.112C73.0437 123.018 73.5859 122.917 74.131 122.808L1.18864 49.8699ZM32.9819 7.18984C32.5617 7.41307 32.1443 7.63931 31.7264 7.87346L116.129 92.2736C116.363 91.8562 116.589 91.4391 116.812 91.019L32.9819 7.18984ZM96.1446 10.2316L113.771 27.8545C111.505 24.4274 108.862 21.1755 105.844 18.1574C102.827 15.14 99.5744 12.4966 96.1446 10.2316ZM3.93838 40.2049C3.76029 40.6781 3.58982 41.1516 3.42511 41.6275L82.3713 120.575C82.8473 120.41 83.3229 120.24 83.7937 120.062L3.93838 40.2049ZM25.3533 11.973C24.9833 12.2469 24.6165 12.5263 24.2498 12.8081L111.194 99.7506C111.476 99.3839 111.755 99.0166 112.026 98.6474L25.3533 11.973ZM12.8058 24.2489C12.5237 24.6164 12.2446 24.9831 11.9737 25.3551L98.6468 112.027C99.016 111.753 99.3857 111.476 99.7498 111.194L12.8058 24.2489ZM7.87055 31.7283C7.63912 32.1433 7.41067 32.5607 7.19014 32.9808L91.0182 116.81C91.4383 116.587 91.8584 116.36 92.2729 116.127L7.87055 31.7283Z" fill="#1B5076"/>
<path d="M74.8386 1.33768L122.665 49.1603C122.487 48.3171 122.29 47.4742 122.077 46.6367L77.3647 1.92522C76.5245 1.71253 75.6842 1.51572 74.8386 1.33768ZM41.6288 3.42488C41.1526 3.58961 40.6793 3.76249 40.2059 3.93782L120.062 83.7949C120.24 83.3216 120.41 82.8482 120.575 82.3723L41.6288 3.42488ZM62.0662 0C61.7433 0 61.4201 0.00269169 61.0969 0.00819009L123.994 62.9037C124.002 62.2579 124.002 61.612 123.992 60.9656L63.0358 0.00819009C62.7123 0.00269169 62.3894 0 62.0662 0ZM51.5036 0.887865C50.9585 0.981522 50.4134 1.08224 49.8686 1.19143L122.811 74.1298C122.917 73.587 123.021 73.0421 123.114 72.4971L51.5036 0.887865ZM10.2292 96.1453C12.4946 99.5726 15.1378 102.824 18.1551 105.842C21.1734 108.862 24.4278 111.503 27.8552 113.768L10.2292 96.1453ZM0.0056529 61.0983C-0.00228395 61.7446 -0.00228396 62.3904 0.00834454 63.0368L60.9643 123.992C61.3114 123.997 61.6589 124 62.0066 124C62.3049 124 62.6036 123.998 62.9024 123.994L0.0056529 61.0983ZM18.6472 17.679L18.1551 18.1574L17.677 18.6469L105.355 106.32L105.844 105.842L106.323 105.353L18.6472 17.679ZM1.33518 74.8394C1.5135 75.6853 1.7101 76.5256 1.92269 77.3628L46.6381 122.074C47.4756 122.29 48.3155 122.486 49.1615 122.662L1.33518 74.8394ZM1.18864 49.8699C1.08274 50.4125 0.978436 50.9576 0.885655 51.5027L72.4987 123.112C73.0437 123.018 73.5859 122.917 74.131 122.808L1.18864 49.8699ZM32.9819 7.18984C32.5617 7.41307 32.1443 7.63931 31.7264 7.87346L116.129 92.2736C116.363 91.8562 116.589 91.4391 116.812 91.019L32.9819 7.18984ZM96.1446 10.2316L113.771 27.8545C111.505 24.4274 108.862 21.1755 105.844 18.1574C102.827 15.14 99.5744 12.4966 96.1446 10.2316ZM3.93838 40.2049C3.76029 40.6781 3.58982 41.1516 3.42511 41.6275L82.3713 120.575C82.8473 120.41 83.3229 120.24 83.7937 120.062L3.93838 40.2049ZM25.3533 11.973C24.9833 12.2469 24.6165 12.5263 24.2498 12.8081L111.194 99.7506C111.476 99.3839 111.755 99.0166 112.026 98.6474L25.3533 11.973ZM12.8058 24.2489C12.5237 24.6164 12.2446 24.9831 11.9737 25.3551L98.6468 112.027C99.016 111.753 99.3857 111.476 99.7498 111.194L12.8058 24.2489ZM7.87055 31.7283C7.63912 32.1433 7.41067 32.5607 7.19014 32.9808L91.0182 116.81C91.4383 116.587 91.8584 116.36 92.2729 116.127L7.87055 31.7283Z" fill="#1B5076"/>
<path d="M74.8386 1.33768L122.665 49.1603C122.487 48.3171 122.29 47.4742 122.077 46.6367L77.3647 1.92522C76.5245 1.71253 75.6842 1.51572 74.8386 1.33768ZM41.6288 3.42488C41.1526 3.58961 40.6793 3.76249 40.2059 3.93782L120.062 83.7949C120.24 83.3216 120.41 82.8482 120.575 82.3723L41.6288 3.42488ZM62.0662 0C61.7433 0 61.4201 0.00269169 61.0969 0.00819009L123.994 62.9037C124.002 62.2579 124.002 61.612 123.992 60.9656L63.0358 0.00819009C62.7123 0.00269169 62.3894 0 62.0662 0ZM51.5036 0.887865C50.9585 0.981522 50.4134 1.08224 49.8686 1.19143L122.811 74.1298C122.917 73.587 123.021 73.0421 123.114 72.4971L51.5036 0.887865ZM10.2292 96.1453C12.4946 99.5726 15.1378 102.824 18.1551 105.842C21.1734 108.862 24.4278 111.503 27.8552 113.768L10.2292 96.1453ZM0.0056529 61.0983C-0.00228395 61.7446 -0.00228396 62.3904 0.00834454 63.0368L60.9643 123.992C61.3114 123.997 61.6589 124 62.0066 124C62.3049 124 62.6036 123.998 62.9024 123.994L0.0056529 61.0983ZM18.6472 17.679L18.1551 18.1574L17.677 18.6469L105.355 106.32L105.844 105.842L106.323 105.353L18.6472 17.679ZM1.33518 74.8394C1.5135 75.6853 1.7101 76.5256 1.92269 77.3628L46.6381 122.074C47.4756 122.29 48.3155 122.486 49.1615 122.662L1.33518 74.8394ZM1.18864 49.8699C1.08274 50.4125 0.978436 50.9576 0.885655 51.5027L72.4987 123.112C73.0437 123.018 73.5859 122.917 74.131 122.808L1.18864 49.8699ZM32.9819 7.18984C32.5617 7.41307 32.1443 7.63931 31.7264 7.87346L116.129 92.2736C116.363 91.8562 116.589 91.4391 116.812 91.019L32.9819 7.18984ZM96.1446 10.2316L113.771 27.8545C111.505 24.4274 108.862 21.1755 105.844 18.1574C102.827 15.14 99.5744 12.4966 96.1446 10.2316ZM3.93838 40.2049C3.76029 40.6781 3.58982 41.1516 3.42511 41.6275L82.3713 120.575C82.8473 120.41 83.3229 120.24 83.7937 120.062L3.93838 40.2049ZM25.3533 11.973C24.9833 12.2469 24.6165 12.5263 24.2498 12.8081L111.194 99.7506C111.476 99.3839 111.755 99.0166 112.026 98.6474L25.3533 11.973ZM12.8058 24.2489C12.5237 24.6164 12.2446 24.9831 11.9737 25.3551L98.6468 112.027C99.016 111.753 99.3857 111.476 99.7498 111.194L12.8058 24.2489ZM7.87055 31.7283C7.63912 32.1433 7.41067 32.5607 7.19014 32.9808L91.0182 116.81C91.4383 116.587 91.8584 116.36 92.2729 116.127L7.87055 31.7283Z" fill="#1B5076"/>
<path d="M74.8386 1.33768L122.665 49.1603C122.487 48.3171 122.29 47.4742 122.077 46.6367L77.3647 1.92522C76.5245 1.71253 75.6842 1.51572 74.8386 1.33768ZM41.6288 3.42488C41.1526 3.58961 40.6793 3.76249 40.2059 3.93782L120.062 83.7949C120.24 83.3216 120.41 82.8482 120.575 82.3723L41.6288 3.42488ZM62.0662 0C61.7433 0 61.4201 0.00269169 61.0969 0.00819009L123.994 62.9037C124.002 62.2579 124.002 61.612 123.992 60.9656L63.0358 0.00819009C62.7123 0.00269169 62.3894 0 62.0662 0ZM51.5036 0.887865C50.9585 0.981522 50.4134 1.08224 49.8686 1.19143L122.811 74.1298C122.917 73.587 123.021 73.0421 123.114 72.4971L51.5036 0.887865ZM10.2292 96.1453C12.4946 99.5726 15.1378 102.824 18.1551 105.842C21.1734 108.862 24.4278 111.503 27.8552 113.768L10.2292 96.1453ZM0.0056529 61.0983C-0.00228395 61.7446 -0.00228396 62.3904 0.00834454 63.0368L60.9643 123.992C61.3114 123.997 61.6589 124 62.0066 124C62.3049 124 62.6036 123.998 62.9024 123.994L0.0056529 61.0983ZM18.6472 17.679L18.1551 18.1574L17.677 18.6469L105.355 106.32L105.844 105.842L106.323 105.353L18.6472 17.679ZM1.33518 74.8394C1.5135 75.6853 1.7101 76.5256 1.92269 77.3628L46.6381 122.074C47.4756 122.29 48.3155 122.486 49.1615 122.662L1.33518 74.8394ZM1.18864 49.8699C1.08274 50.4125 0.978436 50.9576 0.885655 51.5027L72.4987 123.112C73.0437 123.018 73.5859 122.917 74.131 122.808L1.18864 49.8699ZM32.9819 7.18984C32.5617 7.41307 32.1443 7.63931 31.7264 7.87346L116.129 92.2736C116.363 91.8562 116.589 91.4391 116.812 91.019L32.9819 7.18984ZM96.1446 10.2316L113.771 27.8545C111.505 24.4274 108.862 21.1755 105.844 18.1574C102.827 15.14 99.5744 12.4966 96.1446 10.2316ZM3.93838 40.2049C3.76029 40.6781 3.58982 41.1516 3.42511 41.6275L82.3713 120.575C82.8473 120.41 83.3229 120.24 83.7937 120.062L3.93838 40.2049ZM25.3533 11.973C24.9833 12.2469 24.6165 12.5263 24.2498 12.8081L111.194 99.7506C111.476 99.3839 111.755 99.0166 112.026 98.6474L25.3533 11.973ZM12.8058 24.2489C12.5237 24.6164 12.2446 24.9831 11.9737 25.3551L98.6468 112.027C99.016 111.753 99.3857 111.476 99.7498 111.194L12.8058 24.2489ZM7.87055 31.7283C7.63912 32.1433 7.41067 32.5607 7.19014 32.9808L91.0182 116.81C91.4383 116.587 91.8584 116.36 92.2729 116.127L7.87055 31.7283Z" fill="#1B5076"/>
<path d="M74.8386 1.33768L122.665 49.1603C122.487 48.3171 122.29 47.4742 122.077 46.6367L77.3647 1.92522C76.5245 1.71253 75.6842 1.51572 74.8386 1.33768ZM41.6288 3.42488C41.1526 3.58961 40.6793 3.76249 40.2059 3.93782L120.062 83.7949C120.24 83.3216 120.41 82.8482 120.575 82.3723L41.6288 3.42488ZM62.0662 0C61.7433 0 61.4201 0.00269169 61.0969 0.00819009L123.994 62.9037C124.002 62.2579 124.002 61.612 123.992 60.9656L63.0358 0.00819009C62.7123 0.00269169 62.3894 0 62.0662 0ZM51.5036 0.887865C50.9585 0.981522 50.4134 1.08224 49.8686 1.19143L122.811 74.1298C122.917 73.587 123.021 73.0421 123.114 72.4971L51.5036 0.887865ZM10.2292 96.1453C12.4946 99.5726 15.1378 102.824 18.1551 105.842C21.1734 108.862 24.4278 111.503 27.8552 113.768L10.2292 96.1453ZM0.0056529 61.0983C-0.00228395 61.7446 -0.00228396 62.3904 0.00834454 63.0368L60.9643 123.992C61.3114 123.997 61.6589 124 62.0066 124C62.3049 124 62.6036 123.998 62.9024 123.994L0.0056529 61.0983ZM18.6472 17.679L18.1551 18.1574L17.677 18.6469L105.355 106.32L105.844 105.842L106.323 105.353L18.6472 17.679ZM1.33518 74.8394C1.5135 75.6853 1.7101 76.5256 1.92269 77.3628L46.6381 122.074C47.4756 122.29 48.3155 122.486 49.1615 122.662L1.33518 74.8394ZM1.18864 49.8699C1.08274 50.4125 0.978436 50.9576 0.885655 51.5027L72.4987 123.112C73.0437 123.018 73.5859 122.917 74.131 122.808L1.18864 49.8699ZM32.9819 7.18984C32.5617 7.41307 32.1443 7.63931 31.7264 7.87346L116.129 92.2736C116.363 91.8562 116.589 91.4391 116.812 91.019L32.9819 7.18984ZM96.1446 10.2316L113.771 27.8545C111.505 24.4274 108.862 21.1755 105.844 18.1574C102.827 15.14 99.5744 12.4966 96.1446 10.2316ZM3.93838 40.2049C3.76029 40.6781 3.58982 41.1516 3.42511 41.6275L82.3713 120.575C82.8473 120.41 83.3229 120.24 83.7937 120.062L3.93838 40.2049ZM25.3533 11.973C24.9833 12.2469 24.6165 12.5263 24.2498 12.8081L111.194 99.7506C111.476 99.3839 111.755 99.0166 112.026 98.6474L25.3533 11.973ZM12.8058 24.2489C12.5237 24.6164 12.2446 24.9831 11.9737 25.3551L98.6468 112.027C99.016 111.753 99.3857 111.476 99.7498 111.194L12.8058 24.2489ZM7.87055 31.7283C7.63912 32.1433 7.41067 32.5607 7.19014 32.9808L91.0182 116.81C91.4383 116.587 91.8584 116.36 92.2729 116.127L7.87055 31.7283Z" fill="#1B5076"/>
<path d="M74.8386 1.33768L122.665 49.1603C122.487 48.3171 122.29 47.4742 122.077 46.6367L77.3647 1.92522C76.5245 1.71253 75.6842 1.51572 74.8386 1.33768ZM41.6288 3.42488C41.1526 3.58961 40.6793 3.76249 40.2059 3.93782L120.062 83.7949C120.24 83.3216 120.41 82.8482 120.575 82.3723L41.6288 3.42488ZM62.0662 0C61.7433 0 61.4201 0.00269169 61.0969 0.00819009L123.994 62.9037C124.002 62.2579 124.002 61.612 123.992 60.9656L63.0358 0.00819009C62.7123 0.00269169 62.3894 0 62.0662 0ZM51.5036 0.887865C50.9585 0.981522 50.4134 1.08224 49.8686 1.19143L122.811 74.1298C122.917 73.587 123.021 73.0421 123.114 72.4971L51.5036 0.887865ZM10.2292 96.1453C12.4946 99.5726 15.1378 102.824 18.1551 105.842C21.1734 108.862 24.4278 111.503 27.8552 113.768L10.2292 96.1453ZM0.0056529 61.0983C-0.00228395 61.7446 -0.00228396 62.3904 0.00834454 63.0368L60.9643 123.992C61.3114 123.997 61.6589 124 62.0066 124C62.3049 124 62.6036 123.998 62.9024 123.994L0.0056529 61.0983ZM18.6472 17.679L18.1551 18.1574L17.677 18.6469L105.355 106.32L105.844 105.842L106.323 105.353L18.6472 17.679ZM1.33518 74.8394C1.5135 75.6853 1.7101 76.5256 1.92269 77.3628L46.6381 122.074C47.4756 122.29 48.3155 122.486 49.1615 122.662L1.33518 74.8394ZM1.18864 49.8699C1.08274 50.4125 0.978436 50.9576 0.885655 51.5027L72.4987 123.112C73.0437 123.018 73.5859 122.917 74.131 122.808L1.18864 49.8699ZM32.9819 7.18984C32.5617 7.41307 32.1443 7.63931 31.7264 7.87346L116.129 92.2736C116.363 91.8562 116.589 91.4391 116.812 91.019L32.9819 7.18984ZM96.1446 10.2316L113.771 27.8545C111.505 24.4274 108.862 21.1755 105.844 18.1574C102.827 15.14 99.5744 12.4966 96.1446 10.2316ZM3.93838 40.2049C3.76029 40.6781 3.58982 41.1516 3.42511 41.6275L82.3713 120.575C82.8473 120.41 83.3229 120.24 83.7937 120.062L3.93838 40.2049ZM25.3533 11.973C24.9833 12.2469 24.6165 12.5263 24.2498 12.8081L111.194 99.7506C111.476 99.3839 111.755 99.0166 112.026 98.6474L25.3533 11.973ZM12.8058 24.2489C12.5237 24.6164 12.2446 24.9831 11.9737 25.3551L98.6468 112.027C99.016 111.753 99.3857 111.476 99.7498 111.194L12.8058 24.2489ZM7.87055 31.7283C7.63912 32.1433 7.41067 32.5607 7.19014 32.9808L91.0182 116.81C91.4383 116.587 91.8584 116.36 92.2729 116.127L7.87055 31.7283Z" fill="#1B5076"/>
<path d="M74.8386 1.33768L122.665 49.1603C122.487 48.3171 122.29 47.4742 122.077 46.6367L77.3647 1.92522C76.5245 1.71253 75.6842 1.51572 74.8386 1.33768ZM41.6288 3.42488C41.1526 3.58961 40.6793 3.76249 40.2059 3.93782L120.062 83.7949C120.24 83.3216 120.41 82.8482 120.575 82.3723L41.6288 3.42488ZM62.0662 0C61.7433 0 61.4201 0.00269169 61.0969 0.00819009L123.994 62.9037C124.002 62.2579 124.002 61.612 123.992 60.9656L63.0358 0.00819009C62.7123 0.00269169 62.3894 0 62.0662 0ZM51.5036 0.887865C50.9585 0.981522 50.4134 1.08224 49.8686 1.19143L122.811 74.1298C122.917 73.587 123.021 73.0421 123.114 72.4971L51.5036 0.887865ZM10.2292 96.1453C12.4946 99.5726 15.1378 102.824 18.1551 105.842C21.1734 108.862 24.4278 111.503 27.8552 113.768L10.2292 96.1453ZM0.0056529 61.0983C-0.00228395 61.7446 -0.00228396 62.3904 0.00834454 63.0368L60.9643 123.992C61.3114 123.997 61.6589 124 62.0066 124C62.3049 124 62.6036 123.998 62.9024 123.994L0.0056529 61.0983ZM18.6472 17.679L18.1551 18.1574L17.677 18.6469L105.355 106.32L105.844 105.842L106.323 105.353L18.6472 17.679ZM1.33518 74.8394C1.5135 75.6853 1.7101 76.5256 1.92269 77.3628L46.6381 122.074C47.4756 122.29 48.3155 122.486 49.1615 122.662L1.33518 74.8394ZM1.18864 49.8699C1.08274 50.4125 0.978436 50.9576 0.885655 51.5027L72.4987 123.112C73.0437 123.018 73.5859 122.917 74.131 122.808L1.18864 49.8699ZM32.9819 7.18984C32.5617 7.41307 32.1443 7.63931 31.7264 7.87346L116.129 92.2736C116.363 91.8562 116.589 91.4391 116.812 91.019L32.9819 7.18984ZM96.1446 10.2316L113.771 27.8545C111.505 24.4274 108.862 21.1755 105.844 18.1574C102.827 15.14 99.5744 12.4966 96.1446 10.2316ZM3.93838 40.2049C3.76029 40.6781 3.58982 41.1516 3.42511 41.6275L82.3713 120.575C82.8473 120.41 83.3229 120.24 83.7937 120.062L3.93838 40.2049ZM25.3533 11.973C24.9833 12.2469 24.6165 12.5263 24.2498 12.8081L111.194 99.7506C111.476 99.3839 111.755 99.0166 112.026 98.6474L25.3533 11.973ZM12.8058 24.2489C12.5237 24.6164 12.2446 24.9831 11.9737 25.3551L98.6468 112.027C99.016 111.753 99.3857 111.476 99.7498 111.194L12.8058 24.2489ZM7.87055 31.7283C7.63912 32.1433 7.41067 32.5607 7.19014 32.9808L91.0182 116.81C91.4383 116.587 91.8584 116.36 92.2729 116.127L7.87055 31.7283Z" fill="#1B5076"/>
<path d="M74.8386 1.33768L122.665 49.1603C122.487 48.3171 122.29 47.4742 122.077 46.6367L77.3647 1.92522C76.5245 1.71253 75.6842 1.51572 74.8386 1.33768ZM41.6288 3.42488C41.1526 3.58961 40.6793 3.76249 40.2059 3.93782L120.062 83.7949C120.24 83.3216 120.41 82.8482 120.575 82.3723L41.6288 3.42488ZM62.0662 0C61.7433 0 61.4201 0.00269169 61.0969 0.00819009L123.994 62.9037C124.002 62.2579 124.002 61.612 123.992 60.9656L63.0358 0.00819009C62.7123 0.00269169 62.3894 0 62.0662 0ZM51.5036 0.887865C50.9585 0.981522 50.4134 1.08224 49.8686 1.19143L122.811 74.1298C122.917 73.587 123.021 73.0421 123.114 72.4971L51.5036 0.887865ZM10.2292 96.1453C12.4946 99.5726 15.1378 102.824 18.1551 105.842C21.1734 108.862 24.4278 111.503 27.8552 113.768L10.2292 96.1453ZM0.0056529 61.0983C-0.00228395 61.7446 -0.00228396 62.3904 0.00834454 63.0368L60.9643 123.992C61.3114 123.997 61.6589 124 62.0066 124C62.3049 124 62.6036 123.998 62.9024 123.994L0.0056529 61.0983ZM18.6472 17.679L18.1551 18.1574L17.677 18.6469L105.355 106.32L105.844 105.842L106.323 105.353L18.6472 17.679ZM1.33518 74.8394C1.5135 75.6853 1.7101 76.5256 1.92269 77.3628L46.6381 122.074C47.4756 122.29 48.3155 122.486 49.1615 122.662L1.33518 74.8394ZM1.18864 49.8699C1.08274 50.4125 0.978436 50.9576 0.885655 51.5027L72.4987 123.112C73.0437 123.018 73.5859 122.917 74.131 122.808L1.18864 49.8699ZM32.9819 7.18984C32.5617 7.41307 32.1443 7.63931 31.7264 7.87346L116.129 92.2736C116.363 91.8562 116.589 91.4391 116.812 91.019L32.9819 7.18984ZM96.1446 10.2316L113.771 27.8545C111.505 24.4274 108.862 21.1755 105.844 18.1574C102.827 15.14 99.5744 12.4966 96.1446 10.2316ZM3.93838 40.2049C3.76029 40.6781 3.58982 41.1516 3.42511 41.6275L82.3713 120.575C82.8473 120.41 83.3229 120.24 83.7937 120.062L3.93838 40.2049ZM25.3533 11.973C24.9833 12.2469 24.6165 12.5263 24.2498 12.8081L111.194 99.7506C111.476 99.3839 111.755 99.0166 112.026 98.6474L25.3533 11.973ZM12.8058 24.2489C12.5237 24.6164 12.2446 24.9831 11.9737 25.3551L98.6468 112.027C99.016 111.753 99.3857 111.476 99.7498 111.194L12.8058 24.2489ZM7.87055 31.7283C7.63912 32.1433 7.41067 32.5607 7.19014 32.9808L91.0182 116.81C91.4383 116.587 91.8584 116.36 92.2729 116.127L7.87055 31.7283Z" fill="#1B5076"/>
<path d="M74.8386 1.33768L122.665 49.1603C122.487 48.3171 122.29 47.4742 122.077 46.6367L77.3647 1.92522C76.5245 1.71253 75.6842 1.51572 74.8386 1.33768ZM41.6288 3.42488C41.1526 3.58961 40.6793 3.76249 40.2059 3.93782L120.062 83.7949C120.24 83.3216 120.41 82.8482 120.575 82.3723L41.6288 3.42488ZM62.0662 0C61.7433 0 61.4201 0.00269169 61.0969 0.00819009L123.994 62.9037C124.002 62.2579 124.002 61.612 123.992 60.9656L63.0358 0.00819009C62.7123 0.00269169 62.3894 0 62.0662 0ZM51.5036 0.887865C50.9585 0.981522 50.4134 1.08224 49.8686 1.19143L122.811 74.1298C122.917 73.587 123.021 73.0421 123.114 72.4971L51.5036 0.887865ZM10.2292 96.1453C12.4946 99.5726 15.1378 102.824 18.1551 105.842C21.1734 108.862 24.4278 111.503 27.8552 113.768L10.2292 96.1453ZM0.0056529 61.0983C-0.00228395 61.7446 -0.00228396 62.3904 0.00834454 63.0368L60.9643 123.992C61.3114 123.997 61.6589 124 62.0066 124C62.3049 124 62.6036 123.998 62.9024 123.994L0.0056529 61.0983ZM18.6472 17.679L18.1551 18.1574L17.677 18.6469L105.355 106.32L105.844 105.842L106.323 105.353L18.6472 17.679ZM1.33518 74.8394C1.5135 75.6853 1.7101 76.5256 1.92269 77.3628L46.6381 122.074C47.4756 122.29 48.3155 122.486 49.1615 122.662L1.33518 74.8394ZM1.18864 49.8699C1.08274 50.4125 0.978436 50.9576 0.885655 51.5027L72.4987 123.112C73.0437 123.018 73.5859 122.917 74.131 122.808L1.18864 49.8699ZM32.9819 7.18984C32.5617 7.41307 32.1443 7.63931 31.7264 7.87346L116.129 92.2736C116.363 91.8562 116.589 91.4391 116.812 91.019L32.9819 7.18984ZM96.1446 10.2316L113.771 27.8545C111.505 24.4274 108.862 21.1755 105.844 18.1574C102.827 15.14 99.5744 12.4966 96.1446 10.2316ZM3.93838 40.2049C3.76029 40.6781 3.58982 41.1516 3.42511 41.6275L82.3713 120.575C82.8473 120.41 83.3229 120.24 83.7937 120.062L3.93838 40.2049ZM25.3533 11.973C24.9833 12.2469 24.6165 12.5263 24.2498 12.8081L111.194 99.7506C111.476 99.3839 111.755 99.0166 112.026 98.6474L25.3533 11.973ZM12.8058 24.2489C12.5237 24.6164 12.2446 24.9831 11.9737 25.3551L98.6468 112.027C99.016 111.753 99.3857 111.476 99.7498 111.194L12.8058 24.2489ZM7.87055 31.7283C7.63912 32.1433 7.41067 32.5607 7.19014 32.9808L91.0182 116.81C91.4383 116.587 91.8584 116.36 92.2729 116.127L7.87055 31.7283Z" fill="#1B5076"/>
</svg>
