<svg width="28" height="27" viewBox="0 0 28 27" fill="none" xmlns="http://www.w3.org/2000/svg">
<g opacity="0.7" clip-path="url(#clip0_1_18385)">
<path fill-rule="evenodd" clip-rule="evenodd" d="M26.6929 25.9948C26.4622 26.2255 26.1884 26.4085 25.8871 26.5333C25.5857 26.6581 25.2627 26.7224 24.9365 26.7224C24.6104 26.7224 24.2874 26.6581 23.986 26.5333C23.6847 26.4085 23.4109 26.2255 23.1802 25.9948L18.7971 21.6116C16.9404 22.8131 14.7766 23.4537 12.565 23.4564C6.16481 23.4564 0.975586 18.268 0.975586 11.867C0.975586 5.466 6.16481 0.277603 12.565 0.277603C18.9661 0.277603 24.1545 5.46595 24.1545 11.867C24.1511 14.0787 23.5106 16.2426 22.3096 18.0999L26.6929 22.4831C26.9235 22.7136 27.1065 22.9874 27.2313 23.2886C27.3561 23.5899 27.4204 23.9128 27.4204 24.2389C27.4204 24.5651 27.3561 24.888 27.2313 25.1893C27.1065 25.4905 26.9235 25.7643 26.6929 25.9948ZM12.565 3.58904C10.9277 3.58904 9.32724 4.07455 7.9659 4.98418C6.60456 5.89381 5.54353 7.18669 4.91698 8.69934C4.29043 10.212 4.12651 11.8765 4.44595 13.4823C4.76539 15.0881 5.55383 16.5631 6.71158 17.7208C7.86932 18.8785 9.34437 19.6669 10.9502 19.9863C12.556 20.3057 14.2205 20.1417 15.7331 19.5151C17.2457 18.8885 18.5386 17.8275 19.4482 16.4661C20.3578 15.1047 20.8432 13.5042 20.8432 11.8669C20.8432 10.7798 20.6291 9.70337 20.2131 8.69902C19.7971 7.69466 19.1873 6.78208 18.4186 6.01338C17.6499 5.24469 16.7373 4.63493 15.7329 4.21892C14.7286 3.80292 13.6521 3.58881 12.565 3.58883V3.58904Z" fill="#0BB4C9"/>
</g>
<defs>
<clipPath id="clip0_1_18385">
<rect width="26.4448" height="26.4448" fill="white" transform="translate(0.975586 0.277603)"/>
</clipPath>
</defs>
</svg>
