<svg width="234" height="84" viewBox="0 0 234 84" fill="none" xmlns="http://www.w3.org/2000/svg">
<path d="M141.228 2.52432L231.48 92.7703C231.144 91.1791 230.773 89.5884 230.371 88.0079L145.995 3.63308C144.409 3.23172 142.823 2.86031 141.228 2.52432ZM78.5575 6.46309C77.6589 6.77393 76.7659 7.10019 75.8724 7.43105L226.568 158.129C226.904 157.236 227.225 156.343 227.536 155.444L78.5575 6.46309ZM117.125 0C116.516 0 115.906 0.00507947 115.296 0.0154555L233.988 118.705C234.004 117.487 234.004 116.268 233.984 115.048L118.955 0.0154555C118.344 0.00507947 117.735 0 117.125 0ZM97.1923 1.67549C96.1636 1.85223 95.135 2.0423 94.1068 2.24834L231.756 139.89C231.957 138.866 232.152 137.838 232.328 136.809L97.1923 1.67549ZM19.3036 181.435C23.5785 187.903 28.5665 194.039 34.2605 199.734C39.9562 205.434 46.0977 210.417 52.5655 214.692L19.3036 181.435ZM0.0106676 115.298C-0.00431004 116.518 -0.00431004 117.737 0.0157469 118.957L115.046 233.984C115.701 233.995 116.356 234 117.012 234C117.575 234 118.139 233.996 118.703 233.989L0.0106676 115.298ZM35.189 33.362L34.2605 34.2647L33.3583 35.1885L198.815 200.637L199.738 199.734L200.642 198.811L35.189 33.362ZM2.51961 141.229C2.85611 142.826 3.22712 144.411 3.62831 145.991L88.0105 230.366C89.591 230.773 91.1761 231.144 92.7725 231.475L2.51961 141.229ZM2.24307 94.1093C2.04324 95.1333 1.8464 96.1619 1.67132 97.1906L136.812 232.324C137.841 232.147 138.864 231.957 139.892 231.751L2.24307 94.1093ZM62.24 13.5679C61.4471 13.9892 60.6595 14.4161 59.8708 14.858L219.147 174.129C219.588 173.342 220.014 172.554 220.436 171.762L62.24 13.5679ZM181.434 19.308L214.696 52.5641C210.421 46.097 205.434 39.9601 199.738 34.2647C194.044 28.5707 187.907 23.5823 181.434 19.308ZM7.4321 75.8705C7.09604 76.7634 6.77435 77.657 6.46351 78.5551L155.443 227.536C156.341 227.226 157.238 226.904 158.127 226.568L7.4321 75.8705ZM47.8441 22.5943C47.1459 23.1111 46.4538 23.6383 45.7617 24.1701L209.834 188.239C210.366 187.547 210.893 186.854 211.405 186.157L47.8441 22.5943ZM24.1658 45.7599C23.6334 46.4535 23.1068 47.1456 22.5956 47.8475L186.156 211.405C186.853 210.888 187.55 210.366 188.238 209.835L24.1658 45.7599ZM14.8525 59.8744C14.4158 60.6575 13.9847 61.4451 13.5685 62.2379L171.76 220.432C172.553 220.01 173.346 219.583 174.128 219.143L14.8525 59.8744Z" fill="#008AA7"/>
<path d="M141.228 2.52432L231.48 92.7703C231.144 91.1791 230.773 89.5884 230.371 88.0079L145.995 3.63308C144.409 3.23172 142.823 2.86031 141.228 2.52432ZM78.5575 6.46309C77.6589 6.77393 76.7659 7.10019 75.8724 7.43105L226.568 158.129C226.904 157.236 227.225 156.343 227.536 155.444L78.5575 6.46309ZM117.125 0C116.516 0 115.906 0.00507947 115.296 0.0154555L233.988 118.705C234.004 117.487 234.004 116.268 233.984 115.048L118.955 0.0154555C118.344 0.00507947 117.735 0 117.125 0ZM97.1923 1.67549C96.1636 1.85223 95.135 2.0423 94.1068 2.24834L231.756 139.89C231.957 138.866 232.152 137.838 232.328 136.809L97.1923 1.67549ZM19.3036 181.435C23.5785 187.903 28.5665 194.039 34.2605 199.734C39.9562 205.434 46.0977 210.417 52.5655 214.692L19.3036 181.435ZM0.0106676 115.298C-0.00431004 116.518 -0.00431004 117.737 0.0157469 118.957L115.046 233.984C115.701 233.995 116.356 234 117.012 234C117.575 234 118.139 233.996 118.703 233.989L0.0106676 115.298ZM35.189 33.362L34.2605 34.2647L33.3583 35.1885L198.815 200.637L199.738 199.734L200.642 198.811L35.189 33.362ZM2.51961 141.229C2.85611 142.826 3.22712 144.411 3.62831 145.991L88.0105 230.366C89.591 230.773 91.1761 231.144 92.7725 231.475L2.51961 141.229ZM2.24307 94.1093C2.04324 95.1333 1.8464 96.1619 1.67132 97.1906L136.812 232.324C137.841 232.147 138.864 231.957 139.892 231.751L2.24307 94.1093ZM62.24 13.5679C61.4471 13.9892 60.6595 14.4161 59.8708 14.858L219.147 174.129C219.588 173.342 220.014 172.554 220.436 171.762L62.24 13.5679ZM181.434 19.308L214.696 52.5641C210.421 46.097 205.434 39.9601 199.738 34.2647C194.044 28.5707 187.907 23.5823 181.434 19.308ZM7.4321 75.8705C7.09604 76.7634 6.77435 77.657 6.46351 78.5551L155.443 227.536C156.341 227.226 157.238 226.904 158.127 226.568L7.4321 75.8705ZM47.8441 22.5943C47.1459 23.1111 46.4538 23.6383 45.7617 24.1701L209.834 188.239C210.366 187.547 210.893 186.854 211.405 186.157L47.8441 22.5943ZM24.1658 45.7599C23.6334 46.4535 23.1068 47.1456 22.5956 47.8475L186.156 211.405C186.853 210.888 187.55 210.366 188.238 209.835L24.1658 45.7599ZM14.8525 59.8744C14.4158 60.6575 13.9847 61.4451 13.5685 62.2379L171.76 220.432C172.553 220.01 173.346 219.583 174.128 219.143L14.8525 59.8744Z" fill="#008AA7"/>
<path d="M141.228 2.52432L231.48 92.7703C231.144 91.1791 230.773 89.5884 230.371 88.0079L145.995 3.63308C144.409 3.23172 142.823 2.86031 141.228 2.52432ZM78.5575 6.46309C77.6589 6.77393 76.7659 7.10019 75.8724 7.43105L226.568 158.129C226.904 157.236 227.225 156.343 227.536 155.444L78.5575 6.46309ZM117.125 0C116.516 0 115.906 0.00507947 115.296 0.0154555L233.988 118.705C234.004 117.487 234.004 116.268 233.984 115.048L118.955 0.0154555C118.344 0.00507947 117.735 0 117.125 0ZM97.1923 1.67549C96.1636 1.85223 95.135 2.0423 94.1068 2.24834L231.756 139.89C231.957 138.866 232.152 137.838 232.328 136.809L97.1923 1.67549ZM19.3036 181.435C23.5785 187.903 28.5665 194.039 34.2605 199.734C39.9562 205.434 46.0977 210.417 52.5655 214.692L19.3036 181.435ZM0.0106676 115.298C-0.00431004 116.518 -0.00431004 117.737 0.0157469 118.957L115.046 233.984C115.701 233.995 116.356 234 117.012 234C117.575 234 118.139 233.996 118.703 233.989L0.0106676 115.298ZM35.189 33.362L34.2605 34.2647L33.3583 35.1885L198.815 200.637L199.738 199.734L200.642 198.811L35.189 33.362ZM2.51961 141.229C2.85611 142.826 3.22712 144.411 3.62831 145.991L88.0105 230.366C89.591 230.773 91.1761 231.144 92.7725 231.475L2.51961 141.229ZM2.24307 94.1093C2.04324 95.1333 1.8464 96.1619 1.67132 97.1906L136.812 232.324C137.841 232.147 138.864 231.957 139.892 231.751L2.24307 94.1093ZM62.24 13.5679C61.4471 13.9892 60.6595 14.4161 59.8708 14.858L219.147 174.129C219.588 173.342 220.014 172.554 220.436 171.762L62.24 13.5679ZM181.434 19.308L214.696 52.5641C210.421 46.097 205.434 39.9601 199.738 34.2647C194.044 28.5707 187.907 23.5823 181.434 19.308ZM7.4321 75.8705C7.09604 76.7634 6.77435 77.657 6.46351 78.5551L155.443 227.536C156.341 227.226 157.238 226.904 158.127 226.568L7.4321 75.8705ZM47.8441 22.5943C47.1459 23.1111 46.4538 23.6383 45.7617 24.1701L209.834 188.239C210.366 187.547 210.893 186.854 211.405 186.157L47.8441 22.5943ZM24.1658 45.7599C23.6334 46.4535 23.1068 47.1456 22.5956 47.8475L186.156 211.405C186.853 210.888 187.55 210.366 188.238 209.835L24.1658 45.7599ZM14.8525 59.8744C14.4158 60.6575 13.9847 61.4451 13.5685 62.2379L171.76 220.432C172.553 220.01 173.346 219.583 174.128 219.143L14.8525 59.8744Z" fill="#008AA7"/>
<path d="M141.228 2.52432L231.48 92.7703C231.144 91.1791 230.773 89.5884 230.371 88.0079L145.995 3.63308C144.409 3.23172 142.823 2.86031 141.228 2.52432ZM78.5575 6.46309C77.6589 6.77393 76.7659 7.10019 75.8724 7.43105L226.568 158.129C226.904 157.236 227.225 156.343 227.536 155.444L78.5575 6.46309ZM117.125 0C116.516 0 115.906 0.00507947 115.296 0.0154555L233.988 118.705C234.004 117.487 234.004 116.268 233.984 115.048L118.955 0.0154555C118.344 0.00507947 117.735 0 117.125 0ZM97.1923 1.67549C96.1636 1.85223 95.135 2.0423 94.1068 2.24834L231.756 139.89C231.957 138.866 232.152 137.838 232.328 136.809L97.1923 1.67549ZM19.3036 181.435C23.5785 187.903 28.5665 194.039 34.2605 199.734C39.9562 205.434 46.0977 210.417 52.5655 214.692L19.3036 181.435ZM0.0106676 115.298C-0.00431004 116.518 -0.00431004 117.737 0.0157469 118.957L115.046 233.984C115.701 233.995 116.356 234 117.012 234C117.575 234 118.139 233.996 118.703 233.989L0.0106676 115.298ZM35.189 33.362L34.2605 34.2647L33.3583 35.1885L198.815 200.637L199.738 199.734L200.642 198.811L35.189 33.362ZM2.51961 141.229C2.85611 142.826 3.22712 144.411 3.62831 145.991L88.0105 230.366C89.591 230.773 91.1761 231.144 92.7725 231.475L2.51961 141.229ZM2.24307 94.1093C2.04324 95.1333 1.8464 96.1619 1.67132 97.1906L136.812 232.324C137.841 232.147 138.864 231.957 139.892 231.751L2.24307 94.1093ZM62.24 13.5679C61.4471 13.9892 60.6595 14.4161 59.8708 14.858L219.147 174.129C219.588 173.342 220.014 172.554 220.436 171.762L62.24 13.5679ZM181.434 19.308L214.696 52.5641C210.421 46.097 205.434 39.9601 199.738 34.2647C194.044 28.5707 187.907 23.5823 181.434 19.308ZM7.4321 75.8705C7.09604 76.7634 6.77435 77.657 6.46351 78.5551L155.443 227.536C156.341 227.226 157.238 226.904 158.127 226.568L7.4321 75.8705ZM47.8441 22.5943C47.1459 23.1111 46.4538 23.6383 45.7617 24.1701L209.834 188.239C210.366 187.547 210.893 186.854 211.405 186.157L47.8441 22.5943ZM24.1658 45.7599C23.6334 46.4535 23.1068 47.1456 22.5956 47.8475L186.156 211.405C186.853 210.888 187.55 210.366 188.238 209.835L24.1658 45.7599ZM14.8525 59.8744C14.4158 60.6575 13.9847 61.4451 13.5685 62.2379L171.76 220.432C172.553 220.01 173.346 219.583 174.128 219.143L14.8525 59.8744Z" fill="#008AA7"/>
<path d="M141.228 2.52432L231.48 92.7703C231.144 91.1791 230.773 89.5884 230.371 88.0079L145.995 3.63308C144.409 3.23172 142.823 2.86031 141.228 2.52432ZM78.5575 6.46309C77.6589 6.77393 76.7659 7.10019 75.8724 7.43105L226.568 158.129C226.904 157.236 227.225 156.343 227.536 155.444L78.5575 6.46309ZM117.125 0C116.516 0 115.906 0.00507947 115.296 0.0154555L233.988 118.705C234.004 117.487 234.004 116.268 233.984 115.048L118.955 0.0154555C118.344 0.00507947 117.735 0 117.125 0ZM97.1923 1.67549C96.1636 1.85223 95.135 2.0423 94.1068 2.24834L231.756 139.89C231.957 138.866 232.152 137.838 232.328 136.809L97.1923 1.67549ZM19.3036 181.435C23.5785 187.903 28.5665 194.039 34.2605 199.734C39.9562 205.434 46.0977 210.417 52.5655 214.692L19.3036 181.435ZM0.0106676 115.298C-0.00431004 116.518 -0.00431004 117.737 0.0157469 118.957L115.046 233.984C115.701 233.995 116.356 234 117.012 234C117.575 234 118.139 233.996 118.703 233.989L0.0106676 115.298ZM35.189 33.362L34.2605 34.2647L33.3583 35.1885L198.815 200.637L199.738 199.734L200.642 198.811L35.189 33.362ZM2.51961 141.229C2.85611 142.826 3.22712 144.411 3.62831 145.991L88.0105 230.366C89.591 230.773 91.1761 231.144 92.7725 231.475L2.51961 141.229ZM2.24307 94.1093C2.04324 95.1333 1.8464 96.1619 1.67132 97.1906L136.812 232.324C137.841 232.147 138.864 231.957 139.892 231.751L2.24307 94.1093ZM62.24 13.5679C61.4471 13.9892 60.6595 14.4161 59.8708 14.858L219.147 174.129C219.588 173.342 220.014 172.554 220.436 171.762L62.24 13.5679ZM181.434 19.308L214.696 52.5641C210.421 46.097 205.434 39.9601 199.738 34.2647C194.044 28.5707 187.907 23.5823 181.434 19.308ZM7.4321 75.8705C7.09604 76.7634 6.77435 77.657 6.46351 78.5551L155.443 227.536C156.341 227.226 157.238 226.904 158.127 226.568L7.4321 75.8705ZM47.8441 22.5943C47.1459 23.1111 46.4538 23.6383 45.7617 24.1701L209.834 188.239C210.366 187.547 210.893 186.854 211.405 186.157L47.8441 22.5943ZM24.1658 45.7599C23.6334 46.4535 23.1068 47.1456 22.5956 47.8475L186.156 211.405C186.853 210.888 187.55 210.366 188.238 209.835L24.1658 45.7599ZM14.8525 59.8744C14.4158 60.6575 13.9847 61.4451 13.5685 62.2379L171.76 220.432C172.553 220.01 173.346 219.583 174.128 219.143L14.8525 59.8744Z" fill="#008AA7"/>
<path d="M141.228 2.52432L231.48 92.7703C231.144 91.1791 230.773 89.5884 230.371 88.0079L145.995 3.63308C144.409 3.23172 142.823 2.86031 141.228 2.52432ZM78.5575 6.46309C77.6589 6.77393 76.7659 7.10019 75.8724 7.43105L226.568 158.129C226.904 157.236 227.225 156.343 227.536 155.444L78.5575 6.46309ZM117.125 0C116.516 0 115.906 0.00507947 115.296 0.0154555L233.988 118.705C234.004 117.487 234.004 116.268 233.984 115.048L118.955 0.0154555C118.344 0.00507947 117.735 0 117.125 0ZM97.1923 1.67549C96.1636 1.85223 95.135 2.0423 94.1068 2.24834L231.756 139.89C231.957 138.866 232.152 137.838 232.328 136.809L97.1923 1.67549ZM19.3036 181.435C23.5785 187.903 28.5665 194.039 34.2605 199.734C39.9562 205.434 46.0977 210.417 52.5655 214.692L19.3036 181.435ZM0.0106676 115.298C-0.00431004 116.518 -0.00431004 117.737 0.0157469 118.957L115.046 233.984C115.701 233.995 116.356 234 117.012 234C117.575 234 118.139 233.996 118.703 233.989L0.0106676 115.298ZM35.189 33.362L34.2605 34.2647L33.3583 35.1885L198.815 200.637L199.738 199.734L200.642 198.811L35.189 33.362ZM2.51961 141.229C2.85611 142.826 3.22712 144.411 3.62831 145.991L88.0105 230.366C89.591 230.773 91.1761 231.144 92.7725 231.475L2.51961 141.229ZM2.24307 94.1093C2.04324 95.1333 1.8464 96.1619 1.67132 97.1906L136.812 232.324C137.841 232.147 138.864 231.957 139.892 231.751L2.24307 94.1093ZM62.24 13.5679C61.4471 13.9892 60.6595 14.4161 59.8708 14.858L219.147 174.129C219.588 173.342 220.014 172.554 220.436 171.762L62.24 13.5679ZM181.434 19.308L214.696 52.5641C210.421 46.097 205.434 39.9601 199.738 34.2647C194.044 28.5707 187.907 23.5823 181.434 19.308ZM7.4321 75.8705C7.09604 76.7634 6.77435 77.657 6.46351 78.5551L155.443 227.536C156.341 227.226 157.238 226.904 158.127 226.568L7.4321 75.8705ZM47.8441 22.5943C47.1459 23.1111 46.4538 23.6383 45.7617 24.1701L209.834 188.239C210.366 187.547 210.893 186.854 211.405 186.157L47.8441 22.5943ZM24.1658 45.7599C23.6334 46.4535 23.1068 47.1456 22.5956 47.8475L186.156 211.405C186.853 210.888 187.55 210.366 188.238 209.835L24.1658 45.7599ZM14.8525 59.8744C14.4158 60.6575 13.9847 61.4451 13.5685 62.2379L171.76 220.432C172.553 220.01 173.346 219.583 174.128 219.143L14.8525 59.8744Z" fill="#008AA7"/>
<path d="M141.228 2.52432L231.48 92.7703C231.144 91.1791 230.773 89.5884 230.371 88.0079L145.995 3.63308C144.409 3.23172 142.823 2.86031 141.228 2.52432ZM78.5575 6.46309C77.6589 6.77393 76.7659 7.10019 75.8724 7.43105L226.568 158.129C226.904 157.236 227.225 156.343 227.536 155.444L78.5575 6.46309ZM117.125 0C116.516 0 115.906 0.00507947 115.296 0.0154555L233.988 118.705C234.004 117.487 234.004 116.268 233.984 115.048L118.955 0.0154555C118.344 0.00507947 117.735 0 117.125 0ZM97.1923 1.67549C96.1636 1.85223 95.135 2.0423 94.1068 2.24834L231.756 139.89C231.957 138.866 232.152 137.838 232.328 136.809L97.1923 1.67549ZM19.3036 181.435C23.5785 187.903 28.5665 194.039 34.2605 199.734C39.9562 205.434 46.0977 210.417 52.5655 214.692L19.3036 181.435ZM0.0106676 115.298C-0.00431004 116.518 -0.00431004 117.737 0.0157469 118.957L115.046 233.984C115.701 233.995 116.356 234 117.012 234C117.575 234 118.139 233.996 118.703 233.989L0.0106676 115.298ZM35.189 33.362L34.2605 34.2647L33.3583 35.1885L198.815 200.637L199.738 199.734L200.642 198.811L35.189 33.362ZM2.51961 141.229C2.85611 142.826 3.22712 144.411 3.62831 145.991L88.0105 230.366C89.591 230.773 91.1761 231.144 92.7725 231.475L2.51961 141.229ZM2.24307 94.1093C2.04324 95.1333 1.8464 96.1619 1.67132 97.1906L136.812 232.324C137.841 232.147 138.864 231.957 139.892 231.751L2.24307 94.1093ZM62.24 13.5679C61.4471 13.9892 60.6595 14.4161 59.8708 14.858L219.147 174.129C219.588 173.342 220.014 172.554 220.436 171.762L62.24 13.5679ZM181.434 19.308L214.696 52.5641C210.421 46.097 205.434 39.9601 199.738 34.2647C194.044 28.5707 187.907 23.5823 181.434 19.308ZM7.4321 75.8705C7.09604 76.7634 6.77435 77.657 6.46351 78.5551L155.443 227.536C156.341 227.226 157.238 226.904 158.127 226.568L7.4321 75.8705ZM47.8441 22.5943C47.1459 23.1111 46.4538 23.6383 45.7617 24.1701L209.834 188.239C210.366 187.547 210.893 186.854 211.405 186.157L47.8441 22.5943ZM24.1658 45.7599C23.6334 46.4535 23.1068 47.1456 22.5956 47.8475L186.156 211.405C186.853 210.888 187.55 210.366 188.238 209.835L24.1658 45.7599ZM14.8525 59.8744C14.4158 60.6575 13.9847 61.4451 13.5685 62.2379L171.76 220.432C172.553 220.01 173.346 219.583 174.128 219.143L14.8525 59.8744Z" fill="#008AA7"/>
<path d="M141.228 2.52432L231.48 92.7703C231.144 91.1791 230.773 89.5884 230.371 88.0079L145.995 3.63308C144.409 3.23172 142.823 2.86031 141.228 2.52432ZM78.5575 6.46309C77.6589 6.77393 76.7659 7.10019 75.8724 7.43105L226.568 158.129C226.904 157.236 227.225 156.343 227.536 155.444L78.5575 6.46309ZM117.125 0C116.516 0 115.906 0.00507947 115.296 0.0154555L233.988 118.705C234.004 117.487 234.004 116.268 233.984 115.048L118.955 0.0154555C118.344 0.00507947 117.735 0 117.125 0ZM97.1923 1.67549C96.1636 1.85223 95.135 2.0423 94.1068 2.24834L231.756 139.89C231.957 138.866 232.152 137.838 232.328 136.809L97.1923 1.67549ZM19.3036 181.435C23.5785 187.903 28.5665 194.039 34.2605 199.734C39.9562 205.434 46.0977 210.417 52.5655 214.692L19.3036 181.435ZM0.0106676 115.298C-0.00431004 116.518 -0.00431004 117.737 0.0157469 118.957L115.046 233.984C115.701 233.995 116.356 234 117.012 234C117.575 234 118.139 233.996 118.703 233.989L0.0106676 115.298ZM35.189 33.362L34.2605 34.2647L33.3583 35.1885L198.815 200.637L199.738 199.734L200.642 198.811L35.189 33.362ZM2.51961 141.229C2.85611 142.826 3.22712 144.411 3.62831 145.991L88.0105 230.366C89.591 230.773 91.1761 231.144 92.7725 231.475L2.51961 141.229ZM2.24307 94.1093C2.04324 95.1333 1.8464 96.1619 1.67132 97.1906L136.812 232.324C137.841 232.147 138.864 231.957 139.892 231.751L2.24307 94.1093ZM62.24 13.5679C61.4471 13.9892 60.6595 14.4161 59.8708 14.858L219.147 174.129C219.588 173.342 220.014 172.554 220.436 171.762L62.24 13.5679ZM181.434 19.308L214.696 52.5641C210.421 46.097 205.434 39.9601 199.738 34.2647C194.044 28.5707 187.907 23.5823 181.434 19.308ZM7.4321 75.8705C7.09604 76.7634 6.77435 77.657 6.46351 78.5551L155.443 227.536C156.341 227.226 157.238 226.904 158.127 226.568L7.4321 75.8705ZM47.8441 22.5943C47.1459 23.1111 46.4538 23.6383 45.7617 24.1701L209.834 188.239C210.366 187.547 210.893 186.854 211.405 186.157L47.8441 22.5943ZM24.1658 45.7599C23.6334 46.4535 23.1068 47.1456 22.5956 47.8475L186.156 211.405C186.853 210.888 187.55 210.366 188.238 209.835L24.1658 45.7599ZM14.8525 59.8744C14.4158 60.6575 13.9847 61.4451 13.5685 62.2379L171.76 220.432C172.553 220.01 173.346 219.583 174.128 219.143L14.8525 59.8744Z" fill="#008AA7"/>
<path d="M141.228 2.52432L231.48 92.7703C231.144 91.1791 230.773 89.5884 230.371 88.0079L145.995 3.63308C144.409 3.23172 142.823 2.86031 141.228 2.52432ZM78.5575 6.46309C77.6589 6.77393 76.7659 7.10019 75.8724 7.43105L226.568 158.129C226.904 157.236 227.225 156.343 227.536 155.444L78.5575 6.46309ZM117.125 0C116.516 0 115.906 0.00507947 115.296 0.0154555L233.988 118.705C234.004 117.487 234.004 116.268 233.984 115.048L118.955 0.0154555C118.344 0.00507947 117.735 0 117.125 0ZM97.1923 1.67549C96.1636 1.85223 95.135 2.0423 94.1068 2.24834L231.756 139.89C231.957 138.866 232.152 137.838 232.328 136.809L97.1923 1.67549ZM19.3036 181.435C23.5785 187.903 28.5665 194.039 34.2605 199.734C39.9562 205.434 46.0977 210.417 52.5655 214.692L19.3036 181.435ZM0.0106676 115.298C-0.00431004 116.518 -0.00431004 117.737 0.0157469 118.957L115.046 233.984C115.701 233.995 116.356 234 117.012 234C117.575 234 118.139 233.996 118.703 233.989L0.0106676 115.298ZM35.189 33.362L34.2605 34.2647L33.3583 35.1885L198.815 200.637L199.738 199.734L200.642 198.811L35.189 33.362ZM2.51961 141.229C2.85611 142.826 3.22712 144.411 3.62831 145.991L88.0105 230.366C89.591 230.773 91.1761 231.144 92.7725 231.475L2.51961 141.229ZM2.24307 94.1093C2.04324 95.1333 1.8464 96.1619 1.67132 97.1906L136.812 232.324C137.841 232.147 138.864 231.957 139.892 231.751L2.24307 94.1093ZM62.24 13.5679C61.4471 13.9892 60.6595 14.4161 59.8708 14.858L219.147 174.129C219.588 173.342 220.014 172.554 220.436 171.762L62.24 13.5679ZM181.434 19.308L214.696 52.5641C210.421 46.097 205.434 39.9601 199.738 34.2647C194.044 28.5707 187.907 23.5823 181.434 19.308ZM7.4321 75.8705C7.09604 76.7634 6.77435 77.657 6.46351 78.5551L155.443 227.536C156.341 227.226 157.238 226.904 158.127 226.568L7.4321 75.8705ZM47.8441 22.5943C47.1459 23.1111 46.4538 23.6383 45.7617 24.1701L209.834 188.239C210.366 187.547 210.893 186.854 211.405 186.157L47.8441 22.5943ZM24.1658 45.7599C23.6334 46.4535 23.1068 47.1456 22.5956 47.8475L186.156 211.405C186.853 210.888 187.55 210.366 188.238 209.835L24.1658 45.7599ZM14.8525 59.8744C14.4158 60.6575 13.9847 61.4451 13.5685 62.2379L171.76 220.432C172.553 220.01 173.346 219.583 174.128 219.143L14.8525 59.8744Z" fill="#008AA7"/>
<path d="M141.228 2.52432L231.48 92.7703C231.144 91.1791 230.773 89.5884 230.371 88.0079L145.995 3.63308C144.409 3.23172 142.823 2.86031 141.228 2.52432ZM78.5575 6.46309C77.6589 6.77393 76.7659 7.10019 75.8724 7.43105L226.568 158.129C226.904 157.236 227.225 156.343 227.536 155.444L78.5575 6.46309ZM117.125 0C116.516 0 115.906 0.00507947 115.296 0.0154555L233.988 118.705C234.004 117.487 234.004 116.268 233.984 115.048L118.955 0.0154555C118.344 0.00507947 117.735 0 117.125 0ZM97.1923 1.67549C96.1636 1.85223 95.135 2.0423 94.1068 2.24834L231.756 139.89C231.957 138.866 232.152 137.838 232.328 136.809L97.1923 1.67549ZM19.3036 181.435C23.5785 187.903 28.5665 194.039 34.2605 199.734C39.9562 205.434 46.0977 210.417 52.5655 214.692L19.3036 181.435ZM0.0106676 115.298C-0.00431004 116.518 -0.00431004 117.737 0.0157469 118.957L115.046 233.984C115.701 233.995 116.356 234 117.012 234C117.575 234 118.139 233.996 118.703 233.989L0.0106676 115.298ZM35.189 33.362L34.2605 34.2647L33.3583 35.1885L198.815 200.637L199.738 199.734L200.642 198.811L35.189 33.362ZM2.51961 141.229C2.85611 142.826 3.22712 144.411 3.62831 145.991L88.0105 230.366C89.591 230.773 91.1761 231.144 92.7725 231.475L2.51961 141.229ZM2.24307 94.1093C2.04324 95.1333 1.8464 96.1619 1.67132 97.1906L136.812 232.324C137.841 232.147 138.864 231.957 139.892 231.751L2.24307 94.1093ZM62.24 13.5679C61.4471 13.9892 60.6595 14.4161 59.8708 14.858L219.147 174.129C219.588 173.342 220.014 172.554 220.436 171.762L62.24 13.5679ZM181.434 19.308L214.696 52.5641C210.421 46.097 205.434 39.9601 199.738 34.2647C194.044 28.5707 187.907 23.5823 181.434 19.308ZM7.4321 75.8705C7.09604 76.7634 6.77435 77.657 6.46351 78.5551L155.443 227.536C156.341 227.226 157.238 226.904 158.127 226.568L7.4321 75.8705ZM47.8441 22.5943C47.1459 23.1111 46.4538 23.6383 45.7617 24.1701L209.834 188.239C210.366 187.547 210.893 186.854 211.405 186.157L47.8441 22.5943ZM24.1658 45.7599C23.6334 46.4535 23.1068 47.1456 22.5956 47.8475L186.156 211.405C186.853 210.888 187.55 210.366 188.238 209.835L24.1658 45.7599ZM14.8525 59.8744C14.4158 60.6575 13.9847 61.4451 13.5685 62.2379L171.76 220.432C172.553 220.01 173.346 219.583 174.128 219.143L14.8525 59.8744Z" fill="#008AA7"/>
<path d="M141.228 2.52432L231.48 92.7703C231.144 91.1791 230.773 89.5884 230.371 88.0079L145.995 3.63308C144.409 3.23172 142.823 2.86031 141.228 2.52432ZM78.5575 6.46309C77.6589 6.77393 76.7659 7.10019 75.8724 7.43105L226.568 158.129C226.904 157.236 227.225 156.343 227.536 155.444L78.5575 6.46309ZM117.125 0C116.516 0 115.906 0.00507947 115.296 0.0154555L233.988 118.705C234.004 117.487 234.004 116.268 233.984 115.048L118.955 0.0154555C118.344 0.00507947 117.735 0 117.125 0ZM97.1923 1.67549C96.1636 1.85223 95.135 2.0423 94.1068 2.24834L231.756 139.89C231.957 138.866 232.152 137.838 232.328 136.809L97.1923 1.67549ZM19.3036 181.435C23.5785 187.903 28.5665 194.039 34.2605 199.734C39.9562 205.434 46.0977 210.417 52.5655 214.692L19.3036 181.435ZM0.0106676 115.298C-0.00431004 116.518 -0.00431004 117.737 0.0157469 118.957L115.046 233.984C115.701 233.995 116.356 234 117.012 234C117.575 234 118.139 233.996 118.703 233.989L0.0106676 115.298ZM35.189 33.362L34.2605 34.2647L33.3583 35.1885L198.815 200.637L199.738 199.734L200.642 198.811L35.189 33.362ZM2.51961 141.229C2.85611 142.826 3.22712 144.411 3.62831 145.991L88.0105 230.366C89.591 230.773 91.1761 231.144 92.7725 231.475L2.51961 141.229ZM2.24307 94.1093C2.04324 95.1333 1.8464 96.1619 1.67132 97.1906L136.812 232.324C137.841 232.147 138.864 231.957 139.892 231.751L2.24307 94.1093ZM62.24 13.5679C61.4471 13.9892 60.6595 14.4161 59.8708 14.858L219.147 174.129C219.588 173.342 220.014 172.554 220.436 171.762L62.24 13.5679ZM181.434 19.308L214.696 52.5641C210.421 46.097 205.434 39.9601 199.738 34.2647C194.044 28.5707 187.907 23.5823 181.434 19.308ZM7.4321 75.8705C7.09604 76.7634 6.77435 77.657 6.46351 78.5551L155.443 227.536C156.341 227.226 157.238 226.904 158.127 226.568L7.4321 75.8705ZM47.8441 22.5943C47.1459 23.1111 46.4538 23.6383 45.7617 24.1701L209.834 188.239C210.366 187.547 210.893 186.854 211.405 186.157L47.8441 22.5943ZM24.1658 45.7599C23.6334 46.4535 23.1068 47.1456 22.5956 47.8475L186.156 211.405C186.853 210.888 187.55 210.366 188.238 209.835L24.1658 45.7599ZM14.8525 59.8744C14.4158 60.6575 13.9847 61.4451 13.5685 62.2379L171.76 220.432C172.553 220.01 173.346 219.583 174.128 219.143L14.8525 59.8744Z" fill="#008AA7"/>
<path d="M141.228 2.52432L231.48 92.7703C231.144 91.1791 230.773 89.5884 230.371 88.0079L145.995 3.63308C144.409 3.23172 142.823 2.86031 141.228 2.52432ZM78.5575 6.46309C77.6589 6.77393 76.7659 7.10019 75.8724 7.43105L226.568 158.129C226.904 157.236 227.225 156.343 227.536 155.444L78.5575 6.46309ZM117.125 0C116.516 0 115.906 0.00507947 115.296 0.0154555L233.988 118.705C234.004 117.487 234.004 116.268 233.984 115.048L118.955 0.0154555C118.344 0.00507947 117.735 0 117.125 0ZM97.1923 1.67549C96.1636 1.85223 95.135 2.0423 94.1068 2.24834L231.756 139.89C231.957 138.866 232.152 137.838 232.328 136.809L97.1923 1.67549ZM19.3036 181.435C23.5785 187.903 28.5665 194.039 34.2605 199.734C39.9562 205.434 46.0977 210.417 52.5655 214.692L19.3036 181.435ZM0.0106676 115.298C-0.00431004 116.518 -0.00431004 117.737 0.0157469 118.957L115.046 233.984C115.701 233.995 116.356 234 117.012 234C117.575 234 118.139 233.996 118.703 233.989L0.0106676 115.298ZM35.189 33.362L34.2605 34.2647L33.3583 35.1885L198.815 200.637L199.738 199.734L200.642 198.811L35.189 33.362ZM2.51961 141.229C2.85611 142.826 3.22712 144.411 3.62831 145.991L88.0105 230.366C89.591 230.773 91.1761 231.144 92.7725 231.475L2.51961 141.229ZM2.24307 94.1093C2.04324 95.1333 1.8464 96.1619 1.67132 97.1906L136.812 232.324C137.841 232.147 138.864 231.957 139.892 231.751L2.24307 94.1093ZM62.24 13.5679C61.4471 13.9892 60.6595 14.4161 59.8708 14.858L219.147 174.129C219.588 173.342 220.014 172.554 220.436 171.762L62.24 13.5679ZM181.434 19.308L214.696 52.5641C210.421 46.097 205.434 39.9601 199.738 34.2647C194.044 28.5707 187.907 23.5823 181.434 19.308ZM7.4321 75.8705C7.09604 76.7634 6.77435 77.657 6.46351 78.5551L155.443 227.536C156.341 227.226 157.238 226.904 158.127 226.568L7.4321 75.8705ZM47.8441 22.5943C47.1459 23.1111 46.4538 23.6383 45.7617 24.1701L209.834 188.239C210.366 187.547 210.893 186.854 211.405 186.157L47.8441 22.5943ZM24.1658 45.7599C23.6334 46.4535 23.1068 47.1456 22.5956 47.8475L186.156 211.405C186.853 210.888 187.55 210.366 188.238 209.835L24.1658 45.7599ZM14.8525 59.8744C14.4158 60.6575 13.9847 61.4451 13.5685 62.2379L171.76 220.432C172.553 220.01 173.346 219.583 174.128 219.143L14.8525 59.8744Z" fill="#008AA7"/>
<path d="M141.228 2.52432L231.48 92.7703C231.144 91.1791 230.773 89.5884 230.371 88.0079L145.995 3.63308C144.409 3.23172 142.823 2.86031 141.228 2.52432ZM78.5575 6.46309C77.6589 6.77393 76.7659 7.10019 75.8724 7.43105L226.568 158.129C226.904 157.236 227.225 156.343 227.536 155.444L78.5575 6.46309ZM117.125 0C116.516 0 115.906 0.00507947 115.296 0.0154555L233.988 118.705C234.004 117.487 234.004 116.268 233.984 115.048L118.955 0.0154555C118.344 0.00507947 117.735 0 117.125 0ZM97.1923 1.67549C96.1636 1.85223 95.135 2.0423 94.1068 2.24834L231.756 139.89C231.957 138.866 232.152 137.838 232.328 136.809L97.1923 1.67549ZM19.3036 181.435C23.5785 187.903 28.5665 194.039 34.2605 199.734C39.9562 205.434 46.0977 210.417 52.5655 214.692L19.3036 181.435ZM0.0106676 115.298C-0.00431004 116.518 -0.00431004 117.737 0.0157469 118.957L115.046 233.984C115.701 233.995 116.356 234 117.012 234C117.575 234 118.139 233.996 118.703 233.989L0.0106676 115.298ZM35.189 33.362L34.2605 34.2647L33.3583 35.1885L198.815 200.637L199.738 199.734L200.642 198.811L35.189 33.362ZM2.51961 141.229C2.85611 142.826 3.22712 144.411 3.62831 145.991L88.0105 230.366C89.591 230.773 91.1761 231.144 92.7725 231.475L2.51961 141.229ZM2.24307 94.1093C2.04324 95.1333 1.8464 96.1619 1.67132 97.1906L136.812 232.324C137.841 232.147 138.864 231.957 139.892 231.751L2.24307 94.1093ZM62.24 13.5679C61.4471 13.9892 60.6595 14.4161 59.8708 14.858L219.147 174.129C219.588 173.342 220.014 172.554 220.436 171.762L62.24 13.5679ZM181.434 19.308L214.696 52.5641C210.421 46.097 205.434 39.9601 199.738 34.2647C194.044 28.5707 187.907 23.5823 181.434 19.308ZM7.4321 75.8705C7.09604 76.7634 6.77435 77.657 6.46351 78.5551L155.443 227.536C156.341 227.226 157.238 226.904 158.127 226.568L7.4321 75.8705ZM47.8441 22.5943C47.1459 23.1111 46.4538 23.6383 45.7617 24.1701L209.834 188.239C210.366 187.547 210.893 186.854 211.405 186.157L47.8441 22.5943ZM24.1658 45.7599C23.6334 46.4535 23.1068 47.1456 22.5956 47.8475L186.156 211.405C186.853 210.888 187.55 210.366 188.238 209.835L24.1658 45.7599ZM14.8525 59.8744C14.4158 60.6575 13.9847 61.4451 13.5685 62.2379L171.76 220.432C172.553 220.01 173.346 219.583 174.128 219.143L14.8525 59.8744Z" fill="#008AA7"/>
<path d="M141.228 2.52432L231.48 92.7703C231.144 91.1791 230.773 89.5884 230.371 88.0079L145.995 3.63308C144.409 3.23172 142.823 2.86031 141.228 2.52432ZM78.5575 6.46309C77.6589 6.77393 76.7659 7.10019 75.8724 7.43105L226.568 158.129C226.904 157.236 227.225 156.343 227.536 155.444L78.5575 6.46309ZM117.125 0C116.516 0 115.906 0.00507947 115.296 0.0154555L233.988 118.705C234.004 117.487 234.004 116.268 233.984 115.048L118.955 0.0154555C118.344 0.00507947 117.735 0 117.125 0ZM97.1923 1.67549C96.1636 1.85223 95.135 2.0423 94.1068 2.24834L231.756 139.89C231.957 138.866 232.152 137.838 232.328 136.809L97.1923 1.67549ZM19.3036 181.435C23.5785 187.903 28.5665 194.039 34.2605 199.734C39.9562 205.434 46.0977 210.417 52.5655 214.692L19.3036 181.435ZM0.0106676 115.298C-0.00431004 116.518 -0.00431004 117.737 0.0157469 118.957L115.046 233.984C115.701 233.995 116.356 234 117.012 234C117.575 234 118.139 233.996 118.703 233.989L0.0106676 115.298ZM35.189 33.362L34.2605 34.2647L33.3583 35.1885L198.815 200.637L199.738 199.734L200.642 198.811L35.189 33.362ZM2.51961 141.229C2.85611 142.826 3.22712 144.411 3.62831 145.991L88.0105 230.366C89.591 230.773 91.1761 231.144 92.7725 231.475L2.51961 141.229ZM2.24307 94.1093C2.04324 95.1333 1.8464 96.1619 1.67132 97.1906L136.812 232.324C137.841 232.147 138.864 231.957 139.892 231.751L2.24307 94.1093ZM62.24 13.5679C61.4471 13.9892 60.6595 14.4161 59.8708 14.858L219.147 174.129C219.588 173.342 220.014 172.554 220.436 171.762L62.24 13.5679ZM181.434 19.308L214.696 52.5641C210.421 46.097 205.434 39.9601 199.738 34.2647C194.044 28.5707 187.907 23.5823 181.434 19.308ZM7.4321 75.8705C7.09604 76.7634 6.77435 77.657 6.46351 78.5551L155.443 227.536C156.341 227.226 157.238 226.904 158.127 226.568L7.4321 75.8705ZM47.8441 22.5943C47.1459 23.1111 46.4538 23.6383 45.7617 24.1701L209.834 188.239C210.366 187.547 210.893 186.854 211.405 186.157L47.8441 22.5943ZM24.1658 45.7599C23.6334 46.4535 23.1068 47.1456 22.5956 47.8475L186.156 211.405C186.853 210.888 187.55 210.366 188.238 209.835L24.1658 45.7599ZM14.8525 59.8744C14.4158 60.6575 13.9847 61.4451 13.5685 62.2379L171.76 220.432C172.553 220.01 173.346 219.583 174.128 219.143L14.8525 59.8744Z" fill="#008AA7"/>
<path d="M141.228 2.52432L231.48 92.7703C231.144 91.1791 230.773 89.5884 230.371 88.0079L145.995 3.63308C144.409 3.23172 142.823 2.86031 141.228 2.52432ZM78.5575 6.46309C77.6589 6.77393 76.7659 7.10019 75.8724 7.43105L226.568 158.129C226.904 157.236 227.225 156.343 227.536 155.444L78.5575 6.46309ZM117.125 0C116.516 0 115.906 0.00507947 115.296 0.0154555L233.988 118.705C234.004 117.487 234.004 116.268 233.984 115.048L118.955 0.0154555C118.344 0.00507947 117.735 0 117.125 0ZM97.1923 1.67549C96.1636 1.85223 95.135 2.0423 94.1068 2.24834L231.756 139.89C231.957 138.866 232.152 137.838 232.328 136.809L97.1923 1.67549ZM19.3036 181.435C23.5785 187.903 28.5665 194.039 34.2605 199.734C39.9562 205.434 46.0977 210.417 52.5655 214.692L19.3036 181.435ZM0.0106676 115.298C-0.00431004 116.518 -0.00431004 117.737 0.0157469 118.957L115.046 233.984C115.701 233.995 116.356 234 117.012 234C117.575 234 118.139 233.996 118.703 233.989L0.0106676 115.298ZM35.189 33.362L34.2605 34.2647L33.3583 35.1885L198.815 200.637L199.738 199.734L200.642 198.811L35.189 33.362ZM2.51961 141.229C2.85611 142.826 3.22712 144.411 3.62831 145.991L88.0105 230.366C89.591 230.773 91.1761 231.144 92.7725 231.475L2.51961 141.229ZM2.24307 94.1093C2.04324 95.1333 1.8464 96.1619 1.67132 97.1906L136.812 232.324C137.841 232.147 138.864 231.957 139.892 231.751L2.24307 94.1093ZM62.24 13.5679C61.4471 13.9892 60.6595 14.4161 59.8708 14.858L219.147 174.129C219.588 173.342 220.014 172.554 220.436 171.762L62.24 13.5679ZM181.434 19.308L214.696 52.5641C210.421 46.097 205.434 39.9601 199.738 34.2647C194.044 28.5707 187.907 23.5823 181.434 19.308ZM7.4321 75.8705C7.09604 76.7634 6.77435 77.657 6.46351 78.5551L155.443 227.536C156.341 227.226 157.238 226.904 158.127 226.568L7.4321 75.8705ZM47.8441 22.5943C47.1459 23.1111 46.4538 23.6383 45.7617 24.1701L209.834 188.239C210.366 187.547 210.893 186.854 211.405 186.157L47.8441 22.5943ZM24.1658 45.7599C23.6334 46.4535 23.1068 47.1456 22.5956 47.8475L186.156 211.405C186.853 210.888 187.55 210.366 188.238 209.835L24.1658 45.7599ZM14.8525 59.8744C14.4158 60.6575 13.9847 61.4451 13.5685 62.2379L171.76 220.432C172.553 220.01 173.346 219.583 174.128 219.143L14.8525 59.8744Z" fill="#008AA7"/>
</svg>
