<svg width="146" height="138" viewBox="0 0 146 138" fill="none" xmlns="http://www.w3.org/2000/svg">
<path d="M88.1164 -6.42502L144.428 49.8822C144.218 48.8894 143.987 47.897 143.736 46.9109L91.0908 -5.7332C90.1014 -5.98355 89.1121 -6.21539 88.1164 -6.42502ZM49.0145 -3.96747C48.4538 -3.77353 47.8966 -3.56999 47.3392 -3.36353L141.363 90.6617C141.573 90.1045 141.773 89.547 141.967 88.9866L49.0145 -3.96747ZM73.078 -8C72.6977 -8 72.3172 -7.99678 71.9367 -7.99038L145.993 66.0639C146.003 65.3035 146.003 64.5431 145.99 63.7821L74.2196 -7.99038C73.8387 -7.99678 73.4585 -8 73.078 -8ZM60.6414 -6.95461C59.9995 -6.84434 59.3577 -6.72569 58.7163 -6.59719L144.6 79.2818C144.725 78.6426 144.847 78.0012 144.957 77.3594L60.6414 -6.95461ZM12.0442 105.203C14.7114 109.239 17.8236 113.067 21.3763 116.621C24.9299 120.177 28.7618 123.286 32.7973 125.953L12.0442 105.203ZM0.00665045 63.9382C-0.00269456 64.6992 -0.00269456 65.4596 0.0098738 66.2207L71.7806 137.99C72.1893 137.997 72.5984 138 73.0078 138C73.3591 138 73.7108 137.998 74.0625 137.993L0.00665045 63.9382ZM21.9555 12.8156L21.3763 13.3788L20.8133 13.9552L124.047 117.184L124.623 116.621L125.187 116.044L21.9555 12.8156ZM1.57206 80.1173C1.78201 81.1133 2.0135 82.1026 2.26386 83.0884L54.9125 135.733C55.8986 135.986 56.8876 136.218 57.8837 136.425L1.57206 80.1173ZM1.39952 50.7177C1.27489 51.3566 1.15208 51.9984 1.04275 52.6402L85.3613 136.954C86.0031 136.844 86.6414 136.725 87.2832 136.597L1.39952 50.7177ZM38.8335 0.465463C38.3389 0.728293 37.8474 0.994727 37.3553 1.2704L136.733 100.645C137.008 100.153 137.274 99.6621 137.537 99.1675L38.8335 0.465463ZM113.203 4.0469L133.956 24.7964C131.288 20.7613 128.177 16.9324 124.623 13.3788C121.07 9.82622 117.241 6.71378 113.203 4.0469ZM4.63709 39.338C4.42744 39.8952 4.22678 40.4527 4.03283 41.013L96.9856 133.967C97.546 133.773 98.106 133.573 98.6603 133.363L4.63709 39.338ZM29.8514 6.09727C29.4158 6.41977 28.984 6.74872 28.5521 7.08049L130.922 109.448C131.254 109.016 131.583 108.584 131.902 108.149L29.8514 6.09727ZM15.0778 20.5511C14.7457 20.9838 14.4171 21.4157 14.0981 21.8536L116.149 123.902C116.583 123.58 117.019 123.254 117.447 122.922L15.0778 20.5511ZM9.26693 29.3576C8.99444 29.8461 8.72546 30.3376 8.46578 30.8322L107.167 129.535C107.661 129.271 108.156 129.005 108.644 128.73L9.26693 29.3576Z" fill="white"/>
<path d="M88.1164 -6.42502L144.428 49.8822C144.218 48.8894 143.987 47.897 143.736 46.9109L91.0908 -5.7332C90.1014 -5.98355 89.1121 -6.21539 88.1164 -6.42502ZM49.0145 -3.96747C48.4538 -3.77353 47.8966 -3.56999 47.3392 -3.36353L141.363 90.6617C141.573 90.1045 141.773 89.547 141.967 88.9866L49.0145 -3.96747ZM73.078 -8C72.6977 -8 72.3172 -7.99678 71.9367 -7.99038L145.993 66.0639C146.003 65.3035 146.003 64.5431 145.99 63.7821L74.2196 -7.99038C73.8387 -7.99678 73.4585 -8 73.078 -8ZM60.6414 -6.95461C59.9995 -6.84434 59.3577 -6.72569 58.7163 -6.59719L144.6 79.2818C144.725 78.6426 144.847 78.0012 144.957 77.3594L60.6414 -6.95461ZM12.0442 105.203C14.7114 109.239 17.8236 113.067 21.3763 116.621C24.9299 120.177 28.7618 123.286 32.7973 125.953L12.0442 105.203ZM0.00665045 63.9382C-0.00269456 64.6992 -0.00269456 65.4596 0.0098738 66.2207L71.7806 137.99C72.1893 137.997 72.5984 138 73.0078 138C73.3591 138 73.7108 137.998 74.0625 137.993L0.00665045 63.9382ZM21.9555 12.8156L21.3763 13.3788L20.8133 13.9552L124.047 117.184L124.623 116.621L125.187 116.044L21.9555 12.8156ZM1.57206 80.1173C1.78201 81.1133 2.0135 82.1026 2.26386 83.0884L54.9125 135.733C55.8986 135.986 56.8876 136.218 57.8837 136.425L1.57206 80.1173ZM1.39952 50.7177C1.27489 51.3566 1.15208 51.9984 1.04275 52.6402L85.3613 136.954C86.0031 136.844 86.6414 136.725 87.2832 136.597L1.39952 50.7177ZM38.8335 0.465463C38.3389 0.728293 37.8474 0.994727 37.3553 1.2704L136.733 100.645C137.008 100.153 137.274 99.6621 137.537 99.1675L38.8335 0.465463ZM113.203 4.0469L133.956 24.7964C131.288 20.7613 128.177 16.9324 124.623 13.3788C121.07 9.82622 117.241 6.71378 113.203 4.0469ZM4.63709 39.338C4.42744 39.8952 4.22678 40.4527 4.03283 41.013L96.9856 133.967C97.546 133.773 98.106 133.573 98.6603 133.363L4.63709 39.338ZM29.8514 6.09727C29.4158 6.41977 28.984 6.74872 28.5521 7.08049L130.922 109.448C131.254 109.016 131.583 108.584 131.902 108.149L29.8514 6.09727ZM15.0778 20.5511C14.7457 20.9838 14.4171 21.4157 14.0981 21.8536L116.149 123.902C116.583 123.58 117.019 123.254 117.447 122.922L15.0778 20.5511ZM9.26693 29.3576C8.99444 29.8461 8.72546 30.3376 8.46578 30.8322L107.167 129.535C107.661 129.271 108.156 129.005 108.644 128.73L9.26693 29.3576Z" fill="white"/>
<path d="M88.1164 -6.42502L144.428 49.8822C144.218 48.8894 143.987 47.897 143.736 46.9109L91.0908 -5.7332C90.1014 -5.98355 89.1121 -6.21539 88.1164 -6.42502ZM49.0145 -3.96747C48.4538 -3.77353 47.8966 -3.56999 47.3392 -3.36353L141.363 90.6617C141.573 90.1045 141.773 89.547 141.967 88.9866L49.0145 -3.96747ZM73.078 -8C72.6977 -8 72.3172 -7.99678 71.9367 -7.99038L145.993 66.0639C146.003 65.3035 146.003 64.5431 145.99 63.7821L74.2196 -7.99038C73.8387 -7.99678 73.4585 -8 73.078 -8ZM60.6414 -6.95461C59.9995 -6.84434 59.3577 -6.72569 58.7163 -6.59719L144.6 79.2818C144.725 78.6426 144.847 78.0012 144.957 77.3594L60.6414 -6.95461ZM12.0442 105.203C14.7114 109.239 17.8236 113.067 21.3763 116.621C24.9299 120.177 28.7618 123.286 32.7973 125.953L12.0442 105.203ZM0.00665045 63.9382C-0.00269456 64.6992 -0.00269456 65.4596 0.0098738 66.2207L71.7806 137.99C72.1893 137.997 72.5984 138 73.0078 138C73.3591 138 73.7108 137.998 74.0625 137.993L0.00665045 63.9382ZM21.9555 12.8156L21.3763 13.3788L20.8133 13.9552L124.047 117.184L124.623 116.621L125.187 116.044L21.9555 12.8156ZM1.57206 80.1173C1.78201 81.1133 2.0135 82.1026 2.26386 83.0884L54.9125 135.733C55.8986 135.986 56.8876 136.218 57.8837 136.425L1.57206 80.1173ZM1.39952 50.7177C1.27489 51.3566 1.15208 51.9984 1.04275 52.6402L85.3613 136.954C86.0031 136.844 86.6414 136.725 87.2832 136.597L1.39952 50.7177ZM38.8335 0.465463C38.3389 0.728293 37.8474 0.994727 37.3553 1.2704L136.733 100.645C137.008 100.153 137.274 99.6621 137.537 99.1675L38.8335 0.465463ZM113.203 4.0469L133.956 24.7964C131.288 20.7613 128.177 16.9324 124.623 13.3788C121.07 9.82622 117.241 6.71378 113.203 4.0469ZM4.63709 39.338C4.42744 39.8952 4.22678 40.4527 4.03283 41.013L96.9856 133.967C97.546 133.773 98.106 133.573 98.6603 133.363L4.63709 39.338ZM29.8514 6.09727C29.4158 6.41977 28.984 6.74872 28.5521 7.08049L130.922 109.448C131.254 109.016 131.583 108.584 131.902 108.149L29.8514 6.09727ZM15.0778 20.5511C14.7457 20.9838 14.4171 21.4157 14.0981 21.8536L116.149 123.902C116.583 123.58 117.019 123.254 117.447 122.922L15.0778 20.5511ZM9.26693 29.3576C8.99444 29.8461 8.72546 30.3376 8.46578 30.8322L107.167 129.535C107.661 129.271 108.156 129.005 108.644 128.73L9.26693 29.3576Z" fill="white"/>
<path d="M88.1164 -6.42502L144.428 49.8822C144.218 48.8894 143.987 47.897 143.736 46.9109L91.0908 -5.7332C90.1014 -5.98355 89.1121 -6.21539 88.1164 -6.42502ZM49.0145 -3.96747C48.4538 -3.77353 47.8966 -3.56999 47.3392 -3.36353L141.363 90.6617C141.573 90.1045 141.773 89.547 141.967 88.9866L49.0145 -3.96747ZM73.078 -8C72.6977 -8 72.3172 -7.99678 71.9367 -7.99038L145.993 66.0639C146.003 65.3035 146.003 64.5431 145.99 63.7821L74.2196 -7.99038C73.8387 -7.99678 73.4585 -8 73.078 -8ZM60.6414 -6.95461C59.9995 -6.84434 59.3577 -6.72569 58.7163 -6.59719L144.6 79.2818C144.725 78.6426 144.847 78.0012 144.957 77.3594L60.6414 -6.95461ZM12.0442 105.203C14.7114 109.239 17.8236 113.067 21.3763 116.621C24.9299 120.177 28.7618 123.286 32.7973 125.953L12.0442 105.203ZM0.00665045 63.9382C-0.00269456 64.6992 -0.00269456 65.4596 0.0098738 66.2207L71.7806 137.99C72.1893 137.997 72.5984 138 73.0078 138C73.3591 138 73.7108 137.998 74.0625 137.993L0.00665045 63.9382ZM21.9555 12.8156L21.3763 13.3788L20.8133 13.9552L124.047 117.184L124.623 116.621L125.187 116.044L21.9555 12.8156ZM1.57206 80.1173C1.78201 81.1133 2.0135 82.1026 2.26386 83.0884L54.9125 135.733C55.8986 135.986 56.8876 136.218 57.8837 136.425L1.57206 80.1173ZM1.39952 50.7177C1.27489 51.3566 1.15208 51.9984 1.04275 52.6402L85.3613 136.954C86.0031 136.844 86.6414 136.725 87.2832 136.597L1.39952 50.7177ZM38.8335 0.465463C38.3389 0.728293 37.8474 0.994727 37.3553 1.2704L136.733 100.645C137.008 100.153 137.274 99.6621 137.537 99.1675L38.8335 0.465463ZM113.203 4.0469L133.956 24.7964C131.288 20.7613 128.177 16.9324 124.623 13.3788C121.07 9.82622 117.241 6.71378 113.203 4.0469ZM4.63709 39.338C4.42744 39.8952 4.22678 40.4527 4.03283 41.013L96.9856 133.967C97.546 133.773 98.106 133.573 98.6603 133.363L4.63709 39.338ZM29.8514 6.09727C29.4158 6.41977 28.984 6.74872 28.5521 7.08049L130.922 109.448C131.254 109.016 131.583 108.584 131.902 108.149L29.8514 6.09727ZM15.0778 20.5511C14.7457 20.9838 14.4171 21.4157 14.0981 21.8536L116.149 123.902C116.583 123.58 117.019 123.254 117.447 122.922L15.0778 20.5511ZM9.26693 29.3576C8.99444 29.8461 8.72546 30.3376 8.46578 30.8322L107.167 129.535C107.661 129.271 108.156 129.005 108.644 128.73L9.26693 29.3576Z" fill="white"/>
<path d="M88.1164 -6.42502L144.428 49.8822C144.218 48.8894 143.987 47.897 143.736 46.9109L91.0908 -5.7332C90.1014 -5.98355 89.1121 -6.21539 88.1164 -6.42502ZM49.0145 -3.96747C48.4538 -3.77353 47.8966 -3.56999 47.3392 -3.36353L141.363 90.6617C141.573 90.1045 141.773 89.547 141.967 88.9866L49.0145 -3.96747ZM73.078 -8C72.6977 -8 72.3172 -7.99678 71.9367 -7.99038L145.993 66.0639C146.003 65.3035 146.003 64.5431 145.99 63.7821L74.2196 -7.99038C73.8387 -7.99678 73.4585 -8 73.078 -8ZM60.6414 -6.95461C59.9995 -6.84434 59.3577 -6.72569 58.7163 -6.59719L144.6 79.2818C144.725 78.6426 144.847 78.0012 144.957 77.3594L60.6414 -6.95461ZM12.0442 105.203C14.7114 109.239 17.8236 113.067 21.3763 116.621C24.9299 120.177 28.7618 123.286 32.7973 125.953L12.0442 105.203ZM0.00665045 63.9382C-0.00269456 64.6992 -0.00269456 65.4596 0.0098738 66.2207L71.7806 137.99C72.1893 137.997 72.5984 138 73.0078 138C73.3591 138 73.7108 137.998 74.0625 137.993L0.00665045 63.9382ZM21.9555 12.8156L21.3763 13.3788L20.8133 13.9552L124.047 117.184L124.623 116.621L125.187 116.044L21.9555 12.8156ZM1.57206 80.1173C1.78201 81.1133 2.0135 82.1026 2.26386 83.0884L54.9125 135.733C55.8986 135.986 56.8876 136.218 57.8837 136.425L1.57206 80.1173ZM1.39952 50.7177C1.27489 51.3566 1.15208 51.9984 1.04275 52.6402L85.3613 136.954C86.0031 136.844 86.6414 136.725 87.2832 136.597L1.39952 50.7177ZM38.8335 0.465463C38.3389 0.728293 37.8474 0.994727 37.3553 1.2704L136.733 100.645C137.008 100.153 137.274 99.6621 137.537 99.1675L38.8335 0.465463ZM113.203 4.0469L133.956 24.7964C131.288 20.7613 128.177 16.9324 124.623 13.3788C121.07 9.82622 117.241 6.71378 113.203 4.0469ZM4.63709 39.338C4.42744 39.8952 4.22678 40.4527 4.03283 41.013L96.9856 133.967C97.546 133.773 98.106 133.573 98.6603 133.363L4.63709 39.338ZM29.8514 6.09727C29.4158 6.41977 28.984 6.74872 28.5521 7.08049L130.922 109.448C131.254 109.016 131.583 108.584 131.902 108.149L29.8514 6.09727ZM15.0778 20.5511C14.7457 20.9838 14.4171 21.4157 14.0981 21.8536L116.149 123.902C116.583 123.58 117.019 123.254 117.447 122.922L15.0778 20.5511ZM9.26693 29.3576C8.99444 29.8461 8.72546 30.3376 8.46578 30.8322L107.167 129.535C107.661 129.271 108.156 129.005 108.644 128.73L9.26693 29.3576Z" fill="white"/>
<path d="M88.1164 -6.42502L144.428 49.8822C144.218 48.8894 143.987 47.897 143.736 46.9109L91.0908 -5.7332C90.1014 -5.98355 89.1121 -6.21539 88.1164 -6.42502ZM49.0145 -3.96747C48.4538 -3.77353 47.8966 -3.56999 47.3392 -3.36353L141.363 90.6617C141.573 90.1045 141.773 89.547 141.967 88.9866L49.0145 -3.96747ZM73.078 -8C72.6977 -8 72.3172 -7.99678 71.9367 -7.99038L145.993 66.0639C146.003 65.3035 146.003 64.5431 145.99 63.7821L74.2196 -7.99038C73.8387 -7.99678 73.4585 -8 73.078 -8ZM60.6414 -6.95461C59.9995 -6.84434 59.3577 -6.72569 58.7163 -6.59719L144.6 79.2818C144.725 78.6426 144.847 78.0012 144.957 77.3594L60.6414 -6.95461ZM12.0442 105.203C14.7114 109.239 17.8236 113.067 21.3763 116.621C24.9299 120.177 28.7618 123.286 32.7973 125.953L12.0442 105.203ZM0.00665045 63.9382C-0.00269456 64.6992 -0.00269456 65.4596 0.0098738 66.2207L71.7806 137.99C72.1893 137.997 72.5984 138 73.0078 138C73.3591 138 73.7108 137.998 74.0625 137.993L0.00665045 63.9382ZM21.9555 12.8156L21.3763 13.3788L20.8133 13.9552L124.047 117.184L124.623 116.621L125.187 116.044L21.9555 12.8156ZM1.57206 80.1173C1.78201 81.1133 2.0135 82.1026 2.26386 83.0884L54.9125 135.733C55.8986 135.986 56.8876 136.218 57.8837 136.425L1.57206 80.1173ZM1.39952 50.7177C1.27489 51.3566 1.15208 51.9984 1.04275 52.6402L85.3613 136.954C86.0031 136.844 86.6414 136.725 87.2832 136.597L1.39952 50.7177ZM38.8335 0.465463C38.3389 0.728293 37.8474 0.994727 37.3553 1.2704L136.733 100.645C137.008 100.153 137.274 99.6621 137.537 99.1675L38.8335 0.465463ZM113.203 4.0469L133.956 24.7964C131.288 20.7613 128.177 16.9324 124.623 13.3788C121.07 9.82622 117.241 6.71378 113.203 4.0469ZM4.63709 39.338C4.42744 39.8952 4.22678 40.4527 4.03283 41.013L96.9856 133.967C97.546 133.773 98.106 133.573 98.6603 133.363L4.63709 39.338ZM29.8514 6.09727C29.4158 6.41977 28.984 6.74872 28.5521 7.08049L130.922 109.448C131.254 109.016 131.583 108.584 131.902 108.149L29.8514 6.09727ZM15.0778 20.5511C14.7457 20.9838 14.4171 21.4157 14.0981 21.8536L116.149 123.902C116.583 123.58 117.019 123.254 117.447 122.922L15.0778 20.5511ZM9.26693 29.3576C8.99444 29.8461 8.72546 30.3376 8.46578 30.8322L107.167 129.535C107.661 129.271 108.156 129.005 108.644 128.73L9.26693 29.3576Z" fill="white"/>
<path d="M88.1164 -6.42502L144.428 49.8822C144.218 48.8894 143.987 47.897 143.736 46.9109L91.0908 -5.7332C90.1014 -5.98355 89.1121 -6.21539 88.1164 -6.42502ZM49.0145 -3.96747C48.4538 -3.77353 47.8966 -3.56999 47.3392 -3.36353L141.363 90.6617C141.573 90.1045 141.773 89.547 141.967 88.9866L49.0145 -3.96747ZM73.078 -8C72.6977 -8 72.3172 -7.99678 71.9367 -7.99038L145.993 66.0639C146.003 65.3035 146.003 64.5431 145.99 63.7821L74.2196 -7.99038C73.8387 -7.99678 73.4585 -8 73.078 -8ZM60.6414 -6.95461C59.9995 -6.84434 59.3577 -6.72569 58.7163 -6.59719L144.6 79.2818C144.725 78.6426 144.847 78.0012 144.957 77.3594L60.6414 -6.95461ZM12.0442 105.203C14.7114 109.239 17.8236 113.067 21.3763 116.621C24.9299 120.177 28.7618 123.286 32.7973 125.953L12.0442 105.203ZM0.00665045 63.9382C-0.00269456 64.6992 -0.00269456 65.4596 0.0098738 66.2207L71.7806 137.99C72.1893 137.997 72.5984 138 73.0078 138C73.3591 138 73.7108 137.998 74.0625 137.993L0.00665045 63.9382ZM21.9555 12.8156L21.3763 13.3788L20.8133 13.9552L124.047 117.184L124.623 116.621L125.187 116.044L21.9555 12.8156ZM1.57206 80.1173C1.78201 81.1133 2.0135 82.1026 2.26386 83.0884L54.9125 135.733C55.8986 135.986 56.8876 136.218 57.8837 136.425L1.57206 80.1173ZM1.39952 50.7177C1.27489 51.3566 1.15208 51.9984 1.04275 52.6402L85.3613 136.954C86.0031 136.844 86.6414 136.725 87.2832 136.597L1.39952 50.7177ZM38.8335 0.465463C38.3389 0.728293 37.8474 0.994727 37.3553 1.2704L136.733 100.645C137.008 100.153 137.274 99.6621 137.537 99.1675L38.8335 0.465463ZM113.203 4.0469L133.956 24.7964C131.288 20.7613 128.177 16.9324 124.623 13.3788C121.07 9.82622 117.241 6.71378 113.203 4.0469ZM4.63709 39.338C4.42744 39.8952 4.22678 40.4527 4.03283 41.013L96.9856 133.967C97.546 133.773 98.106 133.573 98.6603 133.363L4.63709 39.338ZM29.8514 6.09727C29.4158 6.41977 28.984 6.74872 28.5521 7.08049L130.922 109.448C131.254 109.016 131.583 108.584 131.902 108.149L29.8514 6.09727ZM15.0778 20.5511C14.7457 20.9838 14.4171 21.4157 14.0981 21.8536L116.149 123.902C116.583 123.58 117.019 123.254 117.447 122.922L15.0778 20.5511ZM9.26693 29.3576C8.99444 29.8461 8.72546 30.3376 8.46578 30.8322L107.167 129.535C107.661 129.271 108.156 129.005 108.644 128.73L9.26693 29.3576Z" fill="white"/>
<path d="M88.1164 -6.42502L144.428 49.8822C144.218 48.8894 143.987 47.897 143.736 46.9109L91.0908 -5.7332C90.1014 -5.98355 89.1121 -6.21539 88.1164 -6.42502ZM49.0145 -3.96747C48.4538 -3.77353 47.8966 -3.56999 47.3392 -3.36353L141.363 90.6617C141.573 90.1045 141.773 89.547 141.967 88.9866L49.0145 -3.96747ZM73.078 -8C72.6977 -8 72.3172 -7.99678 71.9367 -7.99038L145.993 66.0639C146.003 65.3035 146.003 64.5431 145.99 63.7821L74.2196 -7.99038C73.8387 -7.99678 73.4585 -8 73.078 -8ZM60.6414 -6.95461C59.9995 -6.84434 59.3577 -6.72569 58.7163 -6.59719L144.6 79.2818C144.725 78.6426 144.847 78.0012 144.957 77.3594L60.6414 -6.95461ZM12.0442 105.203C14.7114 109.239 17.8236 113.067 21.3763 116.621C24.9299 120.177 28.7618 123.286 32.7973 125.953L12.0442 105.203ZM0.00665045 63.9382C-0.00269456 64.6992 -0.00269456 65.4596 0.0098738 66.2207L71.7806 137.99C72.1893 137.997 72.5984 138 73.0078 138C73.3591 138 73.7108 137.998 74.0625 137.993L0.00665045 63.9382ZM21.9555 12.8156L21.3763 13.3788L20.8133 13.9552L124.047 117.184L124.623 116.621L125.187 116.044L21.9555 12.8156ZM1.57206 80.1173C1.78201 81.1133 2.0135 82.1026 2.26386 83.0884L54.9125 135.733C55.8986 135.986 56.8876 136.218 57.8837 136.425L1.57206 80.1173ZM1.39952 50.7177C1.27489 51.3566 1.15208 51.9984 1.04275 52.6402L85.3613 136.954C86.0031 136.844 86.6414 136.725 87.2832 136.597L1.39952 50.7177ZM38.8335 0.465463C38.3389 0.728293 37.8474 0.994727 37.3553 1.2704L136.733 100.645C137.008 100.153 137.274 99.6621 137.537 99.1675L38.8335 0.465463ZM113.203 4.0469L133.956 24.7964C131.288 20.7613 128.177 16.9324 124.623 13.3788C121.07 9.82622 117.241 6.71378 113.203 4.0469ZM4.63709 39.338C4.42744 39.8952 4.22678 40.4527 4.03283 41.013L96.9856 133.967C97.546 133.773 98.106 133.573 98.6603 133.363L4.63709 39.338ZM29.8514 6.09727C29.4158 6.41977 28.984 6.74872 28.5521 7.08049L130.922 109.448C131.254 109.016 131.583 108.584 131.902 108.149L29.8514 6.09727ZM15.0778 20.5511C14.7457 20.9838 14.4171 21.4157 14.0981 21.8536L116.149 123.902C116.583 123.58 117.019 123.254 117.447 122.922L15.0778 20.5511ZM9.26693 29.3576C8.99444 29.8461 8.72546 30.3376 8.46578 30.8322L107.167 129.535C107.661 129.271 108.156 129.005 108.644 128.73L9.26693 29.3576Z" fill="white"/>
<path d="M88.1164 -6.42502L144.428 49.8822C144.218 48.8894 143.987 47.897 143.736 46.9109L91.0908 -5.7332C90.1014 -5.98355 89.1121 -6.21539 88.1164 -6.42502ZM49.0145 -3.96747C48.4538 -3.77353 47.8966 -3.56999 47.3392 -3.36353L141.363 90.6617C141.573 90.1045 141.773 89.547 141.967 88.9866L49.0145 -3.96747ZM73.078 -8C72.6977 -8 72.3172 -7.99678 71.9367 -7.99038L145.993 66.0639C146.003 65.3035 146.003 64.5431 145.99 63.7821L74.2196 -7.99038C73.8387 -7.99678 73.4585 -8 73.078 -8ZM60.6414 -6.95461C59.9995 -6.84434 59.3577 -6.72569 58.7163 -6.59719L144.6 79.2818C144.725 78.6426 144.847 78.0012 144.957 77.3594L60.6414 -6.95461ZM12.0442 105.203C14.7114 109.239 17.8236 113.067 21.3763 116.621C24.9299 120.177 28.7618 123.286 32.7973 125.953L12.0442 105.203ZM0.00665045 63.9382C-0.00269456 64.6992 -0.00269456 65.4596 0.0098738 66.2207L71.7806 137.99C72.1893 137.997 72.5984 138 73.0078 138C73.3591 138 73.7108 137.998 74.0625 137.993L0.00665045 63.9382ZM21.9555 12.8156L21.3763 13.3788L20.8133 13.9552L124.047 117.184L124.623 116.621L125.187 116.044L21.9555 12.8156ZM1.57206 80.1173C1.78201 81.1133 2.0135 82.1026 2.26386 83.0884L54.9125 135.733C55.8986 135.986 56.8876 136.218 57.8837 136.425L1.57206 80.1173ZM1.39952 50.7177C1.27489 51.3566 1.15208 51.9984 1.04275 52.6402L85.3613 136.954C86.0031 136.844 86.6414 136.725 87.2832 136.597L1.39952 50.7177ZM38.8335 0.465463C38.3389 0.728293 37.8474 0.994727 37.3553 1.2704L136.733 100.645C137.008 100.153 137.274 99.6621 137.537 99.1675L38.8335 0.465463ZM113.203 4.0469L133.956 24.7964C131.288 20.7613 128.177 16.9324 124.623 13.3788C121.07 9.82622 117.241 6.71378 113.203 4.0469ZM4.63709 39.338C4.42744 39.8952 4.22678 40.4527 4.03283 41.013L96.9856 133.967C97.546 133.773 98.106 133.573 98.6603 133.363L4.63709 39.338ZM29.8514 6.09727C29.4158 6.41977 28.984 6.74872 28.5521 7.08049L130.922 109.448C131.254 109.016 131.583 108.584 131.902 108.149L29.8514 6.09727ZM15.0778 20.5511C14.7457 20.9838 14.4171 21.4157 14.0981 21.8536L116.149 123.902C116.583 123.58 117.019 123.254 117.447 122.922L15.0778 20.5511ZM9.26693 29.3576C8.99444 29.8461 8.72546 30.3376 8.46578 30.8322L107.167 129.535C107.661 129.271 108.156 129.005 108.644 128.73L9.26693 29.3576Z" fill="white"/>
<path d="M88.1164 -6.42502L144.428 49.8822C144.218 48.8894 143.987 47.897 143.736 46.9109L91.0908 -5.7332C90.1014 -5.98355 89.1121 -6.21539 88.1164 -6.42502ZM49.0145 -3.96747C48.4538 -3.77353 47.8966 -3.56999 47.3392 -3.36353L141.363 90.6617C141.573 90.1045 141.773 89.547 141.967 88.9866L49.0145 -3.96747ZM73.078 -8C72.6977 -8 72.3172 -7.99678 71.9367 -7.99038L145.993 66.0639C146.003 65.3035 146.003 64.5431 145.99 63.7821L74.2196 -7.99038C73.8387 -7.99678 73.4585 -8 73.078 -8ZM60.6414 -6.95461C59.9995 -6.84434 59.3577 -6.72569 58.7163 -6.59719L144.6 79.2818C144.725 78.6426 144.847 78.0012 144.957 77.3594L60.6414 -6.95461ZM12.0442 105.203C14.7114 109.239 17.8236 113.067 21.3763 116.621C24.9299 120.177 28.7618 123.286 32.7973 125.953L12.0442 105.203ZM0.00665045 63.9382C-0.00269456 64.6992 -0.00269456 65.4596 0.0098738 66.2207L71.7806 137.99C72.1893 137.997 72.5984 138 73.0078 138C73.3591 138 73.7108 137.998 74.0625 137.993L0.00665045 63.9382ZM21.9555 12.8156L21.3763 13.3788L20.8133 13.9552L124.047 117.184L124.623 116.621L125.187 116.044L21.9555 12.8156ZM1.57206 80.1173C1.78201 81.1133 2.0135 82.1026 2.26386 83.0884L54.9125 135.733C55.8986 135.986 56.8876 136.218 57.8837 136.425L1.57206 80.1173ZM1.39952 50.7177C1.27489 51.3566 1.15208 51.9984 1.04275 52.6402L85.3613 136.954C86.0031 136.844 86.6414 136.725 87.2832 136.597L1.39952 50.7177ZM38.8335 0.465463C38.3389 0.728293 37.8474 0.994727 37.3553 1.2704L136.733 100.645C137.008 100.153 137.274 99.6621 137.537 99.1675L38.8335 0.465463ZM113.203 4.0469L133.956 24.7964C131.288 20.7613 128.177 16.9324 124.623 13.3788C121.07 9.82622 117.241 6.71378 113.203 4.0469ZM4.63709 39.338C4.42744 39.8952 4.22678 40.4527 4.03283 41.013L96.9856 133.967C97.546 133.773 98.106 133.573 98.6603 133.363L4.63709 39.338ZM29.8514 6.09727C29.4158 6.41977 28.984 6.74872 28.5521 7.08049L130.922 109.448C131.254 109.016 131.583 108.584 131.902 108.149L29.8514 6.09727ZM15.0778 20.5511C14.7457 20.9838 14.4171 21.4157 14.0981 21.8536L116.149 123.902C116.583 123.58 117.019 123.254 117.447 122.922L15.0778 20.5511ZM9.26693 29.3576C8.99444 29.8461 8.72546 30.3376 8.46578 30.8322L107.167 129.535C107.661 129.271 108.156 129.005 108.644 128.73L9.26693 29.3576Z" fill="white"/>
<path d="M88.1164 -6.42502L144.428 49.8822C144.218 48.8894 143.987 47.897 143.736 46.9109L91.0908 -5.7332C90.1014 -5.98355 89.1121 -6.21539 88.1164 -6.42502ZM49.0145 -3.96747C48.4538 -3.77353 47.8966 -3.56999 47.3392 -3.36353L141.363 90.6617C141.573 90.1045 141.773 89.547 141.967 88.9866L49.0145 -3.96747ZM73.078 -8C72.6977 -8 72.3172 -7.99678 71.9367 -7.99038L145.993 66.0639C146.003 65.3035 146.003 64.5431 145.99 63.7821L74.2196 -7.99038C73.8387 -7.99678 73.4585 -8 73.078 -8ZM60.6414 -6.95461C59.9995 -6.84434 59.3577 -6.72569 58.7163 -6.59719L144.6 79.2818C144.725 78.6426 144.847 78.0012 144.957 77.3594L60.6414 -6.95461ZM12.0442 105.203C14.7114 109.239 17.8236 113.067 21.3763 116.621C24.9299 120.177 28.7618 123.286 32.7973 125.953L12.0442 105.203ZM0.00665045 63.9382C-0.00269456 64.6992 -0.00269456 65.4596 0.0098738 66.2207L71.7806 137.99C72.1893 137.997 72.5984 138 73.0078 138C73.3591 138 73.7108 137.998 74.0625 137.993L0.00665045 63.9382ZM21.9555 12.8156L21.3763 13.3788L20.8133 13.9552L124.047 117.184L124.623 116.621L125.187 116.044L21.9555 12.8156ZM1.57206 80.1173C1.78201 81.1133 2.0135 82.1026 2.26386 83.0884L54.9125 135.733C55.8986 135.986 56.8876 136.218 57.8837 136.425L1.57206 80.1173ZM1.39952 50.7177C1.27489 51.3566 1.15208 51.9984 1.04275 52.6402L85.3613 136.954C86.0031 136.844 86.6414 136.725 87.2832 136.597L1.39952 50.7177ZM38.8335 0.465463C38.3389 0.728293 37.8474 0.994727 37.3553 1.2704L136.733 100.645C137.008 100.153 137.274 99.6621 137.537 99.1675L38.8335 0.465463ZM113.203 4.0469L133.956 24.7964C131.288 20.7613 128.177 16.9324 124.623 13.3788C121.07 9.82622 117.241 6.71378 113.203 4.0469ZM4.63709 39.338C4.42744 39.8952 4.22678 40.4527 4.03283 41.013L96.9856 133.967C97.546 133.773 98.106 133.573 98.6603 133.363L4.63709 39.338ZM29.8514 6.09727C29.4158 6.41977 28.984 6.74872 28.5521 7.08049L130.922 109.448C131.254 109.016 131.583 108.584 131.902 108.149L29.8514 6.09727ZM15.0778 20.5511C14.7457 20.9838 14.4171 21.4157 14.0981 21.8536L116.149 123.902C116.583 123.58 117.019 123.254 117.447 122.922L15.0778 20.5511ZM9.26693 29.3576C8.99444 29.8461 8.72546 30.3376 8.46578 30.8322L107.167 129.535C107.661 129.271 108.156 129.005 108.644 128.73L9.26693 29.3576Z" fill="white"/>
<path d="M88.1164 -6.42502L144.428 49.8822C144.218 48.8894 143.987 47.897 143.736 46.9109L91.0908 -5.7332C90.1014 -5.98355 89.1121 -6.21539 88.1164 -6.42502ZM49.0145 -3.96747C48.4538 -3.77353 47.8966 -3.56999 47.3392 -3.36353L141.363 90.6617C141.573 90.1045 141.773 89.547 141.967 88.9866L49.0145 -3.96747ZM73.078 -8C72.6977 -8 72.3172 -7.99678 71.9367 -7.99038L145.993 66.0639C146.003 65.3035 146.003 64.5431 145.99 63.7821L74.2196 -7.99038C73.8387 -7.99678 73.4585 -8 73.078 -8ZM60.6414 -6.95461C59.9995 -6.84434 59.3577 -6.72569 58.7163 -6.59719L144.6 79.2818C144.725 78.6426 144.847 78.0012 144.957 77.3594L60.6414 -6.95461ZM12.0442 105.203C14.7114 109.239 17.8236 113.067 21.3763 116.621C24.9299 120.177 28.7618 123.286 32.7973 125.953L12.0442 105.203ZM0.00665045 63.9382C-0.00269456 64.6992 -0.00269456 65.4596 0.0098738 66.2207L71.7806 137.99C72.1893 137.997 72.5984 138 73.0078 138C73.3591 138 73.7108 137.998 74.0625 137.993L0.00665045 63.9382ZM21.9555 12.8156L21.3763 13.3788L20.8133 13.9552L124.047 117.184L124.623 116.621L125.187 116.044L21.9555 12.8156ZM1.57206 80.1173C1.78201 81.1133 2.0135 82.1026 2.26386 83.0884L54.9125 135.733C55.8986 135.986 56.8876 136.218 57.8837 136.425L1.57206 80.1173ZM1.39952 50.7177C1.27489 51.3566 1.15208 51.9984 1.04275 52.6402L85.3613 136.954C86.0031 136.844 86.6414 136.725 87.2832 136.597L1.39952 50.7177ZM38.8335 0.465463C38.3389 0.728293 37.8474 0.994727 37.3553 1.2704L136.733 100.645C137.008 100.153 137.274 99.6621 137.537 99.1675L38.8335 0.465463ZM113.203 4.0469L133.956 24.7964C131.288 20.7613 128.177 16.9324 124.623 13.3788C121.07 9.82622 117.241 6.71378 113.203 4.0469ZM4.63709 39.338C4.42744 39.8952 4.22678 40.4527 4.03283 41.013L96.9856 133.967C97.546 133.773 98.106 133.573 98.6603 133.363L4.63709 39.338ZM29.8514 6.09727C29.4158 6.41977 28.984 6.74872 28.5521 7.08049L130.922 109.448C131.254 109.016 131.583 108.584 131.902 108.149L29.8514 6.09727ZM15.0778 20.5511C14.7457 20.9838 14.4171 21.4157 14.0981 21.8536L116.149 123.902C116.583 123.58 117.019 123.254 117.447 122.922L15.0778 20.5511ZM9.26693 29.3576C8.99444 29.8461 8.72546 30.3376 8.46578 30.8322L107.167 129.535C107.661 129.271 108.156 129.005 108.644 128.73L9.26693 29.3576Z" fill="white"/>
<path d="M88.1164 -6.42502L144.428 49.8822C144.218 48.8894 143.987 47.897 143.736 46.9109L91.0908 -5.7332C90.1014 -5.98355 89.1121 -6.21539 88.1164 -6.42502ZM49.0145 -3.96747C48.4538 -3.77353 47.8966 -3.56999 47.3392 -3.36353L141.363 90.6617C141.573 90.1045 141.773 89.547 141.967 88.9866L49.0145 -3.96747ZM73.078 -8C72.6977 -8 72.3172 -7.99678 71.9367 -7.99038L145.993 66.0639C146.003 65.3035 146.003 64.5431 145.99 63.7821L74.2196 -7.99038C73.8387 -7.99678 73.4585 -8 73.078 -8ZM60.6414 -6.95461C59.9995 -6.84434 59.3577 -6.72569 58.7163 -6.59719L144.6 79.2818C144.725 78.6426 144.847 78.0012 144.957 77.3594L60.6414 -6.95461ZM12.0442 105.203C14.7114 109.239 17.8236 113.067 21.3763 116.621C24.9299 120.177 28.7618 123.286 32.7973 125.953L12.0442 105.203ZM0.00665045 63.9382C-0.00269456 64.6992 -0.00269456 65.4596 0.0098738 66.2207L71.7806 137.99C72.1893 137.997 72.5984 138 73.0078 138C73.3591 138 73.7108 137.998 74.0625 137.993L0.00665045 63.9382ZM21.9555 12.8156L21.3763 13.3788L20.8133 13.9552L124.047 117.184L124.623 116.621L125.187 116.044L21.9555 12.8156ZM1.57206 80.1173C1.78201 81.1133 2.0135 82.1026 2.26386 83.0884L54.9125 135.733C55.8986 135.986 56.8876 136.218 57.8837 136.425L1.57206 80.1173ZM1.39952 50.7177C1.27489 51.3566 1.15208 51.9984 1.04275 52.6402L85.3613 136.954C86.0031 136.844 86.6414 136.725 87.2832 136.597L1.39952 50.7177ZM38.8335 0.465463C38.3389 0.728293 37.8474 0.994727 37.3553 1.2704L136.733 100.645C137.008 100.153 137.274 99.6621 137.537 99.1675L38.8335 0.465463ZM113.203 4.0469L133.956 24.7964C131.288 20.7613 128.177 16.9324 124.623 13.3788C121.07 9.82622 117.241 6.71378 113.203 4.0469ZM4.63709 39.338C4.42744 39.8952 4.22678 40.4527 4.03283 41.013L96.9856 133.967C97.546 133.773 98.106 133.573 98.6603 133.363L4.63709 39.338ZM29.8514 6.09727C29.4158 6.41977 28.984 6.74872 28.5521 7.08049L130.922 109.448C131.254 109.016 131.583 108.584 131.902 108.149L29.8514 6.09727ZM15.0778 20.5511C14.7457 20.9838 14.4171 21.4157 14.0981 21.8536L116.149 123.902C116.583 123.58 117.019 123.254 117.447 122.922L15.0778 20.5511ZM9.26693 29.3576C8.99444 29.8461 8.72546 30.3376 8.46578 30.8322L107.167 129.535C107.661 129.271 108.156 129.005 108.644 128.73L9.26693 29.3576Z" fill="white"/>
<path d="M88.1164 -6.42502L144.428 49.8822C144.218 48.8894 143.987 47.897 143.736 46.9109L91.0908 -5.7332C90.1014 -5.98355 89.1121 -6.21539 88.1164 -6.42502ZM49.0145 -3.96747C48.4538 -3.77353 47.8966 -3.56999 47.3392 -3.36353L141.363 90.6617C141.573 90.1045 141.773 89.547 141.967 88.9866L49.0145 -3.96747ZM73.078 -8C72.6977 -8 72.3172 -7.99678 71.9367 -7.99038L145.993 66.0639C146.003 65.3035 146.003 64.5431 145.99 63.7821L74.2196 -7.99038C73.8387 -7.99678 73.4585 -8 73.078 -8ZM60.6414 -6.95461C59.9995 -6.84434 59.3577 -6.72569 58.7163 -6.59719L144.6 79.2818C144.725 78.6426 144.847 78.0012 144.957 77.3594L60.6414 -6.95461ZM12.0442 105.203C14.7114 109.239 17.8236 113.067 21.3763 116.621C24.9299 120.177 28.7618 123.286 32.7973 125.953L12.0442 105.203ZM0.00665045 63.9382C-0.00269456 64.6992 -0.00269456 65.4596 0.0098738 66.2207L71.7806 137.99C72.1893 137.997 72.5984 138 73.0078 138C73.3591 138 73.7108 137.998 74.0625 137.993L0.00665045 63.9382ZM21.9555 12.8156L21.3763 13.3788L20.8133 13.9552L124.047 117.184L124.623 116.621L125.187 116.044L21.9555 12.8156ZM1.57206 80.1173C1.78201 81.1133 2.0135 82.1026 2.26386 83.0884L54.9125 135.733C55.8986 135.986 56.8876 136.218 57.8837 136.425L1.57206 80.1173ZM1.39952 50.7177C1.27489 51.3566 1.15208 51.9984 1.04275 52.6402L85.3613 136.954C86.0031 136.844 86.6414 136.725 87.2832 136.597L1.39952 50.7177ZM38.8335 0.465463C38.3389 0.728293 37.8474 0.994727 37.3553 1.2704L136.733 100.645C137.008 100.153 137.274 99.6621 137.537 99.1675L38.8335 0.465463ZM113.203 4.0469L133.956 24.7964C131.288 20.7613 128.177 16.9324 124.623 13.3788C121.07 9.82622 117.241 6.71378 113.203 4.0469ZM4.63709 39.338C4.42744 39.8952 4.22678 40.4527 4.03283 41.013L96.9856 133.967C97.546 133.773 98.106 133.573 98.6603 133.363L4.63709 39.338ZM29.8514 6.09727C29.4158 6.41977 28.984 6.74872 28.5521 7.08049L130.922 109.448C131.254 109.016 131.583 108.584 131.902 108.149L29.8514 6.09727ZM15.0778 20.5511C14.7457 20.9838 14.4171 21.4157 14.0981 21.8536L116.149 123.902C116.583 123.58 117.019 123.254 117.447 122.922L15.0778 20.5511ZM9.26693 29.3576C8.99444 29.8461 8.72546 30.3376 8.46578 30.8322L107.167 129.535C107.661 129.271 108.156 129.005 108.644 128.73L9.26693 29.3576Z" fill="white"/>
<path d="M88.1164 -6.42502L144.428 49.8822C144.218 48.8894 143.987 47.897 143.736 46.9109L91.0908 -5.7332C90.1014 -5.98355 89.1121 -6.21539 88.1164 -6.42502ZM49.0145 -3.96747C48.4538 -3.77353 47.8966 -3.56999 47.3392 -3.36353L141.363 90.6617C141.573 90.1045 141.773 89.547 141.967 88.9866L49.0145 -3.96747ZM73.078 -8C72.6977 -8 72.3172 -7.99678 71.9367 -7.99038L145.993 66.0639C146.003 65.3035 146.003 64.5431 145.99 63.7821L74.2196 -7.99038C73.8387 -7.99678 73.4585 -8 73.078 -8ZM60.6414 -6.95461C59.9995 -6.84434 59.3577 -6.72569 58.7163 -6.59719L144.6 79.2818C144.725 78.6426 144.847 78.0012 144.957 77.3594L60.6414 -6.95461ZM12.0442 105.203C14.7114 109.239 17.8236 113.067 21.3763 116.621C24.9299 120.177 28.7618 123.286 32.7973 125.953L12.0442 105.203ZM0.00665045 63.9382C-0.00269456 64.6992 -0.00269456 65.4596 0.0098738 66.2207L71.7806 137.99C72.1893 137.997 72.5984 138 73.0078 138C73.3591 138 73.7108 137.998 74.0625 137.993L0.00665045 63.9382ZM21.9555 12.8156L21.3763 13.3788L20.8133 13.9552L124.047 117.184L124.623 116.621L125.187 116.044L21.9555 12.8156ZM1.57206 80.1173C1.78201 81.1133 2.0135 82.1026 2.26386 83.0884L54.9125 135.733C55.8986 135.986 56.8876 136.218 57.8837 136.425L1.57206 80.1173ZM1.39952 50.7177C1.27489 51.3566 1.15208 51.9984 1.04275 52.6402L85.3613 136.954C86.0031 136.844 86.6414 136.725 87.2832 136.597L1.39952 50.7177ZM38.8335 0.465463C38.3389 0.728293 37.8474 0.994727 37.3553 1.2704L136.733 100.645C137.008 100.153 137.274 99.6621 137.537 99.1675L38.8335 0.465463ZM113.203 4.0469L133.956 24.7964C131.288 20.7613 128.177 16.9324 124.623 13.3788C121.07 9.82622 117.241 6.71378 113.203 4.0469ZM4.63709 39.338C4.42744 39.8952 4.22678 40.4527 4.03283 41.013L96.9856 133.967C97.546 133.773 98.106 133.573 98.6603 133.363L4.63709 39.338ZM29.8514 6.09727C29.4158 6.41977 28.984 6.74872 28.5521 7.08049L130.922 109.448C131.254 109.016 131.583 108.584 131.902 108.149L29.8514 6.09727ZM15.0778 20.5511C14.7457 20.9838 14.4171 21.4157 14.0981 21.8536L116.149 123.902C116.583 123.58 117.019 123.254 117.447 122.922L15.0778 20.5511ZM9.26693 29.3576C8.99444 29.8461 8.72546 30.3376 8.46578 30.8322L107.167 129.535C107.661 129.271 108.156 129.005 108.644 128.73L9.26693 29.3576Z" fill="white"/>
</svg>
