<svg width="65" height="65" viewBox="0 0 65 65" fill="none" xmlns="http://www.w3.org/2000/svg">
<g clip-path="url(#clip0_17_567)">
<path d="M0 32.5008C0 50.4514 14.5496 65.0005 32.4995 65C50.4504 65.0005 65 50.4514 65 32.5008C65.0011 14.5501 50.4504 0 32.4995 0C14.5496 0 0 14.5506 0 32.5008Z" fill="#13A3BC" fill-opacity="0.8"/>
<path d="M64.9996 32.5004C64.9998 28.2177 64.1635 24.1324 62.6586 20.388C62.6457 20.3805 62.6334 20.372 62.6212 20.3633C62.5928 20.3234 62.5763 20.2778 62.5405 20.2419C62.5047 20.206 53.6815 11.3827 53.6455 11.3468C53.2969 10.9983 52.7322 10.9983 52.3836 11.3468L39.1783 24.552C39.1357 24.5047 35.0685 20.4468 34.9891 20.3899C34.8273 20.1645 34.5756 20.0081 34.2769 20.0081C33.7841 20.0081 33.3847 20.4071 33.3847 20.9003V28.8035C33.3763 28.7961 33.3665 28.7908 33.3579 28.7837C33.289 28.7178 21.3002 16.7138 21.226 16.6526C20.5579 16.0145 19.6941 15.6121 18.7606 15.5538C17.6296 15.4953 16.5261 15.9038 15.7258 16.7047L12.4721 19.9662C10.6649 21.7769 8.04828 27.5775 22.7417 42.3024C22.7757 42.3365 22.8071 42.3658 22.8411 42.3996C22.8765 42.4354 22.9084 42.469 22.9441 42.5047C22.9753 42.536 43.4229 62.9812 43.454 63.0125C43.4767 63.0353 43.4987 63.0577 43.5205 63.0802C56.0452 58.5663 64.9996 46.5816 64.9996 32.5004Z" fill="#13A3BC"/>
<path d="M47.9255 43.423L42.8315 39.4496C41.3941 38.3282 39.3913 38.3361 37.9611 39.4671L36.8283 40.3636C35.969 41.0434 34.7375 40.971 33.9624 40.1965L24.8511 31.0656C24.0756 30.2875 24.0033 29.0502 24.6833 28.1876L25.5782 27.0522C26.7067 25.6215 26.7139 23.6165 25.5957 22.177L21.6315 17.0726C20.937 16.1777 19.8909 15.6244 18.7617 15.5538C17.6307 15.4954 16.5271 15.9041 15.7267 16.7049L12.4731 19.9665C10.6659 21.7771 8.04925 27.5777 22.7428 42.3026C32.3185 51.8997 38.1618 53.9141 41.3775 53.9141H41.3779C43.3144 53.9141 44.4372 53.197 45.0376 52.5949L48.2916 49.3344C49.0907 48.5337 49.5088 47.4262 49.4384 46.2951C49.3684 45.1656 48.8168 44.1183 47.9255 43.423ZM47.0283 48.0741L43.7742 51.3347C43.4127 51.6971 42.703 52.1293 41.3776 52.1293C39.0215 52.1293 33.6318 50.689 24.0064 41.0422C12.9184 29.9308 11.5444 23.4226 13.7366 21.226L16.9903 17.9644C17.3964 17.5575 17.9466 17.3309 18.5174 17.3309C18.5619 17.3309 18.6063 17.3317 18.6512 17.3352C19.269 17.3736 19.8415 17.6767 20.2223 18.1665L24.1869 23.2709C24.8003 24.0612 24.7964 25.1618 24.1773 25.9469L23.2824 27.0822C22.0433 28.6541 22.1744 30.9083 23.5877 32.3251L32.6994 41.4568C34.1149 42.8745 36.3673 43.0044 37.9358 41.7628L39.0686 40.8663C39.8506 40.246 40.9473 40.2424 41.7336 40.8558L46.8276 44.8292C47.3169 45.2108 47.6193 45.7859 47.6576 46.4055C47.6963 47.0268 47.4667 47.6341 47.0283 48.0741Z" fill="#F6F6F6"/>
<path d="M53.6463 11.3469C53.2977 10.9983 52.7331 10.9983 52.3847 11.3469L35.1702 28.5614V20.9004C35.1702 20.4072 34.7707 20.0082 34.278 20.0082C33.7853 20.0082 33.3857 20.4072 33.3857 20.9004V30.7153C33.3857 31.2085 33.7853 31.6075 34.278 31.6075H43.2006C43.6934 31.6075 44.0928 31.2085 44.0928 30.7153C44.0928 30.222 43.6933 29.823 43.2006 29.823H36.432L53.6463 12.6086C53.9949 12.2601 53.9949 11.6955 53.6463 11.3469Z" fill="#F6F6F6"/>
</g>
<defs>
<clipPath id="clip0_17_567">
<rect width="65" height="65" fill="white"/>
</clipPath>
</defs>
</svg>
