<svg width="125" height="125" viewBox="0 0 125 125" fill="none" xmlns="http://www.w3.org/2000/svg">
<g clip-path="url(#clip0_1_21513)">
<path d="M0 62.5015C0 97.022 27.98 125.001 62.499 125C97.02 125.001 125 97.022 125 62.5015C125.002 27.981 97.02 0 62.499 0C27.98 0 0 27.9819 0 62.5015Z" fill="#13A3BC" fill-opacity="0.8"/>
<path d="M125 62.5012C125 54.2653 123.392 46.4089 120.498 39.2082C120.473 39.1938 120.449 39.1774 120.426 39.1606C120.371 39.0839 120.339 38.9963 120.271 38.9272C120.202 38.8581 103.234 21.8903 103.165 21.8212C102.495 21.1511 101.409 21.1511 100.738 21.8212L75.3434 47.2158C75.2614 47.1249 67.4398 39.3212 67.2872 39.2119C66.976 38.7783 66.4921 38.4775 65.9176 38.4775C64.9699 38.4775 64.2018 39.2448 64.2018 40.1933V55.3918C64.1857 55.3776 64.1669 55.3674 64.1503 55.3537C64.0177 55.227 40.9623 32.1423 40.8197 32.0246C39.5348 30.7975 37.8737 30.0236 36.0785 29.9116C33.9035 29.799 31.7814 30.5847 30.2423 32.1249L23.9852 38.3969C20.5099 41.8791 15.4779 53.0341 43.7345 81.3513C43.7999 81.4167 43.8602 81.4731 43.9257 81.538C43.9938 81.6069 44.0551 81.6716 44.1237 81.7402C44.1837 81.8005 83.506 121.118 83.5658 121.178C83.6095 121.222 83.6517 121.265 83.6937 121.309C107.78 112.628 125 89.5805 125 62.5012Z" fill="#13A3BC"/>
<path d="M92.1639 83.5063L82.3678 75.8652C79.6036 73.7087 75.7521 73.7238 73.0016 75.8989L70.8231 77.623C69.1708 78.9301 66.8024 78.791 65.3119 77.3015L47.7902 59.7421C46.2987 58.2458 46.1598 55.8664 47.4674 54.2075L49.1884 52.0241C51.3585 49.2727 51.3724 45.4169 49.222 42.6486L41.5985 32.8325C40.2631 31.1115 38.2513 30.0476 36.0797 29.9118C33.9047 29.7995 31.7824 30.5854 30.2433 32.1254L23.9862 38.3976C20.5109 41.8796 15.4789 53.0346 43.7357 81.3518C62.1505 99.8078 73.3876 103.682 79.5717 103.682H79.5724C83.2965 103.682 85.4557 102.302 86.6102 101.145L92.868 94.8745C94.4047 93.3347 95.2089 91.2048 95.0734 89.0297C94.9389 86.8576 93.8781 84.8434 92.1639 83.5063ZM90.4386 92.4509L84.1808 98.7211C83.4855 99.4182 82.1207 100.249 79.5719 100.249C75.0409 100.249 64.6762 97.4794 46.1657 78.9279C24.8427 57.5598 22.2003 45.0441 26.4161 40.8198L32.6732 34.5476C33.4542 33.7651 34.5123 33.3293 35.61 33.3293C35.6954 33.3293 35.7809 33.3308 35.8673 33.3376C37.0553 33.4113 38.1564 33.9943 38.8886 34.9362L46.5128 44.7524C47.6925 46.2722 47.6849 48.3886 46.4943 49.8984L44.7733 52.0817C42.3905 55.1047 42.6427 59.4396 45.3605 62.1643L62.8829 79.7253C65.6051 82.4516 69.9366 82.7014 72.953 80.3137L75.1315 78.5895C76.6354 77.3967 78.7443 77.3898 80.2565 78.5695L90.0526 86.2106C90.9935 86.9445 91.5751 88.0505 91.6488 89.2419C91.7233 90.4367 91.2816 91.6047 90.4386 92.4509Z" fill="#F6F6F6"/>
<path d="M103.166 21.8213C102.495 21.1509 101.41 21.1509 100.74 21.8213L67.6348 54.926V40.1934C67.6348 39.2449 66.8665 38.4775 65.9189 38.4775C64.9714 38.4775 64.2031 39.2449 64.2031 40.1934V59.0681C64.2031 60.0166 64.9714 60.7839 65.9189 60.7839H83.0779C84.0256 60.7839 84.7937 60.0166 84.7937 59.0681C84.7937 58.1196 84.0254 57.3523 83.0779 57.3523H70.0613L103.166 24.2476C103.836 23.5774 103.836 22.4917 103.166 21.8213Z" fill="#F6F6F6"/>
</g>
<defs>
<clipPath id="clip0_1_21513">
<rect width="125" height="125" fill="white"/>
</clipPath>
</defs>
</svg>
