<svg width="26" height="26" viewBox="0 0 26 26" fill="none" xmlns="http://www.w3.org/2000/svg">
<path fill-rule="evenodd" clip-rule="evenodd" d="M25.5 13.5C25.5 20.4035 19.9035 26 13 26C6.09644 26 0.5 20.4035 0.5 13.5C0.5 6.59644 6.09644 1 13 1C19.9035 1 25.5 6.59644 25.5 13.5ZM9.21204 9.71206C9.57815 9.34595 10.1717 9.34595 10.5379 9.71206L13 12.1741L15.462 9.71209C15.8281 9.34597 16.4217 9.34597 16.7879 9.71209C17.154 10.0782 17.154 10.6718 16.7879 11.0379L14.3257 13.5L16.7879 15.962C17.154 16.3281 17.154 16.9217 16.7879 17.2879C16.4217 17.654 15.8281 17.654 15.462 17.2879L13 14.8259L10.5379 17.2879C10.1718 17.654 9.57817 17.654 9.21206 17.2879C8.84595 16.9217 8.84595 16.3281 9.21206 15.9621L11.6741 13.5L9.21204 11.0379C8.84591 10.6718 8.84591 10.0782 9.21204 9.71206Z" fill="#1B5076"/>
</svg>
