<svg width="28" height="28" viewBox="0 0 28 28" fill="none" xmlns="http://www.w3.org/2000/svg">
<path fill-rule="evenodd" clip-rule="evenodd" d="M27.4621 14.5385C27.4621 21.973 21.4351 28 14.0006 28C6.56599 28 0.539062 21.973 0.539062 14.5385C0.539062 7.10386 6.56599 1.07692 14.0006 1.07692C21.4351 1.07692 27.4621 7.10386 27.4621 14.5385ZM9.92126 10.4591C10.3155 10.0649 10.9548 10.0649 11.3491 10.4591L14.0006 13.1106L16.652 10.4592C17.0463 10.0649 17.6856 10.0649 18.0798 10.4592C18.4741 10.8534 18.4741 11.4927 18.0798 11.8869L15.4283 14.5385L18.0798 17.1898C18.4741 17.5841 18.4741 18.2234 18.0798 18.6177C17.6856 19.012 17.0463 19.012 16.652 18.6177L14.0006 15.9663L11.3491 18.6177C10.9548 19.012 10.3156 19.012 9.92128 18.6177C9.52701 18.2234 9.52701 17.5841 9.92128 17.19L12.5727 14.5385L9.92126 11.8869C9.52697 11.4927 9.52697 10.8534 9.92126 10.4591Z" fill="#A5DEE9"/>
</svg>
