<svg width="128" height="31" viewBox="0 0 128 31" fill="none" xmlns="http://www.w3.org/2000/svg">
<path d="M27.4007 15.4998L0 -5.59506e-06L-1.35505e-06 31L27.4007 15.4998ZM77.7004 15.4998L50.2991 -3.39642e-06L50.2991 31L77.7004 15.4998ZM128 15.4998L100.599 -1.19772e-06L100.599 31L128 15.4998Z" fill="#497E8D"/>
<path d="M27.4007 15.4998L0 -5.59506e-06L-1.35505e-06 31L27.4007 15.4998ZM77.7004 15.4998L50.2991 -3.39642e-06L50.2991 31L77.7004 15.4998ZM128 15.4998L100.599 -1.19772e-06L100.599 31L128 15.4998Z" fill="#497E8D"/>
<path d="M27.4007 15.4998L0 -5.59506e-06L-1.35505e-06 31L27.4007 15.4998ZM77.7004 15.4998L50.2991 -3.39642e-06L50.2991 31L77.7004 15.4998ZM128 15.4998L100.599 -1.19772e-06L100.599 31L128 15.4998Z" fill="#497E8D"/>
</svg>
