<svg width="50" height="50" viewBox="0 0 50 50" fill="none" xmlns="http://www.w3.org/2000/svg">
<g clip-path="url(#clip0_30_33285)">
<path d="M33.8639 5.12867C35.8931 5.22129 37.2959 5.51948 38.5941 6.02402C39.8929 6.52877 40.8765 7.16863 41.854 8.14612C42.8314 9.12358 43.4712 10.107 43.9761 11.406C44.4806 12.7044 44.7787 14.107 44.8713 16.1362C44.9861 18.6528 45 19.5399 45 25C45 30.4601 44.9861 31.3472 44.8713 33.8638C44.7787 35.893 44.4806 37.2956 43.976 38.5944C43.4711 39.893 42.8313 40.8766 41.854 41.8538C40.8766 42.8313 39.893 43.4712 38.594 43.9761C37.2954 44.4806 35.8929 44.7787 33.8639 44.8712C31.3478 44.9861 30.4609 45 25 45C19.5391 45 18.6522 44.9861 16.1362 44.8712C14.1071 44.7787 12.7045 44.4806 11.4057 43.976C10.1069 43.4712 9.12332 42.8313 8.14604 41.8539C7.16862 40.8765 6.5287 39.8928 6.02386 38.594C5.51941 37.2956 5.22128 35.893 5.12867 33.8639C5.01392 31.3488 5 30.4624 5 25C5 19.5376 5.01392 18.6512 5.12867 16.1361C5.22128 14.107 5.51941 12.7044 6.02394 11.4058C6.52865 10.1072 7.16856 9.1236 8.14595 8.14621C9.12332 7.16873 10.1069 6.52883 11.4058 6.02402C12.7039 5.51949 14.1068 5.22129 16.1361 5.12867C18.6512 5.01392 19.5375 5 25 5C30.4625 5 31.3488 5.01392 33.8639 5.12867ZM25 9.44444C19.5993 9.44444 18.7733 9.45742 16.3387 9.5685C14.7936 9.63902 13.8659 9.83621 13.0158 10.1666C12.29 10.4487 11.8288 10.7487 11.2887 11.2888C10.7486 11.829 10.4486 12.2901 10.1666 13.0156C9.83617 13.8661 9.63901 14.7936 9.5685 16.3387C9.45742 18.7733 9.44444 19.5993 9.44444 25C9.44444 30.4007 9.45742 31.2267 9.5685 33.6613C9.63901 35.2064 9.83617 36.1339 10.1665 36.9841C10.4486 37.7098 10.7487 38.1711 11.2888 38.7113C11.8288 39.2513 12.29 39.5513 13.0155 39.8333C13.8662 40.1638 14.7937 40.361 16.3387 40.4314C18.7743 40.5426 19.6009 40.5556 25 40.5556C30.3991 40.5556 31.2257 40.5426 33.6613 40.4314C35.2063 40.361 36.1337 40.1638 36.9842 39.8334C37.71 39.5513 38.1712 39.2513 38.7113 38.7112C39.2512 38.1712 39.5513 37.7099 39.8334 36.9844C40.1638 36.1339 40.361 35.2064 40.4315 33.6613C40.5426 31.2251 40.5556 30.3984 40.5556 25C40.5556 19.6016 40.5426 18.7749 40.4315 16.3387C40.361 14.7936 40.1638 13.8661 39.8335 13.016C39.5514 12.2901 39.2513 11.8288 38.7113 11.2887C38.1713 10.7487 37.71 10.4487 36.9842 10.1666C36.134 9.8362 35.2064 9.63902 33.6613 9.5685C31.2267 9.45742 30.4007 9.44444 25 9.44444ZM25 35.3704C19.2726 35.3704 14.6296 30.7274 14.6296 25C14.6296 19.2726 19.2726 14.6296 25 14.6296C30.7274 14.6296 35.3704 19.2726 35.3704 25C35.3704 30.7274 30.7274 35.3704 25 35.3704ZM25 30.9259C28.2728 30.9259 30.9259 28.2728 30.9259 25C30.9259 21.7272 28.2728 19.0741 25 19.0741C21.7272 19.0741 19.0741 21.7272 19.0741 25C19.0741 28.2728 21.7272 30.9259 25 30.9259ZM35.3704 16.8519C34.1431 16.8519 33.1481 15.8569 33.1481 14.6296C33.1481 13.4023 34.1431 12.4074 35.3704 12.4074C36.5977 12.4074 37.5926 13.4023 37.5926 14.6296C37.5926 15.8569 36.5977 16.8519 35.3704 16.8519Z" fill="#497E8D"/>
</g>
<defs>
<clipPath id="clip0_30_33285">
<rect width="40" height="40" fill="white" transform="translate(5 5)"/>
</clipPath>
</defs>
</svg>
