<svg width="50" height="50" viewBox="0 0 50 50" fill="none" xmlns="http://www.w3.org/2000/svg">
<path fill-rule="evenodd" clip-rule="evenodd" d="M46.2602 9.80167C46.8828 6.76671 43.9018 4.24459 41.0119 5.36117L5.5872 19.048C2.3599 20.2949 2.2161 24.8078 5.35745 26.2576L13.072 29.8182L16.7419 42.6627C16.9325 43.3299 17.4619 43.8465 18.1336 44.0206C18.8053 44.1945 19.5189 44.0003 20.0096 43.5095L25.6627 37.8564L33.5816 43.7956C35.8803 45.5195 39.191 44.2639 39.7683 41.4491L46.2602 9.80167ZM6.99877 22.7014L42.4235 9.01464L35.9316 40.6623L26.654 33.7039C25.8744 33.1192 24.7834 33.1967 24.0942 33.8859L21.673 36.3071L22.4005 32.3061L36.6554 18.0512C37.3492 17.3575 37.4225 16.2575 36.8269 15.4778C36.2314 14.6981 35.151 14.4794 34.2991 14.9662L14.6127 26.2155L6.99877 22.7014ZM17.013 29.3549L18.2005 33.5112L18.6564 31.0036C18.7277 30.6117 18.9168 30.2508 19.1984 29.9692L23.5457 25.6221L17.013 29.3549Z" fill="#497E8D"/>
</svg>
