<svg width="50" height="50" viewBox="0 0 50 50" fill="none" xmlns="http://www.w3.org/2000/svg">
<path d="M43.1249 15.2191C40.9832 15.2167 38.9299 14.3648 37.4155 12.8504C35.9011 11.336 35.0492 9.2827 35.0468 7.14099C35.0468 6.55669 34.8147 5.99631 34.4015 5.58315C33.9884 5.16998 33.428 4.93787 32.8437 4.93787L25.4999 4.93787C24.9156 4.93787 24.3553 5.16998 23.9421 5.58315C23.5289 5.99631 23.2968 6.55669 23.2968 7.14099L23.2968 30.641C23.2966 31.1667 23.1553 31.6827 22.8876 32.1351C22.62 32.5876 22.2359 32.9599 21.7753 33.2133C21.3147 33.4667 20.7946 33.5919 20.2691 33.5758C19.7437 33.5596 19.2322 33.4028 18.7881 33.1216C18.3439 32.8404 17.9833 32.4452 17.744 31.9772C17.5046 31.5091 17.3952 30.9854 17.4273 30.4607C17.4593 29.936 17.6315 29.4295 17.926 28.9941C18.2205 28.5586 18.6264 28.2102 19.1015 27.9851C19.4779 27.8063 19.7958 27.5244 20.0184 27.1722C20.241 26.8199 20.3592 26.4118 20.3592 25.9951L20.3593 18.3504C20.3593 18.0284 20.2887 17.7103 20.1525 17.4185C20.0163 17.1267 19.8178 16.8683 19.5709 16.6616C19.3241 16.4548 19.0349 16.3046 18.7237 16.2217C18.4126 16.1387 18.087 16.125 17.77 16.1815C15.0194 16.6739 12.4663 17.9407 10.4104 19.8332C8.35447 21.7257 6.88105 24.1654 6.16306 26.866C5.44508 29.5665 5.51231 32.4158 6.35687 35.0795C7.20143 37.7431 8.78827 40.1106 10.9311 41.9041C13.074 43.6975 15.684 44.8425 18.4548 45.2046C21.2256 45.5668 24.0422 45.131 26.574 43.9485C29.1058 42.7661 31.2478 40.8859 32.7486 38.5288C34.2494 36.1717 35.0466 33.4353 35.0468 30.641L35.0467 25.2565C37.5885 26.3908 40.3415 26.9744 43.1249 26.9691C43.7092 26.9691 44.2696 26.737 44.6828 26.3238C45.0959 25.9107 45.3281 25.3503 45.3281 24.766L45.3281 17.4222C45.3281 16.8379 45.0959 16.2776 44.6828 15.8644C44.2696 15.4512 43.7092 15.2191 43.1249 15.2191ZM40.9218 22.4075C38.4695 22.0589 36.1387 21.1193 34.1302 19.6697C33.8011 19.433 33.413 19.2916 33.0087 19.2612C32.6044 19.2308 32.1996 19.3126 31.8388 19.4975C31.478 19.6824 31.1752 19.9633 30.9638 20.3092C30.7523 20.6552 30.6405 21.0527 30.6405 21.4582L30.6406 30.641C30.6391 32.4806 30.1442 34.2861 29.2073 35.8692C28.2704 37.4523 26.9259 38.7551 25.3141 39.6416C23.7022 40.5282 21.882 40.966 20.0433 40.9095C18.2046 40.8529 16.4148 40.3041 14.8604 39.3202C13.3061 38.3363 12.0442 36.9534 11.2063 35.3157C10.3685 33.678 9.9854 31.8455 10.097 30.0093C10.2086 28.1731 10.8108 26.4005 11.8409 24.8763C12.8709 23.3521 14.291 22.1323 15.9531 21.3439L15.953 24.7675C14.9517 25.5187 14.1591 26.5133 13.6504 27.6569C13.1417 28.8006 12.9337 30.0553 13.0463 31.3019C13.1589 32.5485 13.5882 33.7456 14.2936 34.7796C14.9989 35.8137 15.9569 36.6502 17.0765 37.2098C18.1961 37.7695 19.4402 38.0337 20.6906 37.9773C21.941 37.9209 23.1562 37.5458 24.2209 36.8877C25.2856 36.2296 26.1644 35.3102 26.7738 34.2169C27.3833 33.1236 27.7031 31.8927 27.7031 30.641L27.7031 9.34412L30.8352 9.34412C31.2897 11.8523 32.499 14.1621 34.3014 15.9645C36.1039 17.767 38.4136 18.9763 40.9218 19.4308L40.9218 22.4075Z" fill="#497E8D"/>
</svg>
