<svg width="64" height="64" viewBox="0 0 64 64" fill="none" xmlns="http://www.w3.org/2000/svg">
<path fill-rule="evenodd" clip-rule="evenodd" d="M27.6951 22.2851C27.0772 21.9144 26.3076 21.9047 25.6806 22.2597C25.0536 22.6147 24.666 23.2795 24.666 24.0001L24.666 40C24.666 40.7205 25.0536 41.3856 25.6806 41.7405C26.3076 42.0955 27.0772 42.0858 27.6951 41.7152L41.0284 33.7152C41.6308 33.3536 41.9993 32.7027 41.9993 32C41.9993 31.2976 41.6308 30.6467 41.0284 30.2851L27.6951 22.2851ZM36.1121 32L28.666 36.4677L28.666 27.5325L36.1121 32Z" fill="#497E8D"/>
<path fill-rule="evenodd" clip-rule="evenodd" d="M45.4149 12.3768C36.485 11.6782 27.5143 11.6782 18.5847 12.3768L12.6095 12.8443C8.97599 13.1285 6.00349 15.8518 5.40285 19.4465C4.01415 27.7578 4.01415 36.2421 5.40285 44.5536C6.00349 48.1482 8.97599 50.8714 12.6095 51.1557L18.5847 51.6232C27.5143 52.3218 36.485 52.3218 45.4149 51.6232L51.3901 51.1557C55.0234 50.8714 57.9959 48.1482 58.5967 44.5536C59.9853 36.2421 59.9853 27.7578 58.5967 19.4465C57.9959 15.8518 55.0234 13.1285 51.3901 12.8443L45.4149 12.3768ZM18.8967 16.3646C27.6189 15.6822 36.3807 15.6822 45.1029 16.3646L51.0781 16.8321C52.8797 16.973 54.3535 18.3233 54.6514 20.1057C55.9671 27.9808 55.9671 36.0194 54.6514 43.8944C54.3535 45.6768 52.8797 47.0272 51.0781 47.168L45.1029 47.6354C36.3807 48.3178 27.6186 48.3178 18.8967 47.6354L12.9215 47.168C11.1199 47.0272 9.64597 45.6768 9.34815 43.8944C8.03239 36.0194 8.03239 27.9808 9.34815 20.1057C9.64597 18.3233 11.1199 16.973 12.9215 16.8321L18.8967 16.3646Z" fill="#497E8D"/>
</svg>
